<svg width="1284" height="1086" viewBox="0 0 1284 1086" fill="none" xmlns="http://www.w3.org/2000/svg">
<path d="M24.0625 282V0.164062H210.781V48.7969H83.0469V116.375H203.555V162.469H83.0469V233.367H210.781V282H24.0625ZM371.523 286.883C347.435 286.883 326.536 282.521 308.828 273.797C291.25 265.073 277.578 252.898 267.812 237.273C258.177 221.518 253.359 203.224 253.359 182.391V0.164062H312.344V177.117C312.344 189.227 314.622 199.773 319.18 208.758C323.867 217.612 330.573 224.513 339.297 229.461C348.151 234.409 358.893 236.883 371.523 236.883C384.154 236.883 394.831 234.409 403.555 229.461C412.409 224.513 419.115 217.612 423.672 208.758C428.229 199.773 430.508 189.227 430.508 177.117V0.164062H489.492V182.391C489.492 203.224 484.674 221.518 475.039 237.273C465.534 252.898 451.927 265.073 434.219 273.797C416.641 282.521 395.742 286.883 371.523 286.883ZM536.562 282V0.164062H652.969C674.062 0.164062 692.096 3.74479 707.07 10.9062C722.174 18.0677 733.698 28.4193 741.641 41.9609C749.714 55.3724 753.75 71.5182 753.75 90.3984V90.7891C753.75 109.279 749.128 125.75 739.883 140.203C730.768 154.656 718.398 164.943 702.773 171.062L762.148 282H695.352L642.812 179.852C642.422 179.852 641.966 179.852 641.445 179.852C640.924 179.852 640.404 179.852 639.883 179.852H595.547V282H536.562ZM595.547 135.125H646.523C661.237 135.125 672.695 131.219 680.898 123.406C689.232 115.464 693.398 104.591 693.398 90.7891V90.3984C693.398 76.8568 689.102 66.1146 680.508 58.1719C671.914 50.2292 660.326 46.2578 645.742 46.2578H595.547V135.125Z" fill="#5CA346"/>
<path d="M738.325 832.052C725.142 832.052 713.301 829.977 702.803 825.826C692.386 821.676 683.516 815.654 676.191 807.76C668.867 799.785 663.252 790.141 659.346 778.829C655.439 767.517 653.486 754.7 653.486 740.377V740.255C653.486 721.375 656.904 705.221 663.74 691.793C670.576 678.284 680.26 667.908 692.793 660.665C705.407 653.422 720.299 649.801 737.471 649.801C751.631 649.801 764.123 652.324 774.946 657.369C785.77 662.333 794.559 669.169 801.313 677.877C808.149 686.585 812.544 696.472 814.497 707.54L814.863 709.249H777.876L777.388 708.028C774.458 699.483 769.575 692.851 762.739 688.131C755.903 683.411 747.521 681.051 737.593 681.051C727.909 681.051 719.567 683.37 712.568 688.009C705.651 692.566 700.321 699.239 696.577 708.028C692.915 716.817 691.084 727.438 691.084 739.889V740.011C691.084 749.532 692.183 758.077 694.38 765.646C696.577 773.132 699.751 779.48 703.901 784.688C708.133 789.897 713.179 793.884 719.038 796.651C724.979 799.418 731.611 800.802 738.936 800.802C746.911 800.802 753.95 799.337 760.054 796.407C766.239 793.396 771.081 789.205 774.58 783.834C778.161 778.382 780.114 772.034 780.439 764.791L780.562 762.228H740.278V734.762H816.45V755.025C816.45 766.988 814.66 777.73 811.079 787.252C807.58 796.773 802.453 804.871 795.698 811.544C789.025 818.217 780.846 823.303 771.162 826.803C761.478 830.302 750.532 832.052 738.325 832.052ZM859.297 829V801.534H909.468C920.047 801.534 928.145 799.418 933.76 795.187C939.375 790.873 942.183 784.648 942.183 776.51V776.266C942.183 770.895 940.881 766.378 938.276 762.716C935.672 758.972 931.807 756.165 926.68 754.293C921.634 752.421 915.368 751.485 907.881 751.485H859.297V726.461H903.486C913.903 726.461 921.797 724.386 927.168 720.235C932.62 716.004 935.347 710.104 935.347 702.535V702.291C935.347 695.292 932.946 689.881 928.145 686.056C923.343 682.149 916.629 680.196 908.003 680.196H859.297V652.853H917.524C928.674 652.853 938.276 654.643 946.333 658.224C954.39 661.804 960.615 666.931 965.01 673.604C969.404 680.196 971.602 688.009 971.602 697.042V697.286C971.602 703.715 970.096 709.697 967.085 715.23C964.155 720.683 960.127 725.24 955 728.902C949.873 732.483 944.054 734.721 937.544 735.616V736.349C945.763 736.918 953.047 739.116 959.395 742.94C965.742 746.684 970.706 751.648 974.287 757.833C977.949 763.937 979.78 770.854 979.78 778.585V778.829C979.78 789.083 977.298 797.953 972.334 805.44C967.451 812.927 960.452 818.746 951.338 822.896C942.305 826.965 931.481 829 918.867 829H859.297ZM840.864 829V652.853H877.729V829H840.864ZM1019.33 773.458V744.649H1062.54C1073.12 744.649 1081.34 741.964 1087.2 736.593C1093.14 731.14 1096.11 723.409 1096.11 713.399V713.155C1096.11 703.146 1093.14 695.455 1087.2 690.084C1081.34 684.713 1073.12 682.027 1062.54 682.027H1019.33V652.853H1071.58C1083.95 652.853 1094.77 655.375 1104.05 660.421C1113.33 665.385 1120.53 672.384 1125.65 681.417C1130.86 690.45 1133.47 700.989 1133.47 713.033V713.277C1133.47 725.403 1130.86 735.982 1125.65 745.016C1120.53 754.049 1113.33 761.048 1104.05 766.012C1094.77 770.976 1083.95 773.458 1071.58 773.458H1019.33ZM1000.78 829V652.853H1037.64V829H1000.78Z" fill="#5CA346"/>
<path d="M1037.28 571V486.449H1052.75L1098.74 552.602L1083.92 541.41H1091.3V486.449H1108.94V571H1093.59L1047.53 504.438L1062.36 515.629H1054.91V571H1037.28ZM1121.24 571V559.457L1164.25 501.391V501.039H1122.24V486.449H1185.34V497.934L1142.51 556.059V556.41H1186.52V571H1121.24ZM1198.76 571V486.449H1231.05C1239.52 486.449 1246.75 488.07 1252.73 491.312C1258.74 494.555 1263.35 499.301 1266.55 505.551C1269.76 511.762 1271.36 519.34 1271.36 528.285V528.402C1271.36 537.348 1269.76 545.004 1266.55 551.371C1263.39 557.738 1258.8 562.602 1252.79 565.961C1246.77 569.32 1239.52 571 1231.05 571H1198.76ZM1216.46 556.352H1228.94C1234.21 556.352 1238.66 555.297 1242.3 553.188C1245.93 551.078 1248.66 547.953 1250.5 543.812C1252.38 539.672 1253.31 534.555 1253.31 528.461V528.344C1253.31 522.445 1252.36 517.465 1250.44 513.402C1248.57 509.34 1245.81 506.273 1242.18 504.203C1238.55 502.094 1234.13 501.039 1228.94 501.039H1216.46V556.352Z" fill="#5CA346"/>
<path d="M191.004 779V709.039H166.57V694.449H233.191V709.039H208.699V779H191.004ZM242.977 779V694.449H260.672V728.785H298.758V694.449H316.453V779H298.758V743.375H260.672V779H242.977ZM339.363 779V765.816H363.445C368.523 765.816 372.41 764.801 375.105 762.77C377.801 760.699 379.148 757.711 379.148 753.805V753.688C379.148 751.109 378.523 748.941 377.273 747.184C376.023 745.387 374.168 744.039 371.707 743.141C369.285 742.242 366.277 741.793 362.684 741.793H339.363V729.781H360.574C365.574 729.781 369.363 728.785 371.941 726.793C374.559 724.762 375.867 721.93 375.867 718.297V718.18C375.867 714.82 374.715 712.223 372.41 710.387C370.105 708.512 366.883 707.574 362.742 707.574H339.363V694.449H367.312C372.664 694.449 377.273 695.309 381.141 697.027C385.008 698.746 387.996 701.207 390.105 704.41C392.215 707.574 393.27 711.324 393.27 715.66V715.777C393.27 718.863 392.547 721.734 391.102 724.391C389.695 727.008 387.762 729.195 385.301 730.953C382.84 732.672 380.047 733.746 376.922 734.176V734.527C380.867 734.801 384.363 735.855 387.41 737.691C390.457 739.488 392.84 741.871 394.559 744.84C396.316 747.77 397.195 751.09 397.195 754.801V754.918C397.195 759.84 396.004 764.098 393.621 767.691C391.277 771.285 387.918 774.078 383.543 776.07C379.207 778.023 374.012 779 367.957 779H339.363ZM330.516 779V694.449H348.211V779H330.516Z" fill="#5CA346"/>
<path d="M286.979 653L346.275 559.001L338.526 586.516V571.018L287.315 490.944H327.184L361.661 549.343H377.271L355.26 562.482L397.149 490.944H434.996L381.876 571.579V587.189L373.902 559.675L434.322 653H395.689L360.089 596.174H344.479L366.939 583.483L323.59 653H286.979ZM441.397 653L497.999 490.944H527.872V522.39H517.54L476.998 653H441.397ZM471.832 613.693L480.143 588.312H555.724L564.034 613.693H471.832ZM558.756 653L518.214 522.39V490.944H537.867L594.356 653H558.756ZM674.43 655.808C660.579 655.808 648.562 653.299 638.38 648.283C628.272 643.267 620.411 636.267 614.796 627.282C609.256 618.223 606.485 607.704 606.485 595.725V490.944H640.401V592.692C640.401 599.655 641.712 605.72 644.332 610.886C647.027 615.977 650.883 619.945 655.899 622.79C660.991 625.635 667.167 627.058 674.43 627.058C681.692 627.058 687.831 625.635 692.848 622.79C697.939 619.945 701.795 615.977 704.415 610.886C707.035 605.72 708.346 599.655 708.346 592.692V490.944H742.262V595.725C742.262 607.704 739.492 618.223 733.951 627.282C728.486 636.267 720.662 643.267 710.479 648.283C700.372 653.299 688.355 655.808 674.43 655.808Z" fill="#5CA346"/>
<path d="M162.178 430.197C149.814 430.197 139.092 427.561 130.01 422.287C120.986 417.014 114.014 409.484 109.092 399.699C104.229 389.855 101.797 378.137 101.797 364.543V364.455C101.797 350.803 104.258 339.113 109.18 329.387C114.102 319.602 121.074 312.102 130.098 306.887C139.121 301.613 149.814 298.977 162.178 298.977C172.432 298.977 181.572 300.969 189.6 304.953C197.627 308.938 204.072 314.416 208.936 321.389C213.799 328.303 216.641 336.271 217.461 345.295L217.549 346.086H191.709L191.357 344.592C190.361 339.904 188.574 335.832 185.996 332.375C183.418 328.918 180.107 326.252 176.064 324.377C172.08 322.443 167.451 321.477 162.178 321.477C155.381 321.477 149.492 323.205 144.512 326.662C139.531 330.119 135.664 335.07 132.91 341.516C130.215 347.902 128.867 355.52 128.867 364.367V364.455C128.867 373.361 130.215 381.066 132.91 387.57C135.664 394.016 139.531 398.996 144.512 402.512C149.551 405.969 155.439 407.697 162.178 407.697C167.275 407.697 171.816 406.76 175.801 404.885C179.844 403.01 183.213 400.314 185.908 396.799C188.604 393.225 190.508 388.918 191.621 383.879L191.797 383H217.637L217.549 383.967C216.729 392.932 213.857 400.9 208.936 407.873C204.072 414.846 197.627 420.324 189.6 424.309C181.572 428.234 172.432 430.197 162.178 430.197ZM221.592 428L265.889 301.174H289.268V325.783H281.182L249.453 428H221.592ZM245.41 397.238L251.914 377.375H311.064L317.568 397.238H245.41ZM313.438 428L281.709 325.783V301.174H297.09L341.299 428H313.438ZM354.307 428V301.174H402.734C415.449 301.174 426.289 303.605 435.254 308.469C444.277 313.332 451.191 320.451 455.996 329.826C460.801 339.143 463.203 350.51 463.203 363.928V364.104C463.203 377.521 460.801 389.006 455.996 398.557C451.25 408.107 444.365 415.402 435.342 420.441C426.318 425.48 415.449 428 402.734 428H354.307ZM380.85 406.027H399.57C407.48 406.027 414.16 404.445 419.609 401.281C425.059 398.117 429.16 393.43 431.914 387.219C434.727 381.008 436.133 373.332 436.133 364.191V364.016C436.133 355.168 434.697 347.697 431.826 341.604C429.014 335.51 424.883 330.91 419.434 327.805C413.984 324.641 407.363 323.059 399.57 323.059H380.85V406.027Z" fill="#5CA346"/>
<path d="M738.424 360.221C734.778 360.221 731.507 359.716 728.609 358.707C725.745 357.665 723.287 356.184 721.236 354.264C719.186 352.343 717.607 350.048 716.5 347.379C715.393 344.677 714.791 341.666 714.693 338.346L714.645 337.906H728.951L729 338.199C729.098 340.022 729.505 341.633 730.221 343.033C730.969 344.433 732.011 345.523 733.346 346.305C734.713 347.086 736.357 347.477 738.277 347.477C741.37 347.477 743.73 346.549 745.357 344.693C746.985 342.838 747.799 340.136 747.799 336.588V288.541H762.545V336.734C762.545 341.65 761.585 345.865 759.664 349.381C757.776 352.896 755.042 355.582 751.461 357.438C747.88 359.293 743.535 360.221 738.424 360.221ZM782.271 336.783V325.26H799.557C803.788 325.26 807.076 324.186 809.42 322.037C811.796 319.856 812.984 316.764 812.984 312.76V312.662C812.984 308.658 811.796 305.582 809.42 303.434C807.076 301.285 803.788 300.211 799.557 300.211H782.271V288.541H803.17C808.118 288.541 812.447 289.55 816.158 291.568C819.869 293.554 822.75 296.354 824.801 299.967C826.884 303.58 827.926 307.796 827.926 312.613V312.711C827.926 317.561 826.884 321.793 824.801 325.406C822.75 329.02 819.869 331.819 816.158 333.805C812.447 335.79 808.118 336.783 803.17 336.783H782.271ZM774.85 359V288.541H789.596V359H774.85ZM854.244 359V332.682L829.732 288.541H845.65L861.471 318.619H861.812L877.584 288.541H893.551L868.99 332.682V359H854.244Z" fill="#5CA346"/>
<path d="M98.3047 529V458.541H111.195L149.525 513.668L137.172 504.342H143.324V458.541H158.021V529H145.229L106.85 473.531L119.203 482.857H113.002V529H98.3047ZM201.576 530.221C194.61 530.221 188.572 528.74 183.461 525.777C178.383 522.815 174.46 518.616 171.693 513.18C168.959 507.711 167.592 501.249 167.592 493.795V493.697C167.592 486.21 168.975 479.749 171.742 474.312C174.509 468.876 178.432 464.693 183.51 461.764C188.62 458.801 194.643 457.32 201.576 457.32C208.542 457.32 214.564 458.801 219.643 461.764C224.721 464.726 228.643 468.925 231.41 474.361C234.177 479.765 235.561 486.21 235.561 493.697V493.795C235.561 501.249 234.177 507.711 231.41 513.18C228.643 518.616 224.721 522.815 219.643 525.777C214.597 528.74 208.575 530.221 201.576 530.221ZM201.576 517.721C205.482 517.721 208.852 516.744 211.684 514.791C214.516 512.805 216.697 510.022 218.227 506.441C219.757 502.861 220.521 498.645 220.521 493.795V493.697C220.521 488.782 219.74 484.55 218.178 481.002C216.648 477.421 214.451 474.671 211.586 472.75C208.754 470.797 205.417 469.82 201.576 469.82C197.735 469.82 194.382 470.781 191.518 472.701C188.686 474.622 186.488 477.372 184.926 480.953C183.396 484.501 182.631 488.749 182.631 493.697V493.795C182.631 498.678 183.396 502.91 184.926 506.49C186.488 510.071 188.686 512.838 191.518 514.791C194.35 516.744 197.702 517.721 201.576 517.721ZM259.242 508.15V490.768H260.17L286 458.541H302.406L276.527 490.377H273.646L259.242 508.15ZM245.082 529V458.541H259.828V529H245.082ZM286.586 529L263.979 495.602L274.623 485.934L304.213 529H286.586Z" fill="#5CA346"/>
<path d="M95.9941 957V914.725H103.729L126.727 947.801L119.314 942.205H123.006V914.725H131.824V957H124.148L101.121 923.719L108.533 929.314H104.812V957H95.9941ZM136.189 957L150.955 914.725H158.748V922.928H156.053L145.477 957H136.189ZM144.129 946.746L146.297 940.125H166.014L168.182 946.746H144.129ZM166.805 957L156.229 922.928V914.725H161.355L176.092 957H166.805ZM194.988 957.732C191.648 957.732 188.729 957.244 186.229 956.268C183.748 955.271 181.795 953.855 180.369 952.02C178.943 950.164 178.143 947.938 177.967 945.34L177.938 944.871H186.287L186.346 945.193C186.541 946.287 187.029 947.234 187.811 948.035C188.611 948.816 189.646 949.432 190.916 949.881C192.186 950.311 193.621 950.525 195.223 950.525C196.863 950.525 198.27 950.311 199.441 949.881C200.633 949.432 201.551 948.807 202.195 948.006C202.859 947.186 203.191 946.238 203.191 945.164V945.135C203.191 943.709 202.625 942.596 201.492 941.795C200.379 940.975 198.504 940.291 195.867 939.744L191.414 938.865C187.254 938.025 184.119 936.609 182.01 934.617C179.9 932.625 178.846 930.037 178.846 926.854V926.824C178.846 924.246 179.539 922 180.926 920.086C182.312 918.152 184.217 916.658 186.639 915.604C189.061 914.529 191.834 913.992 194.959 913.992C198.221 913.992 201.033 914.5 203.396 915.516C205.779 916.531 207.635 917.967 208.963 919.822C210.291 921.678 211.023 923.836 211.16 926.297L211.189 926.854H202.84L202.811 926.502C202.654 925.389 202.234 924.441 201.551 923.66C200.867 922.859 199.959 922.244 198.826 921.814C197.713 921.385 196.424 921.17 194.959 921.17C193.455 921.17 192.156 921.395 191.062 921.844C189.969 922.273 189.129 922.869 188.543 923.631C187.977 924.393 187.693 925.281 187.693 926.297V926.326C187.693 927.654 188.26 928.729 189.393 929.549C190.525 930.369 192.303 931.023 194.725 931.512L199.207 932.42C202.156 933.006 204.578 933.816 206.473 934.852C208.367 935.887 209.764 937.195 210.662 938.777C211.58 940.34 212.039 942.225 212.039 944.432V944.461C212.039 947.176 211.355 949.529 209.988 951.521C208.641 953.494 206.688 955.027 204.129 956.121C201.59 957.195 198.543 957.732 194.988 957.732ZM227.508 957V922.84H227.332L216.551 930.164V922.312L227.479 914.725H236.268V957H227.508ZM262.459 957.732C258.885 957.732 255.809 956.844 253.23 955.066C250.652 953.289 248.67 950.77 247.283 947.508C245.916 944.227 245.232 940.35 245.232 935.877V935.818C245.232 931.326 245.916 927.449 247.283 924.188C248.67 920.926 250.652 918.416 253.23 916.658C255.809 914.881 258.885 913.992 262.459 913.992C266.033 913.992 269.1 914.881 271.658 916.658C274.236 918.416 276.219 920.926 277.605 924.188C278.992 927.449 279.686 931.326 279.686 935.818V935.877C279.686 940.35 278.992 944.227 277.605 947.508C276.219 950.77 274.236 953.289 271.658 955.066C269.1 956.844 266.033 957.732 262.459 957.732ZM262.459 950.643C264.217 950.643 265.711 950.057 266.941 948.885C268.172 947.713 269.109 946.023 269.754 943.816C270.418 941.609 270.75 938.963 270.75 935.877V935.818C270.75 932.713 270.418 930.066 269.754 927.879C269.109 925.672 268.172 923.992 266.941 922.84C265.711 921.668 264.217 921.082 262.459 921.082C260.701 921.082 259.197 921.668 257.947 922.84C256.717 923.992 255.779 925.672 255.135 927.879C254.49 930.066 254.168 932.713 254.168 935.818V935.877C254.168 938.963 254.49 941.609 255.135 943.816C255.779 946.023 256.717 947.713 257.947 948.885C259.197 950.057 260.701 950.643 262.459 950.643ZM301.834 957.732C298.26 957.732 295.184 956.844 292.605 955.066C290.027 953.289 288.045 950.77 286.658 947.508C285.291 944.227 284.607 940.35 284.607 935.877V935.818C284.607 931.326 285.291 927.449 286.658 924.188C288.045 920.926 290.027 918.416 292.605 916.658C295.184 914.881 298.26 913.992 301.834 913.992C305.408 913.992 308.475 914.881 311.033 916.658C313.611 918.416 315.594 920.926 316.98 924.188C318.367 927.449 319.061 931.326 319.061 935.818V935.877C319.061 940.35 318.367 944.227 316.98 947.508C315.594 950.77 313.611 953.289 311.033 955.066C308.475 956.844 305.408 957.732 301.834 957.732ZM301.834 950.643C303.592 950.643 305.086 950.057 306.316 948.885C307.547 947.713 308.484 946.023 309.129 943.816C309.793 941.609 310.125 938.963 310.125 935.877V935.818C310.125 932.713 309.793 930.066 309.129 927.879C308.484 925.672 307.547 923.992 306.316 922.84C305.086 921.668 303.592 921.082 301.834 921.082C300.076 921.082 298.572 921.668 297.322 922.84C296.092 923.992 295.154 925.672 294.51 927.879C293.865 930.066 293.543 932.713 293.543 935.818V935.877C293.543 938.963 293.865 941.609 294.51 943.816C295.154 946.023 296.092 947.713 297.322 948.885C298.572 950.057 300.076 950.643 301.834 950.643Z" fill="#5CA346"/>
<path d="M915.199 646V587.699H894.838V575.541H950.355V587.699H929.945V646H915.199ZM958.51 646V575.541H987.611C992.885 575.541 997.393 576.436 1001.14 578.227C1004.91 580.017 1007.79 582.605 1009.78 585.99C1011.8 589.343 1012.81 593.38 1012.81 598.1V598.197C1012.81 602.82 1011.65 606.938 1009.34 610.551C1007.06 614.164 1003.97 616.736 1000.06 618.266L1014.91 646H998.207L985.072 620.463C984.975 620.463 984.861 620.463 984.73 620.463C984.6 620.463 984.47 620.463 984.34 620.463H973.256V646H958.51ZM973.256 609.281H986C989.678 609.281 992.543 608.305 994.594 606.352C996.677 604.366 997.719 601.648 997.719 598.197V598.1C997.719 594.714 996.645 592.029 994.496 590.043C992.348 588.057 989.451 587.064 985.805 587.064H973.256V609.281ZM1038.88 646V619.682L1014.37 575.541H1030.29L1046.11 605.619H1046.45L1062.22 575.541H1078.19L1053.63 619.682V646H1038.88Z" fill="#5CA346"/>
<path d="M465.346 808.221C458.477 808.221 452.52 806.756 447.475 803.826C442.462 800.896 438.588 796.714 435.854 791.277C433.152 785.809 431.801 779.298 431.801 771.746V771.697C431.801 764.113 433.168 757.618 435.902 752.215C438.637 746.779 442.51 742.612 447.523 739.715C452.536 736.785 458.477 735.32 465.346 735.32C471.042 735.32 476.12 736.427 480.58 738.641C485.04 740.854 488.62 743.898 491.322 747.771C494.024 751.613 495.603 756.04 496.059 761.053L496.107 761.492H481.752L481.557 760.662C481.003 758.058 480.01 755.796 478.578 753.875C477.146 751.954 475.307 750.473 473.061 749.432C470.847 748.357 468.275 747.82 465.346 747.82C461.57 747.82 458.298 748.781 455.531 750.701C452.764 752.622 450.616 755.372 449.086 758.953C447.589 762.501 446.84 766.733 446.84 771.648V771.697C446.84 776.645 447.589 780.926 449.086 784.539C450.616 788.12 452.764 790.887 455.531 792.84C458.331 794.76 461.602 795.721 465.346 795.721C468.178 795.721 470.701 795.2 472.914 794.158C475.16 793.117 477.032 791.619 478.529 789.666C480.027 787.68 481.085 785.288 481.703 782.488L481.801 782H496.156L496.107 782.537C495.652 787.518 494.057 791.945 491.322 795.818C488.62 799.692 485.04 802.736 480.58 804.949C476.12 807.13 471.042 808.221 465.346 808.221ZM505.287 807V736.541H518.178L556.508 791.668L544.154 782.342H550.307V736.541H565.004V807H552.211L513.832 751.531L526.186 760.857H519.984V807H505.287ZM576.771 807V736.541H591.518V765.154H623.256V736.541H638.002V807H623.256V777.312H591.518V807H576.771Z" fill="#5CA346"/>
<path d="M1018.09 912V841.541H1032.83V912H1018.09ZM1044.55 912V841.541H1071.46C1078.52 841.541 1084.54 842.892 1089.52 845.594C1094.53 848.296 1098.38 852.251 1101.04 857.459C1103.71 862.635 1105.05 868.95 1105.05 876.404V876.502C1105.05 883.956 1103.71 890.337 1101.04 895.643C1098.41 900.949 1094.58 905.001 1089.57 907.801C1084.56 910.6 1078.52 912 1071.46 912H1044.55ZM1059.3 899.793H1069.7C1074.09 899.793 1077.8 898.914 1080.83 897.156C1083.86 895.398 1086.14 892.794 1087.67 889.344C1089.23 885.893 1090.01 881.629 1090.01 876.551V876.453C1090.01 871.538 1089.21 867.387 1087.62 864.002C1086.05 860.617 1083.76 858.061 1080.73 856.336C1077.71 854.578 1074.03 853.699 1069.7 853.699H1059.3V899.793ZM1114.57 912V841.541H1143.67C1148.95 841.541 1153.45 842.436 1157.2 844.227C1160.97 846.017 1163.85 848.605 1165.84 851.99C1167.86 855.343 1168.87 859.38 1168.87 864.1V864.197C1168.87 868.82 1167.71 872.938 1165.4 876.551C1163.12 880.164 1160.03 882.736 1156.12 884.266L1170.97 912H1154.27L1141.13 886.463C1141.04 886.463 1140.92 886.463 1140.79 886.463C1140.66 886.463 1140.53 886.463 1140.4 886.463H1129.32V912H1114.57ZM1129.32 875.281H1142.06C1145.74 875.281 1148.6 874.305 1150.65 872.352C1152.74 870.366 1153.78 867.648 1153.78 864.197V864.1C1153.78 860.714 1152.71 858.029 1150.56 856.043C1148.41 854.057 1145.51 853.064 1141.87 853.064H1129.32V875.281Z" fill="#5CA346"/>
<path d="M136.353 680.075C124.51 680.075 114.245 677.557 105.557 672.521C96.9238 667.486 90.2555 660.347 85.5518 651.105C80.9033 641.809 78.5791 630.824 78.5791 618.151V617.985C78.5791 605.257 80.931 594.273 85.6348 585.031C90.3385 575.79 97.0068 568.679 105.64 563.698C114.328 558.662 124.565 556.145 136.353 556.145C148.195 556.145 158.433 558.662 167.065 563.698C175.698 568.734 182.367 575.873 187.07 585.114C191.774 594.3 194.126 605.257 194.126 617.985V618.151C194.126 630.824 191.774 641.809 187.07 651.105C182.367 660.347 175.698 667.486 167.065 672.521C158.488 677.557 148.25 680.075 136.353 680.075ZM136.353 658.825C142.993 658.825 148.721 657.165 153.535 653.845C158.35 650.469 162.057 645.738 164.658 639.65C167.259 633.563 168.56 626.397 168.56 618.151V617.985C168.56 609.629 167.231 602.435 164.575 596.403C161.974 590.316 158.239 585.64 153.369 582.375C148.555 579.055 142.882 577.395 136.353 577.395C129.823 577.395 124.123 579.027 119.253 582.292C114.438 585.557 110.703 590.233 108.047 596.32C105.446 602.352 104.146 609.574 104.146 617.985V618.151C104.146 626.452 105.446 633.646 108.047 639.733C110.703 645.821 114.438 650.524 119.253 653.845C124.067 657.165 129.767 658.825 136.353 658.825ZM210.312 678V558.22H235.381V678H210.312ZM255.303 678V558.22H280.371V657.331H332.749V678H255.303Z" fill="#5CA346"/>
<path d="M526.157 693L538.462 657.771H544.956V664.606H542.71L533.896 693H526.157ZM532.773 684.455L534.58 678.938H551.011L552.817 684.455H532.773ZM551.67 693L542.856 664.606V657.771H547.129L559.409 693H551.67ZM576.816 693.61C573.805 693.61 571.193 693.065 568.979 691.975C566.782 690.884 565.073 689.362 563.853 687.409C562.648 685.44 562.046 683.153 562.046 680.549V657.771H569.419V679.89C569.419 681.403 569.704 682.722 570.273 683.845C570.859 684.951 571.698 685.814 572.788 686.433C573.895 687.051 575.238 687.36 576.816 687.36C578.395 687.36 579.73 687.051 580.82 686.433C581.927 685.814 582.765 684.951 583.335 683.845C583.905 682.722 584.189 681.403 584.189 679.89V657.771H591.562V680.549C591.562 683.153 590.96 685.44 589.756 687.409C588.568 689.362 586.867 690.884 584.653 691.975C582.456 693.065 579.844 693.61 576.816 693.61ZM597.446 693V657.771H610.898C614.43 657.771 617.441 658.446 619.932 659.797C622.438 661.148 624.359 663.125 625.693 665.729C627.028 668.317 627.695 671.475 627.695 675.202V675.251C627.695 678.978 627.028 682.168 625.693 684.821C624.375 687.474 622.463 689.501 619.956 690.9C617.45 692.3 614.43 693 610.898 693H597.446ZM604.819 686.896H610.02C612.217 686.896 614.072 686.457 615.586 685.578C617.1 684.699 618.239 683.397 619.004 681.672C619.785 679.947 620.176 677.814 620.176 675.275V675.227C620.176 672.769 619.777 670.694 618.979 669.001C618.198 667.308 617.051 666.031 615.537 665.168C614.023 664.289 612.184 663.85 610.02 663.85H604.819V686.896Z" fill="#5CA346"/>
<path d="M1074 306.61C1070.57 306.61 1067.59 305.878 1065.07 304.413C1062.56 302.948 1060.62 300.857 1059.26 298.139C1057.91 295.404 1057.23 292.149 1057.23 288.373V288.349C1057.23 284.556 1057.92 281.309 1059.28 278.607C1060.65 275.889 1062.59 273.806 1065.09 272.357C1067.6 270.893 1070.57 270.16 1074 270.16C1076.85 270.16 1079.39 270.714 1081.62 271.82C1083.85 272.927 1085.64 274.449 1086.99 276.386C1088.34 278.306 1089.13 280.52 1089.36 283.026L1089.38 283.246H1082.21L1082.11 282.831C1081.83 281.529 1081.34 280.398 1080.62 279.438C1079.9 278.477 1078.98 277.737 1077.86 277.216C1076.75 276.679 1075.47 276.41 1074 276.41C1072.12 276.41 1070.48 276.89 1069.1 277.851C1067.71 278.811 1066.64 280.186 1065.87 281.977C1065.13 283.751 1064.75 285.867 1064.75 288.324V288.349C1064.75 290.823 1065.13 292.963 1065.87 294.77C1066.64 296.56 1067.71 297.943 1069.1 298.92C1070.5 299.88 1072.13 300.36 1074 300.36C1075.42 300.36 1076.68 300.1 1077.79 299.579C1078.91 299.058 1079.85 298.31 1080.6 297.333C1081.34 296.34 1081.87 295.144 1082.18 293.744L1082.23 293.5H1089.41L1089.38 293.769C1089.16 296.259 1088.36 298.472 1086.99 300.409C1085.64 302.346 1083.85 303.868 1081.62 304.975C1079.39 306.065 1076.85 306.61 1074 306.61ZM1109.87 306.61C1106.39 306.61 1103.37 305.87 1100.81 304.389C1098.27 302.908 1096.31 300.808 1094.93 298.09C1093.56 295.355 1092.88 292.125 1092.88 288.397V288.349C1092.88 284.605 1093.57 281.374 1094.95 278.656C1096.33 275.938 1098.3 273.847 1100.83 272.382C1103.39 270.901 1106.4 270.16 1109.87 270.16C1113.35 270.16 1116.36 270.901 1118.9 272.382C1121.44 273.863 1123.4 275.963 1124.79 278.681C1126.17 281.382 1126.86 284.605 1126.86 288.349V288.397C1126.86 292.125 1126.17 295.355 1124.79 298.09C1123.4 300.808 1121.44 302.908 1118.9 304.389C1116.38 305.87 1113.37 306.61 1109.87 306.61ZM1109.87 300.36C1111.82 300.36 1113.51 299.872 1114.92 298.896C1116.34 297.903 1117.43 296.511 1118.19 294.721C1118.96 292.93 1119.34 290.823 1119.34 288.397V288.349C1119.34 285.891 1118.95 283.775 1118.17 282.001C1117.4 280.211 1116.31 278.835 1114.87 277.875C1113.46 276.898 1111.79 276.41 1109.87 276.41C1107.95 276.41 1106.27 276.89 1104.84 277.851C1103.42 278.811 1102.32 280.186 1101.54 281.977C1100.78 283.751 1100.4 285.875 1100.4 288.349V288.397C1100.4 290.839 1100.78 292.955 1101.54 294.745C1102.32 296.535 1103.42 297.919 1104.84 298.896C1106.25 299.872 1107.93 300.36 1109.87 300.36ZM1135.33 294.892V289.13H1143.97C1146.09 289.13 1147.73 288.593 1148.91 287.519C1150.09 286.428 1150.69 284.882 1150.69 282.88V282.831C1150.69 280.829 1150.09 279.291 1148.91 278.217C1147.73 277.143 1146.09 276.605 1143.97 276.605H1135.33V270.771H1145.78C1148.26 270.771 1150.42 271.275 1152.28 272.284C1154.13 273.277 1155.57 274.677 1156.6 276.483C1157.64 278.29 1158.16 280.398 1158.16 282.807V282.855C1158.16 285.281 1157.64 287.396 1156.6 289.203C1155.57 291.01 1154.13 292.41 1152.28 293.402C1150.42 294.395 1148.26 294.892 1145.78 294.892H1135.33ZM1131.62 306V270.771H1138.99V306H1131.62Z" fill="#5CA346"/>
<path d="M775.211 611.575V602.884H775.675L788.59 586.771H796.793L783.854 602.688H782.413L775.211 611.575ZM768.131 622V586.771H775.504V622H768.131ZM788.883 622L777.579 605.301L782.901 600.467L797.696 622H788.883ZM800.797 622V586.771H815.348C817.984 586.771 820.239 587.218 822.11 588.113C823.998 589.008 825.439 590.302 826.432 591.995C827.441 593.672 827.945 595.69 827.945 598.05V598.099C827.945 600.41 827.368 602.469 826.212 604.275C825.073 606.082 823.526 607.368 821.573 608.133L828.995 622H820.646L814.078 609.231C814.029 609.231 813.972 609.231 813.907 609.231C813.842 609.231 813.777 609.231 813.712 609.231H808.17V622H800.797ZM808.17 603.641H814.542C816.381 603.641 817.813 603.152 818.839 602.176C819.881 601.183 820.401 599.824 820.401 598.099V598.05C820.401 596.357 819.864 595.014 818.79 594.021C817.716 593.029 816.267 592.532 814.444 592.532H808.17V603.641ZM839.884 622L830.558 586.771H838.199L843.766 612.015H843.912L850.406 586.771H856.876L863.37 612.015H863.517L869.107 586.771H876.749L867.398 622H860.196L853.727 598.392H853.58L847.086 622H839.884Z" fill="#5CA346"/>
<path d="M773.03 74V38.7705H796.37V44.8496H780.403V53.2969H795.467V59.0586H780.403V67.9209H796.37V74H773.03ZM799.812 74L812.703 53.5654L811.019 59.5469V56.1777L799.886 38.7705H808.553L816.048 51.4658H819.441L814.656 54.3223L823.763 38.7705H831.99L820.442 56.2998V59.6934L818.709 53.7119L831.844 74H823.445L815.706 61.6465H812.312L817.195 58.8877L807.771 74H799.812ZM834.09 74L846.98 53.5654L845.296 59.5469V56.1777L834.163 38.7705H842.83L850.325 51.4658H853.719L848.934 54.3223L858.04 38.7705H866.268L854.72 56.2998V59.6934L852.986 53.7119L866.121 74H857.723L849.983 61.6465H846.59L851.473 58.8877L842.049 74H834.09ZM884.334 74.6104C880.851 74.6104 877.832 73.8698 875.276 72.3887C872.737 70.9076 870.776 68.8079 869.393 66.0898C868.025 63.3555 867.342 60.1247 867.342 56.3975V56.3486C867.342 52.6051 868.034 49.3743 869.417 46.6562C870.8 43.9382 872.762 41.8467 875.301 40.3818C877.856 38.9007 880.867 38.1602 884.334 38.1602C887.817 38.1602 890.828 38.9007 893.367 40.3818C895.906 41.863 897.868 43.9626 899.251 46.6807C900.634 49.3825 901.326 52.6051 901.326 56.3486V56.3975C901.326 60.1247 900.634 63.3555 899.251 66.0898C897.868 68.8079 895.906 70.9076 893.367 72.3887C890.844 73.8698 887.833 74.6104 884.334 74.6104ZM884.334 68.3604C886.287 68.3604 887.972 67.8721 889.388 66.8955C890.804 65.9027 891.894 64.5111 892.659 62.7207C893.424 60.9303 893.807 58.8226 893.807 56.3975V56.3486C893.807 53.891 893.416 51.7751 892.635 50.001C891.87 48.2106 890.771 46.8353 889.339 45.875C887.923 44.8984 886.255 44.4102 884.334 44.4102C882.413 44.4102 880.737 44.8903 879.305 45.8506C877.889 46.8109 876.79 48.1862 876.009 49.9766C875.244 51.7507 874.861 53.8747 874.861 56.3486V56.3975C874.861 58.8389 875.244 60.9548 876.009 62.7451C876.79 64.5355 877.889 65.9189 879.305 66.8955C880.721 67.8721 882.397 68.3604 884.334 68.3604ZM906.087 74V38.7705H912.532L931.697 66.334L925.521 61.6709H928.597V38.7705H935.945V74H929.549L910.359 46.2656L916.536 50.9287H913.436V74H906.087Z" fill="#5CA346"/>
<path d="M731.119 214V178.771H737.564L756.729 206.334L750.553 201.671H753.629V178.771H760.978V214H754.581L735.392 186.266L741.568 190.929H738.468V214H731.119ZM782.73 214.61C780.094 214.61 777.726 214.195 775.626 213.365C773.543 212.535 771.769 211.331 770.304 209.752C768.839 208.157 767.716 206.228 766.935 203.966C766.153 201.703 765.763 199.14 765.763 196.275V196.251C765.763 192.475 766.446 189.244 767.813 186.559C769.181 183.857 771.118 181.782 773.624 180.333C776.147 178.884 779.125 178.16 782.56 178.16C785.392 178.16 787.89 178.665 790.055 179.674C792.219 180.667 793.977 182.034 795.328 183.775C796.695 185.517 797.574 187.494 797.965 189.708L798.038 190.05H790.641L790.543 189.806C789.957 188.097 788.98 186.77 787.613 185.826C786.246 184.882 784.57 184.41 782.584 184.41C780.647 184.41 778.979 184.874 777.579 185.802C776.196 186.713 775.13 188.048 774.381 189.806C773.648 191.563 773.282 193.688 773.282 196.178V196.202C773.282 198.106 773.502 199.815 773.941 201.329C774.381 202.826 775.016 204.096 775.846 205.138C776.692 206.179 777.701 206.977 778.873 207.53C780.061 208.084 781.388 208.36 782.853 208.36C784.448 208.36 785.855 208.067 787.076 207.481C788.313 206.879 789.282 206.041 789.981 204.967C790.698 203.876 791.088 202.607 791.153 201.158L791.178 200.646H783.121V195.152H798.355V199.205C798.355 201.598 797.997 203.746 797.281 205.65C796.581 207.555 795.556 209.174 794.205 210.509C792.87 211.843 791.235 212.861 789.298 213.561C787.361 214.26 785.172 214.61 782.73 214.61ZM800.016 214L812.32 178.771H818.814V185.606H816.568L807.755 214H800.016ZM806.632 205.455L808.438 199.938H824.869L826.676 205.455H806.632ZM825.528 214L816.715 185.606V178.771H820.987L833.268 214H825.528ZM849.015 214.61C846.231 214.61 843.798 214.203 841.715 213.39C839.648 212.56 838.02 211.38 836.832 209.85C835.644 208.303 834.977 206.448 834.83 204.283L834.806 203.893H841.764L841.812 204.161C841.975 205.073 842.382 205.862 843.033 206.529C843.701 207.18 844.563 207.693 845.621 208.067C846.679 208.425 847.875 208.604 849.21 208.604C850.577 208.604 851.749 208.425 852.726 208.067C853.718 207.693 854.483 207.172 855.021 206.505C855.574 205.821 855.851 205.032 855.851 204.137V204.112C855.851 202.924 855.379 201.996 854.435 201.329C853.507 200.646 851.944 200.076 849.747 199.62L846.036 198.888C842.569 198.188 839.957 197.008 838.199 195.348C836.441 193.688 835.562 191.531 835.562 188.878V188.854C835.562 186.705 836.14 184.833 837.296 183.238C838.451 181.627 840.038 180.382 842.057 179.503C844.075 178.608 846.386 178.16 848.99 178.16C851.708 178.16 854.052 178.583 856.021 179.43C858.007 180.276 859.553 181.472 860.66 183.019C861.767 184.565 862.377 186.363 862.491 188.414L862.516 188.878H855.558L855.533 188.585C855.403 187.657 855.053 186.868 854.483 186.217C853.914 185.549 853.157 185.037 852.213 184.679C851.285 184.321 850.211 184.142 848.99 184.142C847.737 184.142 846.655 184.329 845.743 184.703C844.832 185.061 844.132 185.558 843.644 186.192C843.172 186.827 842.936 187.568 842.936 188.414V188.438C842.936 189.545 843.408 190.44 844.352 191.124C845.296 191.808 846.777 192.353 848.795 192.76L852.53 193.517C854.988 194.005 857.006 194.68 858.585 195.543C860.164 196.406 861.327 197.496 862.076 198.814C862.841 200.117 863.224 201.687 863.224 203.526V203.551C863.224 205.813 862.654 207.774 861.515 209.435C860.392 211.078 858.764 212.356 856.632 213.268C854.516 214.163 851.977 214.61 849.015 214.61Z" fill="#5CA346"/>
<path d="M1087.54 445L1099.84 409.771H1106.33V416.606H1104.09L1095.28 445H1087.54ZM1094.15 436.455L1095.96 430.938H1112.39L1114.2 436.455H1094.15ZM1113.05 445L1104.24 416.606V409.771H1108.51L1120.79 445H1113.05ZM1122.16 445L1134.46 409.771H1140.95V416.606H1138.71L1129.89 445H1122.16ZM1128.77 436.455L1130.58 430.938H1147.01L1148.82 436.455H1128.77ZM1147.67 445L1138.85 416.606V409.771H1143.13L1155.41 445H1147.67ZM1162.73 433.892V428.13H1171.37C1173.49 428.13 1175.13 427.593 1176.31 426.519C1177.49 425.428 1178.09 423.882 1178.09 421.88V421.831C1178.09 419.829 1177.49 418.291 1176.31 417.217C1175.13 416.143 1173.49 415.605 1171.37 415.605H1162.73V409.771H1173.18C1175.65 409.771 1177.82 410.275 1179.67 411.284C1181.53 412.277 1182.97 413.677 1184 415.483C1185.04 417.29 1185.56 419.398 1185.56 421.807V421.855C1185.56 424.281 1185.04 426.396 1184 428.203C1182.97 430.01 1181.53 431.41 1179.67 432.402C1177.82 433.395 1175.65 433.892 1173.18 433.892H1162.73ZM1159.02 445V409.771H1166.39V445H1159.02ZM1189.93 445V409.771H1197.3V438.921H1212.71V445H1189.93Z" fill="#5CA346"/>
<path d="M934.987 1063V1022.19H920.734V1013.68H959.597V1022.19H945.31V1063H934.987ZM983.317 1063.85C979.421 1063.85 976.014 1063.28 973.098 1062.15C970.204 1060.98 967.925 1059.33 966.262 1057.19C964.598 1055.02 963.664 1052.43 963.459 1049.4L963.425 1048.85H973.166L973.234 1049.23C973.462 1050.5 974.032 1051.61 974.943 1052.54C975.878 1053.45 977.085 1054.17 978.566 1054.69C980.048 1055.2 981.722 1055.45 983.591 1055.45C985.505 1055.45 987.146 1055.2 988.513 1054.69C989.903 1054.17 990.974 1053.44 991.726 1052.51C992.5 1051.55 992.888 1050.44 992.888 1049.19V1049.16C992.888 1047.49 992.227 1046.19 990.905 1045.26C989.606 1044.3 987.419 1043.51 984.343 1042.87L979.147 1041.84C974.294 1040.86 970.637 1039.21 968.176 1036.89C965.715 1034.56 964.484 1031.54 964.484 1027.83V1027.79C964.484 1024.79 965.293 1022.17 966.911 1019.93C968.529 1017.68 970.751 1015.93 973.576 1014.7C976.402 1013.45 979.637 1012.82 983.283 1012.82C987.089 1012.82 990.37 1013.42 993.127 1014.6C995.907 1015.79 998.072 1017.46 999.621 1019.63C1001.17 1021.79 1002.03 1024.31 1002.18 1027.18L1002.22 1027.83H992.478L992.443 1027.42C992.261 1026.12 991.771 1025.01 990.974 1024.1C990.176 1023.17 989.117 1022.45 987.795 1021.95C986.496 1021.45 984.992 1021.2 983.283 1021.2C981.529 1021.2 980.013 1021.46 978.737 1021.98C977.461 1022.49 976.481 1023.18 975.798 1024.07C975.137 1024.96 974.807 1025.99 974.807 1027.18V1027.21C974.807 1028.76 975.467 1030.02 976.789 1030.97C978.111 1031.93 980.184 1032.69 983.01 1033.26L988.239 1034.32C991.68 1035.01 994.506 1035.95 996.716 1037.16C998.926 1038.37 1000.56 1039.89 1001.6 1041.74C1002.67 1043.56 1003.21 1045.76 1003.21 1048.34V1048.37C1003.21 1051.54 1002.41 1054.28 1000.82 1056.61C999.245 1058.91 996.966 1060.7 993.981 1061.97C991.019 1063.23 987.465 1063.85 983.317 1063.85ZM1009.53 1063V1013.68H1019.86V1054.49H1041.42V1063H1009.53ZM1044.4 1063L1061.62 1013.68H1070.71V1023.25H1067.57L1055.23 1063H1044.4ZM1053.66 1051.04L1056.19 1043.31H1079.19L1081.72 1051.04H1053.66ZM1080.11 1063L1067.78 1023.25V1013.68H1073.76L1090.95 1063H1080.11Z" fill="#5CA346"/>
<path d="M825.271 170V134.771H832.645V149.077H848.514V134.771H855.887V170H848.514V155.156H832.645V170H825.271ZM876.517 170.61C873.506 170.61 870.893 170.065 868.68 168.975C866.482 167.884 864.773 166.362 863.553 164.409C862.348 162.44 861.746 160.153 861.746 157.549V134.771H869.119V156.89C869.119 158.403 869.404 159.722 869.974 160.845C870.56 161.951 871.398 162.814 872.488 163.433C873.595 164.051 874.938 164.36 876.517 164.36C878.095 164.36 879.43 164.051 880.521 163.433C881.627 162.814 882.465 161.951 883.035 160.845C883.605 159.722 883.89 158.403 883.89 156.89V134.771H891.263V157.549C891.263 160.153 890.66 162.44 889.456 164.409C888.268 166.362 886.567 167.884 884.354 168.975C882.156 170.065 879.544 170.61 876.517 170.61ZM897.146 170V134.771H920.218V140.85H904.52V150.298H918.851V156.133H904.52V170H897.146Z" fill="#5CA346"/>
<path d="M628.035 327V321.507H638.069C640.185 321.507 641.805 321.084 642.928 320.237C644.051 319.375 644.612 318.13 644.612 316.502V316.453C644.612 315.379 644.352 314.476 643.831 313.743C643.31 312.994 642.537 312.433 641.512 312.059C640.503 311.684 639.249 311.497 637.752 311.497H628.035V306.492H636.873C638.956 306.492 640.535 306.077 641.609 305.247C642.7 304.401 643.245 303.221 643.245 301.707V301.658C643.245 300.258 642.765 299.176 641.805 298.411C640.844 297.63 639.502 297.239 637.776 297.239H628.035V291.771H639.681C641.91 291.771 643.831 292.129 645.442 292.845C647.054 293.561 648.299 294.586 649.178 295.921C650.057 297.239 650.496 298.802 650.496 300.608V300.657C650.496 301.943 650.195 303.139 649.593 304.246C649.007 305.337 648.201 306.248 647.176 306.98C646.15 307.697 644.987 308.144 643.685 308.323V308.47C645.328 308.584 646.785 309.023 648.055 309.788C649.324 310.537 650.317 311.53 651.033 312.767C651.766 313.987 652.132 315.371 652.132 316.917V316.966C652.132 319.017 651.635 320.791 650.643 322.288C649.666 323.785 648.266 324.949 646.443 325.779C644.637 326.593 642.472 327 639.949 327H628.035ZM624.349 327V291.771H631.722V327H624.349ZM656.331 327V291.771H670.882C673.519 291.771 675.773 292.218 677.645 293.113C679.533 294.008 680.973 295.302 681.966 296.995C682.975 298.672 683.479 300.69 683.479 303.05V303.099C683.479 305.41 682.902 307.469 681.746 309.275C680.607 311.082 679.061 312.368 677.107 313.133L684.529 327H676.18L669.612 314.231C669.563 314.231 669.507 314.231 669.441 314.231C669.376 314.231 669.311 314.231 669.246 314.231H663.704V327H656.331ZM663.704 308.641H670.076C671.915 308.641 673.348 308.152 674.373 307.176C675.415 306.183 675.936 304.824 675.936 303.099V303.05C675.936 301.357 675.398 300.014 674.324 299.021C673.25 298.029 671.801 297.532 669.979 297.532H663.704V308.641ZM688.362 327V291.771H695.735V320.921H711.141V327H688.362Z" fill="#5CA346"/>
<path d="M346.065 475V469.507H356.1C358.215 469.507 359.835 469.084 360.958 468.237C362.081 467.375 362.643 466.13 362.643 464.502V464.453C362.643 463.379 362.382 462.476 361.861 461.743C361.34 460.994 360.567 460.433 359.542 460.059C358.533 459.684 357.28 459.497 355.782 459.497H346.065V454.492H354.903C356.987 454.492 358.565 454.077 359.64 453.247C360.73 452.401 361.275 451.221 361.275 449.707V449.658C361.275 448.258 360.795 447.176 359.835 446.411C358.875 445.63 357.532 445.239 355.807 445.239H346.065V439.771H357.711C359.941 439.771 361.861 440.129 363.473 440.845C365.084 441.561 366.329 442.586 367.208 443.921C368.087 445.239 368.526 446.802 368.526 448.608V448.657C368.526 449.943 368.225 451.139 367.623 452.246C367.037 453.337 366.231 454.248 365.206 454.98C364.181 455.697 363.017 456.144 361.715 456.323V456.47C363.359 456.584 364.815 457.023 366.085 457.788C367.354 458.537 368.347 459.53 369.063 460.767C369.796 461.987 370.162 463.371 370.162 464.917V464.966C370.162 467.017 369.666 468.791 368.673 470.288C367.696 471.785 366.297 472.949 364.474 473.779C362.667 474.593 360.502 475 357.979 475H346.065ZM342.379 475V439.771H349.752V475H342.379ZM390.035 475.61C386.601 475.61 383.622 474.878 381.1 473.413C378.593 471.948 376.656 469.857 375.289 467.139C373.938 464.404 373.263 461.149 373.263 457.373V457.349C373.263 453.556 373.946 450.309 375.313 447.607C376.681 444.889 378.618 442.806 381.124 441.357C383.631 439.893 386.601 439.16 390.035 439.16C392.883 439.16 395.423 439.714 397.652 440.82C399.882 441.927 401.673 443.449 403.023 445.386C404.374 447.306 405.164 449.52 405.392 452.026L405.416 452.246H398.238L398.141 451.831C397.864 450.529 397.368 449.398 396.651 448.438C395.935 447.477 395.016 446.737 393.893 446.216C392.786 445.679 391.5 445.41 390.035 445.41C388.147 445.41 386.511 445.89 385.128 446.851C383.744 447.811 382.67 449.186 381.905 450.977C381.157 452.751 380.782 454.867 380.782 457.324V457.349C380.782 459.823 381.157 461.963 381.905 463.77C382.67 465.56 383.744 466.943 385.128 467.92C386.528 468.88 388.163 469.36 390.035 469.36C391.451 469.36 392.713 469.1 393.819 468.579C394.942 468.058 395.878 467.31 396.627 466.333C397.376 465.34 397.905 464.144 398.214 462.744L398.263 462.5H405.44L405.416 462.769C405.188 465.259 404.391 467.472 403.023 469.409C401.673 471.346 399.882 472.868 397.652 473.975C395.423 475.065 392.883 475.61 390.035 475.61ZM410.006 475V439.771H417.379V454.077H433.248V439.771H440.621V475H433.248V460.156H417.379V475H410.006Z" fill="#5CA346"/>
<path d="M1110.08 262.61C1107.06 262.61 1104.45 262.065 1102.24 260.975C1100.04 259.884 1098.33 258.362 1097.11 256.409C1095.91 254.44 1095.3 252.153 1095.3 249.549V226.771H1102.68V248.89C1102.68 250.403 1102.96 251.722 1103.53 252.845C1104.12 253.951 1104.96 254.814 1106.05 255.433C1107.15 256.051 1108.5 256.36 1110.08 256.36C1111.65 256.36 1112.99 256.051 1114.08 255.433C1115.19 254.814 1116.02 253.951 1116.59 252.845C1117.16 251.722 1117.45 250.403 1117.45 248.89V226.771H1124.82V249.549C1124.82 252.153 1124.22 254.44 1123.01 256.409C1121.83 258.362 1120.13 259.884 1117.91 260.975C1115.71 262.065 1113.1 262.61 1110.08 262.61ZM1137.79 251.575V242.884H1138.25L1151.16 226.771H1159.37L1146.43 242.688H1144.99L1137.79 251.575ZM1130.71 262V226.771H1138.08V262H1130.71ZM1151.46 262L1140.15 245.301L1145.48 240.467L1160.27 262H1151.46ZM1170.28 262V233.533H1170.13L1161.15 239.637V233.094L1170.26 226.771H1177.58V262H1170.28ZM1199.41 262.61C1196.43 262.61 1193.86 261.87 1191.72 260.389C1189.57 258.908 1187.92 256.808 1186.76 254.09C1185.62 251.355 1185.05 248.125 1185.05 244.397V244.349C1185.05 240.605 1185.62 237.374 1186.76 234.656C1187.92 231.938 1189.57 229.847 1191.72 228.382C1193.86 226.901 1196.43 226.16 1199.41 226.16C1202.38 226.16 1204.94 226.901 1207.07 228.382C1209.22 229.847 1210.87 231.938 1212.03 234.656C1213.18 237.374 1213.76 240.605 1213.76 244.349V244.397C1213.76 248.125 1213.18 251.355 1212.03 254.09C1210.87 256.808 1209.22 258.908 1207.07 260.389C1204.94 261.87 1202.38 262.61 1199.41 262.61ZM1199.41 256.702C1200.87 256.702 1202.12 256.214 1203.14 255.237C1204.17 254.261 1204.95 252.853 1205.49 251.014C1206.04 249.174 1206.32 246.969 1206.32 244.397V244.349C1206.32 241.761 1206.04 239.555 1205.49 237.732C1204.95 235.893 1204.17 234.493 1203.14 233.533C1202.12 232.557 1200.87 232.068 1199.41 232.068C1197.94 232.068 1196.69 232.557 1195.65 233.533C1194.62 234.493 1193.84 235.893 1193.3 237.732C1192.77 239.555 1192.5 241.761 1192.5 244.349V244.397C1192.5 246.969 1192.77 249.174 1193.3 251.014C1193.84 252.853 1194.62 254.261 1195.65 255.237C1196.69 256.214 1197.94 256.702 1199.41 256.702ZM1232.22 262.61C1229.24 262.61 1226.68 261.87 1224.53 260.389C1222.38 258.908 1220.73 256.808 1219.57 254.09C1218.43 251.355 1217.86 248.125 1217.86 244.397V244.349C1217.86 240.605 1218.43 237.374 1219.57 234.656C1220.73 231.938 1222.38 229.847 1224.53 228.382C1226.68 226.901 1229.24 226.16 1232.22 226.16C1235.2 226.16 1237.75 226.901 1239.88 228.382C1242.03 229.847 1243.69 231.938 1244.84 234.656C1246 237.374 1246.57 240.605 1246.57 244.349V244.397C1246.57 248.125 1246 251.355 1244.84 254.09C1243.69 256.808 1242.03 258.908 1239.88 260.389C1237.75 261.87 1235.2 262.61 1232.22 262.61ZM1232.22 256.702C1233.68 256.702 1234.93 256.214 1235.95 255.237C1236.98 254.261 1237.76 252.853 1238.3 251.014C1238.85 249.174 1239.13 246.969 1239.13 244.397V244.349C1239.13 241.761 1238.85 239.555 1238.3 237.732C1237.76 235.893 1236.98 234.493 1235.95 233.533C1234.93 232.557 1233.68 232.068 1232.22 232.068C1230.75 232.068 1229.5 232.557 1228.46 233.533C1227.43 234.493 1226.65 235.893 1226.12 237.732C1225.58 239.555 1225.31 241.761 1225.31 244.349V244.397C1225.31 246.969 1225.58 249.174 1226.12 251.014C1226.65 252.853 1227.43 254.261 1228.46 255.237C1229.5 256.214 1230.75 256.702 1232.22 256.702Z" fill="#5CA346"/>
<path d="M1103.58 653.366C1101.91 653.366 1100.45 653.122 1099.2 652.634C1097.96 652.136 1096.99 651.428 1096.27 650.51C1095.56 649.582 1095.16 648.469 1095.07 647.17L1095.06 646.936H1099.23L1099.26 647.097C1099.36 647.644 1099.6 648.117 1100 648.518C1100.4 648.908 1100.91 649.216 1101.55 649.44C1102.18 649.655 1102.9 649.763 1103.7 649.763C1104.52 649.763 1105.22 649.655 1105.81 649.44C1106.41 649.216 1106.87 648.903 1107.19 648.503C1107.52 648.093 1107.69 647.619 1107.69 647.082V647.067C1107.69 646.354 1107.4 645.798 1106.84 645.397C1106.28 644.987 1105.34 644.646 1104.02 644.372L1101.8 643.933C1099.72 643.513 1098.15 642.805 1097.09 641.809C1096.04 640.812 1095.51 639.519 1095.51 637.927V637.912C1095.51 636.623 1095.86 635.5 1096.55 634.543C1097.25 633.576 1098.2 632.829 1099.41 632.302C1100.62 631.765 1102.01 631.496 1103.57 631.496C1105.2 631.496 1106.61 631.75 1107.79 632.258C1108.98 632.766 1109.91 633.483 1110.57 634.411C1111.24 635.339 1111.6 636.418 1111.67 637.648L1111.68 637.927H1107.51L1107.5 637.751C1107.42 637.194 1107.21 636.721 1106.87 636.33C1106.52 635.93 1106.07 635.622 1105.5 635.407C1104.95 635.192 1104.3 635.085 1103.57 635.085C1102.82 635.085 1102.17 635.197 1101.62 635.422C1101.07 635.637 1100.65 635.935 1100.36 636.315C1100.08 636.696 1099.94 637.141 1099.94 637.648V637.663C1099.94 638.327 1100.22 638.864 1100.79 639.274C1101.35 639.685 1102.24 640.012 1103.45 640.256L1105.69 640.71C1107.17 641.003 1108.38 641.408 1109.33 641.926C1110.27 642.443 1110.97 643.098 1111.42 643.889C1111.88 644.67 1112.11 645.612 1112.11 646.716V646.73C1112.11 648.088 1111.77 649.265 1111.08 650.261C1110.41 651.247 1109.43 652.014 1108.15 652.561C1106.88 653.098 1105.36 653.366 1103.58 653.366ZM1124.34 653.366C1122.76 653.366 1121.34 653.117 1120.08 652.619C1118.83 652.121 1117.76 651.398 1116.88 650.451C1116.01 649.494 1115.33 648.337 1114.86 646.979C1114.39 645.622 1114.16 644.084 1114.16 642.365V642.351C1114.16 640.085 1114.57 638.146 1115.39 636.535C1116.21 634.914 1117.37 633.669 1118.88 632.8C1120.39 631.931 1122.18 631.496 1124.24 631.496C1125.94 631.496 1127.44 631.799 1128.74 632.404C1130.03 633 1131.09 633.82 1131.9 634.865C1132.72 635.91 1133.25 637.097 1133.48 638.425L1133.53 638.63H1129.09L1129.03 638.483C1128.68 637.458 1128.09 636.662 1127.27 636.096C1126.45 635.529 1125.44 635.246 1124.25 635.246C1123.09 635.246 1122.09 635.524 1121.25 636.081C1120.42 636.628 1119.78 637.429 1119.33 638.483C1118.89 639.538 1118.67 640.812 1118.67 642.307V642.321C1118.67 643.464 1118.8 644.489 1119.07 645.397C1119.33 646.296 1119.71 647.058 1120.21 647.683C1120.72 648.308 1121.32 648.786 1122.03 649.118C1122.74 649.45 1123.54 649.616 1124.41 649.616C1125.37 649.616 1126.22 649.44 1126.95 649.089C1127.69 648.728 1128.27 648.225 1128.69 647.58C1129.12 646.926 1129.36 646.164 1129.39 645.295L1129.41 644.987H1124.58V641.691H1133.72V644.123C1133.72 645.559 1133.5 646.848 1133.07 647.99C1132.65 649.133 1132.04 650.104 1131.23 650.905C1130.42 651.706 1129.44 652.316 1128.28 652.736C1127.12 653.156 1125.81 653.366 1124.34 653.366ZM1136.65 653V631.862H1144.72C1146.84 631.862 1148.64 632.268 1150.14 633.078C1151.64 633.889 1152.79 635.075 1153.59 636.638C1154.39 638.19 1154.79 640.085 1154.79 642.321V642.351C1154.79 644.587 1154.39 646.501 1153.59 648.093C1152.8 649.685 1151.66 650.9 1150.15 651.74C1148.65 652.58 1146.84 653 1144.72 653H1136.65ZM1141.07 649.338H1144.19C1145.51 649.338 1146.62 649.074 1147.53 648.547C1148.44 648.02 1149.12 647.238 1149.58 646.203C1150.05 645.168 1150.28 643.889 1150.28 642.365V642.336C1150.28 640.861 1150.04 639.616 1149.57 638.601C1149.1 637.585 1148.41 636.818 1147.5 636.301C1146.59 635.773 1145.49 635.51 1144.19 635.51H1141.07V649.338Z" fill="#5CA346"/>
<path d="M790.128 264V242.862H798.199C800.318 242.862 802.125 243.268 803.619 244.078C805.123 244.889 806.275 246.075 807.076 247.638C807.877 249.19 808.277 251.085 808.277 253.321V253.351C808.277 255.587 807.877 257.501 807.076 259.093C806.285 260.685 805.138 261.9 803.634 262.74C802.13 263.58 800.318 264 798.199 264H790.128ZM794.552 260.338H797.672C798.99 260.338 800.104 260.074 801.012 259.547C801.92 259.02 802.604 258.238 803.062 257.203C803.531 256.168 803.766 254.889 803.766 253.365V253.336C803.766 251.861 803.526 250.616 803.048 249.601C802.579 248.585 801.891 247.818 800.982 247.301C800.074 246.773 798.971 246.51 797.672 246.51H794.552V260.338ZM816.964 264.366C815.87 264.366 814.889 264.215 814.02 263.912C813.16 263.6 812.423 263.155 811.808 262.579C811.192 262.003 810.719 261.314 810.387 260.514C810.055 259.703 809.874 258.8 809.845 257.804L809.83 257.672H814.122L814.137 257.76C814.166 258.307 814.288 258.79 814.503 259.21C814.728 259.63 815.04 259.957 815.44 260.191C815.851 260.426 816.344 260.543 816.92 260.543C817.848 260.543 818.556 260.265 819.044 259.708C819.532 259.151 819.776 258.341 819.776 257.276V242.862H824.2V257.32C824.2 258.795 823.912 260.06 823.336 261.114C822.77 262.169 821.949 262.975 820.875 263.531C819.801 264.088 818.497 264.366 816.964 264.366ZM835.494 264.366C833.893 264.366 832.496 264.107 831.305 263.59C830.113 263.062 829.166 262.335 828.463 261.407C827.77 260.479 827.374 259.41 827.276 258.199L827.262 258.009H831.48L831.51 258.17C831.578 258.678 831.778 259.132 832.11 259.532C832.452 259.923 832.906 260.235 833.473 260.47C834.049 260.694 834.718 260.807 835.479 260.807C836.241 260.807 836.9 260.685 837.457 260.44C838.014 260.187 838.443 259.84 838.746 259.4C839.059 258.951 839.215 258.438 839.215 257.862V257.833C839.215 256.817 838.858 256.041 838.146 255.504C837.433 254.967 836.437 254.698 835.157 254.698H832.74V251.549H835.099C835.841 251.549 836.485 251.427 837.032 251.183C837.579 250.938 837.999 250.602 838.292 250.172C838.595 249.732 838.746 249.229 838.746 248.663V248.634C838.746 248.058 838.614 247.569 838.351 247.169C838.097 246.759 837.721 246.446 837.223 246.231C836.734 246.007 836.144 245.895 835.45 245.895C834.767 245.895 834.161 246.007 833.634 246.231C833.106 246.456 832.687 246.773 832.374 247.184C832.062 247.584 831.871 248.058 831.803 248.604L831.788 248.736H827.73L827.745 248.561C827.843 247.33 828.219 246.266 828.873 245.367C829.537 244.459 830.431 243.756 831.554 243.258C832.677 242.75 833.976 242.496 835.45 242.496C836.974 242.496 838.292 242.73 839.405 243.199C840.528 243.658 841.397 244.303 842.013 245.133C842.628 245.963 842.936 246.935 842.936 248.048V248.077C842.936 248.956 842.74 249.728 842.35 250.392C841.959 251.056 841.427 251.603 840.753 252.032C840.089 252.462 839.347 252.765 838.526 252.94V253.028C840.099 253.175 841.354 253.683 842.291 254.552C843.238 255.421 843.712 256.573 843.712 258.009V258.038C843.712 259.298 843.37 260.401 842.687 261.349C842.003 262.296 841.046 263.038 839.815 263.575C838.585 264.103 837.145 264.366 835.494 264.366ZM854.786 264.366C852.999 264.366 851.461 263.922 850.172 263.033C848.883 262.145 847.892 260.885 847.198 259.254C846.515 257.613 846.173 255.675 846.173 253.438V253.409C846.173 251.163 846.515 249.225 847.198 247.594C847.892 245.963 848.883 244.708 850.172 243.829C851.461 242.94 852.999 242.496 854.786 242.496C856.573 242.496 858.106 242.94 859.386 243.829C860.675 244.708 861.666 245.963 862.359 247.594C863.053 249.225 863.399 251.163 863.399 253.409V253.438C863.399 255.675 863.053 257.613 862.359 259.254C861.666 260.885 860.675 262.145 859.386 263.033C858.106 263.922 856.573 264.366 854.786 264.366ZM854.786 260.821C855.665 260.821 856.412 260.528 857.027 259.942C857.643 259.356 858.111 258.512 858.434 257.408C858.766 256.305 858.932 254.981 858.932 253.438V253.409C858.932 251.856 858.766 250.533 858.434 249.439C858.111 248.336 857.643 247.496 857.027 246.92C856.412 246.334 855.665 246.041 854.786 246.041C853.907 246.041 853.155 246.334 852.53 246.92C851.915 247.496 851.446 248.336 851.124 249.439C850.802 250.533 850.641 251.856 850.641 253.409V253.438C850.641 254.981 850.802 256.305 851.124 257.408C851.446 258.512 851.915 259.356 852.53 259.942C853.155 260.528 853.907 260.821 854.786 260.821Z" fill="#5CA346"/>
<path d="M184.812 1004L192.195 982.862H196.092V986.964H194.744L189.456 1004H184.812ZM188.782 998.873L189.866 995.562H199.725L200.809 998.873H188.782ZM200.12 1004L194.832 986.964V982.862H197.396L204.764 1004H200.12ZM206.932 1004V982.862H212.044L218.05 998.053H218.138L224.144 982.862H229.256V1004H225.315V989.703H223.265L227.688 983.448L219.485 1004H216.702L208.499 983.448L212.923 989.703H210.872V1004H206.932ZM231.424 1004L238.807 982.862H242.703V986.964H241.355L236.067 1004H231.424ZM235.394 998.873L236.478 995.562H246.336L247.42 998.873H235.394ZM246.731 1004L241.443 986.964V982.862H244.007L251.375 1004H246.731ZM253.089 1004V1001.11L263.841 986.598V986.51H253.338V982.862H269.114V985.733L258.406 1000.26V1000.35H269.407V1004H253.089ZM281.858 1004.37C279.769 1004.37 277.957 1003.92 276.424 1003.03C274.9 1002.14 273.724 1000.88 272.894 999.254C272.073 997.613 271.663 995.675 271.663 993.438V993.409C271.663 991.163 272.078 989.225 272.908 987.594C273.738 985.963 274.915 984.708 276.438 983.829C277.972 982.94 279.778 982.496 281.858 982.496C283.948 982.496 285.755 982.94 287.278 983.829C288.802 984.718 289.979 985.978 290.809 987.608C291.639 989.229 292.054 991.163 292.054 993.409V993.438C292.054 995.675 291.639 997.613 290.809 999.254C289.979 1000.88 288.802 1002.14 287.278 1003.03C285.765 1003.92 283.958 1004.37 281.858 1004.37ZM281.858 1000.62C283.03 1000.62 284.041 1000.32 284.891 999.737C285.74 999.142 286.395 998.307 286.854 997.232C287.312 996.158 287.542 994.894 287.542 993.438V993.409C287.542 991.935 287.308 990.665 286.839 989.601C286.38 988.526 285.721 987.701 284.861 987.125C284.012 986.539 283.011 986.246 281.858 986.246C280.706 986.246 279.7 986.534 278.841 987.11C277.991 987.687 277.332 988.512 276.863 989.586C276.404 990.65 276.175 991.925 276.175 993.409V993.438C276.175 994.903 276.404 996.173 276.863 997.247C277.332 998.321 277.991 999.151 278.841 999.737C279.69 1000.32 280.696 1000.62 281.858 1000.62ZM294.91 1004V982.862H298.777L310.276 999.4L306.57 996.603H308.416V982.862H312.825V1004H308.987L297.474 987.359L301.18 990.157H299.319V1004H294.91Z" fill="#5CA346"/>
<path d="M446.188 304V282.862H450.055L461.554 299.4L457.848 296.603H459.693V282.862H464.103V304H460.265L448.751 287.359L452.457 290.157H450.597V304H446.188ZM467.354 304V288.297H471.632V304H467.354ZM469.493 286.275C468.849 286.275 468.307 286.056 467.867 285.616C467.428 285.177 467.208 284.654 467.208 284.049C467.208 283.434 467.428 282.911 467.867 282.481C468.307 282.042 468.849 281.822 469.493 281.822C470.138 281.822 470.68 282.042 471.119 282.481C471.559 282.911 471.778 283.434 471.778 284.049C471.778 284.654 471.559 285.177 471.119 285.616C470.68 286.056 470.138 286.275 469.493 286.275ZM474.649 304V282.862H478.927V304H474.649ZM484.522 304L479.674 297.057L482.384 293.805L489.459 304H484.522ZM478.399 299.371V294.581H479.015L484.317 288.297H489.166L481.915 296.544H480.963L478.399 299.371ZM490.792 304V282.862H495.069V304H490.792ZM500.665 304L495.816 297.057L498.526 293.805L505.602 304H500.665ZM494.542 299.371V294.581H495.157L500.46 288.297H505.309L498.058 296.544H497.105L494.542 299.371ZM513.204 304.322C511.603 304.322 510.226 303.995 509.073 303.341C507.921 302.677 507.032 301.734 506.407 300.514C505.792 299.293 505.484 297.848 505.484 296.178V296.163C505.484 294.493 505.792 293.048 506.407 291.827C507.032 290.597 507.906 289.649 509.029 288.985C510.162 288.312 511.495 287.975 513.028 287.975C514.562 287.975 515.885 288.302 516.998 288.956C518.121 289.601 518.985 290.514 519.591 291.695C520.206 292.877 520.514 294.259 520.514 295.841V297.159H507.579V294.464H518.492L516.456 296.983V295.343C516.456 294.425 516.314 293.658 516.031 293.043C515.748 292.418 515.353 291.949 514.845 291.637C514.347 291.324 513.766 291.168 513.102 291.168C512.438 291.168 511.847 291.329 511.329 291.651C510.821 291.974 510.421 292.447 510.128 293.072C509.845 293.688 509.703 294.444 509.703 295.343V296.998C509.703 297.867 509.845 298.609 510.128 299.225C510.421 299.84 510.836 300.313 511.373 300.646C511.91 300.968 512.55 301.129 513.292 301.129C513.878 301.129 514.386 301.036 514.815 300.851C515.245 300.665 515.597 300.431 515.87 300.147C516.144 299.864 516.329 299.576 516.427 299.283L516.456 299.195H520.382L520.338 299.356C520.221 299.933 519.991 300.514 519.649 301.1C519.308 301.686 518.844 302.223 518.258 302.711C517.682 303.199 516.974 303.59 516.134 303.883C515.304 304.176 514.327 304.322 513.204 304.322ZM522.813 304V288.297H527.091V304H522.813ZM524.952 286.275C524.308 286.275 523.766 286.056 523.326 285.616C522.887 285.177 522.667 284.654 522.667 284.049C522.667 283.434 522.887 282.911 523.326 282.481C523.766 282.042 524.308 281.822 524.952 281.822C525.597 281.822 526.139 282.042 526.578 282.481C527.018 282.911 527.237 283.434 527.237 284.049C527.237 284.654 527.018 285.177 526.578 285.616C526.139 286.056 525.597 286.275 524.952 286.275Z" fill="#5CA346"/>
<path d="M1111.5 616V587.816H1116.66L1131.99 609.867L1127.05 606.137H1129.51V587.816H1135.39V616H1130.27L1114.92 593.812L1119.86 597.543H1117.38V616H1111.5ZM1140.09 616V587.816H1158.55V592.68H1145.99V600.238H1157.46V604.906H1145.99V616H1140.09ZM1162.05 616V587.816H1167.95V611.137H1180.27V616H1162.05ZM1182.26 616L1192.57 599.652L1191.23 604.438V601.742L1182.32 587.816H1189.25L1195.25 597.973H1197.96L1194.14 600.258L1201.42 587.816H1208L1198.77 601.84V604.555L1197.38 599.77L1207.89 616H1201.17L1194.98 606.117H1192.26L1196.17 603.91L1188.63 616H1182.26Z" fill="#5CA346"/>
<path d="M494.846 968V965.114L505.598 950.598V950.51H495.095V946.862H510.871V949.733L500.163 964.265V964.353H511.164V968H494.846ZM512.878 968L520.261 946.862H524.157V950.964H522.81L517.521 968H512.878ZM516.848 962.873L517.932 959.562H527.79L528.874 962.873H516.848ZM528.186 968L522.897 950.964V946.862H525.461L532.829 968H528.186ZM534.997 968V946.862H543.728C545.31 946.862 546.662 947.131 547.785 947.668C548.918 948.205 549.782 948.981 550.378 949.997C550.983 951.003 551.286 952.214 551.286 953.63V953.659C551.286 955.046 550.939 956.281 550.246 957.365C549.562 958.449 548.635 959.221 547.463 959.68L551.916 968H546.906L542.966 960.339C542.937 960.339 542.902 960.339 542.863 960.339C542.824 960.339 542.785 960.339 542.746 960.339H539.421V968H534.997ZM539.421 956.984H543.244C544.348 956.984 545.207 956.691 545.822 956.105C546.447 955.51 546.76 954.694 546.76 953.659V953.63C546.76 952.614 546.438 951.809 545.793 951.213C545.148 950.617 544.279 950.319 543.186 950.319H539.421V956.984Z" fill="#5CA346"/>
<path d="M757.956 544V522.862H762.38V544H757.956ZM765.896 544V522.862H769.763L781.262 539.4L777.556 536.603H779.401V522.862H783.811V544H779.973L768.459 527.359L772.165 530.157H770.305V544H765.896ZM787.341 544V522.862H796.071C797.653 522.862 799.006 523.131 800.129 523.668C801.262 524.205 802.126 524.981 802.722 525.997C803.327 527.003 803.63 528.214 803.63 529.63V529.659C803.63 531.046 803.283 532.281 802.59 533.365C801.906 534.449 800.979 535.221 799.807 535.68L804.26 544H799.25L795.31 536.339C795.28 536.339 795.246 536.339 795.207 536.339C795.168 536.339 795.129 536.339 795.09 536.339H791.765V544H787.341ZM791.765 532.984H795.588C796.691 532.984 797.551 532.691 798.166 532.105C798.791 531.51 799.104 530.694 799.104 529.659V529.63C799.104 528.614 798.781 527.809 798.137 527.213C797.492 526.617 796.623 526.319 795.529 526.319H791.765V532.984Z" fill="#5CA346"/>
<path d="M36.7871 450L44.1699 428.862H48.0664V432.964H46.7188L41.4307 450H36.7871ZM40.7568 444.873L41.8408 441.562H51.6992L52.7832 444.873H40.7568ZM52.0947 450L46.8066 432.964V428.862H49.3701L56.7383 450H52.0947ZM61.1182 450V432.51H55.0098V428.862H71.665V432.51H65.542V450H61.1182ZM87.8662 450L77.876 439.131C77.0557 438.242 76.4014 437.48 75.9131 436.846C75.4346 436.201 75.0928 435.62 74.8877 435.103C74.6826 434.575 74.5752 434.048 74.5654 433.521V433.506C74.5654 432.559 74.8242 431.714 75.3418 430.972C75.8594 430.229 76.5723 429.648 77.4805 429.229C78.3887 428.799 79.4238 428.584 80.5859 428.584C81.7285 428.584 82.7393 428.789 83.6182 429.199C84.4971 429.609 85.1855 430.176 85.6836 430.898C86.1914 431.621 86.4453 432.461 86.4453 433.418V433.433C86.4453 434.224 86.25 434.971 85.8594 435.674C85.4785 436.367 84.8779 437.036 84.0576 437.681C83.2373 438.315 82.168 438.945 80.8496 439.57L78.8574 437.578C79.7949 437.158 80.5566 436.748 81.1426 436.348C81.7383 435.947 82.1777 435.532 82.4609 435.103C82.7441 434.673 82.8857 434.204 82.8857 433.696V433.682C82.8857 433.232 82.7881 432.842 82.5928 432.51C82.3975 432.168 82.124 431.904 81.7725 431.719C81.4307 431.523 81.0303 431.426 80.5713 431.426C80.1318 431.426 79.7314 431.523 79.3701 431.719C79.0186 431.914 78.7402 432.183 78.5352 432.524C78.3301 432.866 78.2275 433.252 78.2275 433.682V433.696C78.2275 434.058 78.3154 434.419 78.4912 434.78C78.6768 435.132 78.9648 435.532 79.3555 435.981C79.7461 436.431 80.249 436.982 80.8643 437.637L92.583 449.927V450H87.8662ZM79.6924 450.381C78.1982 450.381 76.8994 450.137 75.7959 449.648C74.6924 449.16 73.8379 448.477 73.2324 447.598C72.627 446.709 72.3242 445.669 72.3242 444.478V444.463C72.3242 443.281 72.6465 442.222 73.291 441.284C73.9453 440.347 74.9658 439.502 76.3525 438.75L78.4766 437.593L80.6152 439.746L78.7109 440.83C77.8418 441.328 77.2266 441.841 76.8652 442.368C76.5039 442.896 76.3232 443.477 76.3232 444.111V444.126C76.3232 444.761 76.4795 445.312 76.792 445.781C77.1143 446.25 77.5635 446.616 78.1396 446.88C78.7158 447.144 79.3799 447.275 80.1318 447.275C80.8643 447.275 81.5479 447.168 82.1826 446.953C82.8271 446.738 83.4033 446.445 83.9111 446.074C84.4287 445.693 84.873 445.264 85.2441 444.785C85.8105 444.062 86.2354 443.213 86.5186 442.236C86.8018 441.25 86.9434 440.107 86.9434 438.809V438.135H90.5029V438.984C90.5029 440.752 90.2539 442.319 89.7559 443.687C89.2676 445.044 88.5498 446.221 87.6025 447.217C86.6748 448.203 85.5469 448.979 84.2188 449.546C82.8906 450.103 81.3818 450.381 79.6924 450.381ZM97.3877 450V432.51H91.2793V428.862H107.935V432.51H101.812V450H97.3877Z" fill="#5CA346"/>
<path d="M52.377 721V717.704H58.3975C59.667 717.704 60.6387 717.45 61.3125 716.942C61.9863 716.425 62.3232 715.678 62.3232 714.701V714.672C62.3232 714.027 62.167 713.485 61.8545 713.046C61.542 712.597 61.0781 712.26 60.4629 712.035C59.8574 711.811 59.1055 711.698 58.207 711.698H52.377V708.695H57.6797C58.9297 708.695 59.877 708.446 60.5215 707.948C61.1758 707.44 61.5029 706.732 61.5029 705.824V705.795C61.5029 704.955 61.2148 704.306 60.6387 703.847C60.0625 703.378 59.2568 703.144 58.2217 703.144H52.377V699.862H59.3643C60.7021 699.862 61.8545 700.077 62.8213 700.507C63.7881 700.937 64.5352 701.552 65.0625 702.353C65.5898 703.144 65.8535 704.081 65.8535 705.165V705.194C65.8535 705.966 65.6729 706.684 65.3115 707.348C64.96 708.002 64.4766 708.549 63.8613 708.988C63.2461 709.418 62.5479 709.687 61.7666 709.794V709.882C62.7529 709.95 63.627 710.214 64.3887 710.673C65.1504 711.122 65.7461 711.718 66.1758 712.46C66.6152 713.192 66.835 714.022 66.835 714.95V714.979C66.835 716.21 66.5371 717.274 65.9414 718.173C65.3555 719.071 64.5156 719.77 63.4219 720.268C62.3379 720.756 61.0391 721 59.5254 721H52.377ZM50.165 721V699.862H54.5889V721H50.165ZM78.8906 721.366C76.8008 721.366 74.9893 720.922 73.4561 720.033C71.9326 719.145 70.7559 717.885 69.9258 716.254C69.1055 714.613 68.6953 712.675 68.6953 710.438V710.409C68.6953 708.163 69.1104 706.225 69.9404 704.594C70.7705 702.963 71.9473 701.708 73.4707 700.829C75.0039 699.94 76.8105 699.496 78.8906 699.496C80.9805 699.496 82.7871 699.94 84.3105 700.829C85.834 701.718 87.0107 702.978 87.8408 704.608C88.6709 706.229 89.0859 708.163 89.0859 710.409V710.438C89.0859 712.675 88.6709 714.613 87.8408 716.254C87.0107 717.885 85.834 719.145 84.3105 720.033C82.7969 720.922 80.9902 721.366 78.8906 721.366ZM78.8906 717.616C80.0625 717.616 81.0732 717.323 81.9229 716.737C82.7725 716.142 83.4268 715.307 83.8857 714.232C84.3447 713.158 84.5742 711.894 84.5742 710.438V710.409C84.5742 708.935 84.3398 707.665 83.8711 706.601C83.4121 705.526 82.7529 704.701 81.8936 704.125C81.0439 703.539 80.043 703.246 78.8906 703.246C77.7383 703.246 76.7324 703.534 75.873 704.11C75.0234 704.687 74.3643 705.512 73.8955 706.586C73.4365 707.65 73.207 708.925 73.207 710.409V710.438C73.207 711.903 73.4365 713.173 73.8955 714.247C74.3643 715.321 75.0234 716.151 75.873 716.737C76.7227 717.323 77.7285 717.616 78.8906 717.616ZM91.9424 721V699.862H105.946V703.51H96.3662V708.578H105.404V712.035H96.3662V717.353H105.946V721H91.9424ZM109.14 721V699.862H113.563V721H109.14ZM117.079 721V699.862H120.946L132.445 716.4L128.739 713.603H130.585V699.862H134.994V721H131.156L119.643 704.359L123.349 707.157H121.488V721H117.079ZM148.046 721.366C146.464 721.366 145.043 721.117 143.783 720.619C142.533 720.121 141.469 719.398 140.59 718.451C139.711 717.494 139.037 716.337 138.568 714.979C138.1 713.622 137.865 712.084 137.865 710.365V710.351C137.865 708.085 138.275 706.146 139.096 704.535C139.916 702.914 141.078 701.669 142.582 700.8C144.096 699.931 145.883 699.496 147.943 699.496C149.643 699.496 151.142 699.799 152.44 700.404C153.739 701 154.794 701.82 155.604 702.865C156.425 703.91 156.952 705.097 157.187 706.425L157.23 706.63H152.792L152.733 706.483C152.382 705.458 151.796 704.662 150.976 704.096C150.155 703.529 149.149 703.246 147.958 703.246C146.796 703.246 145.795 703.524 144.955 704.081C144.125 704.628 143.485 705.429 143.036 706.483C142.597 707.538 142.377 708.812 142.377 710.307V710.321C142.377 711.464 142.509 712.489 142.772 713.397C143.036 714.296 143.417 715.058 143.915 715.683C144.423 716.308 145.028 716.786 145.731 717.118C146.444 717.45 147.24 717.616 148.119 717.616C149.076 717.616 149.921 717.44 150.653 717.089C151.396 716.728 151.977 716.225 152.396 715.58C152.826 714.926 153.061 714.164 153.1 713.295L153.114 712.987H148.28V709.691H157.421V712.123C157.421 713.559 157.206 714.848 156.776 715.99C156.356 717.133 155.741 718.104 154.931 718.905C154.13 719.706 153.148 720.316 151.986 720.736C150.824 721.156 149.511 721.366 148.046 721.366Z" fill="#5CA346"/>
<path d="M44.0518 312.366C41.9912 312.366 40.2041 311.927 38.6904 311.048C37.1865 310.169 36.0244 308.914 35.2041 307.283C34.3936 305.643 33.9883 303.689 33.9883 301.424V301.409C33.9883 299.134 34.3984 297.186 35.2188 295.564C36.0391 293.934 37.2012 292.684 38.7051 291.814C40.209 290.936 41.9912 290.496 44.0518 290.496C45.7607 290.496 47.2842 290.828 48.6221 291.492C49.96 292.156 51.0342 293.069 51.8447 294.231C52.6553 295.384 53.1289 296.712 53.2656 298.216L53.2803 298.348H48.9736L48.915 298.099C48.749 297.317 48.4512 296.639 48.0215 296.062C47.5918 295.486 47.04 295.042 46.3662 294.729C45.7021 294.407 44.9307 294.246 44.0518 294.246C42.9189 294.246 41.9375 294.534 41.1074 295.11C40.2773 295.687 39.6328 296.512 39.1738 297.586C38.7246 298.65 38.5 299.92 38.5 301.395V301.409C38.5 302.894 38.7246 304.178 39.1738 305.262C39.6328 306.336 40.2773 307.166 41.1074 307.752C41.9473 308.328 42.9287 308.616 44.0518 308.616C44.9014 308.616 45.6582 308.46 46.3223 308.147C46.9961 307.835 47.5576 307.386 48.0068 306.8C48.4561 306.204 48.7734 305.486 48.959 304.646L48.9883 304.5H53.2949L53.2803 304.661C53.1436 306.155 52.665 307.483 51.8447 308.646C51.0342 309.808 49.96 310.721 48.6221 311.385C47.2842 312.039 45.7607 312.366 44.0518 312.366ZM56.0342 312V290.862H60.458V308.353H69.7012V312H56.0342ZM74.5498 305.335V301.878H79.7354C81.0049 301.878 81.9912 301.556 82.6943 300.911C83.4072 300.257 83.7637 299.329 83.7637 298.128V298.099C83.7637 296.897 83.4072 295.975 82.6943 295.33C81.9912 294.686 81.0049 294.363 79.7354 294.363H74.5498V290.862H80.8193C82.3037 290.862 83.6025 291.165 84.7158 291.771C85.8291 292.366 86.6934 293.206 87.3086 294.29C87.9336 295.374 88.2461 296.639 88.2461 298.084V298.113C88.2461 299.568 87.9336 300.838 87.3086 301.922C86.6934 303.006 85.8291 303.846 84.7158 304.441C83.6025 305.037 82.3037 305.335 80.8193 305.335H74.5498ZM72.3232 312V290.862H76.7471V312H72.3232Z" fill="#5CA346"/>
<path d="M367.345 810.335V806.878H372.53C373.8 806.878 374.786 806.556 375.489 805.911C376.202 805.257 376.559 804.329 376.559 803.128V803.099C376.559 801.897 376.202 800.975 375.489 800.33C374.786 799.686 373.8 799.363 372.53 799.363H367.345V795.862H373.614C375.099 795.862 376.397 796.165 377.511 796.771C378.624 797.366 379.488 798.206 380.104 799.29C380.729 800.374 381.041 801.639 381.041 803.084V803.113C381.041 804.568 380.729 805.838 380.104 806.922C379.488 808.006 378.624 808.846 377.511 809.441C376.397 810.037 375.099 810.335 373.614 810.335H367.345ZM365.118 817V795.862H369.542V817H365.118ZM383.663 817V795.862H388.087V813.353H397.33V817H383.663ZM399.952 817V795.862H403.819L415.318 812.4L411.612 809.603H413.458V795.862H417.867V817H414.029L402.516 800.359L406.222 803.157H404.361V817H399.952Z" fill="#5CA346"/>
<path d="M429.836 728.61C427.053 728.61 424.619 728.203 422.536 727.39C420.469 726.56 418.841 725.38 417.653 723.85C416.465 722.303 415.798 720.448 415.651 718.283L415.627 717.893H422.585L422.634 718.161C422.797 719.073 423.203 719.862 423.854 720.529C424.522 721.18 425.384 721.693 426.442 722.067C427.5 722.425 428.697 722.604 430.031 722.604C431.398 722.604 432.57 722.425 433.547 722.067C434.54 721.693 435.305 721.172 435.842 720.505C436.395 719.821 436.672 719.032 436.672 718.137V718.112C436.672 716.924 436.2 715.996 435.256 715.329C434.328 714.646 432.766 714.076 430.568 713.62L426.857 712.888C423.391 712.188 420.778 711.008 419.021 709.348C417.263 707.688 416.384 705.531 416.384 702.878V702.854C416.384 700.705 416.962 698.833 418.117 697.238C419.273 695.627 420.86 694.382 422.878 693.503C424.896 692.608 427.207 692.16 429.812 692.16C432.53 692.16 434.873 692.583 436.843 693.43C438.828 694.276 440.375 695.472 441.481 697.019C442.588 698.565 443.199 700.363 443.312 702.414L443.337 702.878H436.379L436.354 702.585C436.224 701.657 435.874 700.868 435.305 700.217C434.735 699.549 433.978 699.037 433.034 698.679C432.106 698.321 431.032 698.142 429.812 698.142C428.558 698.142 427.476 698.329 426.564 698.703C425.653 699.061 424.953 699.558 424.465 700.192C423.993 700.827 423.757 701.568 423.757 702.414V702.438C423.757 703.545 424.229 704.44 425.173 705.124C426.117 705.808 427.598 706.353 429.616 706.76L433.352 707.517C435.809 708.005 437.827 708.68 439.406 709.543C440.985 710.406 442.149 711.496 442.897 712.814C443.662 714.117 444.045 715.687 444.045 717.526V717.551C444.045 719.813 443.475 721.774 442.336 723.435C441.213 725.078 439.585 726.356 437.453 727.268C435.337 728.163 432.798 728.61 429.836 728.61ZM448.562 728V692.771H471.901V698.85H455.935V707.297H470.998V713.059H455.935V721.921H471.901V728H448.562ZM484.304 717.575V708.884H484.768L497.683 692.771H505.886L492.946 708.688H491.506L484.304 717.575ZM477.224 728V692.771H484.597V728H477.224ZM497.976 728L486.672 711.301L491.994 706.467L506.789 728H497.976Z" fill="#5CA346"/>
<path d="M31.4521 779L44.3428 758.565L42.6582 764.547V761.178L31.5254 743.771H40.1924L47.6875 756.466H51.0811L46.2959 759.322L55.4023 743.771H63.6299L52.082 761.3V764.693L50.3486 758.712L63.4834 779H55.085L47.3457 766.646H43.9521L48.835 763.888L39.4111 779H31.4521ZM71.3203 767.892V762.13H79.9629C82.0788 762.13 83.7227 761.593 84.8945 760.519C86.0827 759.428 86.6768 757.882 86.6768 755.88V755.831C86.6768 753.829 86.0827 752.291 84.8945 751.217C83.7227 750.143 82.0788 749.605 79.9629 749.605H71.3203V743.771H81.7695C84.2435 743.771 86.4082 744.275 88.2637 745.284C90.1191 746.277 91.5596 747.677 92.585 749.483C93.6266 751.29 94.1475 753.398 94.1475 755.807V755.855C94.1475 758.281 93.6266 760.396 92.585 762.203C91.5596 764.01 90.1191 765.41 88.2637 766.402C86.4082 767.395 84.2435 767.892 81.7695 767.892H71.3203ZM67.6094 779V743.771H74.9824V779H67.6094ZM98.5176 779V743.771H111.97C115.502 743.771 118.513 744.446 121.003 745.797C123.509 747.148 125.43 749.125 126.765 751.729C128.099 754.317 128.767 757.475 128.767 761.202V761.251C128.767 764.978 128.099 768.168 126.765 770.821C125.446 773.474 123.534 775.501 121.027 776.9C118.521 778.3 115.502 779 111.97 779H98.5176ZM105.891 772.896H111.091C113.288 772.896 115.144 772.457 116.657 771.578C118.171 770.699 119.31 769.397 120.075 767.672C120.856 765.947 121.247 763.814 121.247 761.275V761.227C121.247 758.769 120.848 756.694 120.051 755.001C119.27 753.308 118.122 752.031 116.608 751.168C115.095 750.289 113.256 749.85 111.091 749.85H105.891V772.896Z" fill="#5CA346"/>
<path d="M500.387 356V320.771H508.907L518.917 346.088H519.063L529.073 320.771H537.594V356H531.026V332.172H527.608L534.981 321.747L521.31 356H516.671L502.999 321.747L510.372 332.172H506.954V356H500.387ZM541.573 356L554.464 335.565L552.779 341.547V338.178L541.646 320.771H550.313L557.809 333.466H561.202L556.417 336.322L565.523 320.771H573.751L562.203 338.3V341.693L560.47 335.712L573.604 356H565.206L557.467 343.646H554.073L558.956 340.888L549.532 356H541.573ZM577.73 356V320.771H584.176L603.341 348.334L597.164 343.671H600.24V320.771H607.589V356H601.192L582.003 328.266L588.18 332.929H585.079V356H577.73Z" fill="#5CA346"/>
<path d="M101.598 906.831C92.5645 906.831 84.7275 905.195 78.0869 901.924C71.4951 898.652 66.3682 894.087 62.7061 888.228C59.0928 882.319 57.2861 875.459 57.2861 867.646V799.312H79.4053V865.669C79.4053 870.21 80.2598 874.165 81.9688 877.534C83.7266 880.854 86.2412 883.442 89.5127 885.298C92.833 887.153 96.8613 888.081 101.598 888.081C106.334 888.081 110.338 887.153 113.609 885.298C116.93 883.442 119.444 880.854 121.153 877.534C122.862 874.165 123.717 870.21 123.717 865.669V799.312H145.836V867.646C145.836 875.459 144.029 882.319 140.416 888.228C136.852 894.087 131.749 898.652 125.108 901.924C118.517 905.195 110.68 906.831 101.598 906.831ZM202.086 906.831C193.736 906.831 186.437 905.61 180.187 903.169C173.985 900.679 169.103 897.139 165.538 892.549C161.974 887.91 159.972 882.344 159.532 875.85L159.459 874.678H180.333L180.479 875.483C180.968 878.218 182.188 880.586 184.142 882.588C186.144 884.541 188.731 886.079 191.905 887.202C195.079 888.276 198.668 888.813 202.672 888.813C206.773 888.813 210.289 888.276 213.219 887.202C216.197 886.079 218.492 884.517 220.104 882.515C221.764 880.464 222.594 878.096 222.594 875.41V875.337C222.594 871.772 221.178 868.989 218.346 866.987C215.562 864.937 210.875 863.228 204.283 861.86L193.15 859.663C182.75 857.563 174.913 854.023 169.64 849.043C164.366 844.062 161.729 837.593 161.729 829.634V829.561C161.729 823.115 163.463 817.5 166.93 812.715C170.396 807.881 175.157 804.146 181.212 801.509C187.267 798.823 194.2 797.48 202.013 797.48C210.167 797.48 217.198 798.75 223.106 801.289C229.063 803.828 233.702 807.417 237.022 812.056C240.343 816.694 242.174 822.09 242.516 828.242L242.589 829.634H221.715L221.642 828.755C221.251 825.972 220.201 823.604 218.492 821.65C216.783 819.648 214.513 818.11 211.681 817.036C208.897 815.962 205.675 815.425 202.013 815.425C198.253 815.425 195.006 815.986 192.271 817.109C189.537 818.184 187.438 819.673 185.973 821.577C184.557 823.481 183.849 825.703 183.849 828.242V828.315C183.849 831.636 185.265 834.321 188.097 836.372C190.929 838.423 195.372 840.059 201.427 841.279L212.633 843.55C220.006 845.015 226.061 847.041 230.797 849.629C235.533 852.217 239.024 855.488 241.271 859.443C243.565 863.35 244.713 868.062 244.713 873.579V873.652C244.713 880.439 243.004 886.323 239.586 891.304C236.217 896.235 231.334 900.068 224.938 902.803C218.59 905.488 210.973 906.831 202.086 906.831ZM258.263 905V799.312H298.619C309.215 799.312 318.248 801.338 325.719 805.391C333.238 809.443 339 815.376 343.004 823.188C347.008 830.952 349.01 840.425 349.01 851.606V851.753C349.01 862.935 347.008 872.505 343.004 880.464C339.049 888.423 333.312 894.502 325.792 898.701C318.272 902.9 309.215 905 298.619 905H258.263ZM280.382 886.689H295.982C302.574 886.689 308.141 885.371 312.682 882.734C317.223 880.098 320.641 876.191 322.936 871.016C325.279 865.84 326.451 859.443 326.451 851.826V851.68C326.451 844.307 325.255 838.081 322.862 833.003C320.519 827.925 317.076 824.092 312.535 821.504C307.994 818.867 302.477 817.549 295.982 817.549H280.382V886.689Z" fill="#5CA346"/>
<path d="M445.263 1085.27C421.223 1085.27 400.373 1080.15 382.714 1069.89C365.168 1059.64 351.61 1045 342.04 1025.97C332.584 1006.83 327.855 984.044 327.855 957.611V957.44C327.855 930.894 332.641 908.165 342.211 889.252C351.781 870.225 365.339 855.642 382.885 845.502C400.43 835.248 421.223 830.121 445.263 830.121C465.201 830.121 482.974 833.995 498.583 841.742C514.192 849.49 526.724 860.142 536.181 873.7C545.637 887.144 551.163 902.639 552.758 920.185L552.929 921.723H502.685L502.001 918.817C500.064 909.703 496.589 901.785 491.576 895.062C486.563 888.34 480.126 883.157 472.265 879.511C464.517 875.751 455.517 873.871 445.263 873.871C432.047 873.871 420.596 877.232 410.912 883.954C401.228 890.676 393.708 900.303 388.354 912.836C383.113 925.255 380.492 940.066 380.492 957.27V957.44C380.492 974.758 383.113 989.74 388.354 1002.39C393.708 1014.92 401.228 1024.6 410.912 1031.44C420.71 1038.16 432.16 1041.52 445.263 1041.52C455.175 1041.52 464.005 1039.7 471.752 1036.05C479.613 1032.41 486.164 1027.17 491.405 1020.33C496.646 1013.38 500.349 1005.01 502.514 995.209L502.855 993.5H553.1L552.929 995.38C551.334 1012.81 545.751 1028.31 536.181 1041.86C526.724 1055.42 514.192 1066.07 498.583 1073.82C482.974 1081.46 465.201 1085.27 445.263 1085.27ZM585.058 1081V834.394H636.669V934.54H747.753V834.394H799.364V1081H747.753V977.094H636.669V1081H585.058ZM840.38 1081V834.394H1001.88V876.947H891.991V943.085H992.309V983.93H891.991V1081H840.38Z" fill="#5CA346"/>
<path d="M930.984 481V472.211H947.039C950.424 472.211 953.016 471.534 954.812 470.18C956.609 468.799 957.508 466.807 957.508 464.203V464.125C957.508 462.406 957.091 460.961 956.258 459.789C955.424 458.591 954.188 457.693 952.547 457.094C950.932 456.495 948.927 456.195 946.531 456.195H930.984V448.188H945.125C948.458 448.188 950.984 447.523 952.703 446.195C954.448 444.841 955.32 442.953 955.32 440.531V440.453C955.32 438.214 954.552 436.482 953.016 435.258C951.479 434.008 949.331 433.383 946.57 433.383H930.984V424.633H949.617C953.185 424.633 956.258 425.206 958.836 426.352C961.414 427.497 963.406 429.138 964.812 431.273C966.219 433.383 966.922 435.883 966.922 438.773V438.852C966.922 440.909 966.44 442.823 965.477 444.594C964.539 446.339 963.25 447.797 961.609 448.969C959.969 450.115 958.107 450.831 956.023 451.117V451.352C958.654 451.534 960.984 452.237 963.016 453.461C965.047 454.659 966.635 456.247 967.781 458.227C968.953 460.18 969.539 462.393 969.539 464.867V464.945C969.539 468.227 968.745 471.065 967.156 473.461C965.594 475.857 963.354 477.719 960.438 479.047C957.547 480.349 954.083 481 950.047 481H930.984ZM925.086 481V424.633H936.883V481H925.086ZM989.734 481V434.359H973.445V424.633H1017.86V434.359H1001.53V481H989.734ZM1046.34 481.977C1040.84 481.977 1036.08 480.805 1032.04 478.461C1028.03 476.117 1024.93 472.771 1022.74 468.422C1020.58 464.047 1019.5 458.839 1019.5 452.797V452.758C1019.5 446.69 1020.59 441.495 1022.78 437.172C1024.97 432.823 1028.07 429.49 1032.08 427.172C1036.09 424.828 1040.84 423.656 1046.34 423.656C1050.89 423.656 1054.96 424.542 1058.52 426.312C1062.09 428.083 1064.96 430.518 1067.12 433.617C1069.28 436.69 1070.54 440.232 1070.91 444.242L1070.95 444.594H1059.46L1059.3 443.93C1058.86 441.846 1058.07 440.036 1056.92 438.5C1055.78 436.964 1054.3 435.779 1052.51 434.945C1050.74 434.086 1048.68 433.656 1046.34 433.656C1043.32 433.656 1040.7 434.424 1038.48 435.961C1036.27 437.497 1034.55 439.698 1033.33 442.562C1032.13 445.401 1031.53 448.786 1031.53 452.719V452.758C1031.53 456.716 1032.13 460.141 1033.33 463.031C1034.55 465.896 1036.27 468.109 1038.48 469.672C1040.72 471.208 1043.34 471.977 1046.34 471.977C1048.6 471.977 1050.62 471.56 1052.39 470.727C1054.19 469.893 1055.68 468.695 1056.88 467.133C1058.08 465.544 1058.93 463.63 1059.42 461.391L1059.5 461H1070.98L1070.95 461.43C1070.58 465.414 1069.3 468.956 1067.12 472.055C1064.96 475.154 1062.09 477.589 1058.52 479.359C1054.96 481.104 1050.89 481.977 1046.34 481.977Z" fill="#5CA346"/>
<path d="M827.826 564V505.699H807.465V493.541H862.982V505.699H842.572V564H827.826ZM886.029 564L867.377 493.541H882.66L893.793 544.029H894.086L907.074 493.541H920.014L933.002 544.029H933.295L944.477 493.541H959.76L941.059 564H926.654L913.715 516.783H913.422L900.434 564H886.029ZM967.719 564V493.541H994.623C1001.69 493.541 1007.71 494.892 1012.69 497.594C1017.7 500.296 1021.54 504.251 1024.21 509.459C1026.88 514.635 1028.22 520.95 1028.22 528.404V528.502C1028.22 535.956 1026.88 542.337 1024.21 547.643C1021.58 552.949 1017.75 557.001 1012.74 559.801C1007.73 562.6 1001.69 564 994.623 564H967.719ZM982.465 551.793H992.865C997.26 551.793 1000.97 550.914 1004 549.156C1007.03 547.398 1009.3 544.794 1010.83 541.344C1012.4 537.893 1013.18 533.629 1013.18 528.551V528.453C1013.18 523.538 1012.38 519.387 1010.79 516.002C1009.22 512.617 1006.93 510.061 1003.9 508.336C1000.87 506.578 997.195 505.699 992.865 505.699H982.465V551.793Z" fill="#5CA346"/>
<path d="M857.489 288L880.692 251.218L877.66 261.984V255.92L857.621 224.587H873.222L886.713 247.438H892.821L884.208 252.58L900.6 224.587H915.409L894.623 256.14V262.248L891.503 251.481L915.146 288H900.028L886.098 265.764H879.989L888.778 260.798L871.815 288H857.489ZM917.914 288L940.062 224.587H951.752V236.892H947.709L931.845 288H917.914ZM929.823 272.619L933.075 262.688H962.65L965.902 272.619H929.823ZM963.837 288L947.973 236.892V224.587H955.663L977.768 288H963.837ZM1009.76 289.099C1005.01 289.099 1000.75 288.352 996.972 286.857C993.222 285.363 990.028 283.195 987.392 280.354C984.755 277.482 982.733 274.011 981.327 269.938C979.921 265.866 979.218 261.252 979.218 256.096V256.052C979.218 249.255 980.448 243.439 982.909 238.605C985.37 233.742 988.856 230.007 993.368 227.399C997.909 224.792 1003.27 223.488 1009.45 223.488C1014.55 223.488 1019.05 224.396 1022.94 226.213C1026.84 228 1030 230.461 1032.44 233.596C1034.9 236.73 1036.48 240.29 1037.18 244.274L1037.31 244.89H1024L1023.82 244.45C1022.77 241.374 1021.01 238.986 1018.55 237.287C1016.09 235.588 1013.07 234.738 1009.5 234.738C1006.01 234.738 1003.01 235.573 1000.49 237.243C997.997 238.884 996.078 241.286 994.73 244.45C993.412 247.614 992.753 251.438 992.753 255.92V255.964C992.753 259.392 993.148 262.468 993.939 265.192C994.73 267.888 995.873 270.173 997.367 272.048C998.891 273.923 1000.71 275.358 1002.82 276.354C1004.96 277.351 1007.34 277.849 1009.98 277.849C1012.85 277.849 1015.38 277.321 1017.58 276.267C1019.81 275.183 1021.55 273.674 1022.81 271.74C1024.1 269.777 1024.8 267.492 1024.92 264.885L1024.96 263.962H1010.46V254.074H1037.88V261.369C1037.88 265.676 1037.24 269.543 1035.95 272.971C1034.69 276.398 1032.85 279.313 1030.41 281.716C1028.01 284.118 1025.07 285.949 1021.58 287.209C1018.09 288.469 1014.15 289.099 1009.76 289.099Z" fill="#5CA346"/>
<path d="M925.225 220V86.1279H1013.92V109.229H953.242V141.328H1010.48V163.223H953.242V196.899H1013.92V220H925.225ZM1066.15 220V109.229H1027.46V86.1279H1132.94V109.229H1094.17V220H1066.15ZM1148.44 220V86.1279H1176.46V140.493H1236.76V86.1279H1264.78V220H1236.76V163.594H1176.46V220H1148.44Z" fill="#5CA346"/>
<path d="M934.051 401V316.449H951.746V350.785H989.832V316.449H1007.53V401H989.832V365.375H951.746V401H934.051ZM1038.58 375.98V355.121H1039.7L1070.69 316.449H1090.38L1059.32 354.652H1055.87L1038.58 375.98ZM1021.59 401V316.449H1039.29V401H1021.59ZM1071.39 401L1044.27 360.922L1057.04 349.32L1092.55 401H1071.39ZM1099.99 401V316.449H1132.27C1140.75 316.449 1147.98 318.07 1153.95 321.312C1159.97 324.555 1164.58 329.301 1167.78 335.551C1170.98 341.762 1172.59 349.34 1172.59 358.285V358.402C1172.59 367.348 1170.98 375.004 1167.78 381.371C1164.62 387.738 1160.03 392.602 1154.01 395.961C1148 399.32 1140.75 401 1132.27 401H1099.99ZM1117.68 386.352H1130.16C1135.44 386.352 1139.89 385.297 1143.52 383.188C1147.16 381.078 1149.89 377.953 1151.73 373.812C1153.6 369.672 1154.54 364.555 1154.54 358.461V358.344C1154.54 352.445 1153.58 347.465 1151.67 343.402C1149.79 339.34 1147.04 336.273 1143.41 334.203C1139.77 332.094 1135.36 331.039 1130.16 331.039H1117.68V386.352Z" fill="#5CA346"/>
<path d="M470.379 484V364.22H516.116C528.125 364.22 538.362 366.516 546.829 371.109C555.351 375.702 561.881 382.426 566.419 391.28C570.957 400.079 573.226 410.815 573.226 423.487V423.653C573.226 436.326 570.957 447.172 566.419 456.192C561.937 465.213 555.434 472.102 546.912 476.861C538.39 481.62 528.125 484 516.116 484H470.379ZM495.447 463.248H513.128C520.599 463.248 526.907 461.754 532.054 458.766C537.2 455.777 541.074 451.35 543.675 445.484C546.331 439.618 547.659 432.369 547.659 423.736V423.57C547.659 415.214 546.303 408.159 543.592 402.403C540.936 396.648 537.034 392.304 531.888 389.371C526.741 386.383 520.488 384.889 513.128 384.889H495.447V463.248ZM643.45 486.075C631.608 486.075 621.342 483.557 612.654 478.521C604.021 473.486 597.353 466.347 592.649 457.105C588.001 447.809 585.677 436.824 585.677 424.151V423.985C585.677 411.257 588.029 400.273 592.732 391.031C597.436 381.79 604.104 374.679 612.737 369.698C621.425 364.662 631.663 362.145 643.45 362.145C655.293 362.145 665.53 364.662 674.163 369.698C682.796 374.734 689.464 381.873 694.168 391.114C698.872 400.3 701.224 411.257 701.224 423.985V424.151C701.224 436.824 698.872 447.809 694.168 457.105C689.464 466.347 682.796 473.486 674.163 478.521C665.586 483.557 655.348 486.075 643.45 486.075ZM643.45 464.825C650.091 464.825 655.818 463.165 660.633 459.845C665.447 456.469 669.155 451.738 671.756 445.65C674.357 439.563 675.657 432.397 675.657 424.151V423.985C675.657 415.629 674.329 408.435 671.673 402.403C669.072 396.316 665.337 391.64 660.467 388.375C655.652 385.055 649.98 383.395 643.45 383.395C636.92 383.395 631.22 385.027 626.351 388.292C621.536 391.557 617.801 396.233 615.145 402.32C612.544 408.352 611.243 415.574 611.243 423.985V424.151C611.243 432.452 612.544 439.646 615.145 445.733C617.801 451.821 621.536 456.524 626.351 459.845C631.165 463.165 636.865 464.825 643.45 464.825ZM771.365 486.075C762.4 486.075 754.349 484.664 747.21 481.842C740.127 479.02 734.095 474.924 729.114 469.557C724.134 464.133 720.315 457.576 717.659 449.884C715.003 442.192 713.675 433.476 713.675 423.736V423.653C713.675 410.815 715.999 399.83 720.647 390.699C725.296 381.513 731.881 374.457 740.403 369.532C748.981 364.607 759.108 362.145 770.784 362.145C780.413 362.145 788.908 363.86 796.268 367.291C803.628 370.667 809.604 375.315 814.197 381.236C818.846 387.158 821.834 393.881 823.162 401.407L823.411 402.569H798.26L797.928 401.739C795.936 395.929 792.615 391.419 787.967 388.209C783.318 384.999 777.618 383.395 770.867 383.395C764.282 383.395 758.61 384.972 753.851 388.126C749.147 391.225 745.522 395.763 742.977 401.739C740.486 407.716 739.241 414.938 739.241 423.404V423.487C739.241 429.962 739.988 435.772 741.482 440.919C742.977 446.01 745.135 450.326 747.957 453.868C750.835 457.41 754.266 460.121 758.25 462.003C762.29 463.884 766.8 464.825 771.78 464.825C777.203 464.825 781.99 463.829 786.141 461.837C790.346 459.789 793.639 456.939 796.019 453.287C798.453 449.579 799.782 445.263 800.003 440.338L800.086 438.595H772.693V419.918H824.49V433.697C824.49 441.832 823.273 449.137 820.838 455.611C818.458 462.086 814.972 467.592 810.379 472.13C805.841 476.668 800.28 480.126 793.694 482.506C787.109 484.885 779.666 486.075 771.365 486.075ZM841.092 484V364.22H920.447V384.889H866.16V413.609H917.376V433.199H866.16V463.331H920.447V484H841.092Z" fill="#5CA346"/>
</svg>
