<svg width="17" height="17" viewBox="0 0 17 17" fill="none" xmlns="http://www.w3.org/2000/svg">
<g id="akar-icons:linkedin-fill" clip-path="url(#clip0_449_1013)" filter="url(#filter0_i_449_1013)">
<g id="Group">
<path id="Vector" fill-rule="evenodd" clip-rule="evenodd" d="M0.769531 2.52795C0.769531 2.20404 0.898204 1.89339 1.12724 1.66435C1.35628 1.43531 1.66692 1.30664 1.99083 1.30664H14.1653C14.3258 1.30638 14.4848 1.33778 14.6332 1.39905C14.7816 1.46032 14.9164 1.55024 15.03 1.66369C15.1435 1.77713 15.2336 1.91186 15.295 2.06016C15.3565 2.20846 15.388 2.36742 15.388 2.52795V14.7024C15.3881 14.863 15.3566 15.022 15.2953 15.1704C15.234 15.3187 15.144 15.4536 15.0305 15.5671C14.917 15.6807 14.7822 15.7707 14.6339 15.8322C14.4855 15.8936 14.3265 15.9252 14.166 15.9251H1.99083C1.83039 15.9251 1.67153 15.8935 1.52331 15.832C1.37509 15.7706 1.24042 15.6806 1.12701 15.5671C1.01359 15.4536 0.923644 15.3189 0.862307 15.1707C0.80097 15.0224 0.769444 14.8635 0.769531 14.7031V2.52795ZM6.55577 6.88025H8.53524V7.8743C8.82096 7.30285 9.55188 6.78855 10.6503 6.78855C12.756 6.78855 13.255 7.92679 13.255 10.0152V13.8838H11.124V10.491C11.124 9.30159 10.8383 8.63047 10.1127 8.63047C9.10602 8.63047 8.6874 9.35408 8.6874 10.491V13.8838H6.55577V6.88025ZM2.90116 13.7928H5.0328V6.78855H2.90116V13.7921V13.7928ZM5.33779 4.50409C5.34181 4.6866 5.30933 4.86808 5.24226 5.03787C5.1752 5.20766 5.07489 5.36235 4.94723 5.49285C4.81957 5.62335 4.66713 5.72704 4.49886 5.79782C4.33059 5.86861 4.14987 5.90508 3.96731 5.90508C3.78475 5.90508 3.60404 5.86861 3.43576 5.79782C3.26749 5.72704 3.11505 5.62335 2.98739 5.49285C2.85973 5.36235 2.75943 5.20766 2.69236 5.03787C2.62529 4.86808 2.59282 4.6866 2.59683 4.50409C2.60472 4.14584 2.75258 3.80492 3.00873 3.55435C3.26489 3.30377 3.60898 3.16346 3.96731 3.16346C4.32565 3.16346 4.66974 3.30377 4.92589 3.55435C5.18205 3.80492 5.3299 4.14584 5.33779 4.50409Z" fill="#485B7C"/>
</g>
</g>
<defs>
<filter id="filter0_i_449_1013" x="0.105469" y="0.642578" width="15.9473" height="19.9473" filterUnits="userSpaceOnUse" color-interpolation-filters="sRGB">
<feFlood flood-opacity="0" result="BackgroundImageFix"/>
<feBlend mode="normal" in="SourceGraphic" in2="BackgroundImageFix" result="shape"/>
<feColorMatrix in="SourceAlpha" type="matrix" values="0 0 0 0 0 0 0 0 0 0 0 0 0 0 0 0 0 0 127 0" result="hardAlpha"/>
<feOffset dy="4"/>
<feGaussianBlur stdDeviation="7.5"/>
<feComposite in2="hardAlpha" operator="arithmetic" k2="-1" k3="1"/>
<feColorMatrix type="matrix" values="0 0 0 0 0 0 0 0 0 0 0 0 0 0 0 0 0 0 0.2 0"/>
<feBlend mode="normal" in2="shape" result="effect1_innerShadow_449_1013"/>
</filter>
<clipPath id="clip0_449_1013">
<rect width="15.9474" height="15.9474" fill="white" transform="translate(0.105469 0.642578)"/>
</clipPath>
</defs>
</svg>
