<svg width="400" height="128" viewBox="0 0 400 128" fill="none" xmlns="http://www.w3.org/2000/svg">
<path d="M396.166 127.796H3.83387C2.81706 127.796 1.84219 127.391 1.1232 126.672C0.404214 125.953 0 124.978 0 123.962V74.1214C2.71148 74.1214 5.31113 73.0441 7.22844 71.1268C9.14574 69.2095 10.2236 66.6092 10.2236 63.8978C10.2236 61.1863 9.14574 58.586 7.22844 56.6687C5.31113 54.7514 2.71148 53.6741 0 53.6741V3.83387C0 2.81706 0.404214 1.84219 1.1232 1.1232C1.84219 0.404214 2.81706 0 3.83387 0H281.492C281.269 0.3886 281.152 0.82899 281.153 1.27733C281.153 1.72567 281.27 2.16593 281.495 2.55404C281.719 2.94215 282.042 3.26476 282.431 3.48879C282.819 3.71282 283.26 3.83075 283.709 3.83075C284.157 3.83075 284.596 3.71282 284.984 3.48879C285.372 3.26476 285.696 2.94215 285.92 2.55404C286.145 2.16593 286.264 1.72567 286.264 1.27733C286.265 0.82899 286.146 0.3886 285.923 0H396.166C397.183 0 398.158 0.404214 398.877 1.1232C399.596 1.84219 400 2.81706 400 3.83387V53.6741C397.289 53.6741 394.689 54.7514 392.772 56.6687C390.854 58.586 389.776 61.1863 389.776 63.8978C389.776 66.6092 390.854 69.2095 392.772 71.1268C394.689 73.0441 397.289 74.1214 400 74.1214V123.962C400 124.978 399.596 125.953 398.877 126.672C398.158 127.391 397.183 127.796 396.166 127.796ZM283.706 121.406C283.201 121.406 282.706 121.555 282.286 121.836C281.866 122.117 281.538 122.517 281.345 122.984C281.151 123.451 281.101 123.964 281.2 124.46C281.299 124.956 281.542 125.411 281.899 125.769C282.256 126.126 282.711 126.37 283.207 126.468C283.703 126.567 284.217 126.516 284.685 126.323C285.152 126.129 285.549 125.802 285.83 125.382C286.111 124.962 286.262 124.467 286.262 123.962C286.262 123.284 285.993 122.634 285.513 122.155C285.034 121.675 284.384 121.406 283.706 121.406ZM283.706 111.182C283.201 111.182 282.706 111.332 282.286 111.613C281.866 111.894 281.538 112.293 281.345 112.76C281.151 113.227 281.101 113.741 281.2 114.237C281.299 114.732 281.542 115.188 281.899 115.545C282.256 115.903 282.711 116.146 283.207 116.245C283.703 116.343 284.217 116.293 284.685 116.099C285.152 115.906 285.549 115.579 285.83 115.158C286.111 114.738 286.262 114.244 286.262 113.738C286.262 113.06 285.993 112.41 285.513 111.931C285.034 111.452 284.384 111.182 283.706 111.182ZM283.706 100.958C283.201 100.958 282.706 101.108 282.286 101.389C281.866 101.67 281.538 102.07 281.345 102.537C281.151 103.004 281.101 103.517 281.2 104.013C281.299 104.509 281.542 104.964 281.899 105.321C282.256 105.679 282.711 105.922 283.207 106.021C283.703 106.12 284.217 106.069 284.685 105.876C285.152 105.682 285.549 105.355 285.83 104.935C286.111 104.514 286.262 104.02 286.262 103.514C286.262 102.837 285.993 102.187 285.513 101.707C285.034 101.228 284.384 100.958 283.706 100.958ZM283.706 90.7348C283.201 90.7348 282.706 90.8845 282.286 91.1654C281.866 91.4462 281.538 91.8459 281.345 92.3129C281.151 92.78 281.101 93.2935 281.2 93.7893C281.299 94.2851 281.542 94.7404 281.899 95.0978C282.256 95.4553 282.711 95.6987 283.207 95.7973C283.703 95.896 284.217 95.8454 284.685 95.652C285.152 95.4585 285.549 95.1313 285.83 94.711C286.111 94.2906 286.262 93.7962 286.262 93.2907C286.262 92.6129 285.993 91.963 285.513 91.4836C285.034 91.0043 284.384 90.7348 283.706 90.7348ZM283.706 80.5112C283.201 80.5112 282.706 80.6609 282.286 80.9417C281.866 81.2226 281.538 81.6223 281.345 82.0893C281.151 82.5563 281.101 83.0699 281.2 83.5657C281.299 84.0615 281.542 84.5167 281.899 84.8742C282.256 85.2317 282.711 85.4751 283.207 85.5737C283.703 85.6723 284.217 85.6218 284.685 85.4283C285.152 85.2349 285.549 84.9076 285.83 84.4873C286.111 84.067 286.262 83.5726 286.262 83.0671C286.262 82.3892 285.993 81.7393 285.513 81.26C285.034 80.7807 284.384 80.5112 283.706 80.5112ZM283.706 70.2875C283.201 70.2875 282.706 70.4372 282.286 70.7181C281.866 70.9989 281.538 71.3986 281.345 71.8656C281.151 72.3327 281.101 72.8462 281.2 73.342C281.299 73.8378 281.542 74.2931 281.899 74.6506C282.256 75.008 282.711 75.2514 283.207 75.3501C283.703 75.4487 284.217 75.3981 284.685 75.2047C285.152 75.0112 285.549 74.684 285.83 74.2637C286.111 73.8434 286.262 73.349 286.262 72.8435C286.262 72.1656 285.993 71.5157 285.513 71.0363C285.034 70.557 284.384 70.2875 283.706 70.2875ZM283.706 60.0639C283.201 60.0639 282.706 60.2136 282.286 60.4945C281.866 60.7753 281.538 61.175 281.345 61.642C281.151 62.109 281.101 62.6226 281.2 63.1184C281.299 63.6142 281.542 64.0695 281.899 64.4269C282.256 64.7844 282.711 65.0278 283.207 65.1264C283.703 65.225 284.217 65.1745 284.685 64.981C285.152 64.7876 285.549 64.4604 285.83 64.04C286.111 63.6197 286.262 63.1253 286.262 62.6198C286.262 61.9419 285.993 61.292 285.513 60.8127C285.034 60.3334 284.384 60.0639 283.706 60.0639ZM283.706 49.8403C283.201 49.8403 282.706 49.99 282.286 50.2708C281.866 50.5517 281.538 50.9513 281.345 51.4184C281.151 51.8854 281.101 52.3989 281.2 52.8947C281.299 53.3905 281.542 53.8458 281.899 54.2033C282.256 54.5607 282.711 54.8042 283.207 54.9028C283.703 55.0014 284.217 54.9508 284.685 54.7574C285.152 54.5639 285.549 54.2367 285.83 53.8164C286.111 53.3961 286.262 52.9017 286.262 52.3962C286.262 51.7183 285.993 51.0684 285.513 50.5891C285.034 50.1097 284.384 49.8403 283.706 49.8403ZM283.706 39.6166C283.201 39.6166 282.706 39.7663 282.286 40.0472C281.866 40.328 281.538 40.7277 281.345 41.1947C281.151 41.6617 281.101 42.1753 281.2 42.6711C281.299 43.1669 281.542 43.6222 281.899 43.9796C282.256 44.3371 282.711 44.5805 283.207 44.6791C283.703 44.7778 284.217 44.7272 284.685 44.5337C285.152 44.3403 285.549 44.0131 285.83 43.5928C286.111 43.1724 286.262 42.678 286.262 42.1725C286.262 41.4947 285.993 40.8447 285.513 40.3654C285.034 39.8861 284.384 39.6166 283.706 39.6166ZM283.706 29.393C283.201 29.393 282.706 29.5427 282.286 29.8235C281.866 30.1044 281.538 30.504 281.345 30.9711C281.151 31.4381 281.101 31.9517 281.2 32.4475C281.299 32.9433 281.542 33.3985 281.899 33.756C282.256 34.1134 282.711 34.3569 283.207 34.4555C283.703 34.5541 284.217 34.5036 284.685 34.3101C285.152 34.1167 285.549 33.7894 285.83 33.3691C286.111 32.9488 286.262 32.4544 286.262 31.9489C286.262 31.271 285.993 30.6211 285.513 30.1418C285.034 29.6624 284.384 29.393 283.706 29.393ZM283.706 19.1693C283.201 19.1693 282.706 19.319 282.286 19.5999C281.866 19.8807 281.538 20.2804 281.345 20.7474C281.151 21.2145 281.101 21.728 281.2 22.2238C281.299 22.7196 281.542 23.1749 281.899 23.5323C282.256 23.8898 282.711 24.1332 283.207 24.2319C283.703 24.3305 284.217 24.2799 284.685 24.0865C285.152 23.893 285.549 23.5658 285.83 23.1455C286.111 22.7251 286.262 22.2308 286.262 21.7252C286.262 21.0474 285.993 20.3975 285.513 19.9181C285.034 19.4388 284.384 19.1693 283.706 19.1693ZM283.706 8.94569C283.201 8.94569 282.706 9.0954 282.286 9.37625C281.866 9.65709 281.538 10.0568 281.345 10.5238C281.151 10.9908 281.101 11.5044 281.2 12.0002C281.299 12.496 281.542 12.9513 281.899 13.3087C282.256 13.6662 282.711 13.9096 283.207 14.0082C283.703 14.1068 284.217 14.0563 284.685 13.8628C285.152 13.6694 285.549 13.3421 285.83 12.9218C286.111 12.5015 286.262 12.0071 286.262 11.5016C286.262 10.8237 285.993 10.1738 285.513 9.69449C285.034 9.21516 284.384 8.94569 283.706 8.94569Z" fill="url(#paint0_linear_355_55041)"/>
<path d="M149.471 106.706V99.6602H151.991C152.45 99.6602 152.847 99.7448 153.182 99.9141C153.521 100.083 153.783 100.321 153.968 100.627C154.154 100.933 154.247 101.296 154.247 101.716V101.726C154.247 102.22 154.111 102.645 153.841 103C153.574 103.352 153.205 103.589 152.733 103.713L154.442 106.706H153.665L152.044 103.815C152.025 103.819 152.002 103.82 151.976 103.82C151.953 103.82 151.929 103.82 151.903 103.82H150.135V106.706H149.471ZM150.135 103.229H151.937C152.451 103.229 152.85 103.099 153.133 102.839C153.42 102.578 153.563 102.214 153.563 101.745V101.735C153.563 101.273 153.416 100.912 153.124 100.651C152.831 100.388 152.427 100.256 151.913 100.256H150.135V103.229ZM155.868 106.706V99.6602H160.121V100.261H156.532V102.8H159.945V103.396H156.532V106.105H160.121V106.706H155.868ZM162.04 106.706V106.115H164.178C164.793 106.115 165.254 105.996 165.56 105.759C165.866 105.518 166.019 105.183 166.019 104.753V104.743C166.019 104.447 165.944 104.196 165.794 103.991C165.645 103.786 165.428 103.632 165.145 103.527C164.862 103.42 164.52 103.366 164.12 103.366H162.04V102.79H163.949C164.496 102.79 164.917 102.679 165.213 102.458C165.513 102.233 165.663 101.918 165.663 101.511V101.501C165.663 101.11 165.524 100.804 165.248 100.583C164.974 100.362 164.593 100.251 164.105 100.251H162.04V99.6602H164.237C164.67 99.6602 165.042 99.7318 165.355 99.875C165.667 100.018 165.908 100.22 166.078 100.48C166.25 100.738 166.336 101.044 166.336 101.398V101.408C166.336 101.665 166.279 101.905 166.165 102.126C166.055 102.347 165.903 102.533 165.711 102.683C165.519 102.832 165.296 102.932 165.042 102.98V103.034C165.365 103.073 165.65 103.169 165.897 103.322C166.148 103.472 166.343 103.671 166.483 103.918C166.626 104.162 166.698 104.447 166.698 104.772V104.782C166.698 105.179 166.603 105.523 166.415 105.812C166.229 106.099 165.956 106.32 165.594 106.477C165.236 106.63 164.795 106.706 164.271 106.706H162.04ZM161.707 106.706V99.6602H162.372V106.706H161.707ZM167.611 106.706L170.248 99.6602H170.76V100.534H170.545L168.309 106.706H167.611ZM168.749 104.543L168.954 103.972H172.206L172.411 104.543H168.749ZM172.84 106.706L170.604 100.534V99.6602H170.907L173.543 106.706H172.84ZM175.892 106.706V100.261H173.529V99.6602H178.919V100.261H176.556V106.706H175.892ZM180.252 106.706V99.6602H184.505V100.261H180.916V102.8H184.33V103.396H180.916V106.105H184.505V106.706H180.252ZM189.12 104.05V103.454H191.131C191.675 103.454 192.1 103.312 192.406 103.029C192.715 102.746 192.87 102.355 192.87 101.857V101.848C192.87 101.35 192.715 100.961 192.406 100.681C192.1 100.397 191.675 100.256 191.131 100.256H189.12V99.6602H191.283C191.732 99.6602 192.126 99.7513 192.464 99.9336C192.803 100.113 193.068 100.367 193.26 100.695C193.452 101.024 193.548 101.407 193.548 101.843V101.853C193.548 102.289 193.452 102.673 193.26 103.005C193.068 103.334 192.803 103.591 192.464 103.776C192.126 103.959 191.732 104.05 191.283 104.05H189.12ZM188.788 106.706V99.6602H189.452V106.706H188.788ZM193.929 106.706L196.566 99.6602H197.079V100.534H196.864L194.627 106.706H193.929ZM195.067 104.543L195.272 103.972H198.524L198.729 104.543H195.067ZM199.159 106.706L196.922 100.534V99.6602H197.225L199.862 106.706H199.159ZM203.397 106.853C202.899 106.853 202.461 106.77 202.083 106.604C201.709 106.438 201.41 106.21 201.185 105.92C200.96 105.63 200.83 105.298 200.794 104.924L200.79 104.87H201.454L201.458 104.924C201.485 105.181 201.585 105.409 201.761 105.607C201.937 105.806 202.168 105.961 202.455 106.071C202.744 106.182 203.07 106.237 203.431 106.237C203.786 106.237 204.1 106.179 204.374 106.062C204.647 105.941 204.862 105.778 205.018 105.573C205.174 105.365 205.252 105.129 205.252 104.865V104.86C205.252 104.532 205.13 104.257 204.886 104.035C204.642 103.811 204.248 103.636 203.705 103.513L202.982 103.352C202.272 103.192 201.76 102.959 201.444 102.653C201.128 102.344 200.97 101.947 200.97 101.462V101.457C200.97 101.083 201.073 100.751 201.278 100.461C201.483 100.168 201.766 99.9368 202.127 99.7676C202.492 99.5983 202.909 99.5137 203.377 99.5137C203.836 99.5137 204.242 99.5951 204.593 99.7578C204.948 99.9206 205.23 100.139 205.438 100.412C205.65 100.682 205.768 100.987 205.794 101.325L205.799 101.384H205.135L205.125 101.33C205.093 101.102 205 100.899 204.847 100.72C204.694 100.537 204.491 100.393 204.237 100.285C203.986 100.178 203.693 100.126 203.358 100.129C203.032 100.129 202.741 100.184 202.484 100.295C202.227 100.402 202.022 100.555 201.869 100.754C201.719 100.949 201.644 101.179 201.644 101.442V101.447C201.644 101.757 201.761 102.014 201.996 102.219C202.23 102.424 202.614 102.587 203.148 102.707L203.871 102.873C204.362 102.984 204.758 103.125 205.057 103.298C205.36 103.47 205.581 103.679 205.721 103.923C205.861 104.167 205.931 104.452 205.931 104.777V104.782C205.931 105.199 205.825 105.562 205.614 105.871C205.402 106.18 205.106 106.421 204.725 106.594C204.344 106.766 203.901 106.853 203.397 106.853ZM209.666 106.853C209.168 106.853 208.731 106.77 208.353 106.604C207.979 106.438 207.679 106.21 207.455 105.92C207.23 105.63 207.1 105.298 207.064 104.924L207.059 104.87H207.723L207.728 104.924C207.754 105.181 207.855 105.409 208.031 105.607C208.207 105.806 208.438 105.961 208.724 106.071C209.014 106.182 209.339 106.237 209.701 106.237C210.055 106.237 210.37 106.179 210.643 106.062C210.916 105.941 211.131 105.778 211.288 105.573C211.444 105.365 211.522 105.129 211.522 104.865V104.86C211.522 104.532 211.4 104.257 211.156 104.035C210.912 103.811 210.518 103.636 209.974 103.513L209.251 103.352C208.542 103.192 208.029 102.959 207.713 102.653C207.398 102.344 207.24 101.947 207.24 101.462V101.457C207.24 101.083 207.342 100.751 207.547 100.461C207.752 100.168 208.036 99.9368 208.397 99.7676C208.762 99.5983 209.178 99.5137 209.647 99.5137C210.106 99.5137 210.511 99.5951 210.863 99.7578C211.218 99.9206 211.499 100.139 211.707 100.412C211.919 100.682 212.038 100.987 212.064 101.325L212.069 101.384H211.405L211.395 101.33C211.362 101.102 211.27 100.899 211.117 100.72C210.964 100.537 210.76 100.393 210.506 100.285C210.256 100.178 209.963 100.126 209.627 100.129C209.302 100.129 209.011 100.184 208.753 100.295C208.496 100.402 208.291 100.555 208.138 100.754C207.988 100.949 207.914 101.179 207.914 101.442V101.447C207.914 101.757 208.031 102.014 208.265 102.219C208.499 102.424 208.884 102.587 209.417 102.707L210.14 102.873C210.632 102.984 211.027 103.125 211.327 103.298C211.629 103.47 211.851 103.679 211.991 103.923C212.131 104.167 212.201 104.452 212.201 104.777V104.782C212.201 105.199 212.095 105.562 211.883 105.871C211.672 106.18 211.375 106.421 210.995 106.594C210.614 106.766 210.171 106.853 209.666 106.853ZM218.568 106.818C218.093 106.818 217.679 106.737 217.328 106.574C216.979 106.408 216.703 106.184 216.498 105.9C216.292 105.617 216.17 105.295 216.131 104.934L216.126 104.885H216.766L216.771 104.924C216.804 105.178 216.896 105.404 217.049 105.603C217.202 105.798 217.407 105.952 217.665 106.066C217.922 106.18 218.223 106.237 218.568 106.237C218.906 106.237 219.206 106.175 219.466 106.052C219.727 105.928 219.93 105.759 220.077 105.544C220.226 105.326 220.301 105.078 220.301 104.802V104.792C220.301 104.33 220.138 103.973 219.813 103.723C219.491 103.469 219.048 103.342 218.485 103.342H217.64V102.775H218.456C218.771 102.775 219.048 102.718 219.286 102.604C219.526 102.487 219.714 102.328 219.847 102.126C219.984 101.924 220.052 101.693 220.052 101.433V101.423C220.052 101.159 219.99 100.931 219.867 100.739C219.743 100.547 219.567 100.397 219.339 100.29C219.115 100.183 218.848 100.129 218.539 100.129C218.236 100.129 217.967 100.183 217.733 100.29C217.499 100.397 217.311 100.546 217.171 100.734C217.031 100.923 216.948 101.143 216.922 101.394L216.917 101.442H216.278L216.283 101.394C216.318 101.029 216.434 100.71 216.629 100.437C216.825 100.16 217.085 99.9434 217.411 99.7871C217.736 99.6276 218.112 99.5479 218.539 99.5479C218.971 99.5479 219.351 99.626 219.676 99.7822C220.005 99.9352 220.261 100.147 220.443 100.417C220.628 100.687 220.721 100.998 220.721 101.35V101.359C220.721 101.649 220.658 101.908 220.531 102.136C220.407 102.36 220.231 102.549 220.003 102.702C219.779 102.852 219.517 102.958 219.217 103.02V103.039C219.745 103.078 220.169 103.252 220.492 103.562C220.814 103.871 220.975 104.276 220.975 104.777V104.787C220.975 105.174 220.871 105.523 220.663 105.832C220.454 106.138 220.168 106.379 219.803 106.555C219.442 106.73 219.03 106.818 218.568 106.818ZM225.218 106.706V99.6602H225.98L228.578 105.832H228.641L231.239 99.6602H232V106.706H231.38V100.954H231.043L231.815 99.8115L228.9 106.706H228.319L225.409 99.8115L226.175 100.954H225.838V106.706H225.218ZM236.727 106.853C236.063 106.853 235.493 106.703 235.018 106.403C234.543 106.104 234.177 105.681 233.919 105.134C233.662 104.584 233.534 103.934 233.534 103.186V103.176C233.534 102.424 233.662 101.774 233.919 101.228C234.18 100.681 234.548 100.259 235.023 99.9629C235.501 99.6634 236.069 99.5137 236.727 99.5137C237.385 99.5137 237.951 99.6634 238.426 99.9629C238.905 100.259 239.273 100.682 239.53 101.232C239.787 101.779 239.915 102.427 239.915 103.176V103.186C239.915 103.934 239.787 104.582 239.53 105.129C239.273 105.676 238.905 106.101 238.426 106.403C237.951 106.703 237.385 106.853 236.727 106.853ZM236.727 106.237C237.241 106.237 237.686 106.112 238.06 105.861C238.434 105.607 238.724 105.253 238.929 104.797C239.134 104.338 239.237 103.801 239.237 103.186V103.176C239.237 102.554 239.134 102.015 238.929 101.56C238.724 101.104 238.434 100.752 238.06 100.505C237.686 100.254 237.241 100.129 236.727 100.129C236.213 100.129 235.767 100.254 235.389 100.505C235.015 100.752 234.725 101.104 234.52 101.56C234.315 102.015 234.212 102.554 234.212 103.176V103.186C234.212 103.801 234.313 104.338 234.515 104.797C234.717 105.253 235.005 105.607 235.379 105.861C235.757 106.112 236.206 106.237 236.727 106.237ZM241.444 106.706V99.6602H242.103L246.38 105.759L245.921 105.515H246.273V99.6602H246.927V106.706H246.288L241.991 100.603L242.455 100.847H242.103V106.706H241.444ZM250.628 106.706V100.261H248.265V99.6602H253.656V100.261H251.292V106.706H250.628ZM254.989 106.706V99.6602H255.653V102.795H259.779V99.6602H260.443V106.706H259.779V103.396H255.653V106.706H254.989Z" fill="white"/>
<path d="M203.636 81.1035C202.534 81.1035 201.534 80.9238 200.636 80.5645C199.737 80.1973 199.011 79.6699 198.456 78.9824C197.909 78.2871 197.605 77.459 197.542 76.498L197.53 76.3574H199.968L199.991 76.4746C200.069 76.9434 200.245 77.3691 200.519 77.752C200.8 78.127 201.194 78.4277 201.702 78.6543C202.218 78.873 202.878 78.9824 203.683 78.9824C204.503 78.9824 205.163 78.877 205.663 78.666C206.171 78.4551 206.538 78.1699 206.765 77.8105C206.999 77.4434 207.116 77.0332 207.116 76.5801V76.5684C207.116 75.9746 206.921 75.4863 206.53 75.1035C206.14 74.7207 205.39 74.4004 204.28 74.1426L202.464 73.7207C201.472 73.4863 200.636 73.1777 199.956 72.7949C199.277 72.4043 198.761 71.9238 198.409 71.3535C198.066 70.7754 197.894 70.0918 197.894 69.3027V69.2793C197.894 68.3496 198.14 67.541 198.632 66.8535C199.124 66.166 199.804 65.6348 200.671 65.2598C201.538 64.877 202.523 64.6855 203.624 64.6855C204.702 64.6855 205.667 64.873 206.519 65.248C207.37 65.6152 208.05 66.1387 208.558 66.8184C209.073 67.498 209.359 68.3027 209.413 69.2324L209.425 69.3848H206.987L206.976 69.291C206.913 68.7676 206.734 68.3223 206.437 67.9551C206.14 67.5801 205.753 67.2949 205.277 67.0996C204.8 66.9043 204.249 66.8066 203.624 66.8066C202.913 66.8066 202.316 66.916 201.831 67.1348C201.355 67.3535 200.991 67.6387 200.741 67.9902C200.499 68.3418 200.378 68.7168 200.378 69.1152V69.1387C200.378 69.4902 200.464 69.8145 200.636 70.1113C200.808 70.4004 201.085 70.6582 201.468 70.8848C201.859 71.1113 202.378 71.2988 203.027 71.4473L204.843 71.8691C206.398 72.2207 207.581 72.7441 208.394 73.4395C209.206 74.1348 209.612 75.1074 209.612 76.3574V76.3691C209.612 77.3926 209.343 78.2559 208.804 78.959C208.265 79.6621 207.542 80.1973 206.636 80.5645C205.737 80.9238 204.737 81.1035 203.636 81.1035ZM202.956 83.0488V62.7402H204.28V83.0488H202.956ZM218.624 81.6426C217.374 81.6426 216.269 81.4355 215.308 81.0215C214.347 80.6074 213.593 80.0332 213.046 79.2988C212.507 78.5645 212.237 77.7207 212.237 76.7676V76.7441C212.237 76.0332 212.394 75.3848 212.706 74.7988C213.027 74.2051 213.468 73.7051 214.03 73.2988C214.593 72.8848 215.237 72.5996 215.964 72.4434V72.3848C215.027 72.1113 214.273 71.6426 213.702 70.9785C213.132 70.3145 212.847 69.5371 212.847 68.6465V68.623C212.847 67.7637 213.093 66.998 213.585 66.3262C214.085 65.6543 214.769 65.123 215.636 64.7324C216.511 64.3418 217.507 64.1465 218.624 64.1465C219.749 64.1465 220.745 64.3418 221.612 64.7324C222.487 65.123 223.171 65.6543 223.663 66.3262C224.155 66.998 224.402 67.7637 224.402 68.623V68.6465C224.402 69.5371 224.116 70.3145 223.546 70.9785C222.984 71.6426 222.23 72.1113 221.284 72.3848V72.4434C222.027 72.5996 222.675 72.8848 223.23 73.2988C223.792 73.7051 224.23 74.2051 224.542 74.7988C224.862 75.3848 225.023 76.0332 225.023 76.7441V76.7676C225.023 77.7207 224.749 78.5645 224.202 79.2988C223.663 80.0332 222.909 80.6074 221.941 81.0215C220.98 81.4355 219.874 81.6426 218.624 81.6426ZM218.624 79.5332C219.351 79.5332 219.987 79.4082 220.534 79.1582C221.089 78.9004 221.523 78.5527 221.835 78.1152C222.155 77.6699 222.316 77.1621 222.316 76.5918V76.5684C222.316 75.998 222.159 75.4902 221.847 75.0449C221.534 74.5996 221.101 74.252 220.546 74.002C219.991 73.7441 219.351 73.6152 218.624 73.6152C217.905 73.6152 217.269 73.7441 216.714 74.002C216.159 74.252 215.726 74.5996 215.413 75.0449C215.101 75.4902 214.944 75.998 214.944 76.5684V76.5918C214.944 77.1621 215.101 77.6699 215.413 78.1152C215.734 78.5527 216.171 78.9004 216.726 79.1582C217.28 79.4082 217.913 79.5332 218.624 79.5332ZM218.624 71.4941C219.249 71.4941 219.8 71.3848 220.277 71.166C220.753 70.9395 221.124 70.6309 221.39 70.2402C221.663 69.8418 221.8 69.3887 221.8 68.8809V68.8574C221.8 68.3418 221.663 67.8887 221.39 67.498C221.124 67.0996 220.753 66.791 220.277 66.5723C219.8 66.3457 219.249 66.2324 218.624 66.2324C217.999 66.2324 217.448 66.3457 216.972 66.5723C216.495 66.791 216.124 67.0996 215.859 67.498C215.593 67.8887 215.46 68.3418 215.46 68.8574V68.8809C215.46 69.3887 215.593 69.8418 215.859 70.2402C216.124 70.6309 216.495 70.9395 216.972 71.166C217.448 71.3848 217.999 71.4941 218.624 71.4941ZM228.62 81.5254C228.175 81.5254 227.8 81.373 227.495 81.0684C227.191 80.7637 227.038 80.3926 227.038 79.9551C227.038 79.5176 227.191 79.1465 227.495 78.8418C227.8 78.5371 228.175 78.3848 228.62 78.3848C229.058 78.3848 229.429 78.5371 229.734 78.8418C230.038 79.1465 230.191 79.5176 230.191 79.9551C230.191 80.3926 230.038 80.7637 229.734 81.0684C229.429 81.373 229.058 81.5254 228.62 81.5254ZM238.851 81.6426C237.601 81.6426 236.495 81.4355 235.534 81.0215C234.573 80.6074 233.819 80.0332 233.273 79.2988C232.734 78.5645 232.464 77.7207 232.464 76.7676V76.7441C232.464 76.0332 232.62 75.3848 232.933 74.7988C233.253 74.2051 233.694 73.7051 234.257 73.2988C234.819 72.8848 235.464 72.5996 236.191 72.4434V72.3848C235.253 72.1113 234.499 71.6426 233.929 70.9785C233.359 70.3145 233.073 69.5371 233.073 68.6465V68.623C233.073 67.7637 233.319 66.998 233.812 66.3262C234.312 65.6543 234.995 65.123 235.862 64.7324C236.737 64.3418 237.734 64.1465 238.851 64.1465C239.976 64.1465 240.972 64.3418 241.839 64.7324C242.714 65.123 243.398 65.6543 243.89 66.3262C244.382 66.998 244.628 67.7637 244.628 68.623V68.6465C244.628 69.5371 244.343 70.3145 243.773 70.9785C243.21 71.6426 242.456 72.1113 241.511 72.3848V72.4434C242.253 72.5996 242.902 72.8848 243.456 73.2988C244.019 73.7051 244.456 74.2051 244.769 74.7988C245.089 75.3848 245.249 76.0332 245.249 76.7441V76.7676C245.249 77.7207 244.976 78.5645 244.429 79.2988C243.89 80.0332 243.136 80.6074 242.167 81.0215C241.206 81.4355 240.101 81.6426 238.851 81.6426ZM238.851 79.5332C239.577 79.5332 240.214 79.4082 240.761 79.1582C241.316 78.9004 241.749 78.5527 242.062 78.1152C242.382 77.6699 242.542 77.1621 242.542 76.5918V76.5684C242.542 75.998 242.386 75.4902 242.073 75.0449C241.761 74.5996 241.327 74.252 240.773 74.002C240.218 73.7441 239.577 73.6152 238.851 73.6152C238.132 73.6152 237.495 73.7441 236.941 74.002C236.386 74.252 235.952 74.5996 235.64 75.0449C235.327 75.4902 235.171 75.998 235.171 76.5684V76.5918C235.171 77.1621 235.327 77.6699 235.64 78.1152C235.96 78.5527 236.398 78.9004 236.952 79.1582C237.507 79.4082 238.14 79.5332 238.851 79.5332ZM238.851 71.4941C239.476 71.4941 240.027 71.3848 240.503 71.166C240.98 70.9395 241.351 70.6309 241.616 70.2402C241.89 69.8418 242.027 69.3887 242.027 68.8809V68.8574C242.027 68.3418 241.89 67.8887 241.616 67.498C241.351 67.0996 240.98 66.791 240.503 66.5723C240.027 66.3457 239.476 66.2324 238.851 66.2324C238.226 66.2324 237.675 66.3457 237.198 66.5723C236.722 66.791 236.351 67.0996 236.085 67.498C235.819 67.8887 235.687 68.3418 235.687 68.8574V68.8809C235.687 69.3887 235.819 69.8418 236.085 70.2402C236.351 70.6309 236.722 70.9395 237.198 71.166C237.675 71.3848 238.226 71.4941 238.851 71.4941ZM253.851 81.6426C252.601 81.6426 251.495 81.4355 250.534 81.0215C249.573 80.6074 248.819 80.0332 248.273 79.2988C247.734 78.5645 247.464 77.7207 247.464 76.7676V76.7441C247.464 76.0332 247.62 75.3848 247.933 74.7988C248.253 74.2051 248.694 73.7051 249.257 73.2988C249.819 72.8848 250.464 72.5996 251.191 72.4434V72.3848C250.253 72.1113 249.499 71.6426 248.929 70.9785C248.359 70.3145 248.073 69.5371 248.073 68.6465V68.623C248.073 67.7637 248.319 66.998 248.812 66.3262C249.312 65.6543 249.995 65.123 250.862 64.7324C251.737 64.3418 252.734 64.1465 253.851 64.1465C254.976 64.1465 255.972 64.3418 256.839 64.7324C257.714 65.123 258.398 65.6543 258.89 66.3262C259.382 66.998 259.628 67.7637 259.628 68.623V68.6465C259.628 69.5371 259.343 70.3145 258.773 70.9785C258.21 71.6426 257.456 72.1113 256.511 72.3848V72.4434C257.253 72.5996 257.902 72.8848 258.456 73.2988C259.019 73.7051 259.456 74.2051 259.769 74.7988C260.089 75.3848 260.249 76.0332 260.249 76.7441V76.7676C260.249 77.7207 259.976 78.5645 259.429 79.2988C258.89 80.0332 258.136 80.6074 257.167 81.0215C256.206 81.4355 255.101 81.6426 253.851 81.6426ZM253.851 79.5332C254.577 79.5332 255.214 79.4082 255.761 79.1582C256.316 78.9004 256.749 78.5527 257.062 78.1152C257.382 77.6699 257.542 77.1621 257.542 76.5918V76.5684C257.542 75.998 257.386 75.4902 257.073 75.0449C256.761 74.5996 256.327 74.252 255.773 74.002C255.218 73.7441 254.577 73.6152 253.851 73.6152C253.132 73.6152 252.495 73.7441 251.941 74.002C251.386 74.252 250.952 74.5996 250.64 75.0449C250.327 75.4902 250.171 75.998 250.171 76.5684V76.5918C250.171 77.1621 250.327 77.6699 250.64 78.1152C250.96 78.5527 251.398 78.9004 251.952 79.1582C252.507 79.4082 253.14 79.5332 253.851 79.5332ZM253.851 71.4941C254.476 71.4941 255.027 71.3848 255.503 71.166C255.98 70.9395 256.351 70.6309 256.616 70.2402C256.89 69.8418 257.027 69.3887 257.027 68.8809V68.8574C257.027 68.3418 256.89 67.8887 256.616 67.498C256.351 67.0996 255.98 66.791 255.503 66.5723C255.027 66.3457 254.476 66.2324 253.851 66.2324C253.226 66.2324 252.675 66.3457 252.198 66.5723C251.722 66.791 251.351 67.0996 251.085 67.498C250.819 67.8887 250.687 68.3418 250.687 68.8574V68.8809C250.687 69.3887 250.819 69.8418 251.085 70.2402C251.351 70.6309 251.722 70.9395 252.198 71.166C252.675 71.3848 253.226 71.4941 253.851 71.4941Z" fill="white"/>
<path d="M221.355 49.7646V48.8467H223.279C223.754 48.8467 224.122 48.7246 224.382 48.4805C224.646 48.2331 224.778 47.8913 224.778 47.4551V47.4453C224.778 47.0026 224.646 46.6592 224.382 46.415C224.122 46.1709 223.754 46.0488 223.279 46.0488H221.355V45.126H223.552C224.014 45.126 224.42 45.2236 224.768 45.4189C225.119 45.611 225.394 45.8812 225.593 46.2295C225.792 46.5745 225.891 46.9766 225.891 47.4355V47.4453C225.891 47.9043 225.792 48.3096 225.593 48.6611C225.394 49.0094 225.119 49.2812 224.768 49.4766C224.42 49.6686 224.014 49.7646 223.552 49.7646H221.355ZM220.808 52.1719V45.126H221.902V52.1719H220.808ZM227.302 52.1719V45.126H231.775V46.0732H228.396V48.1289H231.594V49.0371H228.396V51.2246H231.775V52.1719H227.302ZM233.357 52.1719V45.126H236.135C236.617 45.126 237.033 45.2155 237.385 45.3945C237.737 45.5703 238.007 45.8193 238.196 46.1416C238.388 46.4606 238.484 46.8382 238.484 47.2744V47.2842C238.484 47.7594 238.363 48.1777 238.122 48.5391C237.881 48.8971 237.546 49.1494 237.117 49.2959L238.694 52.1719H237.429L235.993 49.4619C235.984 49.4619 235.974 49.4619 235.964 49.4619C235.954 49.4619 235.945 49.4619 235.935 49.4619H234.45V52.1719H233.357ZM234.45 48.5732H236.028C236.448 48.5732 236.773 48.4642 237.004 48.2461C237.235 48.0247 237.351 47.7139 237.351 47.3135V47.3037C237.351 46.9131 237.23 46.6055 236.99 46.3809C236.752 46.1562 236.42 46.0439 235.993 46.0439H234.45V48.5732ZM242.771 52.1719V45.126H243.865V51.2246H247.17V52.1719H242.771ZM251.301 52.3428C250.617 52.3428 250.03 52.193 249.538 51.8936C249.047 51.5908 248.669 51.1628 248.406 50.6094C248.142 50.056 248.01 49.4033 248.01 48.6514V48.6416C248.01 47.8831 248.144 47.2288 248.41 46.6787C248.677 46.1286 249.057 45.7038 249.548 45.4043C250.043 45.1048 250.627 44.9551 251.301 44.9551C251.978 44.9551 252.562 45.1048 253.054 45.4043C253.546 45.7038 253.923 46.1302 254.187 46.6836C254.454 47.2337 254.587 47.8864 254.587 48.6416V48.6514C254.587 49.4033 254.455 50.056 254.192 50.6094C253.928 51.1595 253.549 51.5859 253.054 51.8887C252.562 52.1914 251.978 52.3428 251.301 52.3428ZM251.301 51.3711C251.744 51.3711 252.128 51.2588 252.453 51.0342C252.779 50.8096 253.03 50.4938 253.205 50.0869C253.381 49.6768 253.469 49.1982 253.469 48.6514V48.6416C253.469 48.0882 253.381 47.6081 253.205 47.2012C253.03 46.7943 252.779 46.4801 252.453 46.2588C252.128 46.0374 251.744 45.9268 251.301 45.9268C250.858 45.9268 250.474 46.0374 250.149 46.2588C249.826 46.4801 249.576 46.7943 249.397 47.2012C249.218 47.6081 249.128 48.0882 249.128 48.6416V48.6514C249.128 49.1982 249.214 49.6768 249.387 50.0869C249.563 50.4938 249.812 50.8096 250.134 51.0342C250.46 51.2588 250.849 51.3711 251.301 51.3711ZM257.585 52.1719V46.0732H255.368V45.126H260.896V46.0732H258.679V52.1719H257.585Z" fill="white"/>
<path d="M27.4043 32.0859L30.457 23.6309H31.5176V25.1133H31.1191L28.7871 32.0859H27.4043ZM28.875 29.8008L29.2441 28.7461H33.0938L33.4629 29.8008H28.875ZM33.5449 32.0859L31.2188 25.1133V23.6309H31.8809L34.9277 32.0859H33.5449ZM36.3984 32.0859V23.6309H37.7109V30.9492H41.6777V32.0859H36.3984ZM46.5 32.291C45.7188 32.291 45.041 32.1113 44.4668 31.752C43.8965 31.3926 43.457 30.8828 43.1484 30.2227C42.8398 29.5625 42.6855 28.7773 42.6855 27.8672V27.8555C42.6855 26.9414 42.8398 26.1543 43.1484 25.4941C43.457 24.834 43.8965 24.3242 44.4668 23.9648C45.0371 23.6055 45.7148 23.4258 46.5 23.4258C47.1211 23.4258 47.6816 23.5488 48.1816 23.7949C48.6855 24.0371 49.0977 24.373 49.418 24.8027C49.7422 25.2324 49.9395 25.7266 50.0098 26.2852V26.3203H48.7031L48.6973 26.2969C48.6191 25.9492 48.4766 25.6484 48.2695 25.3945C48.0625 25.1406 47.8086 24.9434 47.5078 24.8027C47.207 24.6621 46.8711 24.5918 46.5 24.5918C45.9961 24.5918 45.5586 24.7246 45.1875 24.9902C44.8203 25.2559 44.5352 25.6328 44.332 26.1211C44.1328 26.6055 44.0332 27.1836 44.0332 27.8555V27.8672C44.0332 28.5312 44.1328 29.1074 44.332 29.5957C44.5352 30.084 44.8203 30.4609 45.1875 30.7266C45.5586 30.9922 45.998 31.125 46.5059 31.125C46.877 31.125 47.2129 31.0625 47.5137 30.9375C47.8184 30.8125 48.0723 30.6348 48.2754 30.4043C48.4785 30.1699 48.6172 29.8945 48.6914 29.5781L48.7031 29.5547H50.0156L50.0098 29.584C49.9277 30.127 49.7285 30.6016 49.4121 31.0078C49.0957 31.4141 48.6895 31.7305 48.1934 31.957C47.6973 32.1797 47.1328 32.291 46.5 32.291ZM51.7383 32.0859V23.6309H53.0508V27.2051H57.3867V23.6309H58.7051V32.0859H57.3867V28.3418H53.0508V32.0859H51.7383ZM60.832 32.0859V23.6309H66.1992V24.7676H62.1445V27.2344H65.9824V28.3242H62.1445V30.9492H66.1992V32.0859H60.832ZM68.0977 32.0859V23.6309H69.6152L72.3047 30.3691H72.4043L75.0938 23.6309H76.6113V32.0859H75.4102V25.8867H74.7598L76.1309 23.8652L72.8379 32.0859H71.8652L68.5781 23.8652L69.9434 25.8867H69.2988V32.0859H68.0977ZM78.7266 32.0859V23.6309H80.0391V32.0859H78.7266ZM85.0195 32.291C84.3828 32.291 83.8281 32.1914 83.3555 31.9922C82.8828 31.7891 82.5098 31.5078 82.2363 31.1484C81.9629 30.7891 81.8066 30.373 81.7676 29.9004L81.7617 29.8242H83.0566L83.0625 29.8887C83.0898 30.1426 83.1895 30.3633 83.3613 30.5508C83.5371 30.7383 83.7715 30.8848 84.0645 30.9902C84.3613 31.0957 84.6992 31.1484 85.0781 31.1484C85.4336 31.1484 85.75 31.0918 86.0273 30.9785C86.3047 30.8652 86.5215 30.709 86.6777 30.5098C86.8379 30.3105 86.918 30.082 86.918 29.8242V29.8184C86.918 29.4941 86.7949 29.2246 86.5488 29.0098C86.3027 28.7949 85.9004 28.627 85.3418 28.5059L84.416 28.3125C83.5605 28.1289 82.9375 27.8379 82.5469 27.4395C82.1562 27.0371 81.9609 26.5234 81.9609 25.8984V25.8926C81.9648 25.4043 82.0957 24.9746 82.3535 24.6035C82.6152 24.2324 82.9766 23.9434 83.4375 23.7363C83.8984 23.5293 84.4277 23.4258 85.0254 23.4258C85.623 23.4258 86.1445 23.5293 86.5898 23.7363C87.0391 23.9395 87.3926 24.2168 87.6504 24.5684C87.9121 24.9199 88.0586 25.3164 88.0898 25.7578L88.0957 25.834H86.8125L86.8008 25.7578C86.7656 25.5273 86.6699 25.3223 86.5137 25.1426C86.3613 24.9629 86.1562 24.8223 85.8984 24.7207C85.6445 24.6152 85.3477 24.5645 85.0078 24.5684C84.6797 24.5684 84.3867 24.6191 84.1289 24.7207C83.8711 24.8184 83.666 24.9609 83.5137 25.1484C83.3652 25.3359 83.291 25.5625 83.291 25.8281V25.834C83.291 26.1465 83.4102 26.4082 83.6484 26.6191C83.8906 26.8262 84.2832 26.9883 84.8262 27.1055L85.752 27.3105C86.3418 27.4355 86.8203 27.6016 87.1875 27.8086C87.5547 28.0156 87.8223 28.2715 87.9902 28.5762C88.1621 28.877 88.248 29.2363 88.248 29.6543V29.6602C88.248 30.1992 88.1152 30.666 87.8496 31.0605C87.5879 31.4512 87.2148 31.7539 86.7305 31.9688C86.2461 32.1836 85.6758 32.291 85.0195 32.291ZM92.1211 32.0859V24.7676H89.4609V23.6309H96.0938V24.7676H93.4336V32.0859H92.1211ZM103.113 32.0859V24.7676H100.453V23.6309H107.086V24.7676H104.426V32.0859H103.113ZM108.691 32.0859V23.6309H112.025C112.604 23.6309 113.104 23.7383 113.525 23.9531C113.947 24.1641 114.271 24.4629 114.498 24.8496C114.729 25.2324 114.844 25.6855 114.844 26.209V26.2207C114.844 26.791 114.699 27.293 114.41 27.7266C114.121 28.1562 113.719 28.459 113.203 28.6348L115.096 32.0859H113.578L111.855 28.834C111.844 28.834 111.832 28.834 111.82 28.834C111.809 28.834 111.797 28.834 111.785 28.834H110.004V32.0859H108.691ZM110.004 27.7676H111.896C112.4 27.7676 112.791 27.6367 113.068 27.375C113.346 27.1094 113.484 26.7363 113.484 26.2559V26.2441C113.484 25.7754 113.34 25.4062 113.051 25.1367C112.766 24.8672 112.367 24.7324 111.855 24.7324H110.004V27.7676ZM116.068 32.0859L119.121 23.6309H120.182V25.1133H119.783L117.451 32.0859H116.068ZM117.539 29.8008L117.908 28.7461H121.758L122.127 29.8008H117.539ZM122.209 32.0859L119.883 25.1133V23.6309H120.545L123.592 32.0859H122.209ZM125.062 32.0859V23.6309H128.115C128.955 23.6309 129.672 23.7969 130.266 24.1289C130.859 24.4609 131.312 24.9395 131.625 25.5645C131.941 26.1895 132.1 26.9453 132.1 27.832V27.8438C132.1 28.7383 131.941 29.502 131.625 30.1348C131.312 30.7676 130.859 31.252 130.266 31.5879C129.676 31.9199 128.959 32.0859 128.115 32.0859H125.062ZM126.375 30.9492H127.969C128.559 30.9492 129.061 30.8281 129.475 30.5859C129.893 30.3438 130.209 29.9922 130.424 29.5312C130.643 29.0703 130.752 28.5137 130.752 27.8613V27.8496C130.752 27.2012 130.641 26.6465 130.418 26.1855C130.199 25.7246 129.883 25.373 129.469 25.1309C129.055 24.8887 128.555 24.7676 127.969 24.7676H126.375V30.9492ZM133.875 32.0859V23.6309H139.242V24.7676H135.188V27.2344H139.025V28.3242H135.188V30.9492H139.242V32.0859H133.875ZM141.141 32.0859V23.6309H144.475C145.053 23.6309 145.553 23.7383 145.975 23.9531C146.396 24.1641 146.721 24.4629 146.947 24.8496C147.178 25.2324 147.293 25.6855 147.293 26.209V26.2207C147.293 26.791 147.148 27.293 146.859 27.7266C146.57 28.1562 146.168 28.459 145.652 28.6348L147.545 32.0859H146.027L144.305 28.834C144.293 28.834 144.281 28.834 144.27 28.834C144.258 28.834 144.246 28.834 144.234 28.834H142.453V32.0859H141.141ZM142.453 27.7676H144.346C144.85 27.7676 145.24 27.6367 145.518 27.375C145.795 27.1094 145.934 26.7363 145.934 26.2559V26.2441C145.934 25.7754 145.789 25.4062 145.5 25.1367C145.215 24.8672 144.816 24.7324 144.305 24.7324H142.453V27.7676Z" fill="white"/>
<defs>
<linearGradient id="paint0_linear_355_55041" x1="0" y1="127.796" x2="400" y2="127.796" gradientUnits="userSpaceOnUse">
<stop stop-color="#FFB800"/>
<stop offset="1" stop-color="#3C2C00"/>
</linearGradient>
</defs>
</svg>
