<svg width="60" height="61" viewBox="0 0 60 61" fill="none" xmlns="http://www.w3.org/2000/svg">
<g filter="url(#filter0_i_496_4290)">
<rect y="0.820312" width="60" height="60" rx="10" fill="url(#paint0_linear_496_4290)"/>
<circle cx="4.75" cy="27.5703" r="0.75" fill="#C7C7C7"/>
<circle cx="29.75" cy="13.0703" r="0.75" fill="#C7C7C7"/>
<circle cx="23.75" cy="50.5703" r="0.75" fill="#C7C7C7"/>
<circle cx="5.75" cy="49.5703" r="0.75" fill="#C7C7C7"/>
<circle cx="43.75" cy="35.5703" r="0.75" fill="#C7C7C7"/>
<circle cx="38.25" cy="53.0703" r="0.75" fill="#C7C7C7"/>
<circle cx="15.75" cy="34.5703" r="0.75" fill="#C7C7C7"/>
<circle cx="14.75" cy="13.5703" r="0.75" fill="#C7C7C7"/>
<g filter="url(#filter1_f_496_4290)">
<ellipse cx="36.4997" cy="25.3203" rx="16.9997" ry="17" fill="white"/>
</g>
<path d="M36.4997 42.3203C45.8884 42.3203 53.4994 34.7092 53.4994 25.3203C53.4994 15.9315 45.8884 8.32031 36.4997 8.32031C27.111 8.32031 19.5 15.9315 19.5 25.3203C19.5 34.7092 27.111 42.3203 36.4997 42.3203Z" fill="#EFEAD7"/>
<g opacity="0.54">
<path d="M36.5014 8.32031C35.4209 8.32031 34.3644 8.42231 33.3398 8.61494C41.2175 10.0969 47.178 17.0118 47.178 25.3202C47.178 33.6285 41.2175 40.5436 33.3398 42.0254C34.3644 42.2182 35.4209 42.3201 36.5014 42.3201C45.8901 42.3201 53.5012 34.709 53.5012 25.3202C53.5012 15.9313 45.8901 8.32031 36.5014 8.32031Z" fill="#E5E0CF"/>
</g>
<mask id="mask0_496_4290" style="mask-type:luminance" maskUnits="userSpaceOnUse" x="19" y="8" width="35" height="35">
<path d="M36.4997 42.3203C45.8884 42.3203 53.4994 34.7092 53.4994 25.3203C53.4994 15.9315 45.8884 8.32031 36.4997 8.32031C27.111 8.32031 19.5 15.9315 19.5 25.3203C19.5 34.7092 27.111 42.3203 36.4997 42.3203Z" fill="white"/>
</mask>
<g mask="url(#mask0_496_4290)">
<path d="M32.1497 17.1055C32.0161 17.1055 31.8866 17.1226 31.7617 17.152C32.5086 17.3275 33.0654 17.9966 33.0654 18.7972C33.0654 19.5976 32.5088 20.2666 31.7617 20.4423C31.8864 20.4716 32.0159 20.4888 32.1497 20.4888C33.0839 20.4888 33.8412 19.7316 33.8412 18.7973C33.8412 17.8627 33.0839 17.1055 32.1497 17.1055Z" fill="#DDD8CA"/>
<path d="M33.0644 18.7975C33.0644 17.9971 32.5077 17.328 31.7607 17.1523C31.0138 17.3279 30.457 17.9969 30.457 18.7975C30.457 19.598 31.0137 20.267 31.7607 20.4427C32.5076 20.2671 33.0644 19.5981 33.0644 18.7975Z" fill="#E5E0CF"/>
<path d="M31.9466 36.9492C31.8573 36.9492 31.7708 36.9607 31.6875 36.9802C32.1864 37.0976 32.5584 37.5444 32.5584 38.0791C32.5584 38.6139 32.1866 39.0609 31.6875 39.1781C31.7708 39.1977 31.8573 39.2091 31.9466 39.2091C32.5707 39.2091 33.0767 38.7031 33.0767 38.079C33.0765 37.4552 32.5707 36.9492 31.9466 36.9492Z" fill="#DDD8CA"/>
<path d="M32.5583 38.0794C32.5583 37.5446 32.1864 37.0976 31.6873 36.9805C31.1884 37.0978 30.8164 37.5446 30.8164 38.0794C30.8164 38.6141 31.1882 39.0611 31.6873 39.1783C32.1864 39.0611 32.5583 38.6141 32.5583 38.0794Z" fill="#E5E0CF"/>
<path d="M29.1459 30.5742C28.9582 30.5742 28.7766 30.5982 28.6016 30.6394C29.6498 30.8858 30.431 31.8247 30.431 32.9482C30.431 34.0716 29.6498 35.0106 28.6016 35.257C28.7766 35.2982 28.9584 35.3222 29.1459 35.3222C30.4569 35.3222 31.5198 34.2594 31.5198 32.9482C31.5197 31.637 30.4569 30.5742 29.1459 30.5742Z" fill="#DDD8CA"/>
<path d="M30.4324 32.9474C30.4324 31.8241 29.6511 30.8852 28.6029 30.6387C27.5547 30.885 26.7734 31.8239 26.7734 32.9474C26.7734 34.0708 27.5547 35.0098 28.6029 35.2562C29.6511 35.0098 30.4324 34.071 30.4324 32.9474Z" fill="#E5E0CF"/>
<path d="M25.7281 17.9297C25.4421 17.9297 25.1652 17.9663 24.8984 18.029C26.4959 18.4045 27.6866 19.8353 27.6866 21.5474C27.6866 23.2596 26.4959 24.6904 24.8984 25.0659C25.1652 25.1285 25.4421 25.1653 25.7281 25.1653C27.7262 25.1653 29.346 23.5456 29.346 21.5474C29.346 19.5494 27.7262 17.9297 25.7281 17.9297Z" fill="#DDD8CA"/>
<path d="M27.6857 21.5478C27.6857 19.8356 26.495 18.4048 24.8975 18.0293C23.3 18.4048 22.1094 19.8356 22.1094 21.5478C22.1094 23.2599 23.3 24.6907 24.8975 25.0662C26.495 24.6907 27.6857 23.2599 27.6857 21.5478Z" fill="#E5E0CF"/>
<path d="M42.8033 29.1211C42.4497 29.1211 42.1073 29.1663 41.7773 29.244C43.7529 29.7084 45.2254 31.478 45.2254 33.5952C45.2254 35.7126 43.7529 37.4822 41.7773 37.9466C42.1073 38.0241 42.4497 38.0695 42.8033 38.0695C45.2743 38.0695 47.2774 36.0664 47.2774 33.5954C47.2774 31.1242 45.2743 29.1211 42.8033 29.1211Z" fill="#DDD8CA"/>
<path d="M45.2242 33.5953C45.2242 31.4779 43.7518 29.7084 41.7762 29.2441C39.8006 29.7085 38.3281 31.4781 38.3281 33.5953C38.3281 35.7127 39.8006 37.4823 41.7762 37.9467C43.7518 37.4823 45.2242 35.7127 45.2242 33.5953Z" fill="#E5E0CF"/>
<path d="M44.6029 21.6992C44.3802 21.6992 44.1647 21.7277 43.957 21.7766C45.2006 22.0688 46.1275 23.1828 46.1275 24.5156C46.1275 25.8483 45.2006 26.9621 43.957 27.2545C44.1647 27.3033 44.3802 27.3319 44.6029 27.3319C46.1582 27.3319 47.4192 26.071 47.4192 24.5156C47.419 22.9601 46.1582 21.6992 44.6029 21.6992Z" fill="#DDD8CA"/>
<path d="M46.126 24.5163C46.126 23.1835 45.1992 22.0697 43.9556 21.7773C42.712 22.0696 41.7852 23.1835 41.7852 24.5163C41.7852 25.8491 42.712 26.9629 43.9556 27.2553C45.1992 26.963 46.126 25.8491 46.126 24.5163Z" fill="#E5E0CF"/>
<path d="M49.7262 26.2715C49.5836 26.2715 49.4457 26.2897 49.3125 26.321C50.1089 26.5082 50.7027 27.2217 50.7027 28.0754C50.7027 28.9291 50.1091 29.6424 49.3125 29.8296C49.4455 29.8609 49.5836 29.8791 49.7262 29.8791C50.7225 29.8791 51.5299 29.0715 51.5299 28.0754C51.5301 27.0791 50.7225 26.2715 49.7262 26.2715Z" fill="#DDD8CA"/>
<path d="M50.7022 28.0747C50.7022 27.221 50.1086 26.5077 49.312 26.3203C48.5156 26.5075 47.9219 27.221 47.9219 28.0747C47.9219 28.9283 48.5154 29.6417 49.312 29.8289C50.1085 29.6417 50.7022 28.9283 50.7022 28.0747Z" fill="#E5E0CF"/>
<path d="M48.9663 18.7305C48.8298 18.7305 48.6977 18.7479 48.5703 18.7779C49.3327 18.9572 49.901 19.6401 49.901 20.4572C49.901 21.2742 49.3327 21.9572 48.5703 22.1364C48.6977 22.1663 48.8298 22.1839 48.9663 22.1839C49.9199 22.1839 50.6928 21.4108 50.6928 20.4572C50.6928 19.5036 49.9199 18.7305 48.9663 18.7305Z" fill="#DDD8CA"/>
<path d="M49.9036 20.4566C49.9036 19.6395 49.3353 18.9566 48.5729 18.7773C47.8105 18.9566 47.2422 19.6395 47.2422 20.4566C47.2422 21.2736 47.8105 21.9566 48.5729 22.1358C49.3353 21.9566 49.9036 21.2736 49.9036 20.4566Z" fill="#E5E0CF"/>
<path d="M30.5497 11.6387C30.3777 11.6387 30.2113 11.6607 30.0508 11.6985C31.0116 11.9242 31.7276 12.7847 31.7276 13.8144C31.7276 14.8441 31.0116 15.7045 30.0508 15.9304C30.2113 15.9681 30.3777 15.9902 30.5497 15.9902C31.7512 15.9902 32.7254 15.0161 32.7254 13.8144C32.7254 12.6127 31.7514 11.6387 30.5497 11.6387Z" fill="#DDD8CA"/>
<path d="M31.7284 13.8152C31.7284 12.7857 31.0124 11.9251 30.0516 11.6992C29.091 11.9249 28.375 12.7855 28.375 13.8152C28.375 14.8449 29.091 15.7053 30.0516 15.9312C31.0124 15.7053 31.7284 14.8447 31.7284 13.8152Z" fill="#E5E0CF"/>
</g>
</g>
<defs>
<filter id="filter0_i_496_4290" x="-2" y="0.820312" width="62" height="64" filterUnits="userSpaceOnUse" color-interpolation-filters="sRGB">
<feFlood flood-opacity="0" result="BackgroundImageFix"/>
<feBlend mode="normal" in="SourceGraphic" in2="BackgroundImageFix" result="shape"/>
<feColorMatrix in="SourceAlpha" type="matrix" values="0 0 0 0 0 0 0 0 0 0 0 0 0 0 0 0 0 0 127 0" result="hardAlpha"/>
<feOffset dx="-2" dy="4"/>
<feGaussianBlur stdDeviation="7"/>
<feComposite in2="hardAlpha" operator="arithmetic" k2="-1" k3="1"/>
<feColorMatrix type="matrix" values="0 0 0 0 0 0 0 0 0 0 0 0 0 0 0 0 0 0 0.3 0"/>
<feBlend mode="normal" in2="shape" result="effect1_innerShadow_496_4290"/>
</filter>
<filter id="filter1_f_496_4290" x="14.9231" y="3.74343" width="43.1538" height="43.1538" filterUnits="userSpaceOnUse" color-interpolation-filters="sRGB">
<feFlood flood-opacity="0" result="BackgroundImageFix"/>
<feBlend mode="normal" in="SourceGraphic" in2="BackgroundImageFix" result="shape"/>
<feGaussianBlur stdDeviation="2.28844" result="effect1_foregroundBlur_496_4290"/>
</filter>
<linearGradient id="paint0_linear_496_4290" x1="60" y1="0.820311" x2="-5.36442e-06" y2="60.8203" gradientUnits="userSpaceOnUse">
<stop stop-color="#0E314C"/>
<stop offset="1" stop-color="#041326"/>
</linearGradient>
</defs>
</svg>
