<svg width="400" height="128" viewBox="0 0 400 128" fill="none" xmlns="http://www.w3.org/2000/svg">
<path d="M396.166 127.796H3.83387C2.81706 127.796 1.84219 127.391 1.1232 126.672C0.404214 125.953 0 124.978 0 123.962V74.1214C2.71148 74.1214 5.31113 73.0441 7.22843 71.1268C9.14574 69.2095 10.2236 66.6092 10.2236 63.8978C10.2236 61.1863 9.14574 58.586 7.22843 56.6687C5.31113 54.7514 2.71148 53.6741 0 53.6741V3.83387C0 2.81706 0.404214 1.84219 1.1232 1.1232C1.84219 0.404214 2.81706 0 3.83387 0H281.492C281.269 0.3886 281.152 0.82899 281.153 1.27733C281.153 1.72567 281.27 2.16593 281.495 2.55404C281.719 2.94215 282.042 3.26476 282.431 3.48879C282.819 3.71282 283.26 3.83075 283.709 3.83075C284.157 3.83075 284.596 3.71282 284.984 3.48879C285.372 3.26476 285.696 2.94215 285.92 2.55404C286.144 2.16593 286.264 1.72567 286.264 1.27733C286.265 0.82899 286.146 0.3886 285.923 0H396.166C397.183 0 398.158 0.404214 398.877 1.1232C399.596 1.84219 400 2.81706 400 3.83387V53.6741C397.289 53.6741 394.689 54.7514 392.772 56.6687C390.854 58.586 389.776 61.1863 389.776 63.8978C389.776 66.6092 390.854 69.2095 392.772 71.1268C394.689 73.0441 397.289 74.1214 400 74.1214V123.962C400 124.978 399.596 125.953 398.877 126.672C398.158 127.391 397.183 127.796 396.166 127.796ZM283.706 121.406C283.201 121.406 282.706 121.555 282.286 121.836C281.866 122.117 281.538 122.517 281.345 122.984C281.151 123.451 281.101 123.964 281.2 124.46C281.299 124.956 281.542 125.411 281.899 125.769C282.256 126.126 282.711 126.37 283.207 126.468C283.703 126.567 284.217 126.516 284.685 126.323C285.152 126.129 285.549 125.802 285.83 125.382C286.111 124.962 286.262 124.467 286.262 123.962C286.262 123.284 285.993 122.634 285.513 122.155C285.034 121.675 284.384 121.406 283.706 121.406ZM283.706 111.182C283.201 111.182 282.706 111.332 282.286 111.613C281.866 111.894 281.538 112.293 281.345 112.76C281.151 113.227 281.101 113.741 281.2 114.237C281.299 114.732 281.542 115.188 281.899 115.545C282.256 115.903 282.711 116.146 283.207 116.245C283.703 116.343 284.217 116.293 284.685 116.099C285.152 115.906 285.549 115.579 285.83 115.158C286.111 114.738 286.262 114.244 286.262 113.738C286.262 113.06 285.993 112.41 285.513 111.931C285.034 111.452 284.384 111.182 283.706 111.182ZM283.706 100.958C283.201 100.958 282.706 101.108 282.286 101.389C281.866 101.67 281.538 102.07 281.345 102.537C281.151 103.004 281.101 103.517 281.2 104.013C281.299 104.509 281.542 104.964 281.899 105.321C282.256 105.679 282.711 105.922 283.207 106.021C283.703 106.12 284.217 106.069 284.685 105.876C285.152 105.682 285.549 105.355 285.83 104.935C286.111 104.514 286.262 104.02 286.262 103.514C286.262 102.837 285.993 102.187 285.513 101.707C285.034 101.228 284.384 100.958 283.706 100.958ZM283.706 90.7348C283.201 90.7348 282.706 90.8845 282.286 91.1654C281.866 91.4462 281.538 91.8459 281.345 92.3129C281.151 92.78 281.101 93.2935 281.2 93.7893C281.299 94.2851 281.542 94.7404 281.899 95.0978C282.256 95.4553 282.711 95.6987 283.207 95.7973C283.703 95.896 284.217 95.8454 284.685 95.652C285.152 95.4585 285.549 95.1313 285.83 94.711C286.111 94.2906 286.262 93.7962 286.262 93.2907C286.262 92.6129 285.993 91.963 285.513 91.4836C285.034 91.0043 284.384 90.7348 283.706 90.7348ZM283.706 80.5112C283.201 80.5112 282.706 80.6609 282.286 80.9417C281.866 81.2226 281.538 81.6223 281.345 82.0893C281.151 82.5563 281.101 83.0699 281.2 83.5657C281.299 84.0615 281.542 84.5168 281.899 84.8742C282.256 85.2317 282.711 85.4751 283.207 85.5737C283.703 85.6723 284.217 85.6218 284.685 85.4283C285.152 85.2349 285.549 84.9076 285.83 84.4873C286.111 84.067 286.262 83.5726 286.262 83.0671C286.262 82.3892 285.993 81.7393 285.513 81.26C285.034 80.7807 284.384 80.5112 283.706 80.5112ZM283.706 70.2875C283.201 70.2875 282.706 70.4373 282.286 70.7181C281.866 70.9989 281.538 71.3986 281.345 71.8656C281.151 72.3327 281.101 72.8462 281.2 73.342C281.299 73.8378 281.542 74.2931 281.899 74.6506C282.256 75.008 282.711 75.2514 283.207 75.3501C283.703 75.4487 284.217 75.3981 284.685 75.2047C285.152 75.0112 285.549 74.684 285.83 74.2637C286.111 73.8434 286.262 73.349 286.262 72.8435C286.262 72.1656 285.993 71.5157 285.513 71.0363C285.034 70.557 284.384 70.2875 283.706 70.2875ZM283.706 60.0639C283.201 60.0639 282.706 60.2136 282.286 60.4945C281.866 60.7753 281.538 61.175 281.345 61.642C281.151 62.109 281.101 62.6226 281.2 63.1184C281.299 63.6142 281.542 64.0695 281.899 64.4269C282.256 64.7844 282.711 65.0278 283.207 65.1264C283.703 65.225 284.217 65.1745 284.685 64.981C285.152 64.7876 285.549 64.4604 285.83 64.04C286.111 63.6197 286.262 63.1253 286.262 62.6198C286.262 61.9419 285.993 61.292 285.513 60.8127C285.034 60.3334 284.384 60.0639 283.706 60.0639ZM283.706 49.8403C283.201 49.8403 282.706 49.99 282.286 50.2708C281.866 50.5517 281.538 50.9513 281.345 51.4184C281.151 51.8854 281.101 52.3989 281.2 52.8947C281.299 53.3905 281.542 53.8458 281.899 54.2033C282.256 54.5607 282.711 54.8042 283.207 54.9028C283.703 55.0014 284.217 54.9508 284.685 54.7574C285.152 54.5639 285.549 54.2367 285.83 53.8164C286.111 53.3961 286.262 52.9017 286.262 52.3962C286.262 51.7183 285.993 51.0684 285.513 50.5891C285.034 50.1097 284.384 49.8403 283.706 49.8403ZM283.706 39.6166C283.201 39.6166 282.706 39.7663 282.286 40.0472C281.866 40.328 281.538 40.7277 281.345 41.1947C281.151 41.6617 281.101 42.1753 281.2 42.6711C281.299 43.1669 281.542 43.6222 281.899 43.9796C282.256 44.3371 282.711 44.5805 283.207 44.6791C283.703 44.7778 284.217 44.7272 284.685 44.5337C285.152 44.3403 285.549 44.0131 285.83 43.5928C286.111 43.1724 286.262 42.678 286.262 42.1725C286.262 41.4947 285.993 40.8447 285.513 40.3654C285.034 39.8861 284.384 39.6166 283.706 39.6166ZM283.706 29.393C283.201 29.393 282.706 29.5427 282.286 29.8235C281.866 30.1044 281.538 30.504 281.345 30.9711C281.151 31.4381 281.101 31.9517 281.2 32.4475C281.299 32.9433 281.542 33.3985 281.899 33.756C282.256 34.1134 282.711 34.3569 283.207 34.4555C283.703 34.5541 284.217 34.5036 284.685 34.3101C285.152 34.1167 285.549 33.7894 285.83 33.3691C286.111 32.9488 286.262 32.4544 286.262 31.9489C286.262 31.271 285.993 30.6211 285.513 30.1418C285.034 29.6624 284.384 29.393 283.706 29.393ZM283.706 19.1693C283.201 19.1693 282.706 19.319 282.286 19.5999C281.866 19.8807 281.538 20.2804 281.345 20.7474C281.151 21.2145 281.101 21.728 281.2 22.2238C281.299 22.7196 281.542 23.1749 281.899 23.5323C282.256 23.8898 282.711 24.1332 283.207 24.2319C283.703 24.3305 284.217 24.2799 284.685 24.0865C285.152 23.893 285.549 23.5658 285.83 23.1455C286.111 22.7252 286.262 22.2308 286.262 21.7252C286.262 21.0474 285.993 20.3975 285.513 19.9181C285.034 19.4388 284.384 19.1693 283.706 19.1693ZM283.706 8.94569C283.201 8.94569 282.706 9.0954 282.286 9.37625C281.866 9.65709 281.538 10.0568 281.345 10.5238C281.151 10.9908 281.101 11.5044 281.2 12.0002C281.299 12.496 281.542 12.9513 281.899 13.3087C282.256 13.6662 282.711 13.9096 283.207 14.0082C283.703 14.1068 284.217 14.0563 284.685 13.8628C285.152 13.6694 285.549 13.3421 285.83 12.9218C286.111 12.5015 286.262 12.0071 286.262 11.5016C286.262 10.8237 285.993 10.1738 285.513 9.69449C285.034 9.21516 284.384 8.94569 283.706 8.94569Z" fill="url(#paint0_linear_359_55533)"/>
<path d="M151.181 106.706V99.6602H151.845V106.706H151.181ZM153.652 106.706V99.6602H154.311L158.588 105.759L158.129 105.515H158.481V99.6602H159.135V106.706H158.496L154.199 100.603L154.663 100.847H154.311V106.706H153.652ZM162.837 106.706V100.261H160.473V99.6602H165.864V100.261H163.501V106.706H162.837ZM167.197 106.706V99.6602H171.45V100.261H167.861V102.8H171.274V103.396H167.861V106.105H171.45V106.706H167.197ZM173.037 106.706V99.6602H175.556C176.015 99.6602 176.412 99.7448 176.748 99.9141C177.086 100.083 177.348 100.321 177.534 100.627C177.719 100.933 177.812 101.296 177.812 101.716V101.726C177.812 102.22 177.677 102.645 177.407 103C177.14 103.352 176.77 103.589 176.298 103.713L178.007 106.706H177.231L175.61 103.815C175.59 103.819 175.568 103.82 175.542 103.82C175.519 103.82 175.494 103.82 175.468 103.82H173.701V106.706H173.037ZM173.701 103.229H175.503C176.017 103.229 176.416 103.099 176.699 102.839C176.985 102.578 177.129 102.214 177.129 101.745V101.735C177.129 101.273 176.982 100.912 176.689 100.651C176.396 100.388 175.992 100.256 175.478 100.256H173.701V103.229ZM179.433 106.706V99.6602H183.686V100.261H180.097V102.8H183.51V103.396H180.097V106.105H183.686V106.706H179.433ZM187.539 106.853C187.041 106.853 186.603 106.77 186.225 106.604C185.851 106.438 185.551 106.21 185.327 105.92C185.102 105.63 184.972 105.298 184.936 104.924L184.931 104.87H185.595L185.6 104.924C185.626 105.181 185.727 105.409 185.903 105.607C186.079 105.806 186.31 105.961 186.596 106.071C186.886 106.182 187.212 106.237 187.573 106.237C187.928 106.237 188.242 106.179 188.515 106.062C188.789 105.941 189.004 105.778 189.16 105.573C189.316 105.365 189.394 105.129 189.394 104.865V104.86C189.394 104.532 189.272 104.257 189.028 104.035C188.784 103.811 188.39 103.636 187.846 103.513L187.124 103.352C186.414 103.192 185.901 102.959 185.586 102.653C185.27 102.344 185.112 101.947 185.112 101.462V101.457C185.112 101.083 185.214 100.751 185.42 100.461C185.625 100.168 185.908 99.9368 186.269 99.7676C186.634 99.5983 187.05 99.5137 187.519 99.5137C187.978 99.5137 188.383 99.5951 188.735 99.7578C189.09 99.9206 189.371 100.139 189.58 100.412C189.791 100.682 189.91 100.987 189.936 101.325L189.941 101.384H189.277L189.267 101.33C189.235 101.102 189.142 100.899 188.989 100.72C188.836 100.537 188.632 100.393 188.379 100.285C188.128 100.178 187.835 100.126 187.5 100.129C187.174 100.129 186.883 100.184 186.626 100.295C186.368 100.402 186.163 100.555 186.01 100.754C185.861 100.949 185.786 101.179 185.786 101.442V101.447C185.786 101.757 185.903 102.014 186.137 102.219C186.372 102.424 186.756 102.587 187.29 102.707L188.012 102.873C188.504 102.984 188.899 103.125 189.199 103.298C189.502 103.47 189.723 103.679 189.863 103.923C190.003 104.167 190.073 104.452 190.073 104.777V104.782C190.073 105.199 189.967 105.562 189.755 105.871C189.544 106.18 189.248 106.421 188.867 106.594C188.486 106.766 188.043 106.853 187.539 106.853ZM193.432 106.706V100.261H191.069V99.6602H196.46V100.261H194.096V106.706H193.432ZM200.82 104.05V103.454H202.832C203.375 103.454 203.8 103.312 204.106 103.029C204.415 102.746 204.57 102.355 204.57 101.857V101.848C204.57 101.35 204.415 100.961 204.106 100.681C203.8 100.397 203.375 100.256 202.832 100.256H200.82V99.6602H202.983C203.432 99.6602 203.826 99.7513 204.165 99.9336C204.503 100.113 204.768 100.367 204.961 100.695C205.153 101.024 205.249 101.407 205.249 101.843V101.853C205.249 102.289 205.153 102.673 204.961 103.005C204.768 103.334 204.503 103.591 204.165 103.776C203.826 103.959 203.432 104.05 202.983 104.05H200.82ZM200.488 106.706V99.6602H201.152V106.706H200.488ZM205.629 106.706L208.266 99.6602H208.779V100.534H208.564L206.328 106.706H205.629ZM206.767 104.543L206.972 103.972H210.224L210.429 104.543H206.767ZM210.859 106.706L208.623 100.534V99.6602H208.925L211.562 106.706H210.859ZM215.097 106.853C214.599 106.853 214.161 106.77 213.784 106.604C213.409 106.438 213.11 106.21 212.885 105.92C212.661 105.63 212.531 105.298 212.495 104.924L212.49 104.87H213.154L213.159 104.924C213.185 105.181 213.286 105.409 213.462 105.607C213.637 105.806 213.868 105.961 214.155 106.071C214.445 106.182 214.77 106.237 215.131 106.237C215.486 106.237 215.8 106.179 216.074 106.062C216.347 105.941 216.562 105.778 216.718 105.573C216.875 105.365 216.953 105.129 216.953 104.865V104.86C216.953 104.532 216.831 104.257 216.587 104.035C216.342 103.811 215.948 103.636 215.405 103.513L214.682 103.352C213.973 103.192 213.46 102.959 213.144 102.653C212.828 102.344 212.671 101.947 212.671 101.462V101.457C212.671 101.083 212.773 100.751 212.978 100.461C213.183 100.168 213.466 99.9368 213.828 99.7676C214.192 99.5983 214.609 99.5137 215.078 99.5137C215.537 99.5137 215.942 99.5951 216.294 99.7578C216.648 99.9206 216.93 100.139 217.138 100.412C217.35 100.682 217.469 100.987 217.495 101.325L217.5 101.384H216.836L216.826 101.33C216.793 101.102 216.7 100.899 216.547 100.72C216.394 100.537 216.191 100.393 215.937 100.285C215.686 100.178 215.393 100.126 215.058 100.129C214.733 100.129 214.441 100.184 214.184 100.295C213.927 100.402 213.722 100.555 213.569 100.754C213.419 100.949 213.344 101.179 213.344 101.442V101.447C213.344 101.757 213.462 102.014 213.696 102.219C213.93 102.424 214.314 102.587 214.848 102.707L215.571 102.873C216.062 102.984 216.458 103.125 216.757 103.298C217.06 103.47 217.282 103.679 217.421 103.923C217.561 104.167 217.631 104.452 217.631 104.777V104.782C217.631 105.199 217.526 105.562 217.314 105.871C217.102 106.18 216.806 106.421 216.425 106.594C216.045 106.766 215.602 106.853 215.097 106.853ZM221.367 106.853C220.869 106.853 220.431 106.77 220.053 106.604C219.679 106.438 219.379 106.21 219.155 105.92C218.93 105.63 218.8 105.298 218.764 104.924L218.759 104.87H219.423L219.428 104.924C219.454 105.181 219.555 105.409 219.731 105.607C219.907 105.806 220.138 105.961 220.424 106.071C220.714 106.182 221.04 106.237 221.401 106.237C221.756 106.237 222.07 106.179 222.343 106.062C222.617 105.941 222.832 105.778 222.988 105.573C223.144 105.365 223.222 105.129 223.222 104.865V104.86C223.222 104.532 223.1 104.257 222.856 104.035C222.612 103.811 222.218 103.636 221.674 103.513L220.952 103.352C220.242 103.192 219.729 102.959 219.414 102.653C219.098 102.344 218.94 101.947 218.94 101.462V101.457C218.94 101.083 219.043 100.751 219.248 100.461C219.453 100.168 219.736 99.9368 220.097 99.7676C220.462 99.5983 220.879 99.5137 221.347 99.5137C221.806 99.5137 222.212 99.5951 222.563 99.7578C222.918 99.9206 223.199 100.139 223.408 100.412C223.619 100.682 223.738 100.987 223.764 101.325L223.769 101.384H223.105L223.095 101.33C223.063 101.102 222.97 100.899 222.817 100.72C222.664 100.537 222.461 100.393 222.207 100.285C221.956 100.178 221.663 100.126 221.328 100.129C221.002 100.129 220.711 100.184 220.454 100.295C220.197 100.402 219.991 100.555 219.838 100.754C219.689 100.949 219.614 101.179 219.614 101.442V101.447C219.614 101.757 219.731 102.014 219.965 102.219C220.2 102.424 220.584 102.587 221.118 102.707L221.84 102.873C222.332 102.984 222.727 103.125 223.027 103.298C223.33 103.47 223.551 103.679 223.691 103.923C223.831 104.167 223.901 104.452 223.901 104.777V104.782C223.901 105.199 223.795 105.562 223.584 105.871C223.372 106.18 223.076 106.421 222.695 106.594C222.314 106.766 221.871 106.853 221.367 106.853ZM230.268 106.818C229.793 106.818 229.379 106.737 229.028 106.574C228.68 106.408 228.403 106.184 228.198 105.9C227.993 105.617 227.871 105.295 227.832 104.934L227.827 104.885H228.466L228.471 104.924C228.504 105.178 228.597 105.404 228.75 105.603C228.903 105.798 229.108 105.952 229.365 106.066C229.622 106.18 229.923 106.237 230.268 106.237C230.607 106.237 230.906 106.175 231.167 106.052C231.427 105.928 231.63 105.759 231.777 105.544C231.927 105.326 232.002 105.078 232.002 104.802V104.792C232.002 104.33 231.839 103.973 231.513 103.723C231.191 103.469 230.748 103.342 230.185 103.342H229.34V102.775H230.156C230.472 102.775 230.748 102.718 230.986 102.604C231.227 102.487 231.414 102.328 231.547 102.126C231.684 101.924 231.753 101.693 231.753 101.433V101.423C231.753 101.159 231.691 100.931 231.567 100.739C231.443 100.547 231.268 100.397 231.04 100.29C230.815 100.183 230.548 100.129 230.239 100.129C229.936 100.129 229.668 100.183 229.433 100.29C229.199 100.397 229.012 100.546 228.872 100.734C228.732 100.923 228.649 101.143 228.623 101.394L228.618 101.442H227.978L227.983 101.394C228.019 101.029 228.134 100.71 228.33 100.437C228.525 100.16 228.785 99.9434 229.111 99.7871C229.436 99.6276 229.812 99.5479 230.239 99.5479C230.672 99.5479 231.051 99.626 231.377 99.7822C231.705 99.9352 231.961 100.147 232.143 100.417C232.329 100.687 232.421 100.998 232.421 101.35V101.359C232.421 101.649 232.358 101.908 232.231 102.136C232.107 102.36 231.932 102.549 231.704 102.702C231.479 102.852 231.217 102.958 230.918 103.02V103.039C231.445 103.078 231.87 103.252 232.192 103.562C232.514 103.871 232.675 104.276 232.675 104.777V104.787C232.675 105.174 232.571 105.523 232.363 105.832C232.155 106.138 231.868 106.379 231.504 106.555C231.142 106.73 230.73 106.818 230.268 106.818ZM238.901 106.706V103.659L236.372 99.6602H237.133L239.204 102.98H239.262L241.328 99.6602H242.089L239.565 103.659V106.706H238.901ZM243.359 106.706V99.6602H247.612V100.261H244.023V102.8H247.436V103.396H244.023V106.105H247.612V106.706H243.359ZM248.657 106.706L251.294 99.6602H251.806V100.534H251.591L249.355 106.706H248.657ZM249.795 104.543L250 103.972H253.252L253.457 104.543H249.795ZM253.886 106.706L251.65 100.534V99.6602H251.953L254.589 106.706H253.886ZM255.859 106.706V99.6602H258.379C258.837 99.6602 259.235 99.7448 259.57 99.9141C259.908 100.083 260.171 100.321 260.356 100.627C260.542 100.933 260.634 101.296 260.634 101.716V101.726C260.634 102.22 260.499 102.645 260.229 103C259.962 103.352 259.593 103.589 259.121 103.713L260.83 106.706H260.053L258.432 103.815C258.413 103.819 258.39 103.82 258.364 103.82C258.341 103.82 258.317 103.82 258.291 103.82H256.523V106.706H255.859ZM256.523 103.229H258.325C258.839 103.229 259.238 103.099 259.521 102.839C259.808 102.578 259.951 102.214 259.951 101.745V101.735C259.951 101.273 259.804 100.912 259.511 100.651C259.218 100.388 258.815 100.256 258.3 100.256H256.523V103.229Z" fill="white"/>
<path d="M199.594 81V77.6367H191.168V75.3516C191.637 74.6016 192.109 73.8516 192.586 73.1016C193.062 72.3438 193.539 71.5898 194.016 70.8398C194.5 70.082 194.98 69.3281 195.457 68.5781C195.934 67.8203 196.41 67.0703 196.887 66.3281C197.371 65.5781 197.848 64.832 198.316 64.0898H202.113V75.4219H204.445V77.6367H202.113V81H199.594ZM193.629 75.457H199.617V66.1992H199.523C199.133 66.8008 198.742 67.4062 198.352 68.0156C197.961 68.625 197.566 69.2383 197.168 69.8555C196.777 70.4648 196.383 71.0781 195.984 71.6953C195.586 72.3125 195.191 72.9297 194.801 73.5469C194.41 74.1562 194.02 74.7656 193.629 75.375V75.457ZM208.043 81.1758C207.598 81.1758 207.223 81.0234 206.918 80.7188C206.613 80.4141 206.461 80.043 206.461 79.6055C206.461 79.168 206.613 78.7969 206.918 78.4922C207.223 78.1875 207.598 78.0352 208.043 78.0352C208.48 78.0352 208.852 78.1875 209.156 78.4922C209.461 78.7969 209.613 79.168 209.613 79.6055C209.613 80.043 209.461 80.4141 209.156 80.7188C208.852 81.0234 208.48 81.1758 208.043 81.1758ZM218.273 81.293C217.023 81.293 215.918 81.0859 214.957 80.6719C213.996 80.2578 213.242 79.6836 212.695 78.9492C212.156 78.2148 211.887 77.3711 211.887 76.418V76.3945C211.887 75.6836 212.043 75.0352 212.355 74.4492C212.676 73.8555 213.117 73.3555 213.68 72.9492C214.242 72.5352 214.887 72.25 215.613 72.0938V72.0352C214.676 71.7617 213.922 71.293 213.352 70.6289C212.781 69.9648 212.496 69.1875 212.496 68.2969V68.2734C212.496 67.4141 212.742 66.6484 213.234 65.9766C213.734 65.3047 214.418 64.7734 215.285 64.3828C216.16 63.9922 217.156 63.7969 218.273 63.7969C219.398 63.7969 220.395 63.9922 221.262 64.3828C222.137 64.7734 222.82 65.3047 223.312 65.9766C223.805 66.6484 224.051 67.4141 224.051 68.2734V68.2969C224.051 69.1875 223.766 69.9648 223.195 70.6289C222.633 71.293 221.879 71.7617 220.934 72.0352V72.0938C221.676 72.25 222.324 72.5352 222.879 72.9492C223.441 73.3555 223.879 73.8555 224.191 74.4492C224.512 75.0352 224.672 75.6836 224.672 76.3945V76.418C224.672 77.3711 224.398 78.2148 223.852 78.9492C223.312 79.6836 222.559 80.2578 221.59 80.6719C220.629 81.0859 219.523 81.293 218.273 81.293ZM218.273 79.1836C219 79.1836 219.637 79.0586 220.184 78.8086C220.738 78.5508 221.172 78.2031 221.484 77.7656C221.805 77.3203 221.965 76.8125 221.965 76.2422V76.2188C221.965 75.6484 221.809 75.1406 221.496 74.6953C221.184 74.25 220.75 73.9023 220.195 73.6523C219.641 73.3945 219 73.2656 218.273 73.2656C217.555 73.2656 216.918 73.3945 216.363 73.6523C215.809 73.9023 215.375 74.25 215.062 74.6953C214.75 75.1406 214.594 75.6484 214.594 76.2188V76.2422C214.594 76.8125 214.75 77.3203 215.062 77.7656C215.383 78.2031 215.82 78.5508 216.375 78.8086C216.93 79.0586 217.562 79.1836 218.273 79.1836ZM218.273 71.1445C218.898 71.1445 219.449 71.0352 219.926 70.8164C220.402 70.5898 220.773 70.2812 221.039 69.8906C221.312 69.4922 221.449 69.0391 221.449 68.5312V68.5078C221.449 67.9922 221.312 67.5391 221.039 67.1484C220.773 66.75 220.402 66.4414 219.926 66.2227C219.449 65.9961 218.898 65.8828 218.273 65.8828C217.648 65.8828 217.098 65.9961 216.621 66.2227C216.145 66.4414 215.773 66.75 215.508 67.1484C215.242 67.5391 215.109 67.9922 215.109 68.5078V68.5312C215.109 69.0391 215.242 69.4922 215.508 69.8906C215.773 70.2812 216.145 70.5898 216.621 70.8164C217.098 71.0352 217.648 71.1445 218.273 71.1445ZM233.203 81.3047C232.07 81.3047 231.07 81.0938 230.203 80.6719C229.336 80.25 228.645 79.6758 228.129 78.9492C227.613 78.2148 227.316 77.3867 227.238 76.4648L227.227 76.3242H229.734L229.746 76.418C229.816 76.918 230.008 77.375 230.32 77.7891C230.633 78.1953 231.039 78.5156 231.539 78.75C232.039 78.9844 232.598 79.1016 233.215 79.1016C233.926 79.1016 234.551 78.9531 235.09 78.6562C235.637 78.3516 236.062 77.9297 236.367 77.3906C236.672 76.8516 236.824 76.2305 236.824 75.5273V75.5039C236.824 74.8164 236.668 74.207 236.355 73.6758C236.051 73.1445 235.629 72.7266 235.09 72.4219C234.559 72.1172 233.945 71.9648 233.25 71.9648C232.727 71.9648 232.242 72.043 231.797 72.1992C231.359 72.3477 230.969 72.5742 230.625 72.8789C230.477 73.0117 230.332 73.1602 230.191 73.3242C230.059 73.4883 229.938 73.6641 229.828 73.8516H227.531L228.363 64.0898H238.406V66.3047H230.484L229.969 71.6602H230.051C230.301 71.2773 230.617 70.957 231 70.6992C231.383 70.4336 231.812 70.2305 232.289 70.0898C232.773 69.9492 233.293 69.8789 233.848 69.8789C234.918 69.8789 235.871 70.1211 236.707 70.6055C237.543 71.0898 238.199 71.75 238.676 72.5859C239.152 73.4219 239.391 74.3789 239.391 75.457V75.4805C239.391 76.6289 239.125 77.6406 238.594 78.5156C238.07 79.3906 237.344 80.0742 236.414 80.5664C235.484 81.0586 234.414 81.3047 233.203 81.3047ZM245.074 72.668C244.324 72.668 243.68 72.4922 243.141 72.1406C242.602 71.7812 242.184 71.2734 241.887 70.6172C241.598 69.9609 241.453 69.1875 241.453 68.2969V68.2852C241.453 67.3945 241.598 66.625 241.887 65.9766C242.184 65.3203 242.602 64.8164 243.141 64.4648C243.68 64.1055 244.324 63.9258 245.074 63.9258C245.824 63.9258 246.469 64.1055 247.008 64.4648C247.547 64.8164 247.961 65.3203 248.25 65.9766C248.539 66.625 248.684 67.3945 248.684 68.2852V68.2969C248.684 69.1875 248.539 69.9609 248.25 70.6172C247.961 71.2734 247.547 71.7812 247.008 72.1406C246.469 72.4922 245.824 72.668 245.074 72.668ZM245.074 71.0742C245.613 71.0742 246.027 70.832 246.316 70.3477C246.613 69.8633 246.762 69.1797 246.762 68.2969V68.2852C246.762 67.4102 246.613 66.7344 246.316 66.2578C246.027 65.7734 245.613 65.5312 245.074 65.5312C244.535 65.5312 244.117 65.7734 243.82 66.2578C243.531 66.7344 243.387 67.4102 243.387 68.2852V68.2969C243.387 69.1797 243.531 69.8633 243.82 70.3477C244.117 70.832 244.535 71.0742 245.074 71.0742ZM246.305 81H244.125L255.047 64.0898H257.203L246.305 81ZM256.254 81.1641C255.512 81.1641 254.867 80.9883 254.32 80.6367C253.781 80.2773 253.367 79.7695 253.078 79.1133C252.789 78.457 252.645 77.6836 252.645 76.793V76.7812C252.645 75.8828 252.789 75.1094 253.078 74.4609C253.367 73.8125 253.781 73.3125 254.32 72.9609C254.867 72.6016 255.512 72.4219 256.254 72.4219C257.012 72.4219 257.66 72.6016 258.199 72.9609C258.738 73.3125 259.152 73.8125 259.441 74.4609C259.73 75.1094 259.875 75.8828 259.875 76.7812V76.793C259.875 77.6836 259.73 78.457 259.441 79.1133C259.152 79.7695 258.738 80.2773 258.199 80.6367C257.66 80.9883 257.012 81.1641 256.254 81.1641ZM256.254 79.5586C256.793 79.5586 257.207 79.3164 257.496 78.832C257.793 78.3477 257.941 77.668 257.941 76.793V76.7812C257.941 75.9062 257.793 75.2305 257.496 74.7539C257.207 74.2695 256.793 74.0273 256.254 74.0273C255.723 74.0273 255.309 74.2695 255.012 74.7539C254.723 75.2305 254.578 75.9062 254.578 76.7812V76.793C254.578 77.668 254.723 78.3477 255.012 78.832C255.309 79.3164 255.723 79.5586 256.254 79.5586Z" fill="white"/>
<path d="M159.774 53V45.9541H161.039L163.28 51.5693H163.363L165.604 45.9541H166.869V53H165.868V47.834H165.326L166.469 46.1494L163.725 53H162.914L160.175 46.1494L161.312 47.834H160.775V53H159.774ZM168.09 53L170.634 45.9541H171.518V47.1895H171.186L169.242 53H168.09ZM169.315 51.0957L169.623 50.2168H172.831L173.139 51.0957H169.315ZM173.207 53L171.269 47.1895V45.9541H171.82L174.359 53H173.207ZM175.131 53L177.733 49.0645L177.475 49.9336V49.4404L175.155 45.9541H176.464L178.207 48.6836H178.71L177.992 49.0889L179.994 45.9541H181.234L178.847 49.4746V49.9727L178.583 49.1035L181.19 53H179.906L178.153 50.3145H177.646L178.373 49.9141L176.347 53H175.131ZM182.558 53V45.9541H183.651V53H182.558ZM185.419 53V45.9541H186.684L188.925 51.5693H189.008L191.249 45.9541H192.514V53H191.513V47.834H190.971L192.113 46.1494L189.369 53H188.559L185.819 46.1494L186.957 47.834H186.42V53H185.419ZM197.123 53.1709C196.534 53.1709 196.026 53.0618 195.6 52.8438C195.173 52.6257 194.844 52.3229 194.613 51.9355C194.382 51.5449 194.267 51.0908 194.267 50.5732V45.9541H195.365V50.4902C195.365 50.8288 195.434 51.1266 195.57 51.3838C195.71 51.641 195.91 51.8411 196.171 51.9844C196.435 52.1276 196.752 52.1992 197.123 52.1992C197.497 52.1992 197.815 52.1276 198.075 51.9844C198.336 51.8411 198.534 51.641 198.671 51.3838C198.808 51.1266 198.876 50.8288 198.876 50.4902V45.9541H199.975V50.5732C199.975 51.0908 199.859 51.5449 199.628 51.9355C199.4 52.3229 199.073 52.6257 198.646 52.8438C198.223 53.0618 197.715 53.1709 197.123 53.1709ZM201.737 53V45.9541H203.002L205.243 51.5693H205.326L207.567 45.9541H208.832V53H207.831V47.834H207.289L208.432 46.1494L205.688 53H204.877L202.138 46.1494L203.275 47.834H202.738V53H201.737ZM213.319 53V45.9541H214.413V53H213.319ZM216.181 53V45.9541H217.172L221.059 51.457L220.312 51.0713H220.863V45.9541H221.933V53H220.941L217.05 47.502L217.802 47.8877H217.245V53H216.181ZM225.487 53V46.9014H223.271V45.9541H228.798V46.9014H226.581V53H225.487ZM230.136 53V45.9541H234.608V46.9014H231.229V48.957H234.428V49.8652H231.229V52.0527H234.608V53H230.136ZM236.19 53V45.9541H238.969C239.451 45.9541 239.867 46.0436 240.219 46.2227C240.57 46.3984 240.84 46.6475 241.029 46.9697C241.221 47.2887 241.317 47.6663 241.317 48.1025V48.1123C241.317 48.5876 241.197 49.0059 240.956 49.3672C240.715 49.7253 240.38 49.9775 239.95 50.124L241.527 53H240.263L238.827 50.29C238.817 50.29 238.808 50.29 238.798 50.29C238.788 50.29 238.778 50.29 238.769 50.29H237.284V53H236.19ZM237.284 49.4014H238.861C239.281 49.4014 239.607 49.2923 239.838 49.0742C240.069 48.8529 240.185 48.542 240.185 48.1416V48.1318C240.185 47.7412 240.064 47.4336 239.823 47.209C239.586 46.9844 239.254 46.8721 238.827 46.8721H237.284V49.4014ZM242.88 53V45.9541H247.353V46.9014H243.974V48.957H247.172V49.8652H243.974V52.0527H247.353V53H242.88ZM251.317 53.1709C250.787 53.1709 250.325 53.0879 249.931 52.9219C249.537 52.7526 249.226 52.5182 248.998 52.2188C248.77 51.9193 248.64 51.5726 248.607 51.1787L248.603 51.1152H249.682L249.687 51.1689C249.709 51.3805 249.792 51.5645 249.936 51.7207C250.082 51.877 250.277 51.999 250.521 52.0869C250.769 52.1748 251.05 52.2188 251.366 52.2188C251.662 52.2188 251.926 52.1715 252.157 52.0771C252.388 51.9827 252.569 51.8525 252.699 51.6865C252.833 51.5205 252.899 51.3301 252.899 51.1152V51.1104C252.899 50.8402 252.797 50.6156 252.592 50.4365C252.387 50.2575 252.051 50.1175 251.586 50.0166L250.814 49.8555C250.102 49.7025 249.582 49.46 249.257 49.1279C248.931 48.7926 248.769 48.3646 248.769 47.8438V47.8389C248.772 47.432 248.881 47.0739 249.096 46.7646C249.314 46.4554 249.615 46.2145 249.999 46.042C250.383 45.8695 250.824 45.7832 251.322 45.7832C251.82 45.7832 252.255 45.8695 252.626 46.042C253 46.2113 253.295 46.4424 253.51 46.7354C253.728 47.0283 253.85 47.3587 253.876 47.7266L253.881 47.79H252.812L252.802 47.7266C252.772 47.5345 252.693 47.3636 252.562 47.2139C252.436 47.0641 252.265 46.9469 252.05 46.8623C251.838 46.7744 251.591 46.7321 251.308 46.7354C251.034 46.7354 250.79 46.7777 250.575 46.8623C250.36 46.9437 250.189 47.0625 250.062 47.2188C249.939 47.375 249.877 47.5638 249.877 47.7852V47.79C249.877 48.0505 249.976 48.2686 250.175 48.4443C250.377 48.6169 250.704 48.752 251.156 48.8496L251.928 49.0205C252.419 49.1247 252.818 49.263 253.124 49.4355C253.43 49.6081 253.653 49.8213 253.793 50.0752C253.936 50.3258 254.008 50.6253 254.008 50.9736V50.9785C254.008 51.4277 253.897 51.8167 253.676 52.1455C253.458 52.471 253.147 52.7233 252.743 52.9023C252.34 53.0814 251.864 53.1709 251.317 53.1709ZM257.235 53V46.9014H255.019V45.9541H260.546V46.9014H258.329V53H257.235Z" fill="white"/>
<path d="M28.0547 32.0859V23.6309H29.3672V32.0859H28.0547ZM31.4883 32.0859V23.6309H32.6777L37.3418 30.2344L36.4453 29.7715H37.1074V23.6309H38.3906V32.0859H37.2012L32.5312 25.4883L33.4336 25.9512H32.7656V32.0859H31.4883ZM42.6562 32.0859V24.7676H39.9961V23.6309H46.6289V24.7676H43.9688V32.0859H42.6562ZM48.2344 32.0859V23.6309H53.6016V24.7676H49.5469V27.2344H53.3848V28.3242H49.5469V30.9492H53.6016V32.0859H48.2344ZM55.5 32.0859V23.6309H58.834C59.4121 23.6309 59.9121 23.7383 60.334 23.9531C60.7559 24.1641 61.0801 24.4629 61.3066 24.8496C61.5371 25.2324 61.6523 25.6855 61.6523 26.209V26.2207C61.6523 26.791 61.5078 27.293 61.2188 27.7266C60.9297 28.1562 60.5273 28.459 60.0117 28.6348L61.9043 32.0859H60.3867L58.6641 28.834C58.6523 28.834 58.6406 28.834 58.6289 28.834C58.6172 28.834 58.6055 28.834 58.5938 28.834H56.8125V32.0859H55.5ZM56.8125 27.7676H58.7051C59.209 27.7676 59.5996 27.6367 59.877 27.375C60.1543 27.1094 60.293 26.7363 60.293 26.2559V26.2441C60.293 25.7754 60.1484 25.4062 59.8594 25.1367C59.5742 24.8672 59.1758 24.7324 58.6641 24.7324H56.8125V27.7676ZM63.5273 32.0859V23.6309H68.8945V24.7676H64.8398V27.2344H68.6777V28.3242H64.8398V30.9492H68.8945V32.0859H63.5273ZM73.6523 32.291C73.0156 32.291 72.4609 32.1914 71.9883 31.9922C71.5156 31.7891 71.1426 31.5078 70.8691 31.1484C70.5957 30.7891 70.4395 30.373 70.4004 29.9004L70.3945 29.8242H71.6895L71.6953 29.8887C71.7227 30.1426 71.8223 30.3633 71.9941 30.5508C72.1699 30.7383 72.4043 30.8848 72.6973 30.9902C72.9941 31.0957 73.332 31.1484 73.7109 31.1484C74.0664 31.1484 74.3828 31.0918 74.6602 30.9785C74.9375 30.8652 75.1543 30.709 75.3105 30.5098C75.4707 30.3105 75.5508 30.082 75.5508 29.8242V29.8184C75.5508 29.4941 75.4277 29.2246 75.1816 29.0098C74.9355 28.7949 74.5332 28.627 73.9746 28.5059L73.0488 28.3125C72.1934 28.1289 71.5703 27.8379 71.1797 27.4395C70.7891 27.0371 70.5938 26.5234 70.5938 25.8984V25.8926C70.5977 25.4043 70.7285 24.9746 70.9863 24.6035C71.248 24.2324 71.6094 23.9434 72.0703 23.7363C72.5312 23.5293 73.0605 23.4258 73.6582 23.4258C74.2559 23.4258 74.7773 23.5293 75.2227 23.7363C75.6719 23.9395 76.0254 24.2168 76.2832 24.5684C76.5449 24.9199 76.6914 25.3164 76.7227 25.7578L76.7285 25.834H75.4453L75.4336 25.7578C75.3984 25.5273 75.3027 25.3223 75.1465 25.1426C74.9941 24.9629 74.7891 24.8223 74.5312 24.7207C74.2773 24.6152 73.9805 24.5645 73.6406 24.5684C73.3125 24.5684 73.0195 24.6191 72.7617 24.7207C72.5039 24.8184 72.2988 24.9609 72.1465 25.1484C71.998 25.3359 71.9238 25.5625 71.9238 25.8281V25.834C71.9238 26.1465 72.043 26.4082 72.2812 26.6191C72.5234 26.8262 72.916 26.9883 73.459 27.1055L74.3848 27.3105C74.9746 27.4355 75.4531 27.6016 75.8203 27.8086C76.1875 28.0156 76.4551 28.2715 76.623 28.5762C76.7949 28.877 76.8809 29.2363 76.8809 29.6543V29.6602C76.8809 30.1992 76.748 30.666 76.4824 31.0605C76.2207 31.4512 75.8477 31.7539 75.3633 31.9688C74.8789 32.1836 74.3086 32.291 73.6523 32.291ZM80.7539 32.0859V24.7676H78.0938V23.6309H84.7266V24.7676H82.0664V32.0859H80.7539ZM90.2578 32.0859V31.0137H92.8125C93.4062 31.0137 93.8555 30.8945 94.1602 30.6562C94.4648 30.418 94.6172 30.0723 94.6172 29.6191V29.6074C94.6172 29.3027 94.5469 29.0488 94.4062 28.8457C94.2656 28.6426 94.0547 28.4902 93.7734 28.3887C93.4961 28.2832 93.1504 28.2305 92.7363 28.2305H90.2578V27.2285H92.4727C93.0547 27.2285 93.4941 27.123 93.791 26.9121C94.0879 26.6973 94.2363 26.3848 94.2363 25.9746V25.9629C94.2363 25.5645 94.1016 25.2559 93.832 25.0371C93.5625 24.8145 93.1836 24.7031 92.6953 24.7031H90.2578V23.6309H93.0059C93.5332 23.6309 93.9863 23.7168 94.3652 23.8887C94.748 24.0605 95.041 24.3047 95.2441 24.6211C95.4473 24.9336 95.5488 25.3047 95.5488 25.7344V25.7461C95.5488 26.043 95.4824 26.3203 95.3496 26.5781C95.2168 26.832 95.0391 27.0469 94.8164 27.2227C94.5938 27.3984 94.3418 27.5098 94.0605 27.5566V27.6562C94.4434 27.6953 94.7773 27.8066 95.0625 27.9902C95.3477 28.1738 95.5703 28.4121 95.7305 28.7051C95.8906 28.9941 95.9707 29.3223 95.9707 29.6895V29.7012C95.9707 30.1934 95.8535 30.6191 95.6191 30.9785C95.3887 31.334 95.0586 31.6074 94.6289 31.7988C94.1992 31.9902 93.6836 32.0859 93.082 32.0859H90.2578ZM89.6016 32.0859V23.6309H90.9141V32.0859H89.6016ZM101.256 32.291C100.436 32.291 99.7305 32.1113 99.1406 31.752C98.5508 31.3887 98.0977 30.875 97.7812 30.2109C97.4648 29.5469 97.3066 28.7637 97.3066 27.8613V27.8496C97.3066 26.9395 97.4668 26.1543 97.7871 25.4941C98.1074 24.834 98.5625 24.3242 99.1523 23.9648C99.7461 23.6055 100.447 23.4258 101.256 23.4258C102.068 23.4258 102.77 23.6055 103.359 23.9648C103.949 24.3242 104.402 24.8359 104.719 25.5C105.039 26.1602 105.199 26.9434 105.199 27.8496V27.8613C105.199 28.7637 105.041 29.5469 104.725 30.2109C104.408 30.8711 103.953 31.3828 103.359 31.7461C102.77 32.1094 102.068 32.291 101.256 32.291ZM101.256 31.125C101.787 31.125 102.248 30.9902 102.639 30.7207C103.029 30.4512 103.33 30.0723 103.541 29.584C103.752 29.0918 103.857 28.5176 103.857 27.8613V27.8496C103.857 27.1855 103.752 26.6094 103.541 26.1211C103.33 25.6328 103.029 25.2559 102.639 24.9902C102.248 24.7246 101.787 24.5918 101.256 24.5918C100.725 24.5918 100.264 24.7246 99.873 24.9902C99.4863 25.2559 99.1855 25.6328 98.9707 26.1211C98.7559 26.6094 98.6484 27.1855 98.6484 27.8496V27.8613C98.6484 28.5176 98.752 29.0918 98.959 29.584C99.1699 30.0723 99.4688 30.4512 99.8555 30.7207C100.246 30.9902 100.713 31.125 101.256 31.125ZM110.584 32.291C109.764 32.291 109.059 32.1113 108.469 31.752C107.879 31.3887 107.426 30.875 107.109 30.2109C106.793 29.5469 106.635 28.7637 106.635 27.8613V27.8496C106.635 26.9395 106.795 26.1543 107.115 25.4941C107.436 24.834 107.891 24.3242 108.48 23.9648C109.074 23.6055 109.775 23.4258 110.584 23.4258C111.396 23.4258 112.098 23.6055 112.688 23.9648C113.277 24.3242 113.73 24.8359 114.047 25.5C114.367 26.1602 114.527 26.9434 114.527 27.8496V27.8613C114.527 28.7637 114.369 29.5469 114.053 30.2109C113.736 30.8711 113.281 31.3828 112.688 31.7461C112.098 32.1094 111.396 32.291 110.584 32.291ZM110.584 31.125C111.115 31.125 111.576 30.9902 111.967 30.7207C112.357 30.4512 112.658 30.0723 112.869 29.584C113.08 29.0918 113.186 28.5176 113.186 27.8613V27.8496C113.186 27.1855 113.08 26.6094 112.869 26.1211C112.658 25.6328 112.357 25.2559 111.967 24.9902C111.576 24.7246 111.115 24.5918 110.584 24.5918C110.053 24.5918 109.592 24.7246 109.201 24.9902C108.814 25.2559 108.514 25.6328 108.299 26.1211C108.084 26.6094 107.977 27.1855 107.977 27.8496V27.8613C107.977 28.5176 108.08 29.0918 108.287 29.584C108.498 30.0723 108.797 30.4512 109.184 30.7207C109.574 30.9902 110.041 31.125 110.584 31.125ZM119.168 32.291C118.531 32.291 117.977 32.1914 117.504 31.9922C117.031 31.7891 116.658 31.5078 116.385 31.1484C116.111 30.7891 115.955 30.373 115.916 29.9004L115.91 29.8242H117.205L117.211 29.8887C117.238 30.1426 117.338 30.3633 117.51 30.5508C117.686 30.7383 117.92 30.8848 118.213 30.9902C118.51 31.0957 118.848 31.1484 119.227 31.1484C119.582 31.1484 119.898 31.0918 120.176 30.9785C120.453 30.8652 120.67 30.709 120.826 30.5098C120.986 30.3105 121.066 30.082 121.066 29.8242V29.8184C121.066 29.4941 120.943 29.2246 120.697 29.0098C120.451 28.7949 120.049 28.627 119.49 28.5059L118.564 28.3125C117.709 28.1289 117.086 27.8379 116.695 27.4395C116.305 27.0371 116.109 26.5234 116.109 25.8984V25.8926C116.113 25.4043 116.244 24.9746 116.502 24.6035C116.764 24.2324 117.125 23.9434 117.586 23.7363C118.047 23.5293 118.576 23.4258 119.174 23.4258C119.771 23.4258 120.293 23.5293 120.738 23.7363C121.188 23.9395 121.541 24.2168 121.799 24.5684C122.061 24.9199 122.207 25.3164 122.238 25.7578L122.244 25.834H120.961L120.949 25.7578C120.914 25.5273 120.818 25.3223 120.662 25.1426C120.51 24.9629 120.305 24.8223 120.047 24.7207C119.793 24.6152 119.496 24.5645 119.156 24.5684C118.828 24.5684 118.535 24.6191 118.277 24.7207C118.02 24.8184 117.814 24.9609 117.662 25.1484C117.514 25.3359 117.439 25.5625 117.439 25.8281V25.834C117.439 26.1465 117.559 26.4082 117.797 26.6191C118.039 26.8262 118.432 26.9883 118.975 27.1055L119.9 27.3105C120.49 27.4355 120.969 27.6016 121.336 27.8086C121.703 28.0156 121.971 28.2715 122.139 28.5762C122.311 28.877 122.396 29.2363 122.396 29.6543V29.6602C122.396 30.1992 122.264 30.666 121.998 31.0605C121.736 31.4512 121.363 31.7539 120.879 31.9688C120.395 32.1836 119.824 32.291 119.168 32.291ZM126.27 32.0859V24.7676H123.609V23.6309H130.242V24.7676H127.582V32.0859H126.27ZM131.848 32.0859V23.6309H137.215V24.7676H133.16V27.2344H136.998V28.3242H133.16V30.9492H137.215V32.0859H131.848ZM139.113 32.0859V23.6309H142.447C143.025 23.6309 143.525 23.7383 143.947 23.9531C144.369 24.1641 144.693 24.4629 144.92 24.8496C145.15 25.2324 145.266 25.6855 145.266 26.209V26.2207C145.266 26.791 145.121 27.293 144.832 27.7266C144.543 28.1562 144.141 28.459 143.625 28.6348L145.518 32.0859H144L142.277 28.834C142.266 28.834 142.254 28.834 142.242 28.834C142.23 28.834 142.219 28.834 142.207 28.834H140.426V32.0859H139.113ZM140.426 27.7676H142.318C142.822 27.7676 143.213 27.6367 143.49 27.375C143.768 27.1094 143.906 26.7363 143.906 26.2559V26.2441C143.906 25.7754 143.762 25.4062 143.473 25.1367C143.188 24.8672 142.789 24.7324 142.277 24.7324H140.426V27.7676Z" fill="white"/>
<path d="M322.78 81.165V74.1191H323.659V81.165H322.78ZM325.348 81.165V75.9014H326.198V76.6924H326.276C326.409 76.4124 326.601 76.196 326.852 76.043C327.103 75.8867 327.422 75.8086 327.809 75.8086C328.402 75.8086 328.856 75.9779 329.171 76.3164C329.49 76.6517 329.65 77.1318 329.65 77.7568V81.165H328.8V77.9619C328.8 77.4867 328.699 77.1351 328.498 76.9072C328.299 76.6761 327.99 76.5605 327.57 76.5605C327.29 76.5605 327.047 76.6208 326.842 76.7412C326.637 76.8617 326.478 77.0326 326.364 77.2539C326.253 77.4753 326.198 77.7406 326.198 78.0498V81.165H325.348ZM333.058 81.2041C332.518 81.2041 332.125 81.0951 331.881 80.877C331.64 80.6589 331.52 80.2992 331.52 79.7979V76.6045H330.69V75.9014H331.52V74.5391H332.399V75.9014H333.551V76.6045H332.399V79.583C332.399 79.8923 332.458 80.1152 332.575 80.252C332.692 80.3854 332.887 80.4521 333.161 80.4521C333.235 80.4521 333.299 80.4505 333.351 80.4473C333.406 80.444 333.473 80.4391 333.551 80.4326V81.1553C333.47 81.1683 333.388 81.1797 333.307 81.1895C333.226 81.1992 333.143 81.2041 333.058 81.2041ZM336.901 81.2578C336.4 81.2578 335.968 81.1471 335.607 80.9258C335.249 80.7044 334.972 80.3919 334.777 79.9883C334.585 79.5814 334.489 79.1029 334.489 78.5527V78.5479C334.489 78.0042 334.585 77.5273 334.777 77.1172C334.972 76.707 335.247 76.3864 335.602 76.1553C335.957 75.9242 336.372 75.8086 336.847 75.8086C337.326 75.8086 337.736 75.9193 338.078 76.1406C338.423 76.362 338.686 76.6712 338.869 77.0684C339.054 77.4622 339.147 77.9212 339.147 78.4453V78.7773H334.928V78.0986H338.712L338.292 78.7188V78.3818C338.292 77.9684 338.231 77.6283 338.107 77.3613C337.983 77.0944 337.812 76.8958 337.594 76.7656C337.376 76.6322 337.125 76.5654 336.842 76.5654C336.559 76.5654 336.305 76.6354 336.081 76.7754C335.859 76.9121 335.683 77.1156 335.553 77.3857C335.423 77.6559 335.358 77.988 335.358 78.3818V78.7188C335.358 79.0931 335.421 79.4137 335.548 79.6807C335.675 79.9443 335.856 80.1478 336.09 80.291C336.325 80.431 336.601 80.501 336.92 80.501C337.158 80.501 337.365 80.4684 337.541 80.4033C337.716 80.3382 337.861 80.2552 337.975 80.1543C338.089 80.0534 338.169 79.9508 338.214 79.8467L338.234 79.8027H339.083L339.074 79.8418C339.028 80.0208 338.947 80.195 338.83 80.3643C338.716 80.5303 338.568 80.6816 338.385 80.8184C338.203 80.9518 337.986 81.0592 337.736 81.1406C337.488 81.2188 337.21 81.2578 336.901 81.2578ZM340.465 81.165V75.9014H341.315V76.6826H341.393C341.494 76.4059 341.665 76.1911 341.906 76.0381C342.147 75.8851 342.444 75.8086 342.799 75.8086C342.881 75.8086 342.96 75.8135 343.039 75.8232C343.12 75.8298 343.182 75.8363 343.224 75.8428V76.668C343.136 76.6517 343.05 76.6403 342.965 76.6338C342.884 76.624 342.796 76.6191 342.702 76.6191C342.431 76.6191 342.192 76.6729 341.984 76.7803C341.776 76.8877 341.611 77.0374 341.491 77.2295C341.374 77.4215 341.315 77.6462 341.315 77.9033V81.165H340.465ZM346.276 81.2578C345.775 81.2578 345.343 81.1471 344.982 80.9258C344.624 80.7044 344.347 80.3919 344.152 79.9883C343.96 79.5814 343.864 79.1029 343.864 78.5527V78.5479C343.864 78.0042 343.96 77.5273 344.152 77.1172C344.347 76.707 344.622 76.3864 344.977 76.1553C345.332 75.9242 345.747 75.8086 346.222 75.8086C346.701 75.8086 347.111 75.9193 347.453 76.1406C347.798 76.362 348.061 76.6712 348.244 77.0684C348.429 77.4622 348.522 77.9212 348.522 78.4453V78.7773H344.303V78.0986H348.087L347.667 78.7188V78.3818C347.667 77.9684 347.606 77.6283 347.482 77.3613C347.358 77.0944 347.187 76.8958 346.969 76.7656C346.751 76.6322 346.5 76.5654 346.217 76.5654C345.934 76.5654 345.68 76.6354 345.456 76.7754C345.234 76.9121 345.058 77.1156 344.928 77.3857C344.798 77.6559 344.733 77.988 344.733 78.3818V78.7188C344.733 79.0931 344.796 79.4137 344.923 79.6807C345.05 79.9443 345.231 80.1478 345.465 80.291C345.7 80.431 345.976 80.501 346.295 80.501C346.533 80.501 346.74 80.4684 346.916 80.4033C347.091 80.3382 347.236 80.2552 347.35 80.1543C347.464 80.0534 347.544 79.9508 347.589 79.8467L347.609 79.8027H348.458L348.449 79.8418C348.403 80.0208 348.322 80.195 348.205 80.3643C348.091 80.5303 347.943 80.6816 347.76 80.8184C347.578 80.9518 347.361 81.0592 347.111 81.1406C346.863 81.2188 346.585 81.2578 346.276 81.2578ZM351.647 81.2578C351.256 81.2578 350.911 81.1992 350.612 81.082C350.312 80.9616 350.071 80.7939 349.889 80.5791C349.71 80.3643 349.604 80.112 349.572 79.8223H350.441C350.513 80.0404 350.652 80.2161 350.861 80.3496C351.069 80.4831 351.341 80.5498 351.676 80.5498C351.914 80.5498 352.122 80.5156 352.301 80.4473C352.484 80.3757 352.627 80.2796 352.731 80.1592C352.835 80.0355 352.887 79.8939 352.887 79.7344V79.7246C352.887 79.5456 352.816 79.3942 352.672 79.2705C352.529 79.1436 352.295 79.041 351.969 78.9629L351.154 78.7676C350.825 78.6895 350.555 78.5885 350.343 78.4648C350.132 78.3379 349.975 78.1833 349.874 78.001C349.774 77.8154 349.723 77.5973 349.723 77.3467V77.3418C349.723 77.0488 349.808 76.7868 349.977 76.5557C350.15 76.3245 350.384 76.1423 350.68 76.0088C350.976 75.8753 351.31 75.8086 351.681 75.8086C352.049 75.8086 352.374 75.8672 352.658 75.9844C352.944 76.0983 353.174 76.2611 353.346 76.4727C353.522 76.6842 353.629 76.9333 353.668 77.2197H352.833C352.778 77.0114 352.651 76.8421 352.453 76.7119C352.254 76.5817 351.995 76.5166 351.676 76.5166C351.468 76.5166 351.282 76.5508 351.12 76.6191C350.957 76.6842 350.828 76.7754 350.734 76.8926C350.639 77.0098 350.592 77.1465 350.592 77.3027V77.3125C350.592 77.4297 350.623 77.5339 350.685 77.625C350.747 77.7161 350.843 77.7959 350.973 77.8643C351.103 77.9326 351.271 77.9928 351.476 78.0449L352.287 78.2402C352.781 78.3607 353.149 78.5332 353.39 78.7578C353.634 78.9824 353.756 79.2835 353.756 79.6611V79.6709C353.756 79.9834 353.664 80.2601 353.478 80.501C353.292 80.7386 353.04 80.9242 352.721 81.0576C352.405 81.1911 352.047 81.2578 351.647 81.2578ZM356.896 81.2041C356.356 81.2041 355.963 81.0951 355.719 80.877C355.478 80.6589 355.358 80.2992 355.358 79.7979V76.6045H354.528V75.9014H355.358V74.5391H356.237V75.9014H357.389V76.6045H356.237V79.583C356.237 79.8923 356.295 80.1152 356.413 80.252C356.53 80.3854 356.725 80.4521 356.999 80.4521C357.073 80.4521 357.137 80.4505 357.189 80.4473C357.244 80.444 357.311 80.4391 357.389 80.4326V81.1553C357.308 81.1683 357.226 81.1797 357.145 81.1895C357.064 81.1992 356.981 81.2041 356.896 81.2041ZM322.882 93.165V92.3887H325.06C325.591 92.3887 325.993 92.2829 326.266 92.0713C326.54 91.8597 326.676 91.5521 326.676 91.1484V91.1387C326.676 90.8685 326.613 90.6423 326.486 90.46C326.359 90.2777 326.168 90.141 325.915 90.0498C325.664 89.9587 325.351 89.9131 324.977 89.9131H322.882V89.1562H324.728C325.262 89.1562 325.662 89.0618 325.929 88.873C326.199 88.6842 326.334 88.4043 326.334 88.0332V88.0234C326.334 87.6654 326.212 87.3887 325.968 87.1934C325.727 86.9948 325.389 86.8955 324.953 86.8955H322.882V86.1191H325.138C325.571 86.1191 325.942 86.1908 326.251 86.334C326.564 86.4772 326.803 86.6807 326.969 86.9443C327.138 87.2048 327.223 87.514 327.223 87.8721V87.8818C327.223 88.126 327.168 88.3555 327.057 88.5703C326.95 88.7852 326.805 88.9658 326.623 89.1123C326.44 89.2588 326.235 89.3532 326.007 89.3955V89.4736C326.33 89.5127 326.608 89.6087 326.842 89.7617C327.077 89.9147 327.257 90.1133 327.384 90.3574C327.514 90.5983 327.58 90.8734 327.58 91.1826V91.1924C327.58 91.6025 327.484 91.9557 327.291 92.252C327.103 92.5449 326.831 92.7712 326.476 92.9307C326.121 93.0869 325.693 93.165 325.192 93.165H322.882ZM322.443 93.165V86.1191H323.322V93.165H322.443ZM331.071 93.2578C330.573 93.2578 330.141 93.1488 329.777 92.9307C329.416 92.7093 329.136 92.3952 328.937 91.9883C328.742 91.5814 328.644 91.098 328.644 90.5381V90.5283C328.644 89.9652 328.742 89.4801 328.937 89.0732C329.136 88.6663 329.416 88.3538 329.777 88.1357C330.141 87.9176 330.573 87.8086 331.071 87.8086C331.572 87.8086 332.003 87.9176 332.365 88.1357C332.726 88.3538 333.004 88.6663 333.2 89.0732C333.398 89.4801 333.498 89.9652 333.498 90.5283V90.5381C333.498 91.098 333.398 91.5814 333.2 91.9883C333.004 92.3952 332.726 92.7093 332.365 92.9307C332.003 93.1488 331.572 93.2578 331.071 93.2578ZM331.071 92.5059C331.403 92.5059 331.684 92.4277 331.916 92.2715C332.147 92.1152 332.322 91.8906 332.443 91.5977C332.567 91.3047 332.628 90.9515 332.628 90.5381V90.5283C332.628 90.1117 332.567 89.7568 332.443 89.4639C332.322 89.1709 332.147 88.9479 331.916 88.7949C331.684 88.6387 331.403 88.5605 331.071 88.5605C330.739 88.5605 330.457 88.6387 330.226 88.7949C329.995 88.9479 329.818 89.1709 329.694 89.4639C329.573 89.7568 329.513 90.1117 329.513 90.5283V90.5381C329.513 90.9515 329.573 91.3047 329.694 91.5977C329.818 91.8906 329.995 92.1152 330.226 92.2715C330.457 92.4277 330.739 92.5059 331.071 92.5059ZM336.979 93.2578C336.481 93.2578 336.05 93.1488 335.685 92.9307C335.324 92.7093 335.044 92.3952 334.845 91.9883C334.65 91.5814 334.552 91.098 334.552 90.5381V90.5283C334.552 89.9652 334.65 89.4801 334.845 89.0732C335.044 88.6663 335.324 88.3538 335.685 88.1357C336.05 87.9176 336.481 87.8086 336.979 87.8086C337.48 87.8086 337.912 87.9176 338.273 88.1357C338.634 88.3538 338.913 88.6663 339.108 89.0732C339.306 89.4801 339.406 89.9652 339.406 90.5283V90.5381C339.406 91.098 339.306 91.5814 339.108 91.9883C338.913 92.3952 338.634 92.7093 338.273 92.9307C337.912 93.1488 337.48 93.2578 336.979 93.2578ZM336.979 92.5059C337.311 92.5059 337.593 92.4277 337.824 92.2715C338.055 92.1152 338.231 91.8906 338.351 91.5977C338.475 91.3047 338.537 90.9515 338.537 90.5381V90.5283C338.537 90.1117 338.475 89.7568 338.351 89.4639C338.231 89.1709 338.055 88.9479 337.824 88.7949C337.593 88.6387 337.311 88.5605 336.979 88.5605C336.647 88.5605 336.365 88.6387 336.134 88.7949C335.903 88.9479 335.726 89.1709 335.602 89.4639C335.482 89.7568 335.421 90.1117 335.421 90.5283V90.5381C335.421 90.9515 335.482 91.3047 335.602 91.5977C335.726 91.8906 335.903 92.1152 336.134 92.2715C336.365 92.4277 336.647 92.5059 336.979 92.5059ZM342.531 93.2578C342.14 93.2578 341.795 93.1992 341.496 93.082C341.196 92.9616 340.955 92.7939 340.773 92.5791C340.594 92.3643 340.488 92.112 340.456 91.8223H341.325C341.396 92.0404 341.536 92.2161 341.745 92.3496C341.953 92.4831 342.225 92.5498 342.56 92.5498C342.798 92.5498 343.006 92.5156 343.185 92.4473C343.367 92.3757 343.511 92.2796 343.615 92.1592C343.719 92.0355 343.771 91.8939 343.771 91.7344V91.7246C343.771 91.5456 343.699 91.3942 343.556 91.2705C343.413 91.1436 343.179 91.041 342.853 90.9629L342.038 90.7676C341.709 90.6895 341.439 90.5885 341.227 90.4648C341.015 90.3379 340.859 90.1833 340.758 90.001C340.657 89.8154 340.607 89.5973 340.607 89.3467V89.3418C340.607 89.0488 340.692 88.7868 340.861 88.5557C341.033 88.3245 341.268 88.1423 341.564 88.0088C341.86 87.8753 342.194 87.8086 342.565 87.8086C342.933 87.8086 343.258 87.8672 343.541 87.9844C343.828 88.0983 344.057 88.2611 344.23 88.4727C344.406 88.6842 344.513 88.9333 344.552 89.2197H343.717C343.662 89.0114 343.535 88.8421 343.336 88.7119C343.138 88.5817 342.879 88.5166 342.56 88.5166C342.352 88.5166 342.166 88.5508 342.003 88.6191C341.841 88.6842 341.712 88.7754 341.618 88.8926C341.523 89.0098 341.476 89.1465 341.476 89.3027V89.3125C341.476 89.4297 341.507 89.5339 341.569 89.625C341.631 89.7161 341.727 89.7959 341.857 89.8643C341.987 89.9326 342.155 89.9928 342.36 90.0449L343.17 90.2402C343.665 90.3607 344.033 90.5332 344.274 90.7578C344.518 90.9824 344.64 91.2835 344.64 91.6611V91.6709C344.64 91.9834 344.547 92.2601 344.362 92.501C344.176 92.7386 343.924 92.9242 343.605 93.0576C343.289 93.1911 342.931 93.2578 342.531 93.2578ZM347.78 93.2041C347.239 93.2041 346.847 93.0951 346.603 92.877C346.362 92.6589 346.242 92.2992 346.242 91.7979V88.6045H345.412V87.9014H346.242V86.5391H347.121V87.9014H348.273V88.6045H347.121V91.583C347.121 91.8923 347.179 92.1152 347.296 92.252C347.414 92.3854 347.609 92.4521 347.882 92.4521C347.957 92.4521 348.021 92.4505 348.073 92.4473C348.128 92.444 348.195 92.4391 348.273 92.4326V93.1553C348.192 93.1683 348.11 93.1797 348.029 93.1895C347.947 93.1992 347.864 93.2041 347.78 93.2041ZM351.623 93.2578C351.121 93.2578 350.69 93.1471 350.329 92.9258C349.971 92.7044 349.694 92.3919 349.499 91.9883C349.306 91.5814 349.21 91.1029 349.21 90.5527V90.5479C349.21 90.0042 349.306 89.5273 349.499 89.1172C349.694 88.707 349.969 88.3864 350.324 88.1553C350.679 87.9242 351.094 87.8086 351.569 87.8086C352.047 87.8086 352.458 87.9193 352.799 88.1406C353.144 88.362 353.408 88.6712 353.59 89.0684C353.776 89.4622 353.869 89.9212 353.869 90.4453V90.7773H349.65V90.0986H353.434L353.014 90.7188V90.3818C353.014 89.9684 352.952 89.6283 352.829 89.3613C352.705 89.0944 352.534 88.8958 352.316 88.7656C352.098 88.6322 351.847 88.5654 351.564 88.5654C351.281 88.5654 351.027 88.6354 350.802 88.7754C350.581 88.9121 350.405 89.1156 350.275 89.3857C350.145 89.6559 350.08 89.988 350.08 90.3818V90.7188C350.08 91.0931 350.143 91.4137 350.27 91.6807C350.397 91.9443 350.578 92.1478 350.812 92.291C351.046 92.431 351.323 92.501 351.642 92.501C351.88 92.501 352.086 92.4684 352.262 92.4033C352.438 92.3382 352.583 92.2552 352.697 92.1543C352.811 92.0534 352.89 91.9508 352.936 91.8467L352.956 91.8027H353.805L353.795 91.8418C353.75 92.0208 353.668 92.195 353.551 92.3643C353.437 92.5303 353.289 92.6816 353.107 92.8184C352.925 92.9518 352.708 93.0592 352.458 93.1406C352.21 93.2188 351.932 93.2578 351.623 93.2578ZM355.187 93.165V87.9014H356.037V88.6826H356.115C356.216 88.4059 356.387 88.1911 356.627 88.0381C356.868 87.8851 357.166 87.8086 357.521 87.8086C357.602 87.8086 357.682 87.8135 357.76 87.8232C357.842 87.8298 357.903 87.8363 357.946 87.8428V88.668C357.858 88.6517 357.772 88.6403 357.687 88.6338C357.606 88.624 357.518 88.6191 357.423 88.6191C357.153 88.6191 356.914 88.6729 356.706 88.7803C356.497 88.8877 356.333 89.0374 356.212 89.2295C356.095 89.4215 356.037 89.6462 356.037 89.9033V93.165H355.187Z" fill="white"/>
<path d="M344.48 38.5L346.4 40.45L335.52 51.5L333.6 49.55L344.48 38.5ZM327.2 32H352.8C354.576 32 356 33.4462 356 35.25V41.75C354.24 41.75 352.8 43.2125 352.8 45C352.8 46.8038 354.24 48.25 356 48.25V54.75C356 56.5537 354.576 58 352.8 58H327.2C325.44 58 324 56.5537 324 54.75V48.25C325.776 48.25 327.2 46.8038 327.2 45C327.2 43.2125 325.776 41.75 324 41.75V35.25C324 33.4462 325.44 32 327.2 32ZM327.2 35.25V39.3775C329.184 40.5475 330.4 42.6763 330.4 45C330.4 47.3237 329.184 49.4688 327.2 50.6225V54.75H352.8V50.6225C350.816 49.4688 349.6 47.3237 349.6 45C349.6 42.6763 350.816 40.5475 352.8 39.3775V35.25H327.2ZM336 38.5C337.328 38.5 338.4 39.5887 338.4 40.9375C338.4 42.2863 337.328 43.375 336 43.375C334.672 43.375 333.6 42.2863 333.6 40.9375C333.6 39.5887 334.672 38.5 336 38.5ZM344 46.625C345.328 46.625 346.4 47.7137 346.4 49.0625C346.4 50.4112 345.328 51.5 344 51.5C342.672 51.5 341.6 50.4112 341.6 49.0625C341.6 47.7137 342.672 46.625 344 46.625Z" fill="white"/>
<defs>
<linearGradient id="paint0_linear_359_55533" x1="0" y1="127.796" x2="400" y2="127.796" gradientUnits="userSpaceOnUse">
<stop stop-color="#FF0000"/>
<stop offset="1" stop-color="#3A0000"/>
</linearGradient>
</defs>
</svg>
