<svg width="60" height="60" viewBox="0 0 60 60" fill="none" xmlns="http://www.w3.org/2000/svg">
<g filter="url(#filter0_i_496_4265)">
<rect width="60" height="60" rx="10" fill="url(#paint0_linear_496_4265)"/>
<g opacity="0.5">
<path d="M22.4548 10.1831C22.9426 9.87586 23.4381 9.59671 23.9517 9.35139C23.5642 9.25084 23.2498 9.26769 23.2153 9.27012C23.1422 9.2752 22.1782 9.35635 21.631 10.0915C21.3823 10.4256 21.2879 10.8024 21.2031 11.0277C21.6414 10.8151 22.0435 10.4421 22.4548 10.1831Z" fill="#F2F7F8"/>
<path d="M30.3872 12.8354C30.1666 12.6606 29.9337 12.6198 29.8348 12.6037C29.273 12.5119 28.9836 12.8685 28.7556 12.7107C28.5849 12.5926 28.7237 12.3806 28.5525 11.9949C28.5337 11.9524 28.3071 11.4618 27.7835 11.2646C27.3498 11.1013 26.9461 11.2274 26.7832 11.2783C26.1673 11.4709 25.98 11.8877 25.7651 11.7938C25.5747 11.7107 25.6719 11.3676 25.4771 10.8064C25.437 10.691 25.2736 10.2487 24.9278 9.89692C24.7171 9.68266 24.4765 9.54089 24.2436 9.44727C23.3268 9.86044 22.464 10.3846 21.6552 10.9859C20.7606 11.6511 19.7067 11.2683 18.6723 11.3674C17.959 11.4357 17.354 11.805 16.7962 12.2311C16.5394 12.4274 16.4073 12.6307 16.2025 12.8713C16.151 12.9316 16.0632 13.053 15.972 13.0767C15.766 13.1307 15.4417 12.9713 15.1865 12.8407C15.2454 13.0204 15.3559 13.1128 15.3282 13.1451C15.297 13.1815 15.1489 13.0741 14.9417 13.0001C14.6923 12.9111 14.4808 12.9158 14.3492 12.9164C14.2483 12.9169 13.8351 12.9276 13.4296 13.1726C13.421 13.1778 13.4082 13.1856 13.3918 13.1959C13.3105 13.2473 12.5866 13.7231 12.5899 14.4742C12.5917 14.9111 12.8391 15.325 13.1566 15.5494C13.5214 15.8071 13.7335 15.6412 14.4589 15.9303C14.8898 16.1021 14.84 16.1706 15.2358 16.3186C15.8184 16.5363 16.326 16.5375 16.6228 16.5354C16.9954 16.5328 17.4255 16.5299 17.9311 16.3407C18.4921 16.1309 18.8217 15.813 19.247 15.9429C19.3588 15.9771 19.364 16.0115 19.5413 16.065C19.6342 16.0931 19.9482 16.181 20.3609 16.1496C21.0469 16.0974 21.2057 15.7767 21.6712 15.7316C22.2093 15.6796 22.4875 16.1274 23.0002 16.3383C24.8077 17.0817 27.3725 16.6679 28.1152 15.454C28.2593 15.2185 28.2851 15.034 28.5236 14.8536C29.1019 14.4163 29.7571 14.8805 30.3644 14.437C30.4225 14.3946 30.7751 14.1285 30.8072 13.7013C30.8443 13.2079 30.4266 12.8664 30.3872 12.8354Z" fill="#F2F7F8"/>
<path d="M30.3997 14.8546C29.8616 15.1194 28.8409 14.7111 28.6091 14.9037C28.5442 14.9576 28.4933 15.0194 28.4933 15.0194C28.3948 15.1475 28.3926 15.2663 28.1182 15.5705C27.666 16.0716 27.1443 16.3052 27.1231 16.2755C27.0922 16.2322 27.6875 15.9442 28.1922 15.2603C28.409 14.9666 29.1421 13.9733 28.8032 12.9111C28.5983 12.2693 28.109 11.9369 28.0178 11.877C27.1623 11.3158 26.212 11.6924 26.146 11.72C25.7632 11.8793 25.5163 12.1251 25.3878 12.2744C25.3094 12.0674 25.1057 11.6151 24.6331 11.2554C24.1605 10.8955 23.6825 10.8289 23.4228 10.7963C22.5307 10.6845 21.8355 11.0463 21.6355 11.1538C21.0655 11.4603 20.9768 11.7388 20.6836 11.914C20.6108 11.9575 20.5179 11.9978 20.4044 12.0276C20.2898 12.0576 20.1919 12.0644 20.1271 12.0654C19.8693 11.592 19.3566 11.3979 18.9816 11.5531C18.6345 11.6966 18.5276 12.0888 18.5134 12.1441C18.4133 12.0806 18.2316 11.985 17.9914 11.9667C17.6398 11.9399 17.3802 12.095 17.2271 12.1864C16.6061 12.5572 16.3805 13.2339 16.3167 13.4542C16.1695 13.3675 15.9627 13.2808 15.7588 13.3402C15.5074 13.4134 15.4687 13.6478 15.2792 13.6639C15.0406 13.684 14.9409 13.3255 14.6421 13.1391C14.4259 13.0042 14.0576 12.9297 13.3906 13.1964C13.577 13.0862 13.9183 12.9212 14.348 12.917C14.4823 12.9156 14.6952 12.9043 14.9405 13.0007C15.004 13.0256 15.0549 13.0517 15.0903 13.0714C15.0714 13.0022 15.0503 12.8905 15.0657 12.755C15.072 12.6988 15.0946 12.5177 15.2218 12.3534C15.4077 12.1129 15.7609 11.981 16.0212 12.0752C16.208 12.1429 16.3027 12.3109 16.3444 12.2826C16.3858 12.2544 16.2669 12.1053 16.28 11.8994C16.2985 11.6048 16.574 11.4118 16.6123 11.3857C16.683 11.3377 16.9162 11.1792 17.1839 11.2644C17.3531 11.3182 17.4502 11.442 17.4874 11.4957C17.4816 11.3821 17.4806 11.0686 17.6842 10.7606C17.7233 10.7012 18.005 10.2902 18.5333 10.2332C18.9342 10.1899 19.2279 10.3775 19.3091 10.431C19.5527 10.5917 19.6767 10.7996 19.73 10.9043C19.758 10.8447 19.8345 10.7038 19.9955 10.6224C20.2695 10.4836 20.5415 10.6287 20.5727 10.6461C20.7781 10.7609 20.8523 10.9544 20.8711 11.0091C20.9117 10.7699 21.0374 10.2297 21.4846 9.75468C21.9831 9.22525 22.7846 8.87811 23.5824 9.04007C24.3031 9.18634 24.7359 9.6801 24.9265 9.8976C25.2813 10.3024 25.4372 10.6997 25.4758 10.8071C25.5769 11.0881 25.6134 11.3373 25.6269 11.5153C25.8224 11.3655 26.1959 11.1247 26.7194 11.0445C26.9405 11.0107 27.3359 10.9552 27.787 11.1349C28.2635 11.3247 28.5209 11.665 28.633 11.8171C28.8845 12.1588 28.9773 12.4971 29.015 12.6903C29.1563 12.6323 29.464 12.5296 29.8336 12.6043C30.2682 12.6922 30.7811 13.0235 30.8981 13.5908C30.9983 14.0771 30.7915 14.6618 30.3997 14.8546Z" fill="white"/>
<path d="M29.9984 13.155C29.5357 12.8904 29.0172 13.0581 28.8555 13.1104C28.3564 13.2719 28.3787 13.5044 27.9938 13.5595C27.5487 13.6232 27.4481 13.3225 26.9933 13.3804C26.575 13.4336 26.5481 13.7067 26.1055 13.7697C25.7981 13.8135 25.7528 13.6903 25.2007 13.5925C24.9721 13.552 24.4688 13.4671 23.8907 13.5751C23.6592 13.6184 23.3116 13.7119 22.9186 13.9383C22.7883 14.1473 22.4965 14.6278 21.9088 14.8462C21.4614 15.0125 20.9429 15.0574 20.4727 15.0263C20.1409 15.0044 18.7373 14.8252 18.5895 14.2856C18.1453 14.6399 17.6837 15.0037 17.121 15.1277C16.8413 15.1893 16.2435 15.3134 15.6341 15.0032C15.3431 14.8551 15.1486 14.6578 15.0335 14.5195C14.872 14.5968 14.5765 14.707 14.2133 14.6687C13.3457 14.5769 12.9231 13.724 12.8912 13.657C12.7969 13.7897 12.6206 14.0767 12.5899 14.4757C12.5818 14.5799 12.539 15.2982 13.1133 15.7913C13.6666 16.2662 14.3401 16.144 14.4237 16.1272C14.6267 16.3064 15.4704 17.0089 16.7421 17.0008C18.1775 16.9917 19.0752 16.0842 19.234 15.9179C19.3048 15.9908 19.7877 16.4706 20.5389 16.4296C21.2562 16.3904 21.6754 15.9061 21.7439 15.8243C22.0197 15.9931 22.444 16.2258 22.9929 16.4208C23.5544 16.6203 25.6342 17.3589 27.5278 16.3288C27.8668 16.1444 28.3877 15.8011 28.8916 15.1699C29.6024 15.414 30.3021 15.1426 30.527 14.6634C30.6953 14.3049 30.5862 13.8553 30.408 13.5642C30.3596 13.4857 30.2377 13.2918 29.9984 13.155Z" fill="#CEEAF0"/>
<path d="M28.1505 15.1006C28.1273 15.1561 28.0578 15.3013 27.7353 15.5879C27.4904 15.8057 27.1936 16.0696 26.7301 16.2515C26.4932 16.3445 25.4757 16.7438 24.9201 16.2925C24.6558 16.0779 24.6301 15.7799 24.3664 15.7477C24.1289 15.7187 24.0064 15.9473 23.768 15.8906C23.5743 15.8446 23.4475 15.6443 23.4018 15.4977C23.2779 15.1003 23.6026 14.6266 23.9771 14.4701C24.0444 14.4419 24.1773 14.3817 24.3509 14.4042C24.5621 14.4314 24.698 14.5606 24.7445 14.6092C24.7471 14.5576 24.7675 14.2593 25.0139 14.0624C25.3515 13.7929 25.7827 13.9776 25.8023 13.9864C25.9445 14.0501 26.0369 14.1444 26.0882 14.2063C26.1329 14.1106 26.3033 13.7758 26.6829 13.6245C27.153 13.437 27.7198 13.6203 28.0147 14.0274C28.2448 14.3452 28.2887 14.7709 28.1505 15.1006Z" fill="white"/>
<path d="M28.117 15.1818C28.1263 15.1905 27.8846 15.5442 27.5348 15.8355C26.6798 16.5475 25.3033 16.8389 24.8407 16.3543C24.7031 16.2101 24.6868 16.0396 24.4775 15.9508C24.2255 15.8439 24.0326 15.9993 23.7694 15.8911C23.5963 15.8199 23.4899 15.6746 23.4258 15.5588C23.5037 15.6073 23.6454 15.6796 23.8332 15.6911C24.2213 15.7149 24.4876 15.4596 24.5351 15.4123C24.7526 15.5926 25.1751 15.8884 25.7789 15.9995C26.0674 16.0526 26.8581 16.1518 27.5292 15.7156C27.8743 15.4915 28.1082 15.1735 28.117 15.1818Z" fill="#CEEAF0"/>
</g>
<path d="M33.5858 49.7121C33.9674 50.213 34.7258 50.393 35.4384 50.1148C35.5208 50.2681 35.6533 50.486 35.8539 50.7144C37.0074 52.0287 39.1344 52.2365 40.7117 51.7619C41.1095 51.6421 41.6955 51.4118 42.3291 50.9383C42.5562 51.0552 42.8523 51.1803 43.2108 51.2676C43.7641 51.4023 44.2436 51.3928 44.5718 51.3586C45.3279 51.6524 46.0025 51.8015 46.5392 51.8804C47.1178 51.9655 49.6886 52.2856 51.7798 50.8713C52.4892 50.3914 52.6872 50.0206 52.7557 49.7076C52.9 49.0493 52.5493 48.2907 52.2167 48.0747C52.1023 48.0004 51.8421 47.8399 51.5619 47.5336C51.5177 47.4853 51.476 47.4271 51.4317 47.3472C51.0218 46.6077 51.8042 46.024 51.6091 45.1092C51.3793 44.0314 49.87 42.9395 48.7321 43.1452C48.16 43.2486 47.9884 43.6251 47.454 43.5493C46.7758 43.4531 46.7198 42.7993 46.0945 42.6951C45.3541 42.5717 44.4252 43.3199 44.2908 44.0576C44.2198 44.4473 44.3624 44.8806 44.3051 44.893C44.2616 44.9022 44.235 44.6513 44.0421 44.4697C43.7906 44.233 43.3343 44.1888 42.9747 44.3501C42.6252 44.507 42.342 44.8693 42.3532 45.2276C42.3662 45.6465 42.7779 45.9359 42.7423 45.9717C42.7053 46.009 42.3474 45.6206 41.8468 45.3651C41.1344 45.0015 40.3664 45.2175 40.2582 45.2496C39.3857 45.5082 38.8713 46.2866 38.8139 46.3761C38.6277 46.6661 38.6085 46.8279 38.417 46.9012C38.0947 47.0245 37.8676 46.6733 37.156 46.5087C36.8567 46.4395 36.519 46.3612 36.1512 46.5035C35.627 46.7061 35.4036 47.2009 35.385 47.2437C35.2164 47.6325 35.3576 47.8443 35.1871 47.9644C34.9595 48.1249 34.6657 47.7692 34.1021 47.8661C33.9918 47.8851 33.7346 47.9229 33.5491 48.1035C33.1822 48.4607 33.2268 49.2409 33.5858 49.7121Z" fill="#E9F4F6"/>
<path d="M36.3324 48.5681C36.6946 48.3744 37.3201 48.0401 38.0673 47.931C39.3173 47.7484 39.646 48.3806 40.6709 48.1465C41.5494 47.9458 41.6032 47.4139 42.4367 47.0856C43.0524 46.8431 44.0235 46.7391 45.5384 47.4495C45.7237 47.258 46.0784 46.947 46.6082 46.7899C47.5181 46.52 48.6838 46.7809 49.1519 47.4905C49.6361 48.2245 49.0748 48.9851 49.6573 49.5358C50.0225 49.881 50.5694 49.8906 50.6737 49.8924C51.4375 49.9058 51.8714 49.3758 52.0824 49.5358C52.26 49.6706 52.1693 50.2108 51.9368 50.6203C51.0742 52.1396 48.1127 52.1174 46.5399 51.882C45.6745 51.7524 44.9926 51.5229 44.5725 51.3602C44.2444 51.3942 43.7649 51.4039 43.2116 51.2692C42.853 51.1819 42.5569 51.0568 42.3299 50.9399C41.6962 51.4134 41.1102 51.6437 40.7124 51.7634C39.1351 52.2381 37.0082 52.0302 35.8546 50.716C35.654 50.4875 35.5215 50.2696 35.4391 50.1164C35.2109 50.2028 34.8634 50.2897 34.4608 50.2204C34.2699 50.1876 33.6853 50.0868 33.5865 49.7137C33.5343 49.5163 33.6216 49.2562 33.7878 49.1793C33.9764 49.092 34.1529 49.293 34.4119 49.3755C34.9701 49.5529 35.4575 49.0357 36.3324 48.5681Z" fill="#CEEAF0"/>
<path d="M33.2508 48.1786C33.3005 48.1106 33.5049 47.8456 33.8772 47.73C34.2099 47.6267 34.4923 47.6999 34.6903 47.7513C34.9079 47.8077 35.0752 47.8927 35.1833 47.9569C35.1579 47.7699 35.1099 47.2238 35.4543 46.7714C36.0463 45.9936 37.2234 46.2477 37.3387 46.2745C37.8891 46.402 38.2503 46.7235 38.4153 46.8926C38.4586 46.7265 38.7486 45.6841 39.7741 45.1787C40.0205 45.0573 40.6799 44.7842 41.4606 44.9847C41.8085 45.074 42.0674 45.2283 42.2267 45.3409C42.2142 44.794 42.5399 44.3123 43.0126 44.1526C43.5659 43.9656 44.0457 44.3124 44.0894 44.3451C44.0861 44.2872 44.0359 43.0367 45.0601 42.3543C45.9252 41.7779 46.8596 42.0711 46.9493 42.1009C47.6084 42.3202 47.9621 42.7959 48.0747 42.962C48.206 42.9104 49.6074 42.3876 50.8794 43.2355C51.8736 43.8982 52.3401 45.0995 52.1779 46.1462C52.1047 46.6183 51.916 46.9774 51.7783 47.1948C51.9434 47.2692 52.1885 47.4027 52.4293 47.6352C52.5509 47.7526 52.8325 48.0295 52.9828 48.4831C53.0433 48.6656 53.2339 49.2358 52.9497 49.8179C52.6693 50.3923 52.0813 50.662 52.0472 50.6245C52.0319 50.6077 52.1266 50.5251 52.2314 50.3661C52.2887 50.2792 52.5554 49.8565 52.5272 49.3035C52.4928 48.6304 52.0441 48.1995 51.9199 48.0889C51.5548 47.7633 51.156 47.6724 50.9794 47.6432C51.031 47.3847 51.1546 46.5898 50.7278 45.7496C50.6725 45.6407 50.1242 44.603 48.9312 44.2808C48.4141 44.141 47.963 44.1864 47.7312 44.2254C46.984 44.3511 46.7202 44.7551 45.8243 44.985C45.461 45.0783 45.1535 45.1036 44.9612 45.1113C44.8474 45.3189 44.6594 45.6126 44.3623 45.9072C44.1707 46.0971 44.0332 46.2354 43.8225 46.312C43.2791 46.5096 42.791 46.2205 42.7203 46.1771C42.5086 46.0346 41.8973 45.6638 41.0446 45.6924C40.6593 45.7053 39.9482 45.809 39.3239 46.357C38.7834 46.8315 38.5844 47.3965 38.5142 47.6391C38.4152 47.5355 37.8235 46.936 36.9593 46.9867C36.7854 46.9969 36.3244 47.0308 35.9278 47.3912C35.4106 47.8612 35.4086 48.5177 35.4102 48.6287C35.3253 48.5223 35.1168 48.2922 34.7751 48.2001C34.3578 48.0877 33.7795 48.1987 33.5009 48.6451C33.3035 48.9613 33.3367 49.4606 33.5935 49.705C33.6148 49.7254 33.6382 49.744 33.6638 49.7613C33.6367 49.7512 33.6094 49.737 33.5821 49.7211C33.4633 49.6522 33.1212 49.4539 33.026 49.0562C32.9232 48.627 33.1813 48.2738 33.2508 48.1786Z" fill="white"/>
<path d="M47.4473 50.4335C46.7388 50.4097 46.0804 49.9244 45.749 49.1922C45.156 49.6577 44.7357 49.6924 44.4656 49.6432C43.7874 49.5196 43.7354 48.8086 42.85 48.5131C42.1814 48.2899 41.5172 48.4291 41.5172 48.4291C41.0194 48.5335 40.7166 48.7688 40.3794 48.6254C40.1646 48.534 40.0437 48.335 39.9775 48.192C40.1166 48.1741 40.218 48.1349 40.281 48.1055C40.5699 47.9703 40.7769 47.7156 40.91 47.5027C41.1669 47.2599 41.6345 46.8889 42.3166 46.6882C43.4402 46.3575 44.3874 46.7123 44.6831 46.8383C45.0278 46.9852 45.2879 47.1622 45.46 47.2959C45.4569 47.1799 45.4603 47.0168 45.4905 46.8254C45.5092 46.7075 45.603 46.1148 45.9622 45.6911C46.4448 45.1215 47.3486 44.9254 48.0886 45.1588C48.922 45.4217 49.2885 46.14 49.4089 46.3761C49.8828 47.3048 49.785 48.4592 49.2142 49.2995C49.0039 49.6094 48.4219 50.4661 47.4473 50.4335Z" fill="#E9F4F6"/>
<path d="M48.5325 50.0684C48.5294 50.0653 48.5264 50.0622 48.5233 50.0592C49.0578 49.5713 49.4606 48.7922 49.3028 48.3058C49.2801 48.2358 49.2074 48.0116 49.0119 47.9184C48.8079 47.8212 48.6684 47.9615 48.4432 47.9622C47.876 47.9641 47.7638 47.078 47.065 46.934C46.6957 46.858 46.3828 47.0345 46.3046 47.0786C45.823 47.3503 45.7047 47.8685 45.6847 47.9633C45.492 47.7827 45.1634 47.5191 44.6931 47.3347C43.9193 47.0314 43.2173 47.1249 42.8683 47.1961C42.2281 47.3267 41.6991 47.6569 41.4732 47.8128C40.9722 48.1587 40.6824 48.5256 40.3278 48.4442C40.164 48.4067 40.0494 48.2878 39.977 48.1906C40.1161 48.1727 40.2176 48.1335 40.2805 48.1041C40.5695 47.9688 40.7764 47.7142 40.9095 47.5013C41.3584 46.8013 42.3849 46.547 42.4982 46.5189C43.2839 46.3244 43.9697 46.5685 44.3743 46.7125C44.8582 46.8847 45.2218 47.1172 45.4595 47.2945C45.4564 47.1784 45.4598 47.0154 45.4901 46.8239C45.5087 46.7061 45.603 46.1138 45.9617 45.6897C46.427 45.1394 47.3212 44.9155 48.0881 45.1574C48.9216 45.4203 49.288 46.1386 49.4084 46.3746C50.1286 47.7863 49.2515 49.237 49.2138 49.2981C49.1014 49.4806 48.8847 49.778 48.5325 50.0684Z" fill="white"/>
<path d="M39.3697 49.998C39.3732 49.9485 39.3788 49.7838 39.2669 49.6398C39.1288 49.462 38.9149 49.4483 38.8393 49.4434C38.596 49.4279 38.4208 49.5519 38.3693 49.5913C38.3714 49.5268 38.3739 49.2474 38.1643 49.0095C37.9748 48.7945 37.7338 48.7519 37.6458 48.7377C37.5857 48.7279 37.1334 48.6619 36.8877 48.957C36.7477 49.1252 36.728 49.3467 36.7236 49.3953C36.716 49.4811 36.7227 49.5533 36.7305 49.6038C36.7134 49.5775 36.5711 49.3673 36.3079 49.347C36.055 49.3275 35.8897 49.4987 35.8499 49.5398C35.6132 49.7848 35.6744 50.126 35.6816 50.1626C35.5052 50.1091 35.315 50.1637 35.201 50.2999C35.072 50.454 35.0641 50.6842 35.1862 50.8559C35.2211 50.8864 35.274 50.9304 35.3418 50.9785C35.3788 51.0048 35.7671 51.2742 36.2565 51.3358C36.9812 51.427 37.1901 50.9693 37.9428 51.1146C38.14 51.1527 38.086 51.1764 38.3161 51.2252C38.4616 51.256 39.33 51.4402 39.9144 50.9528C40.0375 50.8502 40.2721 50.6499 40.2483 50.3748C40.2312 50.1771 40.0825 49.9652 39.8518 49.9013C39.5999 49.8318 39.3954 49.9788 39.3697 49.998Z" fill="white"/>
<path d="M37.922 50.4077C38.315 50.5022 38.5731 50.7383 38.6948 50.8682C38.7137 50.8338 38.8995 50.5066 39.2479 50.48C39.4721 50.4629 39.7629 50.5705 39.7974 50.751C39.8326 50.9354 39.5855 51.1192 39.5331 51.1583C39.1565 51.4386 38.8203 51.2813 37.8951 51.327C37.3435 51.3543 37.209 51.4228 36.7592 51.3756C36.1091 51.3076 35.9535 51.1189 35.897 51.0102C35.8868 50.9907 35.8253 50.8678 35.8527 50.7179C35.9045 50.4354 36.2242 50.3227 36.2586 50.3111C36.3016 50.2967 36.6117 50.1926 36.8075 50.3812C36.9028 50.4728 36.927 50.5914 36.9344 50.6482C36.993 50.5832 37.0928 50.4903 37.2397 50.4265C37.5114 50.309 37.7641 50.3697 37.922 50.4077Z" fill="#E9F4F6"/>
<g filter="url(#filter1_f_496_4265)">
<circle cx="36" cy="25" r="17" fill="url(#paint1_linear_496_4265)"/>
</g>
<circle cx="36" cy="25" r="17" fill="url(#paint2_linear_496_4265)"/>
<g opacity="0.75">
<path d="M27.7013 35.5809C27.6027 35.2895 27.347 34.6737 26.7257 34.1967C26.648 34.137 25.689 33.4211 24.6642 33.6143C23.8778 33.7625 23.5918 33.8449 23.5918 33.8449C23.2709 33.9413 23.044 34.0251 22.9335 33.919C22.8242 33.8136 22.9094 33.5956 22.9339 33.4197C23.0191 32.8103 22.4443 32.2523 22.1198 31.9376C21.1698 31.0156 19.7244 31.0472 19.1115 31.0638C17.1251 31.1181 15.8661 32.2311 15.729 32.3563C15.1502 32.8847 15.3099 33.1204 14.7488 33.3776C13.8869 33.7726 13.161 33.3758 12.0778 33.8384C11.8361 33.9416 11.3264 34.2024 11.1681 34.5697C11.0505 34.8435 11.1447 35.0669 11.221 35.2467C11.2911 35.4129 11.3469 35.5442 11.2267 35.6593C11.0807 35.7996 10.7969 35.7942 10.4037 35.7867C10.1771 35.7824 9.92022 35.7773 9.63208 35.7985C8.4691 35.8845 7.90721 37.1313 6.73236 37.068C6.52048 37.0565 6.35394 37.0033 6.26832 36.972C5.855 38.0598 5.99745 38.7174 6.17767 39.1041C7.52159 41.983 16.2002 40.9855 19.937 40.5556C21.3925 40.3883 22.1623 40.2211 23.7389 40.1934C25.9081 40.1552 26.8293 40.1153 28.6722 40.0351C29.7326 39.989 30.1621 39.9599 30.5172 39.6138C31.3363 38.8167 31.1956 36.8878 30.1884 35.9842C29.6312 35.4845 28.9233 35.4007 28.8758 35.3956C28.3326 35.3392 27.9052 35.4921 27.7013 35.5809Z" fill="#F2F7F8"/>
<path d="M25.6697 36.7655C26.2021 36.7281 27.2395 36.655 27.6334 35.8939C28.0219 35.1431 27.5345 34.206 27.1039 33.7326C26.2247 32.7664 24.8761 32.9574 24.6736 32.9894C23.7649 33.1322 23.1872 33.6722 22.9829 33.8833C22.9912 33.524 22.9556 32.9246 22.6606 32.275C22.0883 31.0145 20.9631 30.4997 20.6152 30.3472C19.0242 29.649 17.5435 30.1896 17.1122 30.3706C16.6849 30.5501 15.8618 30.9091 15.3021 31.8045C14.924 32.4095 14.8266 33.002 14.7978 33.3416C14.5553 33.2128 13.8431 32.8764 12.969 33.0549C11.9812 33.2563 11.1736 34.0362 10.8452 35.0737C10.3448 34.9636 9.36311 34.8269 8.27854 35.2251C7.93861 35.3499 7.19182 35.6348 6.63605 36.3608C6.26662 36.8435 5.94862 37.5634 6.13892 37.7339C6.29648 37.8749 6.66879 37.5184 7.46449 37.1777C7.95767 36.9669 9.35303 36.3701 10.6567 36.8033C11.2783 37.0097 11.2247 37.2331 11.8236 37.372C12.8938 37.6202 13.8398 37.0867 14.0726 36.9554C15.2428 36.2957 15.6636 35.1737 15.7726 34.8488C16.0165 35.0168 16.3726 35.2345 16.8306 35.4244C18.3407 36.0511 19.6986 35.8536 20.1217 35.7769C21.1703 35.5874 21.9451 35.1489 22.4019 34.8366C22.5304 35.1255 22.8095 35.6456 23.366 36.0827C24.266 36.791 25.2664 36.7939 25.6697 36.7655Z" fill="white"/>
<path d="M15.0657 38.5059C15.4031 38.7458 15.8003 38.9742 16.2614 39.1559C18.5198 40.0466 20.7155 39.1897 21.4601 38.8584C22.0105 39.1084 22.8267 39.3678 23.7404 39.1876C24.208 39.0955 24.2735 38.9724 24.775 38.8818C25.7444 38.707 27.1862 39.108 27.1862 39.108C29.12 39.6843 30.5892 39.0573 30.664 39.3789C30.737 39.6926 29.3729 40.4257 27.9938 40.7142C26.1977 41.0898 24.589 40.8232 23.4523 40.4894C22.2026 41.2528 21.0875 41.6136 20.3313 41.797C18.6949 42.1942 18.0705 41.9226 17.769 41.7265C17.5442 41.5805 17.5737 41.5251 17.3517 41.3999C16.6661 41.0132 15.9204 41.2812 14.8945 41.5118C14.8945 41.5118 13.8743 41.7395 12.8322 41.8441C11.8984 41.938 10.3879 42.0902 8.86302 41.3722C8.42704 41.1668 7.77198 40.788 7.10938 40.0786C7.42737 39.7016 7.97379 39.1721 8.76517 38.9764C10.2839 38.6008 11.3203 40.0138 12.9732 39.5642C13.9588 39.2958 14.6657 38.8192 15.0657 38.5059Z" fill="#CEEAF0"/>
</g>
</g>
<defs>
<filter id="filter0_i_496_4265" x="-2" y="0" width="62" height="64" filterUnits="userSpaceOnUse" color-interpolation-filters="sRGB">
<feFlood flood-opacity="0" result="BackgroundImageFix"/>
<feBlend mode="normal" in="SourceGraphic" in2="BackgroundImageFix" result="shape"/>
<feColorMatrix in="SourceAlpha" type="matrix" values="0 0 0 0 0 0 0 0 0 0 0 0 0 0 0 0 0 0 127 0" result="hardAlpha"/>
<feOffset dx="-2" dy="4"/>
<feGaussianBlur stdDeviation="7"/>
<feComposite in2="hardAlpha" operator="arithmetic" k2="-1" k3="1"/>
<feColorMatrix type="matrix" values="0 0 0 0 0 0 0 0 0 0 0 0 0 0 0 0 0 0 0.3 0"/>
<feBlend mode="normal" in2="shape" result="effect1_innerShadow_496_4265"/>
</filter>
<filter id="filter1_f_496_4265" x="14.4231" y="3.42308" width="43.1538" height="43.1538" filterUnits="userSpaceOnUse" color-interpolation-filters="sRGB">
<feFlood flood-opacity="0" result="BackgroundImageFix"/>
<feBlend mode="normal" in="SourceGraphic" in2="BackgroundImageFix" result="shape"/>
<feGaussianBlur stdDeviation="2.28846" result="effect1_foregroundBlur_496_4265"/>
</filter>
<linearGradient id="paint0_linear_496_4265" x1="60" y1="-1.78814e-06" x2="-5.36442e-06" y2="60" gradientUnits="userSpaceOnUse">
<stop stop-color="#3D91A7"/>
<stop offset="1" stop-color="#77C2D0"/>
</linearGradient>
<linearGradient id="paint1_linear_496_4265" x1="26.6053" y1="11.5789" x2="48.0789" y2="42" gradientUnits="userSpaceOnUse">
<stop stop-color="#FFF500"/>
<stop offset="1" stop-color="#FFC700"/>
</linearGradient>
<linearGradient id="paint2_linear_496_4265" x1="26.6053" y1="11.5789" x2="48.0789" y2="42" gradientUnits="userSpaceOnUse">
<stop stop-color="#FFF500"/>
<stop offset="1" stop-color="#FFC700"/>
</linearGradient>
</defs>
</svg>
