<svg width="350" height="113" viewBox="0 0 350 113" fill="none" xmlns="http://www.w3.org/2000/svg">
<path d="M346.645 112.809H3.35463C2.46493 112.809 1.61192 112.455 0.982803 111.826C0.353687 111.197 0 110.344 0 109.454V65.8442C2.37254 65.8442 4.64724 64.9016 6.32488 63.224C8.00252 61.5463 8.94569 59.2711 8.94569 56.8986C8.94569 54.526 8.00252 52.2508 6.32488 50.5732C4.64724 48.8955 2.37254 47.9529 0 47.9529V4.3429C0 3.4532 0.353687 2.60019 0.982803 1.97108C1.61192 1.34197 2.46493 0.988281 3.35463 0.988281H246.306C246.11 1.3283 246.008 1.71364 246.009 2.10594C246.009 2.49824 246.111 2.88346 246.308 3.22305C246.504 3.56265 246.787 3.84494 247.127 4.04096C247.467 4.23699 247.853 4.34017 248.245 4.34017C248.637 4.34017 249.021 4.23699 249.361 4.04096C249.701 3.84494 249.984 3.56265 250.18 3.22305C250.376 2.88346 250.481 2.49824 250.481 2.10594C250.482 1.71364 250.378 1.3283 250.182 0.988281H346.645C347.535 0.988281 348.388 1.34197 349.017 1.97108C349.646 2.60019 350 3.4532 350 4.3429V47.9529C347.627 47.9529 345.353 48.8955 343.675 50.5732C341.997 52.2508 341.054 54.526 341.054 56.8986C341.054 59.2711 341.997 61.5463 343.675 63.224C345.353 64.9016 347.627 65.8442 350 65.8442V109.454C350 110.344 349.646 111.197 349.017 111.826C348.388 112.455 347.535 112.809 346.645 112.809ZM248.243 107.218C247.801 107.218 247.368 107.349 247 107.595C246.632 107.84 246.346 108.19 246.177 108.599C246.007 109.007 245.964 109.457 246.05 109.89C246.136 110.324 246.349 110.723 246.662 111.035C246.974 111.348 247.372 111.561 247.806 111.647C248.24 111.734 248.69 111.69 249.099 111.52C249.508 111.351 249.856 111.065 250.101 110.697C250.347 110.329 250.479 109.897 250.479 109.454C250.479 108.861 250.243 108.292 249.824 107.873C249.405 107.454 248.836 107.218 248.243 107.218ZM248.243 98.2722C247.801 98.2722 247.368 98.4032 247 98.6489C246.632 98.8946 246.346 99.2443 246.177 99.653C246.007 100.062 245.964 100.511 246.05 100.945C246.136 101.379 246.349 101.777 246.662 102.09C246.974 102.403 247.372 102.616 247.806 102.702C248.24 102.788 248.69 102.744 249.099 102.575C249.508 102.405 249.856 102.119 250.101 101.751C250.347 101.383 250.479 100.951 250.479 100.509C250.479 99.9154 250.243 99.3468 249.824 98.9274C249.405 98.508 248.836 98.2722 248.243 98.2722ZM248.243 89.3265C247.801 89.3265 247.368 89.4575 247 89.7033C246.632 89.949 246.346 90.2987 246.177 90.7074C246.007 91.116 245.964 91.5654 246.05 91.9992C246.136 92.433 246.349 92.8314 246.662 93.1441C246.974 93.4569 247.372 93.6699 247.806 93.7562C248.24 93.8425 248.69 93.7983 249.099 93.629C249.508 93.4597 249.856 93.1734 250.101 92.8056C250.347 92.4379 250.479 92.0052 250.479 91.5629C250.479 90.9698 250.243 90.4011 249.824 89.9817C249.405 89.5623 248.836 89.3265 248.243 89.3265ZM248.243 80.3809C247.801 80.3809 247.368 80.5119 247 80.7576C246.632 81.0034 246.346 81.3531 246.177 81.7617C246.007 82.1704 245.964 82.6197 246.05 83.0535C246.136 83.4874 246.349 83.8857 246.662 84.1985C246.974 84.5113 247.372 84.7243 247.806 84.8106C248.24 84.8969 248.69 84.8526 249.099 84.6833C249.508 84.5141 249.856 84.2278 250.101 83.86C250.347 83.4922 250.479 83.0596 250.479 82.6173C250.479 82.0242 250.243 81.4555 249.824 81.0361C249.405 80.6167 248.836 80.3809 248.243 80.3809ZM248.243 71.4352C247.801 71.4352 247.368 71.5662 247 71.812C246.632 72.0577 246.346 72.4074 246.177 72.8161C246.007 73.2247 245.964 73.6741 246.05 74.1079C246.136 74.5417 246.349 74.9401 246.662 75.2529C246.974 75.5656 247.372 75.7786 247.806 75.8649C248.24 75.9512 248.69 75.907 249.099 75.7377C249.508 75.5684 249.856 75.2821 250.101 74.9143C250.347 74.5466 250.479 74.114 250.479 73.6716C250.479 73.0785 250.243 72.5098 249.824 72.0904C249.405 71.671 248.836 71.4352 248.243 71.4352ZM248.243 62.4896C247.801 62.4896 247.368 62.6206 247 62.8663C246.632 63.1121 246.346 63.4618 246.177 63.8704C246.007 64.2791 245.964 64.7284 246.05 65.1622C246.136 65.5961 246.349 65.9944 246.662 66.3072C246.974 66.62 247.372 66.833 247.806 66.9193C248.24 67.0056 248.69 66.9613 249.099 66.7921C249.508 66.6228 249.856 66.3365 250.101 65.9687C250.347 65.6009 250.479 65.1683 250.479 64.726C250.479 64.1329 250.243 63.5642 249.824 63.1448C249.405 62.7254 248.836 62.4896 248.243 62.4896ZM248.243 53.5439C247.801 53.5439 247.368 53.6749 247 53.9207C246.632 54.1664 246.346 54.5161 246.177 54.9248C246.007 55.3334 245.964 55.7828 246.05 56.2166C246.136 56.6504 246.349 57.0488 246.662 57.3616C246.974 57.6743 247.372 57.8873 247.806 57.9736C248.24 58.0599 248.69 58.0157 249.099 57.8464C249.508 57.6771 249.856 57.3908 250.101 57.023C250.347 56.6553 250.479 56.2227 250.479 55.7804C250.479 55.1872 250.243 54.6185 249.824 54.1991C249.405 53.7797 248.836 53.5439 248.243 53.5439ZM248.243 44.5983C247.801 44.5983 247.368 44.7293 247 44.975C246.632 45.2208 246.346 45.5705 246.177 45.9791C246.007 46.3878 245.964 46.8371 246.05 47.271C246.136 47.7048 246.349 48.1032 246.662 48.4159C246.974 48.7287 247.372 48.9417 247.806 49.028C248.24 49.1143 248.69 49.07 249.099 48.9008C249.508 48.7315 249.856 48.4452 250.101 48.0774C250.347 47.7096 250.479 47.277 250.479 46.8347C250.479 46.2416 250.243 45.6729 249.824 45.2535C249.405 44.8341 248.836 44.5983 248.243 44.5983ZM248.243 35.6527C247.801 35.6527 247.368 35.7837 247 36.0294C246.632 36.2751 246.346 36.6248 246.177 37.0335C246.007 37.4421 245.964 37.8915 246.05 38.3253C246.136 38.7591 246.349 39.1575 246.662 39.4703C246.974 39.783 247.372 39.996 247.806 40.0823C248.24 40.1686 248.69 40.1244 249.099 39.9551C249.508 39.7859 249.856 39.4995 250.101 39.1318C250.347 38.764 250.479 38.3314 250.479 37.8891C250.479 37.2959 250.243 36.7273 249.824 36.3078C249.405 35.8884 248.836 35.6527 248.243 35.6527ZM248.243 26.707C247.801 26.707 247.368 26.838 247 27.0837C246.632 27.3295 246.346 27.6792 246.177 28.0878C246.007 28.4965 245.964 28.9459 246.05 29.3797C246.136 29.8135 246.349 30.2119 246.662 30.5246C246.974 30.8374 247.372 31.0504 247.806 31.1367C248.24 31.223 248.69 31.1787 249.099 31.0095C249.508 30.8402 249.856 30.5539 250.101 30.1861C250.347 29.8183 250.479 29.3857 250.479 28.9434C250.479 28.3503 250.243 27.7816 249.824 27.3622C249.405 26.9428 248.836 26.707 248.243 26.707ZM248.243 17.7614C247.801 17.7614 247.368 17.8924 247 18.1381C246.632 18.3838 246.346 18.7335 246.177 19.1422C246.007 19.5508 245.964 20.0002 246.05 20.434C246.136 20.8678 246.349 21.2662 246.662 21.579C246.974 21.8918 247.372 22.1048 247.806 22.1911C248.24 22.2773 248.69 22.2331 249.099 22.0638C249.508 21.8946 249.856 21.6082 250.101 21.2405C250.347 20.8727 250.479 20.4401 250.479 19.9978C250.479 19.4046 250.243 18.836 249.824 18.4166C249.405 17.9972 248.836 17.7614 248.243 17.7614ZM248.243 8.81572C247.801 8.81572 247.368 8.94672 247 9.19246C246.632 9.4382 246.346 9.7879 246.177 10.1966C246.007 10.6052 245.964 11.0546 246.05 11.4884C246.136 11.9222 246.349 12.3206 246.662 12.6333C246.974 12.9461 247.372 13.1591 247.806 13.2454C248.24 13.3317 248.69 13.2875 249.099 13.1182C249.508 12.9489 249.856 12.6626 250.101 12.2948C250.347 11.927 250.479 11.4945 250.479 11.0521C250.479 10.459 250.243 9.89033 249.824 9.47092C249.405 9.05151 248.836 8.81572 248.243 8.81572Z" fill="url(#paint0_linear_359_55534)"/>
<path d="M140.261 90.023H144.426V90.6355H140.261V90.023ZM145.012 88.4217H145.651V93.2605H145.012V88.4217ZM142.099 88.1242H142.746V95.4217H142.099V88.1242ZM147.165 87.5467H147.812V94.5555C147.812 95.0105 147.699 95.2117 147.419 95.3167C147.13 95.4305 146.64 95.448 145.835 95.4392C145.8 95.2555 145.695 94.9667 145.59 94.7742C146.22 94.7917 146.762 94.7917 146.929 94.783C147.095 94.783 147.165 94.7305 147.165 94.5642V87.5467ZM143.84 87.433L144.33 87.9405C143.315 88.343 141.731 88.6317 140.401 88.8067C140.375 88.6492 140.279 88.4217 140.2 88.2817C141.495 88.098 143.017 87.8005 143.84 87.433ZM142.072 90.303L142.545 90.4955C142.099 91.8255 141.241 93.3917 140.427 94.223C140.349 94.0305 140.182 93.768 140.069 93.6017C140.839 92.8667 141.687 91.4755 142.072 90.303ZM142.659 91.2042C142.991 91.4405 144.12 92.4205 144.4 92.6655L144.015 93.2167C143.656 92.8142 142.702 91.8955 142.3 91.5542L142.659 91.2042ZM151.199 93.0767H151.846V94.5205C151.846 94.748 151.925 94.7917 152.397 94.7917C152.607 94.7917 153.71 94.7917 153.999 94.7917C154.375 94.7917 154.436 94.6867 154.471 93.943C154.62 94.048 154.891 94.1442 155.066 94.1792C154.979 95.1505 154.786 95.3867 154.06 95.3867C153.859 95.3867 152.537 95.3867 152.345 95.3867C151.426 95.3867 151.199 95.203 151.199 94.5292V93.0767ZM152.1 92.7705L152.581 92.4292C153.097 92.7705 153.675 93.278 153.937 93.6717L153.421 94.0392C153.176 93.6542 152.607 93.1205 152.1 92.7705ZM154.926 93.243L155.451 92.9192C156.081 93.453 156.772 94.2142 157.052 94.7742L156.492 95.1417C156.221 94.5905 155.565 93.803 154.926 93.243ZM150 93.0067L150.577 93.2167C150.359 93.8992 150.017 94.6692 149.44 95.1417L148.906 94.7655C149.44 94.3455 149.807 93.6455 150 93.0067ZM150.954 89.8392V90.5655H155.049V89.8392H150.954ZM150.954 91.073V91.7992H155.049V91.073H150.954ZM150.954 88.623V89.3405H155.049V88.623H150.954ZM150.324 88.098H155.705V92.333H150.324V88.098ZM152.651 87.293L153.412 87.4242C153.237 87.8005 153.027 88.1505 152.879 88.4042L152.292 88.2642C152.424 87.9842 152.572 87.573 152.651 87.293ZM160.605 90.3555V92.368H162.731V90.3555H160.605ZM159.984 89.7692H163.387V92.9455H159.984V89.7692ZM158.05 87.7392H165.365V95.4217H164.665V88.4042H158.724V95.4217H158.05V87.7392ZM158.426 94.3367H165.067V94.958H158.426V94.3367ZM169.775 89.883H174.517V90.3555H169.775V89.883ZM170.764 88.413V89.008H173.52V88.413H170.764ZM170.212 87.9755H174.097V89.4367H170.212V87.9755ZM171.814 87.3717H172.417V90.128H171.814V87.3717ZM170.842 92.1142V92.6305H173.441V92.1142H170.842ZM170.842 93.033V93.558H173.441V93.033H170.842ZM170.842 91.1955V91.703H173.441V91.1955H170.842ZM170.239 90.7667H174.062V93.9867H170.239V90.7667ZM172.531 94.3717L172.934 94.048C173.537 94.3892 174.211 94.8355 174.614 95.1767L174.124 95.5092C173.747 95.1767 173.1 94.7217 172.531 94.3717ZM171.157 94.0742L171.752 94.2755C171.289 94.7655 170.501 95.2292 169.836 95.5092C169.749 95.3955 169.53 95.1505 169.399 95.0367C170.046 94.8092 170.755 94.4592 171.157 94.0742ZM166.949 89.9355H167.5V95.4217H166.949V89.9355ZM167.29 90.9417H169.32V91.3705H167.29V90.9417ZM167.474 88.9555H169.189V89.4367H167.474V88.9555ZM167.272 92.9542H169.565V93.4617H167.272V92.9542ZM167.29 94.0392H169.644V94.573H167.29V94.0392ZM167.264 89.9355H169.556V92.403H167.264V91.9392H169.005V90.3992H167.264V89.9355ZM167.876 87.3892H168.209V87.5292H168.401V87.6955C168.051 88.308 167.5 89.1742 166.695 89.8917C166.599 89.7605 166.406 89.5855 166.266 89.5067C167.019 88.868 167.561 88.0367 167.876 87.3892ZM168.069 87.3892H168.524C169.057 87.8617 169.696 88.5355 170.002 88.973L169.591 89.428C169.294 88.9817 168.699 88.2467 168.174 87.8005H168.069V87.3892ZM180.17 87.818H182.602V88.4217H180.17V87.818ZM180.17 89.8305H182.602V90.4167H180.17V89.8305ZM180.161 91.8692H182.62V92.4642H180.161V91.8692ZM182.305 87.818H182.944V94.5992C182.944 94.9755 182.856 95.1767 182.602 95.2817C182.357 95.3867 181.946 95.4042 181.299 95.4042C181.281 95.2205 181.185 94.9317 181.097 94.7655C181.561 94.7742 181.999 94.7742 182.13 94.7655C182.261 94.7655 182.305 94.7217 182.305 94.5905V87.818ZM179.899 87.818H180.52V90.9942C180.52 92.3417 180.415 94.2317 179.627 95.4742C179.514 95.3517 179.251 95.1592 179.102 95.098C179.837 93.9255 179.899 92.263 179.899 90.9942V87.818ZM175.279 88.553H179.47V89.1305H175.279V88.553ZM176.311 89.9092H178.525V90.443H176.311V89.9092ZM176.311 91.3005H178.534V91.8255H176.311V91.3005ZM175.165 92.7092H179.47V93.2955H175.165V92.7092ZM176.022 87.4855H176.626V92.9455H176.022V87.4855ZM178.219 87.4855H178.822V92.9455H178.219V87.4855ZM176.381 93.488L177.011 93.663C176.687 94.328 176.18 95.0017 175.707 95.4392C175.585 95.3342 175.331 95.1417 175.174 95.0542C175.664 94.6605 176.119 94.0742 176.381 93.488ZM177.641 93.7592L178.149 93.488C178.49 93.8817 178.901 94.4242 179.076 94.783L178.542 95.098C178.376 94.748 177.982 94.1705 177.641 93.7592ZM187.844 89.428H191.107V89.9792H187.844V89.428ZM186.479 94.6692C187.284 94.5292 188.552 94.2755 189.777 94.0305L189.821 94.608C188.719 94.8617 187.546 95.1155 186.697 95.308L186.479 94.6692ZM187.467 87.7742H188.106V94.7217H187.467V87.7742ZM187.844 87.7742H191.414V91.6592H187.844V91.0817H190.775V88.3517H187.844V87.7742ZM189.532 91.283C189.909 92.9192 190.705 94.2842 192.009 94.8617C191.86 94.993 191.667 95.238 191.571 95.4042C190.206 94.713 189.392 93.2342 188.99 91.388L189.532 91.283ZM191.274 91.8605L191.79 92.2367C191.3 92.6917 190.679 93.1817 190.189 93.5055L189.777 93.173C190.25 92.8317 190.906 92.2805 191.274 91.8605ZM184.291 87.7655H186.531V88.3605H184.912V95.4392H184.291V87.7655ZM186.339 87.7655H186.461L186.557 87.7392L187.004 88.0105C186.724 88.7367 186.356 89.638 186.032 90.3292C186.741 91.0555 186.907 91.6767 186.907 92.2192C186.907 92.7005 186.794 93.0592 186.531 93.243C186.4 93.3305 186.234 93.383 186.05 93.4005C185.849 93.4267 185.604 93.4267 185.385 93.4092C185.376 93.2517 185.324 92.9892 185.219 92.8142C185.446 92.8405 185.639 92.8405 185.796 92.8317C185.91 92.823 186.015 92.7967 186.102 92.7442C186.251 92.648 186.304 92.4205 186.295 92.1492C186.295 91.668 186.111 91.0905 185.429 90.408C185.779 89.6117 186.137 88.553 186.339 87.9492V87.7655ZM194.17 92.0442H200.128V92.6217H194.17V92.0442ZM193.041 88.8855H198.763V89.4892H193.041V88.8855ZM195.509 90.4605H199.516V91.0467H195.509V90.4605ZM199.848 92.0442H200.505C200.505 92.0442 200.496 92.2367 200.478 92.333C200.321 94.1792 200.155 94.9055 199.875 95.1942C199.708 95.3605 199.542 95.4217 199.28 95.4392C199.061 95.4567 198.623 95.448 198.168 95.4305C198.16 95.2467 198.09 94.993 197.985 94.818C198.422 94.8705 198.842 94.8705 199.008 94.8705C199.175 94.8705 199.262 94.853 199.341 94.783C199.542 94.5817 199.708 93.8905 199.848 92.1492V92.0442ZM197.906 93.0942L198.37 92.9192C198.65 93.278 198.921 93.768 199.035 94.083L198.553 94.2842C198.44 93.9692 198.168 93.4617 197.906 93.0942ZM194.126 87.643L194.695 87.4067C195.036 87.7567 195.421 88.2555 195.596 88.588L194.984 88.868C194.835 88.5267 194.467 88.0105 194.126 87.643ZM195.316 93.313L195.85 93.243C196.025 93.7942 196.121 94.5205 196.121 94.993L195.544 95.0717C195.561 94.5992 195.465 93.8817 195.316 93.313ZM196.602 93.2342L197.118 93.1117C197.346 93.593 197.565 94.2142 197.635 94.6255L197.092 94.7742C197.031 94.3542 196.821 93.7155 196.602 93.2342ZM194.196 93.1117L194.747 93.2955C194.546 94.0217 194.24 94.853 193.706 95.3867L193.199 95.028C193.689 94.5642 194.021 93.7855 194.196 93.1117ZM196.777 87.3805L197.442 87.5467C196.646 89.9967 195.272 92.3067 192.954 93.6805C192.875 93.523 192.709 93.2605 192.595 93.1205C194.765 91.8867 196.112 89.6467 196.777 87.3805ZM198.615 88.8855H199.236C199.113 89.4892 198.956 90.2155 198.825 90.688L198.247 90.6092C198.37 90.1455 198.518 89.4455 198.615 88.8855ZM199.271 90.4605H199.892C199.77 91.0642 199.621 91.7992 199.498 92.2717L198.903 92.2017C199.035 91.7292 199.183 91.0205 199.271 90.4605ZM201.555 92.9455H209.351V93.558H201.555V92.9455ZM201.8 88.413H209.141V89.0167H201.8V88.413ZM203.585 89.9005H207.338V90.4605H203.585V89.9005ZM203.585 91.4142H207.338V91.983H203.585V91.4142ZM203.165 87.398H203.812V93.2167H203.165V87.398ZM207.076 87.398H207.741V93.2167H207.076V87.398ZM206.096 94.1705L206.542 93.7505C207.583 94.118 208.695 94.5992 209.377 94.9667L208.782 95.3955C208.161 95.028 207.12 94.5467 206.096 94.1705ZM204.241 93.698L204.818 94.118C204.04 94.5992 202.85 95.1067 201.905 95.413C201.808 95.2817 201.607 95.0542 201.467 94.9142C202.412 94.643 203.62 94.1267 204.241 93.698ZM214.908 94.8287C214.492 94.8287 214.13 94.7575 213.823 94.6151C213.518 94.4698 213.276 94.2733 213.096 94.0255C212.917 93.7777 212.81 93.4957 212.776 93.1796L212.772 93.1368H213.331L213.336 93.171C213.364 93.3932 213.445 93.5911 213.579 93.7649C213.713 93.9358 213.892 94.0711 214.117 94.1708C214.343 94.2705 214.606 94.3203 214.908 94.3203C215.204 94.3203 215.466 94.2662 215.694 94.158C215.922 94.0497 216.1 93.9016 216.228 93.7136C216.359 93.5228 216.425 93.3063 216.425 93.0642V93.0557C216.425 92.6512 216.282 92.3393 215.997 92.12C215.715 91.8978 215.328 91.7868 214.835 91.7868H214.096V91.2911H214.81C215.086 91.2911 215.328 91.2413 215.536 91.1416C215.747 91.0391 215.91 90.8995 216.027 90.7229C216.147 90.5463 216.207 90.3441 216.207 90.1162V90.1077C216.207 89.877 216.153 89.6776 216.044 89.5095C215.936 89.3415 215.782 89.2105 215.583 89.1165C215.386 89.0225 215.153 88.9755 214.882 88.9755C214.617 88.9755 214.382 89.0225 214.177 89.1165C213.972 89.2105 213.808 89.3401 213.686 89.5053C213.563 89.6705 213.491 89.8627 213.468 90.082L213.464 90.1248H212.904L212.908 90.082C212.94 89.763 213.041 89.4839 213.212 89.2446C213.383 89.0025 213.61 88.8131 213.895 88.6764C214.18 88.5368 214.509 88.4671 214.882 88.4671C215.261 88.4671 215.593 88.5354 215.878 88.6721C216.165 88.806 216.389 88.9911 216.549 89.2276C216.711 89.464 216.792 89.736 216.792 90.0436V90.0521C216.792 90.3056 216.737 90.5321 216.625 90.7315C216.517 90.928 216.363 91.0932 216.164 91.2271C215.967 91.3581 215.738 91.4507 215.476 91.5048V91.5219C215.938 91.556 216.309 91.7084 216.591 91.979C216.873 92.2496 217.014 92.6042 217.014 93.0429V93.0514C217.014 93.3903 216.923 93.6951 216.741 93.9657C216.558 94.2334 216.308 94.4442 215.989 94.598C215.673 94.7518 215.312 94.8287 214.908 94.8287ZM222.356 87.3542L223.012 87.5205C222.531 88.8155 221.752 90.0317 220.939 90.8192C220.807 90.7055 220.536 90.4867 220.37 90.3992C221.201 89.673 221.927 88.5355 222.356 87.3542ZM222.216 88.4392H227.86V89.078H221.901L222.216 88.4392ZM221.787 90.4255H227.667V91.038H222.444V93.1117H221.787V90.4255ZM220.344 92.7792H228.271V93.418H220.344V92.7792ZM224.412 88.7717H225.086V95.4392H224.412V88.7717Z" fill="white"/>
<path d="M172.266 71.3633V68.4204H164.975V66.4517C165.379 65.7886 165.785 65.1221 166.195 64.4522C166.606 63.7822 167.019 63.1123 167.436 62.4424C167.853 61.7725 168.27 61.1094 168.687 60.4532C169.104 59.7901 169.521 59.1338 169.938 58.4844C170.355 57.835 170.772 57.1958 171.189 56.5669H174.491V66.4722H176.531V68.4204H174.491V71.3633H172.266ZM167.17 66.5132H172.297V58.4639H172.184C171.856 58.9698 171.524 59.4824 171.189 60.002C170.854 60.5215 170.516 61.0479 170.174 61.5811C169.832 62.1143 169.49 62.6509 169.149 63.1909C168.814 63.731 168.479 64.271 168.144 64.8111C167.809 65.3443 167.484 65.874 167.17 66.4004V66.5132ZM180.069 71.5171C179.666 71.5171 179.324 71.3804 179.044 71.1069C178.763 70.8267 178.623 70.4849 178.623 70.0815C178.623 69.6782 178.763 69.3364 179.044 69.0562C179.324 68.7759 179.666 68.6357 180.069 68.6357C180.479 68.6357 180.821 68.7759 181.094 69.0562C181.375 69.3364 181.515 69.6782 181.515 70.0815C181.515 70.4849 181.375 70.8267 181.094 71.1069C180.821 71.3804 180.479 71.5171 180.069 71.5171ZM189.318 71.6299C188.217 71.6299 187.247 71.4487 186.406 71.0864C185.565 70.7241 184.905 70.2217 184.427 69.5791C183.955 68.9365 183.719 68.1948 183.719 67.354V67.3335C183.719 66.7114 183.856 66.1441 184.129 65.6314C184.41 65.1118 184.796 64.6743 185.288 64.3189C185.78 63.9566 186.348 63.707 186.99 63.5703V63.5191C186.163 63.2798 185.5 62.8696 185.001 62.2886C184.502 61.7075 184.253 61.024 184.253 60.2378V60.2173C184.253 59.4654 184.468 58.7954 184.899 58.2076C185.336 57.6197 185.934 57.1548 186.693 56.813C187.459 56.4712 188.334 56.3003 189.318 56.3003C190.302 56.3003 191.174 56.4712 191.933 56.813C192.698 57.1548 193.296 57.6197 193.727 58.2076C194.158 58.7954 194.373 59.4654 194.373 60.2173V60.2378C194.373 61.024 194.124 61.7075 193.625 62.2886C193.132 62.8696 192.469 63.2798 191.635 63.5191V63.5703C192.285 63.707 192.856 63.9566 193.348 64.3189C193.84 64.6743 194.223 65.1118 194.496 65.6314C194.776 66.1441 194.917 66.7114 194.917 67.3335V67.354C194.917 68.1948 194.677 68.9365 194.199 69.5791C193.727 70.2217 193.067 70.7241 192.22 71.0864C191.379 71.4487 190.412 71.6299 189.318 71.6299ZM189.318 69.7842C189.947 69.7842 190.501 69.6748 190.979 69.4561C191.464 69.2305 191.844 68.9263 192.117 68.5435C192.398 68.1538 192.538 67.7095 192.538 67.2105V67.19C192.538 66.6841 192.401 66.2363 192.128 65.8467C191.854 65.457 191.475 65.1528 190.989 64.9341C190.504 64.7085 189.947 64.5957 189.318 64.5957C188.682 64.5957 188.122 64.7085 187.636 64.9341C187.151 65.1528 186.772 65.457 186.498 65.8467C186.225 66.2363 186.088 66.6841 186.088 67.19V67.2105C186.088 67.7095 186.225 68.1538 186.498 68.5435C186.778 68.9263 187.161 69.2305 187.647 69.4561C188.132 69.6748 188.689 69.7842 189.318 69.7842ZM189.318 62.7398C189.865 62.7398 190.347 62.6441 190.764 62.4527C191.181 62.2544 191.505 61.9844 191.738 61.6426C191.977 61.294 192.097 60.8941 192.097 60.4429V60.4224C192.097 59.9712 191.977 59.5747 191.738 59.2329C191.505 58.8843 191.181 58.6143 190.764 58.4229C190.347 58.2246 189.865 58.1255 189.318 58.1255C188.771 58.1255 188.286 58.2246 187.862 58.4229C187.445 58.6143 187.12 58.8843 186.888 59.2329C186.655 59.5747 186.539 59.9712 186.539 60.4224V60.4429C186.539 60.8941 186.655 61.294 186.888 61.6426C187.12 61.9844 187.445 62.2544 187.862 62.4527C188.279 62.6441 188.764 62.7398 189.318 62.7398ZM202.699 71.6812C201.722 71.6812 200.857 71.4966 200.105 71.1274C199.353 70.7583 198.752 70.2559 198.3 69.6201C197.856 68.9775 197.6 68.2564 197.531 67.4566L197.521 67.3335H199.695L199.705 67.4053C199.767 67.8428 199.931 68.2393 200.197 68.5947C200.471 68.9502 200.823 69.2305 201.253 69.4356C201.691 69.6406 202.176 69.7432 202.71 69.7432C203.325 69.7432 203.868 69.6099 204.34 69.3433C204.812 69.0767 205.177 68.7075 205.437 68.2358C205.704 67.7642 205.837 67.2207 205.837 66.6055V66.585C205.837 65.9834 205.704 65.4502 205.437 64.9854C205.17 64.5137 204.805 64.1445 204.34 63.8779C203.875 63.6113 203.342 63.478 202.74 63.478C202.289 63.478 201.872 63.5464 201.489 63.6831C201.107 63.813 200.768 64.0112 200.474 64.2778C200.337 64.4009 200.211 64.5342 200.095 64.6778C199.979 64.8145 199.873 64.9683 199.777 65.1392H197.788L198.516 56.5669H207.211V58.5152H200.351L199.9 63.2114H200.023C200.235 62.8765 200.505 62.5962 200.833 62.3706C201.161 62.1382 201.53 61.9605 201.94 61.8374C202.351 61.7144 202.788 61.6529 203.253 61.6529C204.19 61.6529 205.017 61.8648 205.734 62.2886C206.459 62.7124 207.026 63.2901 207.437 64.0215C207.854 64.7529 208.062 65.5938 208.062 66.544V66.5645C208.062 67.5693 207.833 68.458 207.375 69.2305C206.917 69.9961 206.285 70.5977 205.478 71.0352C204.671 71.4658 203.745 71.6812 202.699 71.6812ZM213.486 64.2881C212.823 64.2881 212.252 64.1275 211.774 63.8062C211.302 63.4849 210.94 63.0303 210.687 62.4424C210.434 61.8477 210.308 61.147 210.308 60.3404V60.3301C210.308 59.5166 210.434 58.8159 210.687 58.2281C210.94 57.6402 211.302 57.189 211.774 56.8745C212.252 56.5533 212.823 56.3926 213.486 56.3926C214.143 56.3926 214.71 56.5533 215.189 56.8745C215.667 57.189 216.033 57.6402 216.286 58.2281C216.539 58.8159 216.665 59.5166 216.665 60.3301V60.3404C216.665 61.147 216.539 61.8477 216.286 62.4424C216.033 63.0303 215.667 63.4849 215.189 63.8062C214.71 64.1275 214.143 64.2881 213.486 64.2881ZM213.486 62.9038C213.965 62.9038 214.334 62.6782 214.594 62.2271C214.86 61.7759 214.994 61.147 214.994 60.3404V60.3301C214.994 59.5166 214.86 58.8877 214.594 58.4434C214.334 57.9991 213.965 57.7769 213.486 57.7769C213.008 57.7769 212.635 57.9991 212.369 58.4434C212.109 58.8877 211.979 59.5166 211.979 60.3301V60.3404C211.979 61.147 212.109 61.7759 212.369 62.2271C212.635 62.6782 213.008 62.9038 213.486 62.9038ZM214.809 71.3633H212.892L222.705 56.5669H224.612L214.809 71.3633ZM224.007 71.5376C223.351 71.5376 222.783 71.377 222.305 71.0557C221.826 70.7344 221.46 70.2798 221.208 69.6919C220.955 69.104 220.828 68.4033 220.828 67.5899V67.5796C220.828 66.773 220.955 66.0757 221.208 65.4878C221.46 64.8999 221.826 64.4453 222.305 64.124C222.783 63.8028 223.351 63.6421 224.007 63.6421C224.67 63.6421 225.237 63.8028 225.709 64.124C226.188 64.4453 226.553 64.8999 226.806 65.4878C227.066 66.0757 227.196 66.773 227.196 67.5796V67.5899C227.196 68.4033 227.066 69.104 226.806 69.6919C226.553 70.2798 226.188 70.7344 225.709 71.0557C225.237 71.377 224.67 71.5376 224.007 71.5376ZM224.007 70.1533C224.485 70.1533 224.855 69.9312 225.114 69.4868C225.381 69.0357 225.514 68.4033 225.514 67.5899V67.5796C225.514 66.773 225.381 66.1475 225.114 65.7031C224.855 65.2588 224.485 65.0366 224.007 65.0366C223.528 65.0366 223.159 65.2588 222.899 65.7031C222.64 66.1475 222.51 66.773 222.51 67.5796V67.5899C222.51 68.4033 222.64 69.0357 222.899 69.4868C223.159 69.9312 223.528 70.1533 224.007 70.1533Z" fill="white"/>
<path d="M176.556 41.8087H180.756V42.7799H176.556V41.8087ZM181.176 40.2687H182.2V45.1862H181.176V40.2687ZM178.227 40.0762H179.26V47.4174H178.227V40.0762ZM183.25 39.3762H184.291V46.1399C184.291 46.7612 184.168 47.0499 183.81 47.2249C183.442 47.3912 182.865 47.4262 182.06 47.4262C182.007 47.1199 181.841 46.6387 181.692 46.3412C182.27 46.3587 182.83 46.3587 183.013 46.3587C183.18 46.3587 183.25 46.3062 183.25 46.1399V39.3762ZM179.986 39.2449L180.738 40.0499C179.627 40.4874 178.087 40.7849 176.766 40.9687C176.722 40.7324 176.573 40.3649 176.451 40.1462C177.728 39.9537 179.137 39.6299 179.986 39.2449ZM178.218 42.2724L178.927 42.5787C178.49 43.8912 177.72 45.4574 176.897 46.3324C176.792 46.0174 176.53 45.5799 176.355 45.2999C177.107 44.5737 177.868 43.2962 178.218 42.2724ZM179.102 43.1562C179.443 43.3749 180.528 44.2849 180.782 44.5124L180.187 45.4137C179.802 44.9412 178.988 44.0924 178.56 43.6987L179.102 43.1562ZM187.423 44.9324H188.465V46.1924C188.465 46.4374 188.535 46.4724 188.955 46.4724C189.138 46.4724 189.926 46.4724 190.162 46.4724C190.495 46.4724 190.556 46.3762 190.6 45.7287C190.81 45.8774 191.256 46.0349 191.536 46.0874C191.405 47.1374 191.116 47.3999 190.267 47.3999C190.022 47.3999 189.068 47.3999 188.832 47.3999C187.695 47.3999 187.423 47.1112 187.423 46.2012V44.9324ZM188.395 44.7312L189.165 44.2149C189.628 44.5649 190.162 45.0724 190.407 45.4662L189.585 46.0262C189.366 45.6499 188.85 45.1074 188.395 44.7312ZM191.116 45.1862L191.956 44.6524C192.568 45.2037 193.242 45.9649 193.505 46.5599L192.595 47.1462C192.358 46.5774 191.728 45.7724 191.116 45.1862ZM186.128 44.7662L187.065 45.1074C186.846 45.8249 186.531 46.6124 185.997 47.1287L185.122 46.5162C185.595 46.0962 185.945 45.4224 186.128 44.7662ZM187.563 41.8612V42.2987H191.107V41.8612H187.563ZM187.563 43.0599V43.4974H191.107V43.0599H187.563ZM187.563 40.6712V41.1087H191.107V40.6712H187.563ZM186.548 39.8749H192.166V44.3024H186.548V39.8749ZM188.762 39.1137L190.04 39.2712C189.838 39.6912 189.611 40.0499 189.462 40.3124L188.491 40.1199C188.596 39.8137 188.71 39.4112 188.762 39.1137ZM196.033 41.6162H200.303V42.5349H196.033V41.6162ZM195.421 45.3437H201.756V46.2624H195.421V45.3437ZM195.64 40.1374H201.791V41.0737H195.64V40.1374ZM199.892 41.6162H200.933C200.933 41.6162 200.925 41.9487 200.925 42.0712C200.828 45.4662 200.706 46.6037 200.435 46.9799C200.233 47.2687 200.006 47.3649 199.708 47.4087C199.42 47.4437 198.973 47.4437 198.527 47.4262C198.518 47.1987 198.413 46.8487 198.282 46.6212C198.676 46.6562 199.017 46.6649 199.192 46.6562C199.35 46.6562 199.428 46.6299 199.507 46.5162C199.708 46.2537 199.813 45.0462 199.892 41.8262V41.6162ZM195.535 41.6162H196.593C196.41 43.2612 196.13 45.3437 195.902 46.6037L194.835 46.5337C195.097 45.2562 195.395 43.1999 195.535 41.6162ZM195.937 39.1574L197.04 39.4724C196.506 40.6799 195.683 41.9049 194.94 42.6749C194.712 42.4912 194.222 42.1762 193.951 42.0274C194.738 41.3537 195.5 40.2424 195.937 39.1574ZM197.092 42.8849L197.67 42.3249C198.16 42.5437 198.781 42.9024 199.096 43.1912L198.483 43.8124C198.195 43.5149 197.591 43.1212 197.092 42.8849ZM196.978 44.6962L197.547 44.1362C198.055 44.3637 198.685 44.7487 199.008 45.0462L198.396 45.6674C198.107 45.3612 197.486 44.9499 196.978 44.6962ZM193.977 43.4537H195.823V43.4887H200.356V43.4537H202.132V44.3899H200.356V44.3637H195.823V44.3899H193.977V43.4537ZM204.6 39.1749L205.667 39.4462C205.203 40.7499 204.433 42.0099 203.655 42.7974C203.453 42.6137 203.007 42.2637 202.753 42.1149C203.541 41.4324 204.223 40.3124 204.6 39.1749ZM204.783 40.1724H210.348V41.1874H204.276L204.783 40.1724ZM204.162 42.2374H210.147V43.2174H205.221V45.0549H204.162V42.2374ZM202.78 44.5387H210.83V45.5537H202.78V44.5387ZM206.735 40.6974H207.82V47.4262H206.735V40.6974ZM211.705 39.9362H219.387V40.8287H211.705V39.9362ZM214.951 39.1924H216.036V40.3824H214.951V39.1924ZM212.055 43.4712H218.451V44.3374H213.078V47.4349H212.055V43.4712ZM218.057 43.4712H219.116V46.3237C219.116 46.8049 219.02 47.0849 218.678 47.2424C218.346 47.3999 217.882 47.4174 217.252 47.4174C217.217 47.1199 217.068 46.6999 216.928 46.4287C217.322 46.4462 217.768 46.4462 217.891 46.4374C218.022 46.4374 218.057 46.4024 218.057 46.2974V43.4712ZM213.866 44.7399H214.776V47.1024H213.866V44.7399ZM214.321 44.7399H217.226V46.6999H214.321V45.9999H216.298V45.4399H214.321V44.7399ZM214.137 41.8699V42.3949H216.893V41.8699H214.137ZM213.14 41.1699H217.952V43.1037H213.14V41.1699ZM222.248 42.6224V45.8424H221.242V43.5937H220.262V42.6224H222.248ZM222.248 45.4312C222.581 46.0087 223.202 46.2624 224.103 46.2974C225.153 46.3499 227.227 46.3237 228.443 46.2274C228.33 46.4637 228.163 46.9449 228.12 47.2512C227.026 47.3037 225.162 47.3212 224.095 47.2687C223.045 47.2249 222.336 46.9712 221.811 46.2974C221.461 46.6387 221.093 46.9712 220.656 47.3474L220.157 46.3062C220.525 46.0699 220.953 45.7549 221.338 45.4312H222.248ZM220.288 40.0237L221.093 39.4374C221.592 39.8224 222.205 40.4087 222.476 40.8199L221.61 41.4849C221.373 41.0562 220.787 40.4524 220.288 40.0237ZM223.578 41.6774L224.48 41.4849C224.637 41.7387 224.786 42.0799 224.838 42.3074L223.876 42.5262C223.85 42.2987 223.718 41.9399 223.578 41.6774ZM223.141 39.7262H227.735V40.4524H223.141V39.7262ZM223.045 43.4974H227.848V44.2237H223.045V43.4974ZM222.686 42.3687H228.172V43.1124H222.686V42.3687ZM222.555 40.8899H228.277V41.6512H222.555V40.8899ZM222.677 44.6437H228.19V45.4049H222.677V44.6437ZM224.873 39.2099H225.915V41.3712H224.873V39.2099ZM224.873 42.7362H225.915V45.9824H224.873V42.7362ZM226.238 41.4674L227.271 41.7037C227.078 42.0274 226.903 42.3249 226.772 42.5349L225.923 42.3162C226.037 42.0624 226.177 41.7037 226.238 41.4674Z" fill="white"/>
<path d="M26.8302 20.776H29.2032V21.721H26.8302V20.776ZM29.6967 21.5635H32.1852V22.561H29.6967V21.5635ZM29.5077 23.485H33.8127V24.493H29.5077V23.485ZM26.4417 22.1935H29.5287V23.1385H26.4417V22.1935ZM26.7672 23.6005H29.2662V24.5455H26.7672V23.6005ZM26.7672 25.039H29.2662V25.9945H26.7672V25.039ZM26.6727 26.509H27.6492V30.142H26.6727V26.509ZM27.2607 26.509H29.4552V29.5855H27.2607V28.63H28.4577V27.4645H27.2607V26.509ZM30.3792 20.4085H31.4607V24.241H30.3792V20.4085ZM32.7312 20.5975L33.7707 20.8285C32.9937 23.422 31.6497 25.501 29.8017 26.7925C29.6547 26.5825 29.2557 26.173 29.0247 25.9735C30.8202 24.8605 32.0802 22.9495 32.7312 20.5975ZM30.2322 25.5325H33.4137V30.1945H32.3007V26.5615H31.3032V30.2365H30.2322V25.5325ZM30.7257 27.265H32.8677V28.1785H30.7257V27.265ZM30.7257 28.8925H32.8677V29.911H30.7257V28.8925ZM31.9332 24.8605L32.6262 24.3775C32.9307 24.5875 33.2877 24.913 33.4557 25.1545L32.7312 25.6795C32.5842 25.4485 32.2377 25.0915 31.9332 24.8605ZM25.6122 20.4295L26.7357 20.7655C26.1897 22.5085 25.2867 24.3985 24.2892 25.606C24.2052 25.312 23.9112 24.577 23.7327 24.2515C24.5097 23.3065 25.2027 21.8785 25.6122 20.4295ZM24.8982 23.4325L25.9797 22.351L26.0007 22.3615V30.247H24.8982V23.4325ZM34.7787 22.855H43.9871V23.8525H34.7787V22.855ZM36.5427 27.9475H42.1601V28.651H36.5427V27.9475ZM36.5427 29.1445H42.1601V29.953H36.5427V29.1445ZM38.7372 22.3195H39.9866V23.401H38.7372V22.3195ZM38.8002 27.2335H39.9236V29.6485H38.8002V27.2335ZM35.6292 26.6875H43.2101V30.247H41.8976V27.4855H36.8787V30.247H35.6292V26.6875ZM34.6737 25.3435C36.8052 25.333 40.1546 25.291 43.1891 25.2385L43.1261 26.173C40.0916 26.257 36.8262 26.32 34.7052 26.3515L34.6737 25.3435ZM40.3751 23.7265L41.4041 24.22C40.4591 24.9025 39.2517 25.6165 38.3172 26.0575L37.5402 25.5955C38.4747 25.123 39.6717 24.3355 40.3751 23.7265ZM38.1072 23.3065L39.1152 23.779C38.5797 24.2305 37.9707 24.6505 37.4877 24.934L36.6897 24.514C37.1622 24.199 37.7607 23.6845 38.1072 23.3065ZM35.7762 24.6925L36.5217 24.01C37.3197 24.304 38.2857 24.787 38.8317 25.1335L38.0652 25.8895C37.5402 25.5115 36.5637 24.9865 35.7762 24.6925ZM41.2046 24.703L42.1601 24.2095C42.9686 24.703 43.8821 25.4695 44.3441 25.984L43.3571 26.5825C42.8951 26.026 41.9816 25.2175 41.2046 24.703ZM36.8997 20.398H38.1282V22.582H36.8997V20.398ZM40.5326 20.398H41.7611V22.582H40.5326V20.398ZM34.6947 20.9545H44.0396V21.952H34.6947V20.9545ZM45.0686 23.5165H50.1086V24.682H45.0686V23.5165ZM50.6126 21.6685H51.8411V27.5695H50.6126V21.6685ZM47.0741 21.4375H48.3131V30.247H47.0741V21.4375ZM53.1011 20.5975H54.3506V28.714C54.3506 29.4595 54.2036 29.806 53.7731 30.016C53.3321 30.2155 52.6391 30.2575 51.6731 30.2575C51.6101 29.89 51.4106 29.3125 51.2321 28.9555C51.9251 28.9765 52.5971 28.9765 52.8176 28.9765C53.0171 28.9765 53.1011 28.9135 53.1011 28.714V20.5975ZM49.1846 20.44L50.0876 21.406C48.7541 21.931 46.9061 22.288 45.3206 22.5085C45.2681 22.225 45.0896 21.784 44.9426 21.5215C46.4756 21.2905 48.1661 20.902 49.1846 20.44ZM47.0636 24.073L47.9141 24.4405C47.3891 26.0155 46.4651 27.895 45.4781 28.945C45.3521 28.567 45.0371 28.042 44.8271 27.706C45.7301 26.8345 46.6436 25.3015 47.0636 24.073ZM48.1241 25.1335C48.5336 25.396 49.8356 26.488 50.1401 26.761L49.4261 27.8425C48.9641 27.2755 47.9876 26.257 47.4731 25.7845L48.1241 25.1335ZM58.1096 27.265H59.3591V28.777C59.3591 29.071 59.4431 29.113 59.9471 29.113C60.1676 29.113 61.1126 29.113 61.3961 29.113C61.7951 29.113 61.8686 28.9975 61.9211 28.2205C62.1731 28.399 62.7086 28.588 63.0446 28.651C62.8871 29.911 62.5406 30.226 61.5221 30.226C61.2281 30.226 60.0836 30.226 59.8001 30.226C58.4351 30.226 58.1096 29.8795 58.1096 28.7875V27.265ZM59.2751 27.0235L60.1991 26.404C60.7556 26.824 61.3961 27.433 61.6901 27.9055L60.7031 28.5775C60.4406 28.126 59.8211 27.475 59.2751 27.0235ZM62.5406 27.5695L63.5486 26.929C64.2836 27.5905 65.0921 28.504 65.4071 29.218L64.3151 29.9215C64.0316 29.239 63.2756 28.273 62.5406 27.5695ZM56.5556 27.0655L57.6791 27.475C57.4166 28.336 57.0386 29.281 56.3981 29.9005L55.3481 29.1655C55.9151 28.6615 56.3351 27.853 56.5556 27.0655ZM58.2776 23.5795V24.1045H62.5301V23.5795H58.2776ZM58.2776 25.018V25.543H62.5301V25.018H58.2776ZM58.2776 22.1515V22.6765H62.5301V22.1515H58.2776ZM57.0596 21.196H63.8006V26.509H57.0596V21.196ZM59.7161 20.2825L61.2491 20.4715C61.0076 20.9755 60.7346 21.406 60.5561 21.721L59.3906 21.49C59.5166 21.1225 59.6531 20.6395 59.7161 20.2825ZM70.5836 24.409H75.2981V25.4695H70.5836V24.409ZM70.5836 26.4775H75.2981V27.538H70.5836V26.4775ZM70.4471 28.588H75.7706V29.7325H70.4471V28.588ZM72.4946 22.9285H73.6601V28.924H72.4946V22.9285ZM73.1561 20.419L74.4896 20.692C74.1221 21.6055 73.6706 22.5925 73.3241 23.2225L72.2426 22.9495C72.5891 22.267 72.9671 21.2065 73.1561 20.419ZM70.7516 20.377L71.9591 20.6815C71.4551 22.4035 70.6046 24.136 69.5966 25.2175C69.4391 24.955 69.0401 24.3775 68.7986 24.1045C69.6701 23.233 70.3631 21.826 70.7516 20.377ZM71.2661 22.3195H75.5711V23.422H71.2661V30.247H70.0586V22.939L70.6781 22.3195H71.2661ZM65.8271 25.7635C66.7091 25.585 68.0216 25.2595 69.2711 24.9445L69.4181 26.0575C68.2736 26.3935 67.0556 26.7295 66.0896 26.992L65.8271 25.7635ZM66.0371 22.393H69.2816V23.548H66.0371V22.393ZM67.2761 20.4085H68.4836V28.84C68.4836 29.4595 68.3786 29.7955 68.0321 29.995C67.6856 30.205 67.1816 30.247 66.4676 30.247C66.4256 29.911 66.2681 29.365 66.1106 29.0185C66.5201 29.0395 66.9506 29.0395 67.0871 29.0395C67.2236 29.0395 67.2761 28.987 67.2761 28.84V20.4085ZM81.0521 22.666H85.2625V23.8525H81.0521V22.666ZM84.748 22.666H85.9555C85.9555 22.666 85.945 23.0755 85.945 23.2225C85.8505 27.559 85.7665 29.113 85.42 29.596C85.168 29.9635 84.916 30.079 84.538 30.142C84.202 30.1945 83.656 30.184 83.11 30.1735C83.089 29.827 82.942 29.302 82.7321 28.9765C83.257 29.008 83.719 29.0185 83.95 29.0185C84.118 29.0185 84.2335 28.9765 84.328 28.84C84.5905 28.5145 84.6745 26.992 84.748 22.918V22.666ZM82.4486 20.4085H83.677C83.6665 24.787 83.656 28.315 80.8421 30.268C80.6531 29.953 80.2646 29.5225 79.9601 29.3125C82.5641 27.5905 82.4381 24.5035 82.4486 20.4085ZM77.1041 20.839H80.7686V27.685H79.6031V21.973H78.2171V28.3465H77.1041V20.839ZM76.3691 27.937C77.5766 27.727 79.4666 27.3385 81.2306 26.95L81.3461 28.084C79.6871 28.4935 77.9021 28.9135 76.5791 29.2285L76.3691 27.937ZM77.6921 23.023H80.1911V24.1255H77.6921V23.023ZM77.6921 25.207H80.1911V26.3095H77.6921V25.207ZM88.8955 21.784V22.8865H90.166V21.784H88.8955ZM87.751 20.8075H91.3735V23.863H87.751V20.8075ZM93.4945 21.784V22.8865H94.765V21.784H93.4945ZM92.35 20.8075H95.9725V23.863H92.35V20.8075ZM87.0895 24.451H96.655V25.5535H87.0895V24.451ZM88.5175 28.903H90.838V29.9425H88.5175V28.903ZM92.8225 28.903H95.143V29.9425H92.8225V28.903ZM93.4315 24.7345C94.093 25.7005 95.4895 26.4985 97.012 26.866C96.7495 27.097 96.403 27.5695 96.2245 27.8635C94.5655 27.391 93.148 26.425 92.266 25.165L93.4315 24.7345ZM87.9295 26.719H91.426V30.268H90.2815V27.7585H89.0215V30.2785H87.9295V26.719ZM92.245 26.719H95.7625V30.268H94.6075V27.7585H93.3475V30.2785H92.245V26.719ZM91.1425 23.422L92.3605 23.8315C91.447 25.774 89.704 27.0655 87.4885 27.8425C87.3415 27.5695 86.974 27.0865 86.7325 26.866C88.7905 26.2045 90.4075 25.018 91.1425 23.422Z" fill="white"/>
<path d="M305.364 68.7841H310.124V69.4841H305.364V68.7841ZM310.794 66.9541H311.524V72.4841H310.794V66.9541ZM307.464 66.6141H308.204V74.9541H307.464V66.6141ZM313.254 65.9541H313.994V73.9641C313.994 74.4841 313.864 74.7141 313.544 74.8341C313.214 74.9641 312.654 74.9841 311.734 74.9741C311.694 74.7641 311.574 74.4341 311.454 74.2141C312.174 74.2341 312.794 74.2341 312.984 74.2241C313.174 74.2241 313.254 74.1641 313.254 73.9741V65.9541ZM309.454 65.8241L310.014 66.4041C308.854 66.8641 307.044 67.1941 305.524 67.3941C305.494 67.2141 305.384 66.9541 305.294 66.7941C306.774 66.5841 308.514 66.2441 309.454 65.8241ZM307.434 69.1041L307.974 69.3241C307.464 70.8441 306.484 72.6341 305.554 73.5841C305.464 73.3641 305.274 73.0641 305.144 72.8741C306.024 72.0341 306.994 70.4441 307.434 69.1041ZM308.104 70.1341C308.484 70.4041 309.774 71.5241 310.094 71.8041L309.654 72.4341C309.244 71.9741 308.154 70.9241 307.694 70.5341L308.104 70.1341ZM317.864 72.2741H318.604V73.9241C318.604 74.1841 318.694 74.2341 319.234 74.2341C319.474 74.2341 320.734 74.2341 321.064 74.2341C321.494 74.2341 321.564 74.1141 321.604 73.2641C321.774 73.3841 322.084 73.4941 322.284 73.5341C322.184 74.6441 321.964 74.9141 321.134 74.9141C320.904 74.9141 319.394 74.9141 319.174 74.9141C318.124 74.9141 317.864 74.7041 317.864 73.9341V72.2741ZM318.894 71.9241L319.444 71.5341C320.034 71.9241 320.694 72.5041 320.994 72.9541L320.404 73.3741C320.124 72.9341 319.474 72.3241 318.894 71.9241ZM322.124 72.4641L322.724 72.0941C323.444 72.7041 324.234 73.5741 324.554 74.2141L323.914 74.6341C323.604 74.0041 322.854 73.1041 322.124 72.4641ZM316.494 72.1941L317.154 72.4341C316.904 73.2141 316.514 74.0941 315.854 74.6341L315.244 74.2041C315.854 73.7241 316.274 72.9241 316.494 72.1941ZM317.584 68.5741V69.4041H322.264V68.5741H317.584ZM317.584 69.9841V70.8141H322.264V69.9841H317.584ZM317.584 67.1841V68.0041H322.264V67.1841H317.584ZM316.864 66.5841H323.014V71.4241H316.864V66.5841ZM319.524 65.6641L320.394 65.8141C320.194 66.2441 319.954 66.6441 319.784 66.9341L319.114 66.7741C319.264 66.4541 319.434 65.9841 319.524 65.6641ZM304.514 81.6841H309.064V82.3341H304.514V81.6841ZM304.514 83.6941H309.064V84.3541H304.514V83.6941ZM304.444 85.7541H309.474V86.4441H304.444V85.7541ZM306.554 79.9941H307.254V86.0041H306.554V79.9941ZM307.244 77.7941L308.034 77.9741C307.724 78.7441 307.324 79.6441 307.014 80.2041L306.384 80.0241C306.694 79.4341 307.054 78.4641 307.244 77.7941ZM304.944 77.7541L305.664 77.9341C305.184 79.5441 304.394 81.0941 303.464 82.0941C303.354 81.9541 303.104 81.6241 302.954 81.4741C303.834 80.5941 304.534 79.2041 304.944 77.7541ZM304.924 79.6641H309.304V80.3341H304.924V86.9541H304.204V80.0741L304.614 79.6641H304.924ZM300.144 83.0841C300.954 82.8841 302.174 82.5241 303.354 82.1841L303.444 82.8541C302.354 83.1941 301.204 83.5541 300.314 83.8241L300.144 83.0841ZM300.314 79.7841H303.364V80.4841H300.314V79.7841ZM301.674 77.7741H302.394V86.0541C302.394 86.4841 302.304 86.6941 302.044 86.8141C301.784 86.9441 301.374 86.9641 300.724 86.9641C300.694 86.7741 300.594 86.4441 300.494 86.2341C300.944 86.2541 301.364 86.2541 301.484 86.2441C301.614 86.2441 301.674 86.2041 301.674 86.0541V77.7741ZM314.534 80.0341H318.764V80.7441H314.534V80.0341ZM318.444 80.0341H319.164C319.164 80.0341 319.154 80.3141 319.154 80.4141C319.054 84.6441 318.964 86.0741 318.634 86.5041C318.434 86.7741 318.224 86.8541 317.904 86.8841C317.594 86.9141 317.054 86.9041 316.524 86.8841C316.504 86.6641 316.424 86.3541 316.294 86.1641C316.874 86.2041 317.394 86.2041 317.604 86.2041C317.774 86.2141 317.884 86.1841 317.974 86.0541C318.244 85.7441 318.354 84.2841 318.444 80.1941V80.0341ZM316.194 77.7741H316.924C316.914 81.6041 316.904 85.1641 314.124 86.9841C314.014 86.8041 313.764 86.5541 313.574 86.4341C316.244 84.7741 316.184 81.4141 316.194 77.7741ZM310.934 78.2541H314.194V84.7641H313.494V78.9441H311.604V85.4041H310.934V78.2541ZM310.214 85.2241C311.324 85.0041 313.084 84.6341 314.744 84.2641L314.814 84.9441C313.224 85.3241 311.544 85.7141 310.344 85.9841L310.214 85.2241ZM311.284 80.4041H313.824V81.0841H311.284V80.4041ZM311.284 82.5441H313.824V83.2141H311.284V82.5441ZM321.764 78.8141V80.3641H323.614V78.8141H321.764ZM321.074 78.2041H324.334V80.9741H321.074V78.2041ZM326.124 78.8141V80.3641H327.984V78.8141H326.124ZM325.434 78.2041H328.704V80.9741H325.434V78.2041ZM320.394 81.7341H329.364V82.4041H320.394V81.7341ZM321.574 85.9741H324.004V86.6141H321.574V85.9741ZM325.684 85.9741H328.134V86.6141H325.684V85.9741ZM326.134 81.9141C326.814 82.8341 328.234 83.6141 329.654 83.9441C329.484 84.0941 329.284 84.3641 329.174 84.5541C327.704 84.1341 326.254 83.2641 325.454 82.1841L326.134 81.9141ZM321.224 83.7241H324.394V86.9541H323.704V84.3641H321.894V86.9941H321.224V83.7241ZM325.334 83.7241H328.524V86.9541H327.824V84.3641H326.004V86.9941H325.334V83.7241ZM324.384 80.6941L325.114 80.9341C324.314 82.6541 322.694 83.8241 320.604 84.5641C320.514 84.4041 320.284 84.1241 320.134 83.9941C322.144 83.3141 323.714 82.2341 324.384 80.6941Z" fill="white"/>
<path d="M319.48 31.5L321.4 33.45L310.52 44.5L308.6 42.55L319.48 31.5ZM302.2 25H327.8C329.576 25 331 26.4462 331 28.25V34.75C329.24 34.75 327.8 36.2125 327.8 38C327.8 39.8038 329.24 41.25 331 41.25V47.75C331 49.5537 329.576 51 327.8 51H302.2C300.44 51 299 49.5537 299 47.75V41.25C300.776 41.25 302.2 39.8038 302.2 38C302.2 36.2125 300.776 34.75 299 34.75V28.25C299 26.4462 300.44 25 302.2 25ZM302.2 28.25V32.3775C304.184 33.5475 305.4 35.6763 305.4 38C305.4 40.3237 304.184 42.4688 302.2 43.6225V47.75H327.8V43.6225C325.816 42.4688 324.6 40.3237 324.6 38C324.6 35.6763 325.816 33.5475 327.8 32.3775V28.25H302.2ZM311 31.5C312.328 31.5 313.4 32.5887 313.4 33.9375C313.4 35.2863 312.328 36.375 311 36.375C309.672 36.375 308.6 35.2863 308.6 33.9375C308.6 32.5887 309.672 31.5 311 31.5ZM319 39.625C320.328 39.625 321.4 40.7137 321.4 42.0625C321.4 43.4112 320.328 44.5 319 44.5C317.672 44.5 316.6 43.4112 316.6 42.0625C316.6 40.7137 317.672 39.625 319 39.625Z" fill="white"/>
<defs>
<linearGradient id="paint0_linear_359_55534" x1="0" y1="112.809" x2="350" y2="112.809" gradientUnits="userSpaceOnUse">
<stop stop-color="#FF0000"/>
<stop offset="1" stop-color="#3A0000"/>
</linearGradient>
</defs>
</svg>
