<svg width="400" height="128" viewBox="0 0 400 128" fill="none" xmlns="http://www.w3.org/2000/svg">
<path d="M396.166 127.796H3.83387C2.81706 127.796 1.84219 127.391 1.1232 126.672C0.404214 125.953 0 124.978 0 123.962V74.1214C2.71148 74.1214 5.31113 73.0441 7.22843 71.1268C9.14574 69.2095 10.2236 66.6092 10.2236 63.8978C10.2236 61.1863 9.14574 58.586 7.22843 56.6687C5.31113 54.7514 2.71148 53.6741 0 53.6741V3.83387C0 2.81706 0.404214 1.84219 1.1232 1.1232C1.84219 0.404214 2.81706 0 3.83387 0H281.492C281.269 0.3886 281.152 0.82899 281.153 1.27733C281.153 1.72567 281.27 2.16593 281.495 2.55404C281.719 2.94215 282.042 3.26476 282.431 3.48879C282.819 3.71282 283.26 3.83075 283.709 3.83075C284.157 3.83075 284.596 3.71282 284.984 3.48879C285.372 3.26476 285.696 2.94215 285.92 2.55404C286.144 2.16593 286.264 1.72567 286.264 1.27733C286.265 0.82899 286.146 0.3886 285.923 0H396.166C397.183 0 398.158 0.404214 398.877 1.1232C399.596 1.84219 400 2.81706 400 3.83387V53.6741C397.289 53.6741 394.689 54.7514 392.772 56.6687C390.854 58.586 389.776 61.1863 389.776 63.8978C389.776 66.6092 390.854 69.2095 392.772 71.1268C394.689 73.0441 397.289 74.1214 400 74.1214V123.962C400 124.978 399.596 125.953 398.877 126.672C398.158 127.391 397.183 127.796 396.166 127.796ZM283.706 121.406C283.201 121.406 282.706 121.555 282.286 121.836C281.866 122.117 281.538 122.517 281.345 122.984C281.151 123.451 281.101 123.964 281.2 124.46C281.299 124.956 281.542 125.411 281.899 125.769C282.256 126.126 282.711 126.37 283.207 126.468C283.703 126.567 284.217 126.516 284.685 126.323C285.152 126.129 285.549 125.802 285.83 125.382C286.111 124.962 286.262 124.467 286.262 123.962C286.262 123.284 285.993 122.634 285.513 122.155C285.034 121.675 284.384 121.406 283.706 121.406ZM283.706 111.182C283.201 111.182 282.706 111.332 282.286 111.613C281.866 111.894 281.538 112.293 281.345 112.76C281.151 113.227 281.101 113.741 281.2 114.237C281.299 114.732 281.542 115.188 281.899 115.545C282.256 115.903 282.711 116.146 283.207 116.245C283.703 116.343 284.217 116.293 284.685 116.099C285.152 115.906 285.549 115.579 285.83 115.158C286.111 114.738 286.262 114.244 286.262 113.738C286.262 113.06 285.993 112.41 285.513 111.931C285.034 111.452 284.384 111.182 283.706 111.182ZM283.706 100.958C283.201 100.958 282.706 101.108 282.286 101.389C281.866 101.67 281.538 102.07 281.345 102.537C281.151 103.004 281.101 103.517 281.2 104.013C281.299 104.509 281.542 104.964 281.899 105.321C282.256 105.679 282.711 105.922 283.207 106.021C283.703 106.12 284.217 106.069 284.685 105.876C285.152 105.682 285.549 105.355 285.83 104.935C286.111 104.514 286.262 104.02 286.262 103.514C286.262 102.837 285.993 102.187 285.513 101.707C285.034 101.228 284.384 100.958 283.706 100.958ZM283.706 90.7348C283.201 90.7348 282.706 90.8845 282.286 91.1654C281.866 91.4462 281.538 91.8459 281.345 92.3129C281.151 92.78 281.101 93.2935 281.2 93.7893C281.299 94.2851 281.542 94.7404 281.899 95.0978C282.256 95.4553 282.711 95.6987 283.207 95.7973C283.703 95.896 284.217 95.8454 284.685 95.652C285.152 95.4585 285.549 95.1313 285.83 94.711C286.111 94.2906 286.262 93.7962 286.262 93.2907C286.262 92.6129 285.993 91.963 285.513 91.4836C285.034 91.0043 284.384 90.7348 283.706 90.7348ZM283.706 80.5112C283.201 80.5112 282.706 80.6609 282.286 80.9417C281.866 81.2226 281.538 81.6223 281.345 82.0893C281.151 82.5563 281.101 83.0699 281.2 83.5657C281.299 84.0615 281.542 84.5168 281.899 84.8742C282.256 85.2317 282.711 85.4751 283.207 85.5737C283.703 85.6723 284.217 85.6218 284.685 85.4283C285.152 85.2349 285.549 84.9076 285.83 84.4873C286.111 84.067 286.262 83.5726 286.262 83.0671C286.262 82.3892 285.993 81.7393 285.513 81.26C285.034 80.7807 284.384 80.5112 283.706 80.5112ZM283.706 70.2875C283.201 70.2875 282.706 70.4373 282.286 70.7181C281.866 70.9989 281.538 71.3986 281.345 71.8656C281.151 72.3327 281.101 72.8462 281.2 73.342C281.299 73.8378 281.542 74.2931 281.899 74.6506C282.256 75.008 282.711 75.2514 283.207 75.3501C283.703 75.4487 284.217 75.3981 284.685 75.2047C285.152 75.0112 285.549 74.684 285.83 74.2637C286.111 73.8434 286.262 73.349 286.262 72.8435C286.262 72.1656 285.993 71.5157 285.513 71.0363C285.034 70.557 284.384 70.2875 283.706 70.2875ZM283.706 60.0639C283.201 60.0639 282.706 60.2136 282.286 60.4945C281.866 60.7753 281.538 61.175 281.345 61.642C281.151 62.109 281.101 62.6226 281.2 63.1184C281.299 63.6142 281.542 64.0695 281.899 64.4269C282.256 64.7844 282.711 65.0278 283.207 65.1264C283.703 65.225 284.217 65.1745 284.685 64.981C285.152 64.7876 285.549 64.4604 285.83 64.04C286.111 63.6197 286.262 63.1253 286.262 62.6198C286.262 61.9419 285.993 61.292 285.513 60.8127C285.034 60.3334 284.384 60.0639 283.706 60.0639ZM283.706 49.8403C283.201 49.8403 282.706 49.99 282.286 50.2708C281.866 50.5517 281.538 50.9513 281.345 51.4184C281.151 51.8854 281.101 52.3989 281.2 52.8947C281.299 53.3905 281.542 53.8458 281.899 54.2033C282.256 54.5607 282.711 54.8042 283.207 54.9028C283.703 55.0014 284.217 54.9508 284.685 54.7574C285.152 54.5639 285.549 54.2367 285.83 53.8164C286.111 53.3961 286.262 52.9017 286.262 52.3962C286.262 51.7183 285.993 51.0684 285.513 50.5891C285.034 50.1097 284.384 49.8403 283.706 49.8403ZM283.706 39.6166C283.201 39.6166 282.706 39.7663 282.286 40.0472C281.866 40.328 281.538 40.7277 281.345 41.1947C281.151 41.6617 281.101 42.1753 281.2 42.6711C281.299 43.1669 281.542 43.6222 281.899 43.9796C282.256 44.3371 282.711 44.5805 283.207 44.6791C283.703 44.7778 284.217 44.7272 284.685 44.5337C285.152 44.3403 285.549 44.0131 285.83 43.5928C286.111 43.1724 286.262 42.678 286.262 42.1725C286.262 41.4947 285.993 40.8447 285.513 40.3654C285.034 39.8861 284.384 39.6166 283.706 39.6166ZM283.706 29.393C283.201 29.393 282.706 29.5427 282.286 29.8235C281.866 30.1044 281.538 30.504 281.345 30.9711C281.151 31.4381 281.101 31.9517 281.2 32.4475C281.299 32.9433 281.542 33.3985 281.899 33.756C282.256 34.1134 282.711 34.3569 283.207 34.4555C283.703 34.5541 284.217 34.5036 284.685 34.3101C285.152 34.1167 285.549 33.7894 285.83 33.3691C286.111 32.9488 286.262 32.4544 286.262 31.9489C286.262 31.271 285.993 30.6211 285.513 30.1418C285.034 29.6624 284.384 29.393 283.706 29.393ZM283.706 19.1693C283.201 19.1693 282.706 19.319 282.286 19.5999C281.866 19.8807 281.538 20.2804 281.345 20.7474C281.151 21.2145 281.101 21.728 281.2 22.2238C281.299 22.7196 281.542 23.1749 281.899 23.5323C282.256 23.8898 282.711 24.1332 283.207 24.2319C283.703 24.3305 284.217 24.2799 284.685 24.0865C285.152 23.893 285.549 23.5658 285.83 23.1455C286.111 22.7252 286.262 22.2308 286.262 21.7252C286.262 21.0474 285.993 20.3975 285.513 19.9181C285.034 19.4388 284.384 19.1693 283.706 19.1693ZM283.706 8.94569C283.201 8.94569 282.706 9.0954 282.286 9.37625C281.866 9.65709 281.538 10.0568 281.345 10.5238C281.151 10.9908 281.101 11.5044 281.2 12.0002C281.299 12.496 281.542 12.9513 281.899 13.3087C282.256 13.6662 282.711 13.9096 283.207 14.0082C283.703 14.1068 284.217 14.0563 284.685 13.8628C285.152 13.6694 285.549 13.3421 285.83 12.9218C286.111 12.5015 286.262 12.0071 286.262 11.5016C286.262 10.8237 285.993 10.1738 285.513 9.69449C285.034 9.21516 284.384 8.94569 283.706 8.94569Z" fill="url(#paint0_linear_359_55539)"/>
<path d="M149.1 106.306C148.436 106.306 147.866 106.156 147.391 105.856C146.915 105.557 146.549 105.134 146.292 104.587C146.035 104.037 145.906 103.387 145.906 102.639V102.629C145.906 101.877 146.035 101.228 146.292 100.681C146.552 100.134 146.92 99.7122 147.396 99.416C147.874 99.1165 148.442 98.9668 149.1 98.9668C149.757 98.9668 150.324 99.1165 150.799 99.416C151.277 99.7122 151.645 100.135 151.902 100.686C152.16 101.232 152.288 101.88 152.288 102.629V102.639C152.288 103.387 152.16 104.035 151.902 104.582C151.645 105.129 151.277 105.554 150.799 105.856C150.324 106.156 149.757 106.306 149.1 106.306ZM149.1 105.69C149.614 105.69 150.058 105.565 150.433 105.314C150.807 105.061 151.097 104.706 151.302 104.25C151.507 103.791 151.609 103.254 151.609 102.639V102.629C151.609 102.007 151.507 101.468 151.302 101.013C151.097 100.557 150.807 100.205 150.433 99.958C150.058 99.7074 149.614 99.582 149.1 99.582C148.585 99.582 148.139 99.7074 147.762 99.958C147.387 100.205 147.098 100.557 146.893 101.013C146.688 101.468 146.585 102.007 146.585 102.629V102.639C146.585 103.254 146.686 103.791 146.888 104.25C147.09 104.706 147.378 105.061 147.752 105.314C148.13 105.565 148.579 105.69 149.1 105.69ZM153.816 106.159V99.1133H156.336C156.795 99.1133 157.192 99.1979 157.527 99.3672C157.866 99.5365 158.128 99.7741 158.313 100.08C158.499 100.386 158.592 100.749 158.592 101.169V101.179C158.592 101.674 158.457 102.098 158.187 102.453C157.92 102.805 157.55 103.042 157.078 103.166L158.787 106.159H158.011L156.39 103.269C156.37 103.272 156.347 103.273 156.321 103.273C156.299 103.273 156.274 103.273 156.248 103.273H154.48V106.159H153.816ZM154.48 102.683H156.282C156.797 102.683 157.195 102.552 157.479 102.292C157.765 102.032 157.908 101.667 157.908 101.198V101.188C157.908 100.726 157.762 100.365 157.469 100.104C157.176 99.8408 156.772 99.709 156.258 99.709H154.48V102.683ZM162.913 106.159V99.1133H163.675L166.272 105.285H166.336L168.934 99.1133H169.695V106.159H169.075V100.407H168.738L169.51 99.2646L166.595 106.159H166.014L163.104 99.2646L163.87 100.407H163.533V106.159H162.913ZM170.97 106.159L173.606 99.1133H174.119V99.9873H173.904L171.668 106.159H170.97ZM172.107 103.996L172.312 103.425H175.564L175.77 103.996H172.107ZM176.199 106.159L173.963 99.9873V99.1133H174.266L176.902 106.159H176.199ZM177.728 106.159L180.345 102.39L180.179 102.922V102.609L177.747 99.1133H178.548L180.608 102.111H180.926L180.472 102.355L182.708 99.1133H183.47L180.994 102.639V102.946L180.828 102.419L183.431 106.159H182.635L180.584 103.176H180.267L180.721 102.937L178.484 106.159H177.728ZM184.842 106.159V99.1133H185.506V106.159H184.842ZM187.317 106.159V99.1133H188.079L190.677 105.285H190.74L193.338 99.1133H194.1V106.159H193.479V100.407H193.143L193.914 99.2646L190.999 106.159H190.418L187.508 99.2646L188.274 100.407H187.938V106.159H187.317ZM198.636 106.306C198.073 106.306 197.588 106.198 197.181 105.983C196.774 105.765 196.46 105.464 196.238 105.08C196.02 104.693 195.911 104.243 195.911 103.732V99.1133H196.575V103.693C196.575 104.09 196.657 104.439 196.819 104.738C196.985 105.038 197.221 105.272 197.527 105.441C197.837 105.607 198.206 105.69 198.636 105.69C199.069 105.69 199.438 105.607 199.744 105.441C200.053 105.272 200.289 105.038 200.452 104.738C200.615 104.439 200.696 104.09 200.696 103.693V99.1133H201.36V103.732C201.36 104.243 201.251 104.693 201.033 105.08C200.815 105.467 200.503 105.769 200.096 105.983C199.689 106.198 199.202 106.306 198.636 106.306ZM203.167 106.159V99.1133H203.929L206.526 105.285H206.59L209.188 99.1133H209.949V106.159H209.329V100.407H208.992L209.764 99.2646L206.849 106.159H206.268L203.357 99.2646L204.124 100.407H203.787V106.159H203.167ZM216.702 106.057C216.259 106.057 215.853 105.98 215.481 105.827C215.114 105.671 214.817 105.45 214.593 105.163C214.368 104.877 214.248 104.535 214.231 104.138V104.133L214.876 104.128V104.138C214.902 104.395 214.988 104.626 215.135 104.831C215.281 105.033 215.485 105.191 215.745 105.305C216.009 105.419 216.331 105.476 216.712 105.476C217.103 105.476 217.426 105.422 217.684 105.314C217.941 105.207 218.133 105.059 218.26 104.87C218.39 104.681 218.455 104.47 218.455 104.235V104.226C218.455 103.913 218.351 103.658 218.143 103.459C217.938 103.257 217.57 103.093 217.039 102.966L216.302 102.79C215.892 102.692 215.545 102.565 215.262 102.409C214.982 102.253 214.77 102.061 214.627 101.833C214.484 101.605 214.412 101.338 214.412 101.032V101.022C214.412 100.658 214.513 100.34 214.715 100.07C214.92 99.8001 215.193 99.5902 215.535 99.4404C215.88 99.2907 216.268 99.2158 216.697 99.2158C217.12 99.2158 217.503 99.2923 217.845 99.4453C218.19 99.5983 218.466 99.8115 218.675 100.085C218.883 100.358 218.994 100.677 219.007 101.042V101.047L218.367 101.052V101.042C218.348 100.782 218.263 100.559 218.113 100.373C217.964 100.188 217.767 100.046 217.522 99.9482C217.278 99.8473 217.003 99.7969 216.697 99.7969C216.362 99.7969 216.071 99.8506 215.823 99.958C215.579 100.065 215.39 100.209 215.257 100.388C215.123 100.567 215.057 100.765 215.057 100.983V100.993C215.057 101.179 215.102 101.348 215.193 101.501C215.288 101.651 215.433 101.784 215.628 101.901C215.826 102.015 216.085 102.11 216.404 102.185L217.142 102.36C217.78 102.51 218.265 102.727 218.597 103.01C218.932 103.293 219.1 103.682 219.1 104.177V104.187C219.1 104.584 218.991 104.922 218.772 105.202C218.558 105.479 218.27 105.69 217.908 105.837C217.547 105.983 217.145 106.057 216.702 106.057ZM216.453 106.921V98.3906H216.917V106.921H216.453ZM222.903 106.271C222.428 106.271 222.015 106.19 221.663 106.027C221.315 105.861 221.038 105.637 220.833 105.354C220.628 105.07 220.506 104.748 220.467 104.387L220.462 104.338H221.102L221.106 104.377C221.139 104.631 221.232 104.857 221.385 105.056C221.538 105.251 221.743 105.406 222 105.52C222.257 105.633 222.558 105.69 222.903 105.69C223.242 105.69 223.541 105.629 223.802 105.505C224.062 105.381 224.266 105.212 224.412 104.997C224.562 104.779 224.637 104.532 224.637 104.255V104.245C224.637 103.783 224.474 103.426 224.148 103.176C223.826 102.922 223.383 102.795 222.82 102.795H221.976V102.229H222.791C223.107 102.229 223.383 102.172 223.621 102.058C223.862 101.94 224.049 101.781 224.183 101.579C224.319 101.377 224.388 101.146 224.388 100.886V100.876C224.388 100.612 224.326 100.384 224.202 100.192C224.078 100 223.903 99.8506 223.675 99.7432C223.45 99.6357 223.183 99.582 222.874 99.582C222.571 99.582 222.303 99.6357 222.068 99.7432C221.834 99.8506 221.647 99.9987 221.507 100.188C221.367 100.376 221.284 100.596 221.258 100.847L221.253 100.896H220.613L220.618 100.847C220.654 100.482 220.77 100.163 220.965 99.8896C221.16 99.613 221.421 99.3965 221.746 99.2402C222.072 99.0807 222.448 99.001 222.874 99.001C223.307 99.001 223.686 99.0791 224.012 99.2354C224.34 99.3883 224.596 99.5999 224.778 99.8701C224.964 100.14 225.057 100.451 225.057 100.803V100.812C225.057 101.102 224.993 101.361 224.866 101.589C224.743 101.813 224.567 102.002 224.339 102.155C224.114 102.305 223.852 102.411 223.553 102.473V102.492C224.08 102.531 224.505 102.705 224.827 103.015C225.149 103.324 225.311 103.729 225.311 104.23V104.24C225.311 104.628 225.206 104.976 224.998 105.285C224.79 105.591 224.503 105.832 224.139 106.008C223.777 106.184 223.366 106.271 222.903 106.271ZM226.199 107.863L226.644 105.271H227.391L226.688 107.863H226.199ZM231.165 106.306C230.647 106.306 230.205 106.158 229.837 105.861C229.469 105.562 229.186 105.139 228.987 104.592C228.789 104.042 228.689 103.392 228.689 102.644V102.629C228.689 101.877 228.789 101.228 228.987 100.681C229.186 100.134 229.469 99.7122 229.837 99.416C230.205 99.1165 230.647 98.9668 231.165 98.9668C231.683 98.9668 232.125 99.1165 232.493 99.416C232.864 99.7122 233.149 100.135 233.348 100.686C233.549 101.232 233.65 101.88 233.65 102.629V102.644C233.65 103.396 233.549 104.045 233.348 104.592C233.149 105.139 232.864 105.562 232.493 105.861C232.125 106.158 231.683 106.306 231.165 106.306ZM231.165 105.72C231.546 105.72 231.871 105.594 232.142 105.344C232.412 105.093 232.618 104.738 232.762 104.279C232.908 103.817 232.981 103.272 232.981 102.644V102.629C232.981 101.997 232.908 101.452 232.762 100.993C232.618 100.534 232.412 100.181 232.142 99.9336C231.871 99.6829 231.546 99.5576 231.165 99.5576C230.787 99.5576 230.464 99.6829 230.193 99.9336C229.923 100.181 229.716 100.536 229.573 100.998C229.43 101.457 229.358 102.001 229.358 102.629V102.644C229.358 103.272 229.43 103.817 229.573 104.279C229.716 104.738 229.923 105.093 230.193 105.344C230.464 105.594 230.787 105.72 231.165 105.72ZM237.425 106.306C236.907 106.306 236.465 106.158 236.097 105.861C235.729 105.562 235.446 105.139 235.247 104.592C235.049 104.042 234.949 103.392 234.949 102.644V102.629C234.949 101.877 235.049 101.228 235.247 100.681C235.446 100.134 235.729 99.7122 236.097 99.416C236.465 99.1165 236.907 98.9668 237.425 98.9668C237.942 98.9668 238.385 99.1165 238.753 99.416C239.124 99.7122 239.409 100.135 239.607 100.686C239.809 101.232 239.91 101.88 239.91 102.629V102.644C239.91 103.396 239.809 104.045 239.607 104.592C239.409 105.139 239.124 105.562 238.753 105.861C238.385 106.158 237.942 106.306 237.425 106.306ZM237.425 105.72C237.806 105.72 238.131 105.594 238.401 105.344C238.672 105.093 238.878 104.738 239.021 104.279C239.168 103.817 239.241 103.272 239.241 102.644V102.629C239.241 101.997 239.168 101.452 239.021 100.993C238.878 100.534 238.672 100.181 238.401 99.9336C238.131 99.6829 237.806 99.5576 237.425 99.5576C237.047 99.5576 236.723 99.6829 236.453 99.9336C236.183 100.181 235.976 100.536 235.833 100.998C235.69 101.457 235.618 102.001 235.618 102.629V102.644C235.618 103.272 235.69 103.817 235.833 104.279C235.976 104.738 236.183 105.093 236.453 105.344C236.723 105.594 237.047 105.72 237.425 105.72ZM243.685 106.306C243.167 106.306 242.724 106.158 242.356 105.861C241.989 105.562 241.705 105.139 241.507 104.592C241.308 104.042 241.209 103.392 241.209 102.644V102.629C241.209 101.877 241.308 101.228 241.507 100.681C241.705 100.134 241.989 99.7122 242.356 99.416C242.724 99.1165 243.167 98.9668 243.685 98.9668C244.202 98.9668 244.645 99.1165 245.013 99.416C245.384 99.7122 245.669 100.135 245.867 100.686C246.069 101.232 246.17 101.88 246.17 102.629V102.644C246.17 103.396 246.069 104.045 245.867 104.592C245.669 105.139 245.384 105.562 245.013 105.861C244.645 106.158 244.202 106.306 243.685 106.306ZM243.685 105.72C244.065 105.72 244.391 105.594 244.661 105.344C244.931 105.093 245.138 104.738 245.281 104.279C245.428 103.817 245.501 103.272 245.501 102.644V102.629C245.501 101.997 245.428 101.452 245.281 100.993C245.138 100.534 244.931 100.181 244.661 99.9336C244.391 99.6829 244.065 99.5576 243.685 99.5576C243.307 99.5576 242.983 99.6829 242.713 99.9336C242.443 100.181 242.236 100.536 242.093 100.998C241.95 101.457 241.878 102.001 241.878 102.629V102.644C241.878 103.272 241.95 103.817 242.093 104.279C242.236 104.738 242.443 105.093 242.713 105.344C242.983 105.594 243.307 105.72 243.685 105.72ZM247.796 106.198C247.656 106.198 247.535 106.148 247.435 106.047C247.334 105.946 247.283 105.826 247.283 105.686C247.283 105.542 247.334 105.422 247.435 105.324C247.535 105.223 247.656 105.173 247.796 105.173C247.942 105.173 248.064 105.223 248.162 105.324C248.263 105.422 248.313 105.542 248.313 105.686C248.313 105.826 248.263 105.946 248.162 106.047C248.064 106.148 247.942 106.198 247.796 106.198ZM251.956 106.306C251.438 106.306 250.996 106.158 250.628 105.861C250.26 105.562 249.977 105.139 249.778 104.592C249.58 104.042 249.48 103.392 249.48 102.644V102.629C249.48 101.877 249.58 101.228 249.778 100.681C249.977 100.134 250.26 99.7122 250.628 99.416C250.996 99.1165 251.438 98.9668 251.956 98.9668C252.474 98.9668 252.916 99.1165 253.284 99.416C253.655 99.7122 253.94 100.135 254.139 100.686C254.34 101.232 254.441 101.88 254.441 102.629V102.644C254.441 103.396 254.34 104.045 254.139 104.592C253.94 105.139 253.655 105.562 253.284 105.861C252.916 106.158 252.474 106.306 251.956 106.306ZM251.956 105.72C252.337 105.72 252.662 105.594 252.933 105.344C253.203 105.093 253.41 104.738 253.553 104.279C253.699 103.817 253.772 103.272 253.772 102.644V102.629C253.772 101.997 253.699 101.452 253.553 100.993C253.41 100.534 253.203 100.181 252.933 99.9336C252.662 99.6829 252.337 99.5576 251.956 99.5576C251.578 99.5576 251.255 99.6829 250.984 99.9336C250.714 100.181 250.507 100.536 250.364 100.998C250.221 101.457 250.149 102.001 250.149 102.629V102.644C250.149 103.272 250.221 103.817 250.364 104.279C250.507 104.738 250.714 105.093 250.984 105.344C251.255 105.594 251.578 105.72 251.956 105.72ZM258.216 106.306C257.698 106.306 257.256 106.158 256.888 105.861C256.52 105.562 256.237 105.139 256.038 104.592C255.84 104.042 255.74 103.392 255.74 102.644V102.629C255.74 101.877 255.84 101.228 256.038 100.681C256.237 100.134 256.52 99.7122 256.888 99.416C257.256 99.1165 257.698 98.9668 258.216 98.9668C258.733 98.9668 259.176 99.1165 259.544 99.416C259.915 99.7122 260.2 100.135 260.398 100.686C260.6 101.232 260.701 101.88 260.701 102.629V102.644C260.701 103.396 260.6 104.045 260.398 104.592C260.2 105.139 259.915 105.562 259.544 105.861C259.176 106.158 258.733 106.306 258.216 106.306ZM258.216 105.72C258.597 105.72 258.922 105.594 259.192 105.344C259.463 105.093 259.669 104.738 259.812 104.279C259.959 103.817 260.032 103.272 260.032 102.644V102.629C260.032 101.997 259.959 101.452 259.812 100.993C259.669 100.534 259.463 100.181 259.192 99.9336C258.922 99.6829 258.597 99.5576 258.216 99.5576C257.838 99.5576 257.514 99.6829 257.244 99.9336C256.974 100.181 256.767 100.536 256.624 100.998C256.481 101.457 256.409 102.001 256.409 102.629V102.644C256.409 103.272 256.481 103.817 256.624 104.279C256.767 104.738 256.974 105.093 257.244 105.344C257.514 105.594 257.838 105.72 258.216 105.72Z" fill="white"/>
<path d="M218.239 81.6426C217.028 81.6426 215.973 81.4395 215.075 81.0332C214.176 80.627 213.465 80.0684 212.942 79.3574C212.418 78.6387 212.117 77.8184 212.039 76.8965L212.028 76.7559H214.547L214.571 76.873C214.625 77.373 214.809 77.8184 215.121 78.209C215.442 78.5918 215.864 78.8926 216.387 79.1113C216.918 79.3301 217.535 79.4395 218.239 79.4395C218.926 79.4395 219.528 79.3223 220.043 79.0879C220.567 78.8457 220.969 78.5176 221.25 78.1035C221.539 77.6816 221.684 77.1973 221.684 76.6504V76.627C221.684 75.6738 221.36 74.9434 220.711 74.4355C220.071 73.9199 219.184 73.6621 218.051 73.6621H216V71.5996H217.981C218.621 71.5996 219.184 71.4863 219.668 71.2598C220.16 71.0254 220.539 70.7051 220.805 70.2988C221.078 69.8926 221.215 69.4277 221.215 68.9043V68.8809C221.215 68.334 221.098 67.8691 220.864 67.4863C220.629 67.1035 220.285 66.8105 219.832 66.6074C219.387 66.4043 218.848 66.3027 218.215 66.3027C217.59 66.3027 217.035 66.4082 216.551 66.6191C216.067 66.8223 215.68 67.1152 215.391 67.498C215.102 67.8809 214.926 68.334 214.864 68.8574L214.852 68.9746H212.379L212.391 68.8457C212.485 67.9004 212.782 67.0762 213.282 66.373C213.782 65.6699 214.453 65.123 215.297 64.7324C216.141 64.3418 217.114 64.1465 218.215 64.1465C219.34 64.1465 220.321 64.334 221.157 64.709C221.992 65.0762 222.641 65.5918 223.102 66.2559C223.563 66.9121 223.793 67.6738 223.793 68.541V68.5645C223.793 69.2676 223.637 69.8887 223.325 70.4277C223.02 70.959 222.598 71.4043 222.059 71.7637C221.52 72.1152 220.907 72.3613 220.219 72.502V72.5605C221.461 72.6621 222.461 73.0723 223.219 73.791C223.985 74.5098 224.367 75.4629 224.367 76.6504V76.6738C224.367 77.6348 224.106 78.4902 223.582 79.2402C223.059 79.9902 222.336 80.5801 221.414 81.0098C220.5 81.4316 219.442 81.6426 218.239 81.6426ZM233.133 81.6543C231.789 81.6543 230.637 81.2988 229.676 80.5879C228.723 79.877 227.989 78.8691 227.473 77.5645C226.965 76.252 226.711 74.6973 226.711 72.9004V72.877C226.711 71.0801 226.965 69.5293 227.473 68.2246C227.989 66.9121 228.723 65.9043 229.676 65.2012C230.637 64.4902 231.789 64.1348 233.133 64.1348C234.469 64.1348 235.617 64.4902 236.578 65.2012C237.539 65.9043 238.274 66.9121 238.782 68.2246C239.297 69.5293 239.555 71.0801 239.555 72.877V72.9004C239.555 74.6973 239.297 76.252 238.782 77.5645C238.274 78.8691 237.539 79.877 236.578 80.5879C235.617 81.2988 234.469 81.6543 233.133 81.6543ZM233.133 79.4629C233.922 79.4629 234.598 79.1973 235.16 78.666C235.723 78.1348 236.153 77.3809 236.45 76.4043C236.754 75.4199 236.907 74.252 236.907 72.9004V72.877C236.907 71.5254 236.754 70.3613 236.45 69.3848C236.153 68.4082 235.723 67.6582 235.16 67.1348C234.598 66.6035 233.922 66.3379 233.133 66.3379C232.336 66.3379 231.657 66.6035 231.094 67.1348C230.532 67.6582 230.102 68.4082 229.805 69.3848C229.516 70.3613 229.371 71.5254 229.371 72.877V72.9004C229.371 74.252 229.516 75.4199 229.805 76.4043C230.102 77.3809 230.532 78.1348 231.094 78.666C231.657 79.1973 232.336 79.4629 233.133 79.4629ZM245.426 73.0176C244.676 73.0176 244.032 72.8418 243.492 72.4902C242.953 72.1309 242.535 71.623 242.239 70.9668C241.95 70.3105 241.805 69.5371 241.805 68.6465V68.6348C241.805 67.7441 241.95 66.9746 242.239 66.3262C242.535 65.6699 242.953 65.166 243.492 64.8145C244.032 64.4551 244.676 64.2754 245.426 64.2754C246.176 64.2754 246.821 64.4551 247.36 64.8145C247.899 65.166 248.313 65.6699 248.602 66.3262C248.891 66.9746 249.035 67.7441 249.035 68.6348V68.6465C249.035 69.5371 248.891 70.3105 248.602 70.9668C248.313 71.623 247.899 72.1309 247.36 72.4902C246.821 72.8418 246.176 73.0176 245.426 73.0176ZM245.426 71.4238C245.965 71.4238 246.379 71.1816 246.668 70.6973C246.965 70.2129 247.114 69.5293 247.114 68.6465V68.6348C247.114 67.7598 246.965 67.084 246.668 66.6074C246.379 66.123 245.965 65.8809 245.426 65.8809C244.887 65.8809 244.469 66.123 244.172 66.6074C243.883 67.084 243.739 67.7598 243.739 68.6348V68.6465C243.739 69.5293 243.883 70.2129 244.172 70.6973C244.469 71.1816 244.887 71.4238 245.426 71.4238ZM246.657 81.3496H244.477L255.399 64.4395H257.555L246.657 81.3496ZM256.606 81.5137C255.864 81.5137 255.219 81.3379 254.672 80.9863C254.133 80.627 253.719 80.1191 253.43 79.4629C253.141 78.8066 252.996 78.0332 252.996 77.1426V77.1309C252.996 76.2324 253.141 75.459 253.43 74.8105C253.719 74.1621 254.133 73.6621 254.672 73.3105C255.219 72.9512 255.864 72.7715 256.606 72.7715C257.364 72.7715 258.012 72.9512 258.551 73.3105C259.09 73.6621 259.504 74.1621 259.793 74.8105C260.082 75.459 260.227 76.2324 260.227 77.1309V77.1426C260.227 78.0332 260.082 78.8066 259.793 79.4629C259.504 80.1191 259.09 80.627 258.551 80.9863C258.012 81.3379 257.364 81.5137 256.606 81.5137ZM256.606 79.9082C257.145 79.9082 257.559 79.666 257.848 79.1816C258.145 78.6973 258.293 78.0176 258.293 77.1426V77.1309C258.293 76.2559 258.145 75.5801 257.848 75.1035C257.559 74.6191 257.145 74.377 256.606 74.377C256.075 74.377 255.66 74.6191 255.364 75.1035C255.075 75.5801 254.93 76.2559 254.93 77.1309V77.1426C254.93 78.0176 255.075 78.6973 255.364 79.1816C255.66 79.666 256.075 79.9082 256.606 79.9082Z" fill="white"/>
<path d="M211.415 52.1719V45.126H212.68L214.921 50.7412H215.004L217.245 45.126H218.51V52.1719H217.509V47.0059H216.967L218.11 45.3213L215.366 52.1719H214.555L211.816 45.3213L212.953 47.0059H212.416V52.1719H211.415ZM219.731 52.1719L222.275 45.126H223.158V46.3613H222.826L220.883 52.1719H219.731ZM220.956 50.2676L221.264 49.3887H224.472L224.78 50.2676H220.956ZM224.848 52.1719L222.909 46.3613V45.126H223.461L226 52.1719H224.848ZM226.772 52.1719L229.374 48.2363L229.116 49.1055V48.6123L226.796 45.126H228.105L229.848 47.8555H230.351L229.633 48.2607L231.635 45.126H232.875L230.488 48.6465V49.1445L230.224 48.2754L232.831 52.1719H231.547L229.794 49.4863H229.286L230.014 49.0859L227.988 52.1719H226.772ZM234.199 52.1719V45.126H235.292V52.1719H234.199ZM237.06 52.1719V45.126H238.325L240.566 50.7412H240.649L242.89 45.126H244.155V52.1719H243.154V47.0059H242.612L243.754 45.3213L241.01 52.1719H240.2L237.46 45.3213L238.598 47.0059H238.061V52.1719H237.06ZM248.764 52.3428C248.175 52.3428 247.667 52.2337 247.241 52.0156C246.814 51.7975 246.485 51.4948 246.254 51.1074C246.023 50.7168 245.908 50.2627 245.908 49.7451V45.126H247.006V49.6621C247.006 50.0007 247.075 50.2985 247.211 50.5557C247.351 50.8128 247.551 51.013 247.812 51.1562C248.075 51.2995 248.393 51.3711 248.764 51.3711C249.138 51.3711 249.456 51.2995 249.716 51.1562C249.977 51.013 250.175 50.8128 250.312 50.5557C250.449 50.2985 250.517 50.0007 250.517 49.6621V45.126H251.616V49.7451C251.616 50.2627 251.5 50.7168 251.269 51.1074C251.041 51.4948 250.714 51.7975 250.287 52.0156C249.864 52.2337 249.356 52.3428 248.764 52.3428ZM253.378 52.1719V45.126H254.643L256.884 50.7412H256.967L259.208 45.126H260.473V52.1719H259.472V47.0059H258.93L260.073 45.3213L257.328 52.1719H256.518L253.779 45.3213L254.916 47.0059H254.379V52.1719H253.378Z" fill="white"/>
<path d="M30.1992 32.0859V24.7676H27.5391V23.6309H34.1719V24.7676H31.5117V32.0859H30.1992ZM35.7773 32.0859V23.6309H39.1113C39.6895 23.6309 40.1895 23.7383 40.6113 23.9531C41.0332 24.1641 41.3574 24.4629 41.584 24.8496C41.8145 25.2324 41.9297 25.6855 41.9297 26.209V26.2207C41.9297 26.791 41.7852 27.293 41.4961 27.7266C41.207 28.1562 40.8047 28.459 40.2891 28.6348L42.1816 32.0859H40.6641L38.9414 28.834C38.9297 28.834 38.918 28.834 38.9062 28.834C38.8945 28.834 38.8828 28.834 38.8711 28.834H37.0898V32.0859H35.7773ZM37.0898 27.7676H38.9824C39.4863 27.7676 39.877 27.6367 40.1543 27.375C40.4316 27.1094 40.5703 26.7363 40.5703 26.2559V26.2441C40.5703 25.7754 40.4258 25.4062 40.1367 25.1367C39.8516 24.8672 39.4531 24.7324 38.9414 24.7324H37.0898V27.7676ZM43.1543 32.0859L46.207 23.6309H47.2676V25.1133H46.8691L44.5371 32.0859H43.1543ZM44.625 29.8008L44.9941 28.7461H48.8438L49.2129 29.8008H44.625ZM49.2949 32.0859L46.9688 25.1133V23.6309H47.6309L50.6777 32.0859H49.2949ZM52.1484 32.0859V23.6309H55.2012C56.041 23.6309 56.7578 23.7969 57.3516 24.1289C57.9453 24.4609 58.3984 24.9395 58.7109 25.5645C59.0273 26.1895 59.1855 26.9453 59.1855 27.832V27.8438C59.1855 28.7383 59.0273 29.502 58.7109 30.1348C58.3984 30.7676 57.9453 31.252 57.3516 31.5879C56.7617 31.9199 56.0449 32.0859 55.2012 32.0859H52.1484ZM53.4609 30.9492H55.0547C55.6445 30.9492 56.1465 30.8281 56.5605 30.5859C56.9785 30.3438 57.2949 29.9922 57.5098 29.5312C57.7285 29.0703 57.8379 28.5137 57.8379 27.8613V27.8496C57.8379 27.2012 57.7266 26.6465 57.5039 26.1855C57.2852 25.7246 56.9688 25.373 56.5547 25.1309C56.1406 24.8887 55.6406 24.7676 55.0547 24.7676H53.4609V30.9492ZM60.9609 32.0859V23.6309H62.2734V32.0859H60.9609ZM64.3945 32.0859V23.6309H65.584L70.248 30.2344L69.3516 29.7715H70.0137V23.6309H71.2969V32.0859H70.1074L65.4375 25.4883L66.3398 25.9512H65.6719V32.0859H64.3945ZM76.9863 32.291C76.3809 32.291 75.8379 32.1895 75.3574 31.9863C74.877 31.7793 74.4668 31.4824 74.127 31.0957C73.7871 30.709 73.5254 30.2441 73.3418 29.7012C73.1621 29.1543 73.0723 28.541 73.0723 27.8613V27.8496C73.0723 26.9512 73.2324 26.1719 73.5527 25.5117C73.873 24.8477 74.3262 24.334 74.9121 23.9707C75.498 23.6074 76.1836 23.4258 76.9688 23.4258C77.6094 23.4258 78.1816 23.5391 78.6855 23.7656C79.1895 23.9922 79.6035 24.3105 79.9277 24.7207C80.252 25.127 80.4648 25.6035 80.5664 26.1504L80.5723 26.209H79.2539L79.2363 26.1504C79.0879 25.6504 78.8164 25.2656 78.4219 24.9961C78.0312 24.7266 77.5469 24.5918 76.9688 24.5918C76.4492 24.5918 75.998 24.7246 75.6152 24.9902C75.2324 25.2559 74.9355 25.6328 74.7246 26.1211C74.5176 26.6055 74.4141 27.1797 74.4141 27.8438V27.8555C74.4141 28.3594 74.4727 28.8125 74.5898 29.2148C74.7109 29.6172 74.8848 29.9609 75.1113 30.2461C75.3379 30.5273 75.6094 30.7441 75.9258 30.8965C76.2422 31.0488 76.5996 31.125 76.998 31.125C77.459 31.125 77.8633 31.0352 78.2109 30.8555C78.5625 30.6719 78.8359 30.418 79.0312 30.0938C79.2266 29.7695 79.3262 29.3906 79.3301 28.957L79.3359 28.7695H77.1621V27.709H80.6367V28.7578C80.6367 29.293 80.5508 29.7773 80.3789 30.2109C80.207 30.6445 79.9609 31.0176 79.6406 31.3301C79.3203 31.6387 78.9355 31.877 78.4863 32.0449C78.0371 32.209 77.5371 32.291 76.9863 32.291ZM85.7109 32.0859V23.6309H87.0234V32.0859H85.7109ZM89.1445 32.0859V23.6309H90.334L94.998 30.2344L94.1016 29.7715H94.7637V23.6309H96.0469V32.0859H94.8574L90.1875 25.4883L91.0898 25.9512H90.4219V32.0859H89.1445ZM101.027 32.291C100.391 32.291 99.8359 32.1914 99.3633 31.9922C98.8906 31.7891 98.5176 31.5078 98.2441 31.1484C97.9707 30.7891 97.8145 30.373 97.7754 29.9004L97.7695 29.8242H99.0645L99.0703 29.8887C99.0977 30.1426 99.1973 30.3633 99.3691 30.5508C99.5449 30.7383 99.7793 30.8848 100.072 30.9902C100.369 31.0957 100.707 31.1484 101.086 31.1484C101.441 31.1484 101.758 31.0918 102.035 30.9785C102.312 30.8652 102.529 30.709 102.686 30.5098C102.846 30.3105 102.926 30.082 102.926 29.8242V29.8184C102.926 29.4941 102.803 29.2246 102.557 29.0098C102.311 28.7949 101.908 28.627 101.35 28.5059L100.424 28.3125C99.5684 28.1289 98.9453 27.8379 98.5547 27.4395C98.1641 27.0371 97.9688 26.5234 97.9688 25.8984V25.8926C97.9727 25.4043 98.1035 24.9746 98.3613 24.6035C98.623 24.2324 98.9844 23.9434 99.4453 23.7363C99.9062 23.5293 100.436 23.4258 101.033 23.4258C101.631 23.4258 102.152 23.5293 102.598 23.7363C103.047 23.9395 103.4 24.2168 103.658 24.5684C103.92 24.9199 104.066 25.3164 104.098 25.7578L104.104 25.834H102.82L102.809 25.7578C102.773 25.5273 102.678 25.3223 102.521 25.1426C102.369 24.9629 102.164 24.8223 101.906 24.7207C101.652 24.6152 101.355 24.5645 101.016 24.5684C100.688 24.5684 100.395 24.6191 100.137 24.7207C99.8789 24.8184 99.6738 24.9609 99.5215 25.1484C99.373 25.3359 99.2988 25.5625 99.2988 25.8281V25.834C99.2988 26.1465 99.418 26.4082 99.6562 26.6191C99.8984 26.8262 100.291 26.9883 100.834 27.1055L101.76 27.3105C102.35 27.4355 102.828 27.6016 103.195 27.8086C103.562 28.0156 103.83 28.2715 103.998 28.5762C104.17 28.877 104.256 29.2363 104.256 29.6543V29.6602C104.256 30.1992 104.123 30.666 103.857 31.0605C103.596 31.4512 103.223 31.7539 102.738 31.9688C102.254 32.1836 101.684 32.291 101.027 32.291ZM109.4 32.291C108.693 32.291 108.084 32.1602 107.572 31.8984C107.061 31.6367 106.666 31.2734 106.389 30.8086C106.111 30.3398 105.973 29.7949 105.973 29.1738V23.6309H107.291V29.0742C107.291 29.4805 107.373 29.8379 107.537 30.1465C107.705 30.4551 107.945 30.6953 108.258 30.8672C108.574 31.0391 108.955 31.125 109.4 31.125C109.85 31.125 110.23 31.0391 110.543 30.8672C110.855 30.6953 111.094 30.4551 111.258 30.1465C111.422 29.8379 111.504 29.4805 111.504 29.0742V23.6309H112.822V29.1738C112.822 29.7949 112.684 30.3398 112.406 30.8086C112.133 31.2734 111.74 31.6367 111.229 31.8984C110.721 32.1602 110.111 32.291 109.4 32.291ZM114.938 32.0859V23.6309H118.271C118.85 23.6309 119.35 23.7383 119.771 23.9531C120.193 24.1641 120.518 24.4629 120.744 24.8496C120.975 25.2324 121.09 25.6855 121.09 26.209V26.2207C121.09 26.791 120.945 27.293 120.656 27.7266C120.367 28.1562 119.965 28.459 119.449 28.6348L121.342 32.0859H119.824L118.102 28.834C118.09 28.834 118.078 28.834 118.066 28.834C118.055 28.834 118.043 28.834 118.031 28.834H116.25V32.0859H114.938ZM116.25 27.7676H118.143C118.646 27.7676 119.037 27.6367 119.314 27.375C119.592 27.1094 119.73 26.7363 119.73 26.2559V26.2441C119.73 25.7754 119.586 25.4062 119.297 25.1367C119.012 24.8672 118.613 24.7324 118.102 24.7324H116.25V27.7676ZM122.314 32.0859L125.367 23.6309H126.428V25.1133H126.029L123.697 32.0859H122.314ZM123.785 29.8008L124.154 28.7461H128.004L128.373 29.8008H123.785ZM128.455 32.0859L126.129 25.1133V23.6309H126.791L129.838 32.0859H128.455ZM131.309 32.0859V23.6309H132.498L137.162 30.2344L136.266 29.7715H136.928V23.6309H138.211V32.0859H137.021L132.352 25.4883L133.254 25.9512H132.586V32.0859H131.309ZM143.801 32.291C143.02 32.291 142.342 32.1113 141.768 31.752C141.197 31.3926 140.758 30.8828 140.449 30.2227C140.141 29.5625 139.986 28.7773 139.986 27.8672V27.8555C139.986 26.9414 140.141 26.1543 140.449 25.4941C140.758 24.834 141.197 24.3242 141.768 23.9648C142.338 23.6055 143.016 23.4258 143.801 23.4258C144.422 23.4258 144.982 23.5488 145.482 23.7949C145.986 24.0371 146.398 24.373 146.719 24.8027C147.043 25.2324 147.24 25.7266 147.311 26.2852V26.3203H146.004L145.998 26.2969C145.92 25.9492 145.777 25.6484 145.57 25.3945C145.363 25.1406 145.109 24.9434 144.809 24.8027C144.508 24.6621 144.172 24.5918 143.801 24.5918C143.297 24.5918 142.859 24.7246 142.488 24.9902C142.121 25.2559 141.836 25.6328 141.633 26.1211C141.434 26.6055 141.334 27.1836 141.334 27.8555V27.8672C141.334 28.5312 141.434 29.1074 141.633 29.5957C141.836 30.084 142.121 30.4609 142.488 30.7266C142.859 30.9922 143.299 31.125 143.807 31.125C144.178 31.125 144.514 31.0625 144.814 30.9375C145.119 30.8125 145.373 30.6348 145.576 30.4043C145.779 30.1699 145.918 29.8945 145.992 29.5781L146.004 29.5547H147.316L147.311 29.584C147.229 30.127 147.029 30.6016 146.713 31.0078C146.396 31.4141 145.99 31.7305 145.494 31.957C144.998 32.1797 144.434 32.291 143.801 32.291ZM149.039 32.0859V23.6309H154.406V24.7676H150.352V27.2344H154.189V28.3242H150.352V30.9492H154.406V32.0859H149.039Z" fill="white"/>
<path d="M324.865 81.165V74.9102H322.594V74.1191H328.014V74.9102H325.744V81.165H324.865ZM328.532 81.165V75.9014H329.381V76.6826H329.459C329.56 76.4059 329.731 76.1911 329.972 76.0381C330.213 75.8851 330.511 75.8086 330.866 75.8086C330.947 75.8086 331.027 75.8135 331.105 75.8232C331.186 75.8298 331.248 75.8363 331.291 75.8428V76.668C331.203 76.6517 331.116 76.6403 331.032 76.6338C330.95 76.624 330.862 76.6191 330.768 76.6191C330.498 76.6191 330.259 76.6729 330.05 76.7803C329.842 76.8877 329.678 77.0374 329.557 77.2295C329.44 77.4215 329.381 77.6462 329.381 77.9033V81.165H328.532ZM333.786 81.2578C333.454 81.2578 333.154 81.1943 332.887 81.0674C332.624 80.9404 332.414 80.7598 332.257 80.5254C332.104 80.291 332.028 80.0143 332.028 79.6953V79.6855C332.028 79.373 332.103 79.1061 332.252 78.8848C332.402 78.6602 332.62 78.4844 332.907 78.3574C333.193 78.2305 333.54 78.1556 333.947 78.1328L335.88 78.0156V78.6943L334.049 78.8115C333.649 78.8343 333.356 78.9173 333.17 79.0605C332.988 79.2038 332.897 79.4056 332.897 79.666V79.6758C332.897 79.9427 332.998 80.151 333.2 80.3008C333.402 80.4473 333.655 80.5205 333.961 80.5205C334.251 80.5205 334.508 80.4635 334.733 80.3496C334.958 80.2324 335.133 80.0745 335.26 79.876C335.39 79.6774 335.456 79.4528 335.456 79.2021V77.5615C335.456 77.236 335.356 76.9886 335.158 76.8193C334.962 76.6468 334.668 76.5605 334.274 76.5605C333.958 76.5605 333.699 76.6175 333.498 76.7314C333.296 76.8421 333.161 77 333.092 77.2051L333.087 77.2197H332.238L332.243 77.1904C332.288 76.9137 332.402 76.6729 332.584 76.4678C332.77 76.2594 333.009 76.0983 333.302 75.9844C333.595 75.8672 333.929 75.8086 334.303 75.8086C334.733 75.8086 335.096 75.8786 335.392 76.0186C335.692 76.1585 335.918 76.3604 336.071 76.624C336.227 76.8844 336.305 77.1969 336.305 77.5615V81.165H335.456V80.3887H335.377C335.267 80.5742 335.132 80.7321 334.972 80.8623C334.816 80.9925 334.638 81.0918 334.44 81.1602C334.241 81.2253 334.023 81.2578 333.786 81.2578ZM339.801 81.2578C339.359 81.2578 338.971 81.1455 338.639 80.9209C338.307 80.6963 338.05 80.3805 337.868 79.9736C337.685 79.5635 337.594 79.085 337.594 78.5381V78.5283C337.594 77.9782 337.685 77.4997 337.868 77.0928C338.05 76.6859 338.305 76.3701 338.634 76.1455C338.966 75.9209 339.355 75.8086 339.801 75.8086C340.042 75.8086 340.268 75.8477 340.48 75.9258C340.695 76.0007 340.885 76.1064 341.051 76.2432C341.217 76.3799 341.347 76.5426 341.442 76.7314H341.52V73.8115H342.37V81.165H341.52V80.3252H341.442C341.334 80.5205 341.199 80.6882 341.037 80.8281C340.874 80.9648 340.688 81.0706 340.48 81.1455C340.272 81.2204 340.045 81.2578 339.801 81.2578ZM339.997 80.5059C340.316 80.5059 340.591 80.4261 340.822 80.2666C341.053 80.1071 341.23 79.8809 341.354 79.5879C341.478 79.2917 341.54 78.9417 341.54 78.5381V78.5283C341.54 78.1214 341.478 77.7715 341.354 77.4785C341.23 77.1855 341.053 76.9593 340.822 76.7998C340.591 76.6403 340.316 76.5605 339.997 76.5605C339.678 76.5605 339.402 76.6403 339.171 76.7998C338.944 76.9561 338.768 77.1807 338.644 77.4736C338.524 77.7666 338.463 78.1182 338.463 78.5283V78.5381C338.463 78.945 338.524 79.2965 338.644 79.5928C338.768 79.8857 338.944 80.112 339.171 80.2715C339.402 80.4277 339.678 80.5059 339.997 80.5059ZM344.02 81.165V75.9014H344.87V81.165H344.02ZM344.45 74.8857C344.29 74.8857 344.152 74.8288 344.035 74.7148C343.921 74.5977 343.864 74.4593 343.864 74.2998C343.864 74.137 343.921 73.9987 344.035 73.8848C344.152 73.7708 344.29 73.7139 344.45 73.7139C344.612 73.7139 344.751 73.7708 344.865 73.8848C344.979 73.9987 345.036 74.137 345.036 74.2998C345.036 74.4593 344.979 74.5977 344.865 74.7148C344.751 74.8288 344.612 74.8857 344.45 74.8857ZM346.471 81.165V75.9014H347.321V76.6924H347.399C347.532 76.4124 347.724 76.196 347.975 76.043C348.226 75.8867 348.545 75.8086 348.932 75.8086C349.525 75.8086 349.979 75.9779 350.294 76.3164C350.613 76.6517 350.773 77.1318 350.773 77.7568V81.165H349.923V77.9619C349.923 77.4867 349.822 77.1351 349.621 76.9072C349.422 76.6761 349.113 76.5605 348.693 76.5605C348.413 76.5605 348.17 76.6208 347.965 76.7412C347.76 76.8617 347.601 77.0326 347.487 77.2539C347.376 77.4753 347.321 77.7406 347.321 78.0498V81.165H346.471ZM354.479 83.0205C354.056 83.0205 353.686 82.9603 353.371 82.8398C353.055 82.7227 352.803 82.555 352.614 82.3369C352.428 82.1221 352.313 81.8714 352.267 81.585L352.277 81.5801H353.156L353.161 81.585C353.206 81.7835 353.343 81.9463 353.571 82.0732C353.799 82.2035 354.101 82.2686 354.479 82.2686C354.951 82.2686 355.319 82.1611 355.583 81.9463C355.849 81.7347 355.983 81.4352 355.983 81.0479V79.9834H355.905C355.794 80.1755 355.656 80.3398 355.49 80.4766C355.324 80.6133 355.137 80.7174 354.928 80.7891C354.72 80.8574 354.495 80.8916 354.254 80.8916C353.802 80.8916 353.41 80.7842 353.078 80.5693C352.749 80.3512 352.495 80.0518 352.316 79.6709C352.137 79.29 352.047 78.8538 352.047 78.3623V78.3525C352.047 77.861 352.137 77.4248 352.316 77.0439C352.498 76.6598 352.755 76.3587 353.087 76.1406C353.419 75.9193 353.815 75.8086 354.274 75.8086C354.521 75.8086 354.749 75.8477 354.958 75.9258C355.166 76.0039 355.35 76.1146 355.509 76.2578C355.672 76.401 355.807 76.5719 355.915 76.7705H355.973V75.9014H356.823V81.0918C356.823 81.4824 356.727 81.8226 356.535 82.1123C356.346 82.402 356.076 82.625 355.724 82.7812C355.373 82.9408 354.958 83.0205 354.479 83.0205ZM354.44 80.1396C354.765 80.1396 355.044 80.0648 355.275 79.915C355.509 79.762 355.688 79.5521 355.812 79.2852C355.939 79.0182 356.002 78.7106 356.002 78.3623V78.3525C356.002 78.0042 355.939 77.695 355.812 77.4248C355.688 77.1546 355.509 76.943 355.275 76.79C355.044 76.637 354.765 76.5605 354.44 76.5605C354.114 76.5605 353.838 76.637 353.61 76.79C353.385 76.943 353.213 77.1546 353.092 77.4248C352.975 77.695 352.916 78.0042 352.916 78.3525V78.3623C352.916 78.7106 352.975 79.0182 353.092 79.2852C353.213 79.5521 353.385 79.762 353.61 79.915C353.838 80.0648 354.114 80.1396 354.44 80.1396ZM317.741 93.165V86.1191H318.62V93.165H317.741ZM320.309 93.165V87.9014H321.159V88.6924H321.237C321.37 88.4124 321.562 88.196 321.813 88.043C322.064 87.8867 322.383 87.8086 322.77 87.8086C323.362 87.8086 323.817 87.9779 324.132 88.3164C324.451 88.6517 324.611 89.1318 324.611 89.7568V93.165H323.761V89.9619C323.761 89.4867 323.66 89.1351 323.458 88.9072C323.26 88.6761 322.951 88.5605 322.531 88.5605C322.251 88.5605 322.008 88.6208 321.803 88.7412C321.598 88.8617 321.439 89.0326 321.325 89.2539C321.214 89.4753 321.159 89.7406 321.159 90.0498V93.165H320.309ZM327.956 93.2578C327.565 93.2578 327.22 93.1992 326.92 93.082C326.621 92.9616 326.38 92.7939 326.198 92.5791C326.019 92.3643 325.913 92.112 325.88 91.8223H326.749C326.821 92.0404 326.961 92.2161 327.169 92.3496C327.378 92.4831 327.65 92.5498 327.985 92.5498C328.222 92.5498 328.431 92.5156 328.61 92.4473C328.792 92.3757 328.935 92.2796 329.04 92.1592C329.144 92.0355 329.196 91.8939 329.196 91.7344V91.7246C329.196 91.5456 329.124 91.3942 328.981 91.2705C328.838 91.1436 328.603 91.041 328.278 90.9629L327.462 90.7676C327.134 90.6895 326.863 90.5885 326.652 90.4648C326.44 90.3379 326.284 90.1833 326.183 90.001C326.082 89.8154 326.032 89.5973 326.032 89.3467V89.3418C326.032 89.0488 326.116 88.7868 326.286 88.5557C326.458 88.3245 326.693 88.1423 326.989 88.0088C327.285 87.8753 327.619 87.8086 327.99 87.8086C328.358 87.8086 328.683 87.8672 328.966 87.9844C329.253 88.0983 329.482 88.2611 329.655 88.4727C329.831 88.6842 329.938 88.9333 329.977 89.2197H329.142C329.087 89.0114 328.96 88.8421 328.761 88.7119C328.563 88.5817 328.304 88.5166 327.985 88.5166C327.777 88.5166 327.591 88.5508 327.428 88.6191C327.265 88.6842 327.137 88.7754 327.042 88.8926C326.948 89.0098 326.901 89.1465 326.901 89.3027V89.3125C326.901 89.4297 326.932 89.5339 326.994 89.625C327.055 89.7161 327.152 89.7959 327.282 89.8643C327.412 89.9326 327.58 89.9928 327.785 90.0449L328.595 90.2402C329.09 90.3607 329.458 90.5332 329.699 90.7578C329.943 90.9824 330.065 91.2835 330.065 91.6611V91.6709C330.065 91.9834 329.972 92.2601 329.787 92.501C329.601 92.7386 329.349 92.9242 329.03 93.0576C328.714 93.1911 328.356 93.2578 327.956 93.2578ZM333.146 93.2578C332.749 93.2578 332.415 93.1829 332.145 93.0332C331.875 92.8802 331.671 92.6589 331.535 92.3691C331.401 92.0762 331.334 91.723 331.334 91.3096V87.9014H332.184V91.1045C332.184 91.5765 332.275 91.9281 332.458 92.1592C332.643 92.3903 332.946 92.5059 333.366 92.5059C333.597 92.5059 333.8 92.4717 333.976 92.4033C334.155 92.335 334.305 92.2373 334.425 92.1104C334.546 91.9801 334.635 91.8239 334.694 91.6416C334.756 91.4561 334.787 91.2477 334.787 91.0166V87.9014H335.636V93.165H334.787V92.3789H334.708C334.624 92.5645 334.508 92.724 334.362 92.8574C334.215 92.9876 334.04 93.0869 333.834 93.1553C333.633 93.2236 333.403 93.2578 333.146 93.2578ZM337.223 93.165V87.9014H338.073V88.6826H338.151C338.252 88.4059 338.423 88.1911 338.664 88.0381C338.904 87.8851 339.202 87.8086 339.557 87.8086C339.638 87.8086 339.718 87.8135 339.796 87.8232C339.878 87.8298 339.94 87.8363 339.982 87.8428V88.668C339.894 88.6517 339.808 88.6403 339.723 88.6338C339.642 88.624 339.554 88.6191 339.459 88.6191C339.189 88.6191 338.95 88.6729 338.742 88.7803C338.533 88.8877 338.369 89.0374 338.249 89.2295C338.131 89.4215 338.073 89.6462 338.073 89.9033V93.165H337.223ZM342.477 93.2578C342.145 93.2578 341.846 93.1943 341.579 93.0674C341.315 92.9404 341.105 92.7598 340.949 92.5254C340.796 92.291 340.719 92.0143 340.719 91.6953V91.6855C340.719 91.373 340.794 91.1061 340.944 90.8848C341.094 90.6602 341.312 90.4844 341.598 90.3574C341.885 90.2305 342.231 90.1556 342.638 90.1328L344.572 90.0156V90.6943L342.741 90.8115C342.34 90.8343 342.047 90.9173 341.862 91.0605C341.68 91.2038 341.588 91.4056 341.588 91.666V91.6758C341.588 91.9427 341.689 92.151 341.891 92.3008C342.093 92.4473 342.347 92.5205 342.653 92.5205C342.943 92.5205 343.2 92.4635 343.424 92.3496C343.649 92.2324 343.825 92.0745 343.952 91.876C344.082 91.6774 344.147 91.4528 344.147 91.2021V89.5615C344.147 89.236 344.048 88.9886 343.849 88.8193C343.654 88.6468 343.359 88.5605 342.965 88.5605C342.65 88.5605 342.391 88.6175 342.189 88.7314C341.987 88.8421 341.852 89 341.784 89.2051L341.779 89.2197H340.929L340.934 89.1904C340.98 88.9137 341.094 88.6729 341.276 88.4678C341.461 88.2594 341.701 88.0983 341.994 87.9844C342.287 87.8672 342.62 87.8086 342.995 87.8086C343.424 87.8086 343.787 87.8786 344.083 88.0186C344.383 88.1585 344.609 88.3604 344.762 88.624C344.918 88.8844 344.997 89.1969 344.997 89.5615V93.165H344.147V92.3887H344.069C343.958 92.5742 343.823 92.7321 343.664 92.8623C343.507 92.9925 343.33 93.0918 343.131 93.1602C342.933 93.2253 342.715 93.2578 342.477 93.2578ZM346.549 93.165V87.9014H347.399V88.6924H347.477C347.61 88.4124 347.803 88.196 348.053 88.043C348.304 87.8867 348.623 87.8086 349.01 87.8086C349.603 87.8086 350.057 87.9779 350.373 88.3164C350.692 88.6517 350.851 89.1318 350.851 89.7568V93.165H350.001V89.9619C350.001 89.4867 349.901 89.1351 349.699 88.9072C349.5 88.6761 349.191 88.5605 348.771 88.5605C348.491 88.5605 348.249 88.6208 348.043 88.7412C347.838 88.8617 347.679 89.0326 347.565 89.2539C347.454 89.4753 347.399 89.7406 347.399 90.0498V93.165H346.549ZM354.542 93.2578C354.051 93.2578 353.624 93.1455 353.263 92.9209C352.902 92.6963 352.622 92.3789 352.423 91.9688C352.225 91.5586 352.125 91.0752 352.125 90.5186V90.5088C352.125 89.9619 352.223 89.4867 352.418 89.083C352.617 88.6794 352.897 88.3669 353.258 88.1455C353.62 87.9209 354.046 87.8086 354.538 87.8086C354.964 87.8086 355.332 87.8835 355.641 88.0332C355.95 88.1829 356.198 88.3848 356.383 88.6387C356.569 88.8893 356.688 89.1709 356.74 89.4834L356.745 89.5127H355.9L355.895 89.498C355.83 89.2376 355.682 89.0163 355.451 88.834C355.22 88.6517 354.915 88.5605 354.538 88.5605C354.222 88.5605 353.948 88.6403 353.717 88.7998C353.486 88.9593 353.307 89.1855 353.18 89.4785C353.056 89.7682 352.995 90.1117 352.995 90.5088V90.5186C352.995 90.9222 353.058 91.2738 353.185 91.5732C353.312 91.8695 353.491 92.099 353.722 92.2617C353.953 92.4245 354.225 92.5059 354.538 92.5059C354.892 92.5059 355.182 92.4294 355.407 92.2764C355.631 92.1234 355.792 91.9004 355.89 91.6074L355.9 91.5781L356.74 91.5732L356.73 91.627C356.658 91.9427 356.531 92.2243 356.349 92.4717C356.167 92.7158 355.926 92.9079 355.626 93.0479C355.327 93.1878 354.966 93.2578 354.542 93.2578ZM360.133 93.2578C359.632 93.2578 359.201 93.1471 358.839 92.9258C358.481 92.7044 358.205 92.3919 358.009 91.9883C357.817 91.5814 357.721 91.1029 357.721 90.5527V90.5479C357.721 90.0042 357.817 89.5273 358.009 89.1172C358.205 88.707 358.48 88.3864 358.834 88.1553C359.189 87.9242 359.604 87.8086 360.08 87.8086C360.558 87.8086 360.968 87.9193 361.31 88.1406C361.655 88.362 361.919 88.6712 362.101 89.0684C362.287 89.4622 362.379 89.9212 362.379 90.4453V90.7773H358.161V90.0986H361.945L361.525 90.7188V90.3818C361.525 89.9684 361.463 89.6283 361.339 89.3613C361.216 89.0944 361.045 88.8958 360.827 88.7656C360.609 88.6322 360.358 88.5654 360.075 88.5654C359.791 88.5654 359.538 88.6354 359.313 88.7754C359.092 88.9121 358.916 89.1156 358.786 89.3857C358.655 89.6559 358.59 89.988 358.59 90.3818V90.7188C358.59 91.0931 358.654 91.4137 358.781 91.6807C358.908 91.9443 359.088 92.1478 359.323 92.291C359.557 92.431 359.834 92.501 360.153 92.501C360.39 92.501 360.597 92.4684 360.773 92.4033C360.949 92.3382 361.094 92.2552 361.208 92.1543C361.321 92.0534 361.401 91.9508 361.447 91.8467L361.466 91.8027H362.316L362.306 91.8418C362.261 92.0208 362.179 92.195 362.062 92.3643C361.948 92.5303 361.8 92.6816 361.618 92.8184C361.435 92.9518 361.219 93.0592 360.968 93.1406C360.721 93.2188 360.443 93.2578 360.133 93.2578Z" fill="white"/>
<path d="M341.049 50.0959V60.7992C341.049 61.3669 340.823 61.9114 340.422 62.3128C340.021 62.7143 339.476 62.9398 338.908 62.9398C338.341 62.9398 337.796 62.7143 337.395 62.3128C336.993 61.9114 336.768 61.3669 336.768 60.7992M341.049 50.0959L340.401 49.6096C339.392 48.8534 338.145 48.4863 336.888 48.5757C335.631 48.665 334.448 49.2048 333.557 50.0959C333.135 49.6742 332.634 49.3397 332.084 49.1115C331.533 48.8833 330.942 48.7658 330.346 48.7658C329.749 48.7658 329.159 48.8833 328.608 49.1115C328.057 49.3397 327.556 49.6742 327.135 50.0959C327.135 42.411 333.364 36.1817 341.049 36.1817M341.049 50.0959L341.697 49.6096C342.706 48.8534 343.953 48.4863 345.21 48.5757C346.467 48.665 347.65 49.2048 348.541 50.0959C348.963 49.6742 349.464 49.3397 350.014 49.1115C350.565 48.8833 351.156 48.7658 351.752 48.7658C352.349 48.7658 352.939 48.8833 353.49 49.1115C354.041 49.3397 354.542 49.6742 354.963 50.0959C354.963 42.411 348.734 36.1817 341.049 36.1817M341.049 36.1817V35.1113" stroke="white" stroke-width="2" stroke-linecap="round" stroke-linejoin="round"/>
<defs>
<linearGradient id="paint0_linear_359_55539" x1="0" y1="127.796" x2="400" y2="127.796" gradientUnits="userSpaceOnUse">
<stop stop-color="#9046A3"/>
<stop offset="1" stop-color="#48005A"/>
</linearGradient>
</defs>
</svg>
