<svg width="400" height="128" viewBox="0 0 400 128" fill="none" xmlns="http://www.w3.org/2000/svg">
<path d="M396.166 127.796H3.83387C2.81706 127.796 1.84219 127.391 1.1232 126.672C0.404214 125.953 0 124.978 0 123.962V74.1214C2.71148 74.1214 5.31113 73.0441 7.22843 71.1268C9.14574 69.2095 10.2236 66.6092 10.2236 63.8978C10.2236 61.1863 9.14574 58.586 7.22843 56.6687C5.31113 54.7514 2.71148 53.6741 0 53.6741V3.83387C0 2.81706 0.404214 1.84219 1.1232 1.1232C1.84219 0.404214 2.81706 0 3.83387 0H281.492C281.269 0.3886 281.152 0.82899 281.153 1.27733C281.153 1.72567 281.27 2.16593 281.495 2.55404C281.719 2.94215 282.042 3.26476 282.431 3.48879C282.819 3.71282 283.26 3.83075 283.709 3.83075C284.157 3.83075 284.596 3.71282 284.984 3.48879C285.372 3.26476 285.696 2.94215 285.92 2.55404C286.144 2.16593 286.264 1.72567 286.264 1.27733C286.265 0.82899 286.146 0.3886 285.923 0H396.166C397.183 0 398.158 0.404214 398.877 1.1232C399.596 1.84219 400 2.81706 400 3.83387V53.6741C397.289 53.6741 394.689 54.7514 392.772 56.6687C390.854 58.586 389.776 61.1863 389.776 63.8978C389.776 66.6092 390.854 69.2095 392.772 71.1268C394.689 73.0441 397.289 74.1214 400 74.1214V123.962C400 124.978 399.596 125.953 398.877 126.672C398.158 127.391 397.183 127.796 396.166 127.796ZM283.706 121.406C283.201 121.406 282.706 121.555 282.286 121.836C281.866 122.117 281.538 122.517 281.345 122.984C281.151 123.451 281.101 123.964 281.2 124.46C281.299 124.956 281.542 125.411 281.899 125.769C282.256 126.126 282.711 126.37 283.207 126.468C283.703 126.567 284.217 126.516 284.685 126.323C285.152 126.129 285.549 125.802 285.83 125.382C286.111 124.962 286.262 124.467 286.262 123.962C286.262 123.284 285.993 122.634 285.513 122.155C285.034 121.675 284.384 121.406 283.706 121.406ZM283.706 111.182C283.201 111.182 282.706 111.332 282.286 111.613C281.866 111.894 281.538 112.293 281.345 112.76C281.151 113.227 281.101 113.741 281.2 114.237C281.299 114.732 281.542 115.188 281.899 115.545C282.256 115.903 282.711 116.146 283.207 116.245C283.703 116.343 284.217 116.293 284.685 116.099C285.152 115.906 285.549 115.579 285.83 115.158C286.111 114.738 286.262 114.244 286.262 113.738C286.262 113.06 285.993 112.41 285.513 111.931C285.034 111.452 284.384 111.182 283.706 111.182ZM283.706 100.958C283.201 100.958 282.706 101.108 282.286 101.389C281.866 101.67 281.538 102.07 281.345 102.537C281.151 103.004 281.101 103.517 281.2 104.013C281.299 104.509 281.542 104.964 281.899 105.321C282.256 105.679 282.711 105.922 283.207 106.021C283.703 106.12 284.217 106.069 284.685 105.876C285.152 105.682 285.549 105.355 285.83 104.935C286.111 104.514 286.262 104.02 286.262 103.514C286.262 102.837 285.993 102.187 285.513 101.707C285.034 101.228 284.384 100.958 283.706 100.958ZM283.706 90.7348C283.201 90.7348 282.706 90.8845 282.286 91.1654C281.866 91.4462 281.538 91.8459 281.345 92.3129C281.151 92.78 281.101 93.2935 281.2 93.7893C281.299 94.2851 281.542 94.7404 281.899 95.0978C282.256 95.4553 282.711 95.6987 283.207 95.7973C283.703 95.896 284.217 95.8454 284.685 95.652C285.152 95.4585 285.549 95.1313 285.83 94.711C286.111 94.2906 286.262 93.7962 286.262 93.2907C286.262 92.6129 285.993 91.963 285.513 91.4836C285.034 91.0043 284.384 90.7348 283.706 90.7348ZM283.706 80.5112C283.201 80.5112 282.706 80.6609 282.286 80.9417C281.866 81.2226 281.538 81.6223 281.345 82.0893C281.151 82.5563 281.101 83.0699 281.2 83.5657C281.299 84.0615 281.542 84.5168 281.899 84.8742C282.256 85.2317 282.711 85.4751 283.207 85.5737C283.703 85.6723 284.217 85.6218 284.685 85.4283C285.152 85.2349 285.549 84.9076 285.83 84.4873C286.111 84.067 286.262 83.5726 286.262 83.0671C286.262 82.3892 285.993 81.7393 285.513 81.26C285.034 80.7807 284.384 80.5112 283.706 80.5112ZM283.706 70.2875C283.201 70.2875 282.706 70.4373 282.286 70.7181C281.866 70.9989 281.538 71.3986 281.345 71.8656C281.151 72.3327 281.101 72.8462 281.2 73.342C281.299 73.8378 281.542 74.2931 281.899 74.6506C282.256 75.008 282.711 75.2514 283.207 75.3501C283.703 75.4487 284.217 75.3981 284.685 75.2047C285.152 75.0112 285.549 74.684 285.83 74.2637C286.111 73.8434 286.262 73.349 286.262 72.8435C286.262 72.1656 285.993 71.5157 285.513 71.0363C285.034 70.557 284.384 70.2875 283.706 70.2875ZM283.706 60.0639C283.201 60.0639 282.706 60.2136 282.286 60.4945C281.866 60.7753 281.538 61.175 281.345 61.642C281.151 62.109 281.101 62.6226 281.2 63.1184C281.299 63.6142 281.542 64.0695 281.899 64.4269C282.256 64.7844 282.711 65.0278 283.207 65.1264C283.703 65.225 284.217 65.1745 284.685 64.981C285.152 64.7876 285.549 64.4604 285.83 64.04C286.111 63.6197 286.262 63.1253 286.262 62.6198C286.262 61.9419 285.993 61.292 285.513 60.8127C285.034 60.3334 284.384 60.0639 283.706 60.0639ZM283.706 49.8403C283.201 49.8403 282.706 49.99 282.286 50.2708C281.866 50.5517 281.538 50.9513 281.345 51.4184C281.151 51.8854 281.101 52.3989 281.2 52.8947C281.299 53.3905 281.542 53.8458 281.899 54.2033C282.256 54.5607 282.711 54.8042 283.207 54.9028C283.703 55.0014 284.217 54.9508 284.685 54.7574C285.152 54.5639 285.549 54.2367 285.83 53.8164C286.111 53.3961 286.262 52.9017 286.262 52.3962C286.262 51.7183 285.993 51.0684 285.513 50.5891C285.034 50.1097 284.384 49.8403 283.706 49.8403ZM283.706 39.6166C283.201 39.6166 282.706 39.7663 282.286 40.0472C281.866 40.328 281.538 40.7277 281.345 41.1947C281.151 41.6617 281.101 42.1753 281.2 42.6711C281.299 43.1669 281.542 43.6222 281.899 43.9796C282.256 44.3371 282.711 44.5805 283.207 44.6791C283.703 44.7778 284.217 44.7272 284.685 44.5337C285.152 44.3403 285.549 44.0131 285.83 43.5928C286.111 43.1724 286.262 42.678 286.262 42.1725C286.262 41.4947 285.993 40.8447 285.513 40.3654C285.034 39.8861 284.384 39.6166 283.706 39.6166ZM283.706 29.393C283.201 29.393 282.706 29.5427 282.286 29.8235C281.866 30.1044 281.538 30.504 281.345 30.9711C281.151 31.4381 281.101 31.9517 281.2 32.4475C281.299 32.9433 281.542 33.3985 281.899 33.756C282.256 34.1134 282.711 34.3569 283.207 34.4555C283.703 34.5541 284.217 34.5036 284.685 34.3101C285.152 34.1167 285.549 33.7894 285.83 33.3691C286.111 32.9488 286.262 32.4544 286.262 31.9489C286.262 31.271 285.993 30.6211 285.513 30.1418C285.034 29.6624 284.384 29.393 283.706 29.393ZM283.706 19.1693C283.201 19.1693 282.706 19.319 282.286 19.5999C281.866 19.8807 281.538 20.2804 281.345 20.7474C281.151 21.2145 281.101 21.728 281.2 22.2238C281.299 22.7196 281.542 23.1749 281.899 23.5323C282.256 23.8898 282.711 24.1332 283.207 24.2319C283.703 24.3305 284.217 24.2799 284.685 24.0865C285.152 23.893 285.549 23.5658 285.83 23.1455C286.111 22.7252 286.262 22.2308 286.262 21.7252C286.262 21.0474 285.993 20.3975 285.513 19.9181C285.034 19.4388 284.384 19.1693 283.706 19.1693ZM283.706 8.94569C283.201 8.94569 282.706 9.0954 282.286 9.37625C281.866 9.65709 281.538 10.0568 281.345 10.5238C281.151 10.9908 281.101 11.5044 281.2 12.0002C281.299 12.496 281.542 12.9513 281.899 13.3087C282.256 13.6662 282.711 13.9096 283.207 14.0082C283.703 14.1068 284.217 14.0563 284.685 13.8628C285.152 13.6694 285.549 13.3421 285.83 12.9218C286.111 12.5015 286.262 12.0071 286.262 11.5016C286.262 10.8237 285.993 10.1738 285.513 9.69449C285.034 9.21516 284.384 8.94569 283.706 8.94569Z" fill="url(#paint0_linear_359_55541)"/>
<path d="M132.558 106.306C131.92 106.306 131.368 106.158 130.902 105.861C130.44 105.562 130.082 105.139 129.828 104.592C129.577 104.045 129.452 103.396 129.452 102.644V102.634C129.452 101.882 129.577 101.232 129.828 100.686C130.082 100.135 130.44 99.7122 130.902 99.416C131.368 99.1165 131.918 98.9668 132.553 98.9668C133.038 98.9668 133.48 99.0661 133.881 99.2646C134.285 99.4632 134.617 99.735 134.877 100.08C135.137 100.425 135.3 100.819 135.365 101.262L135.36 101.267L134.691 101.271V101.262C134.62 100.93 134.483 100.638 134.281 100.388C134.079 100.137 133.829 99.9401 133.529 99.7969C133.233 99.6536 132.908 99.582 132.553 99.582C132.061 99.582 131.633 99.7074 131.269 99.958C130.907 100.209 130.627 100.562 130.429 101.018C130.233 101.473 130.136 102.012 130.136 102.634V102.644C130.136 103.262 130.233 103.799 130.429 104.255C130.627 104.711 130.907 105.064 131.269 105.314C131.633 105.565 132.063 105.69 132.558 105.69C132.922 105.69 133.253 105.627 133.549 105.5C133.848 105.373 134.097 105.196 134.296 104.968C134.494 104.737 134.625 104.466 134.687 104.157L134.696 104.147H135.365V104.157C135.297 104.587 135.134 104.963 134.877 105.285C134.623 105.607 134.298 105.858 133.9 106.037C133.503 106.216 133.056 106.306 132.558 106.306ZM138.891 106.247C138.402 106.247 137.979 106.138 137.621 105.92C137.263 105.699 136.986 105.384 136.791 104.978C136.599 104.571 136.503 104.089 136.503 103.532V103.522C136.503 102.966 136.599 102.484 136.791 102.077C136.986 101.67 137.263 101.358 137.621 101.14C137.979 100.922 138.402 100.812 138.891 100.812C139.382 100.812 139.805 100.922 140.16 101.14C140.518 101.358 140.793 101.67 140.985 102.077C141.181 102.484 141.278 102.966 141.278 103.522V103.532C141.278 104.089 141.181 104.571 140.985 104.978C140.793 105.384 140.518 105.699 140.16 105.92C139.805 106.138 139.382 106.247 138.891 106.247ZM138.891 105.676C139.252 105.676 139.561 105.59 139.818 105.417C140.079 105.244 140.277 104.999 140.414 104.68C140.554 104.357 140.624 103.975 140.624 103.532V103.522C140.624 103.08 140.554 102.699 140.414 102.38C140.277 102.058 140.079 101.812 139.818 101.643C139.561 101.47 139.252 101.384 138.891 101.384C138.529 101.384 138.218 101.47 137.958 101.643C137.701 101.812 137.502 102.056 137.362 102.375C137.226 102.694 137.157 103.076 137.157 103.522V103.532C137.157 103.975 137.226 104.357 137.362 104.68C137.502 104.999 137.701 105.244 137.958 105.417C138.218 105.59 138.529 105.676 138.891 105.676ZM142.665 106.159V100.9H143.31V101.823H143.368C143.508 101.504 143.718 101.257 143.998 101.081C144.281 100.902 144.626 100.812 145.033 100.812C145.622 100.812 146.076 100.982 146.396 101.32C146.718 101.656 146.879 102.128 146.879 102.736V106.159H146.239V102.897C146.239 102.399 146.124 102.023 145.893 101.77C145.665 101.512 145.323 101.384 144.867 101.384C144.558 101.384 144.286 101.452 144.052 101.589C143.817 101.726 143.635 101.918 143.505 102.165C143.375 102.412 143.31 102.702 143.31 103.034V106.159H142.665ZM150.219 106.193C149.721 106.193 149.359 106.089 149.135 105.881C148.913 105.673 148.803 105.329 148.803 104.851V101.438H147.958V100.9H148.803V99.5332H149.467V100.9H150.673V101.438H149.467V104.704C149.467 105.03 149.53 105.264 149.657 105.407C149.784 105.55 149.996 105.622 150.292 105.622C150.367 105.622 150.432 105.62 150.487 105.617C150.543 105.614 150.604 105.609 150.673 105.603V106.154C150.598 106.164 150.523 106.172 150.448 106.179C150.377 106.188 150.3 106.193 150.219 106.193ZM154.042 106.247C153.55 106.247 153.126 106.136 152.768 105.915C152.413 105.694 152.139 105.381 151.947 104.978C151.755 104.574 151.659 104.097 151.659 103.547V103.537C151.659 102.99 151.755 102.513 151.947 102.106C152.139 101.696 152.41 101.379 152.758 101.154C153.109 100.926 153.52 100.812 153.988 100.812C154.46 100.812 154.866 100.923 155.204 101.145C155.546 101.363 155.808 101.669 155.99 102.062C156.176 102.453 156.269 102.907 156.269 103.425V103.698H151.991V103.171H155.941L155.624 103.645V103.4C155.624 102.961 155.554 102.593 155.414 102.297C155.277 101.997 155.085 101.771 154.838 101.618C154.594 101.465 154.311 101.389 153.988 101.389C153.663 101.389 153.375 101.467 153.124 101.623C152.873 101.779 152.675 102.009 152.528 102.312C152.385 102.611 152.313 102.974 152.313 103.4V103.645C152.313 104.064 152.385 104.426 152.528 104.729C152.672 105.031 152.873 105.264 153.134 105.427C153.394 105.59 153.702 105.671 154.057 105.671C154.311 105.671 154.537 105.635 154.735 105.563C154.937 105.492 155.105 105.397 155.238 105.28C155.372 105.16 155.468 105.033 155.526 104.899L155.541 104.86H156.19L156.176 104.899C156.124 105.078 156.037 105.249 155.917 105.412C155.8 105.572 155.65 105.715 155.468 105.842C155.285 105.965 155.074 106.065 154.833 106.14C154.595 106.211 154.332 106.247 154.042 106.247ZM159.423 106.247C159.042 106.247 158.703 106.19 158.407 106.076C158.111 105.959 157.873 105.796 157.694 105.588C157.515 105.376 157.408 105.127 157.372 104.841H158.031C158.103 105.104 158.261 105.314 158.505 105.471C158.749 105.627 159.062 105.705 159.442 105.705C159.7 105.705 159.929 105.664 160.131 105.583C160.336 105.502 160.497 105.389 160.614 105.246C160.735 105.103 160.795 104.94 160.795 104.758V104.748C160.795 104.52 160.709 104.335 160.536 104.191C160.364 104.048 160.085 103.931 159.701 103.84L158.974 103.669C158.648 103.591 158.378 103.493 158.163 103.376C157.951 103.256 157.794 103.107 157.689 102.932C157.589 102.753 157.538 102.541 157.538 102.297V102.292C157.538 102.009 157.621 101.755 157.787 101.53C157.956 101.306 158.184 101.13 158.471 101.003C158.76 100.876 159.081 100.812 159.433 100.812C159.784 100.812 160.098 100.868 160.375 100.979C160.652 101.089 160.875 101.247 161.044 101.452C161.216 101.657 161.324 101.898 161.366 102.175H160.731C160.676 101.931 160.533 101.734 160.302 101.584C160.071 101.431 159.779 101.354 159.428 101.354C159.2 101.354 158.992 101.394 158.803 101.472C158.617 101.55 158.469 101.657 158.358 101.794C158.248 101.931 158.192 102.087 158.192 102.263V102.272C158.192 102.416 158.228 102.541 158.3 102.648C158.375 102.753 158.487 102.844 158.637 102.922C158.79 102.997 158.983 103.062 159.218 103.117L159.94 103.293C160.448 103.413 160.827 103.584 161.078 103.806C161.329 104.024 161.454 104.322 161.454 104.699V104.709C161.454 105.012 161.363 105.279 161.181 105.51C161.002 105.741 160.759 105.922 160.453 106.052C160.15 106.182 159.807 106.247 159.423 106.247ZM164.525 106.193C164.027 106.193 163.666 106.089 163.441 105.881C163.22 105.673 163.109 105.329 163.109 104.851V101.438H162.265V100.9H163.109V99.5332H163.773V100.9H164.979V101.438H163.773V104.704C163.773 105.03 163.837 105.264 163.964 105.407C164.091 105.55 164.302 105.622 164.599 105.622C164.674 105.622 164.739 105.62 164.794 105.617C164.849 105.614 164.911 105.609 164.979 105.603V106.154C164.905 106.164 164.83 106.172 164.755 106.179C164.683 106.188 164.607 106.193 164.525 106.193ZM169.433 103.503V102.907H171.444C171.988 102.907 172.413 102.766 172.719 102.482C173.028 102.199 173.183 101.809 173.183 101.311V101.301C173.183 100.803 173.028 100.414 172.719 100.134C172.413 99.8506 171.988 99.709 171.444 99.709H169.433V99.1133H171.596C172.045 99.1133 172.439 99.2044 172.777 99.3867C173.116 99.5658 173.381 99.8197 173.573 100.148C173.765 100.477 173.861 100.86 173.861 101.296V101.306C173.861 101.742 173.765 102.126 173.573 102.458C173.381 102.787 173.116 103.044 172.777 103.229C172.439 103.412 172.045 103.503 171.596 103.503H169.433ZM169.101 106.159V99.1133H169.765V106.159H169.101ZM176.439 106.247C176.101 106.247 175.8 106.185 175.536 106.062C175.272 105.935 175.064 105.756 174.911 105.524C174.758 105.293 174.682 105.021 174.682 104.709V104.699C174.682 104.396 174.755 104.136 174.901 103.918C175.048 103.697 175.263 103.524 175.546 103.4C175.829 103.273 176.173 103.197 176.576 103.171L178.539 103.044V103.566L176.664 103.693C176.215 103.723 175.881 103.822 175.663 103.991C175.448 104.157 175.341 104.39 175.341 104.689V104.699C175.341 105.002 175.455 105.243 175.683 105.422C175.91 105.598 176.203 105.686 176.562 105.686C176.877 105.686 177.159 105.62 177.406 105.49C177.657 105.357 177.855 105.178 178.002 104.953C178.148 104.729 178.222 104.478 178.222 104.201V102.57C178.222 102.183 178.108 101.888 177.88 101.687C177.652 101.485 177.325 101.384 176.898 101.384C176.54 101.384 176.243 101.454 176.005 101.594C175.767 101.734 175.613 101.936 175.541 102.199L175.536 102.209H174.892L174.896 102.189C174.942 101.906 175.056 101.662 175.238 101.457C175.421 101.252 175.655 101.094 175.941 100.983C176.228 100.869 176.553 100.812 176.918 100.812C177.331 100.812 177.683 100.882 177.973 101.022C178.262 101.159 178.482 101.358 178.632 101.618C178.785 101.879 178.861 102.194 178.861 102.565V106.159H178.222V105.251H178.158C178.054 105.459 177.917 105.638 177.748 105.788C177.579 105.935 177.383 106.049 177.162 106.13C176.941 106.208 176.7 106.247 176.439 106.247ZM182.255 106.247C181.874 106.247 181.535 106.19 181.239 106.076C180.943 105.959 180.705 105.796 180.526 105.588C180.347 105.376 180.24 105.127 180.204 104.841H180.863C180.935 105.104 181.093 105.314 181.337 105.471C181.581 105.627 181.894 105.705 182.274 105.705C182.532 105.705 182.761 105.664 182.963 105.583C183.168 105.502 183.329 105.389 183.446 105.246C183.567 105.103 183.627 104.94 183.627 104.758V104.748C183.627 104.52 183.541 104.335 183.368 104.191C183.196 104.048 182.917 103.931 182.533 103.84L181.806 103.669C181.48 103.591 181.21 103.493 180.995 103.376C180.784 103.256 180.626 103.107 180.521 102.932C180.421 102.753 180.37 102.541 180.37 102.297V102.292C180.37 102.009 180.453 101.755 180.619 101.53C180.788 101.306 181.016 101.13 181.303 101.003C181.592 100.876 181.913 100.812 182.265 100.812C182.616 100.812 182.93 100.868 183.207 100.979C183.484 101.089 183.707 101.247 183.876 101.452C184.049 101.657 184.156 101.898 184.198 102.175H183.563C183.508 101.931 183.365 101.734 183.134 101.584C182.903 101.431 182.611 101.354 182.26 101.354C182.032 101.354 181.824 101.394 181.635 101.472C181.449 101.55 181.301 101.657 181.19 101.794C181.08 101.931 181.024 102.087 181.024 102.263V102.272C181.024 102.416 181.06 102.541 181.132 102.648C181.207 102.753 181.319 102.844 181.469 102.922C181.622 102.997 181.815 103.062 182.05 103.117L182.772 103.293C183.28 103.413 183.66 103.584 183.91 103.806C184.161 104.024 184.286 104.322 184.286 104.699V104.709C184.286 105.012 184.195 105.279 184.013 105.51C183.834 105.741 183.591 105.922 183.285 106.052C182.982 106.182 182.639 106.247 182.255 106.247ZM187.323 106.247C186.942 106.247 186.604 106.19 186.308 106.076C186.011 105.959 185.774 105.796 185.595 105.588C185.416 105.376 185.308 105.127 185.272 104.841H185.932C186.003 105.104 186.161 105.314 186.405 105.471C186.649 105.627 186.962 105.705 187.343 105.705C187.6 105.705 187.829 105.664 188.031 105.583C188.236 105.502 188.397 105.389 188.515 105.246C188.635 105.103 188.695 104.94 188.695 104.758V104.748C188.695 104.52 188.609 104.335 188.437 104.191C188.264 104.048 187.986 103.931 187.602 103.84L186.874 103.669C186.549 103.591 186.278 103.493 186.063 103.376C185.852 103.256 185.694 103.107 185.59 102.932C185.489 102.753 185.438 102.541 185.438 102.297V102.292C185.438 102.009 185.521 101.755 185.688 101.53C185.857 101.306 186.085 101.13 186.371 101.003C186.661 100.876 186.981 100.812 187.333 100.812C187.685 100.812 187.999 100.868 188.275 100.979C188.552 101.089 188.775 101.247 188.944 101.452C189.117 101.657 189.224 101.898 189.267 102.175H188.632C188.576 101.931 188.433 101.734 188.202 101.584C187.971 101.431 187.68 101.354 187.328 101.354C187.1 101.354 186.892 101.394 186.703 101.472C186.518 101.55 186.369 101.657 186.259 101.794C186.148 101.931 186.093 102.087 186.093 102.263V102.272C186.093 102.416 186.129 102.541 186.2 102.648C186.275 102.753 186.387 102.844 186.537 102.922C186.69 102.997 186.884 103.062 187.118 103.117L187.841 103.293C188.349 103.413 188.728 103.584 188.979 103.806C189.229 104.024 189.354 104.322 189.354 104.699V104.709C189.354 105.012 189.263 105.279 189.081 105.51C188.902 105.741 188.66 105.922 188.354 106.052C188.051 106.182 187.707 106.247 187.323 106.247ZM195.092 106.159V99.8555H195.033L193.212 101.12V100.417L195.092 99.1133H195.756V106.159H195.092ZM200.629 106.159V99.1133H201.391L203.988 105.285H204.052L206.649 99.1133H207.411V106.159H206.791V100.407H206.454L207.226 99.2646L204.311 106.159H203.729L200.819 99.2646L201.586 100.407H201.249V106.159H200.629ZM211.273 106.247C210.785 106.247 210.362 106.138 210.004 105.92C209.646 105.699 209.369 105.384 209.174 104.978C208.982 104.571 208.886 104.089 208.886 103.532V103.522C208.886 102.966 208.982 102.484 209.174 102.077C209.369 101.67 209.646 101.358 210.004 101.14C210.362 100.922 210.785 100.812 211.273 100.812C211.765 100.812 212.188 100.922 212.543 101.14C212.901 101.358 213.176 101.67 213.368 102.077C213.563 102.484 213.661 102.966 213.661 103.522V103.532C213.661 104.089 213.563 104.571 213.368 104.978C213.176 105.384 212.901 105.699 212.543 105.92C212.188 106.138 211.765 106.247 211.273 106.247ZM211.273 105.676C211.635 105.676 211.944 105.59 212.201 105.417C212.462 105.244 212.66 104.999 212.797 104.68C212.937 104.357 213.007 103.975 213.007 103.532V103.522C213.007 103.08 212.937 102.699 212.797 102.38C212.66 102.058 212.462 101.812 212.201 101.643C211.944 101.47 211.635 101.384 211.273 101.384C210.912 101.384 210.601 101.47 210.341 101.643C210.084 101.812 209.885 102.056 209.745 102.375C209.608 102.694 209.54 103.076 209.54 103.522V103.532C209.54 103.975 209.608 104.357 209.745 104.68C209.885 104.999 210.084 105.244 210.341 105.417C210.601 105.59 210.912 105.676 211.273 105.676ZM215.048 106.159V100.9H215.692V101.823H215.751C215.891 101.504 216.101 101.257 216.381 101.081C216.664 100.902 217.009 100.812 217.416 100.812C218.005 100.812 218.459 100.982 218.778 101.32C219.101 101.656 219.262 102.128 219.262 102.736V106.159H218.622V102.897C218.622 102.399 218.507 102.023 218.275 101.77C218.048 101.512 217.706 101.384 217.25 101.384C216.941 101.384 216.669 101.452 216.435 101.589C216.2 101.726 216.018 101.918 215.888 102.165C215.757 102.412 215.692 102.702 215.692 103.034V106.159H215.048ZM222.602 106.193C222.104 106.193 221.742 106.089 221.518 105.881C221.296 105.673 221.186 105.329 221.186 104.851V101.438H220.341V100.9H221.186V99.5332H221.85V100.9H223.056V101.438H221.85V104.704C221.85 105.03 221.913 105.264 222.04 105.407C222.167 105.55 222.379 105.622 222.675 105.622C222.75 105.622 222.815 105.62 222.87 105.617C222.925 105.614 222.987 105.609 223.056 105.603V106.154C222.981 106.164 222.906 106.172 222.831 106.179C222.759 106.188 222.683 106.193 222.602 106.193ZM224.452 106.159V98.8057H225.097V101.823H225.155C225.295 101.504 225.505 101.257 225.785 101.081C226.068 100.902 226.413 100.812 226.82 100.812C227.211 100.812 227.543 100.889 227.816 101.042C228.093 101.192 228.303 101.41 228.446 101.696C228.593 101.983 228.666 102.329 228.666 102.736V106.159H228.026V102.897C228.026 102.396 227.911 102.019 227.68 101.765C227.452 101.511 227.11 101.384 226.654 101.384C226.345 101.384 226.073 101.452 225.839 101.589C225.604 101.726 225.422 101.918 225.292 102.165C225.162 102.412 225.097 102.702 225.097 103.034V106.159H224.452ZM232.04 106.247C231.659 106.247 231.321 106.19 231.024 106.076C230.728 105.959 230.491 105.796 230.312 105.588C230.132 105.376 230.025 105.127 229.989 104.841H230.648C230.72 105.104 230.878 105.314 231.122 105.471C231.366 105.627 231.679 105.705 232.06 105.705C232.317 105.705 232.546 105.664 232.748 105.583C232.953 105.502 233.114 105.389 233.231 105.246C233.352 105.103 233.412 104.94 233.412 104.758V104.748C233.412 104.52 233.326 104.335 233.153 104.191C232.981 104.048 232.702 103.931 232.318 103.84L231.591 103.669C231.265 103.591 230.995 103.493 230.78 103.376C230.569 103.256 230.411 103.107 230.307 102.932C230.206 102.753 230.155 102.541 230.155 102.297V102.292C230.155 102.009 230.238 101.755 230.404 101.53C230.574 101.306 230.801 101.13 231.088 101.003C231.378 100.876 231.698 100.812 232.05 100.812C232.401 100.812 232.715 100.868 232.992 100.979C233.269 101.089 233.492 101.247 233.661 101.452C233.834 101.657 233.941 101.898 233.983 102.175H233.349C233.293 101.931 233.15 101.734 232.919 101.584C232.688 101.431 232.396 101.354 232.045 101.354C231.817 101.354 231.609 101.394 231.42 101.472C231.234 101.55 231.086 101.657 230.976 101.794C230.865 101.931 230.81 102.087 230.81 102.263V102.272C230.81 102.416 230.845 102.541 230.917 102.648C230.992 102.753 231.104 102.844 231.254 102.922C231.407 102.997 231.601 103.062 231.835 103.117L232.558 103.293C233.065 103.413 233.445 103.584 233.695 103.806C233.946 104.024 234.071 104.322 234.071 104.699V104.709C234.071 105.012 233.98 105.279 233.798 105.51C233.619 105.741 233.376 105.922 233.07 106.052C232.768 106.182 232.424 106.247 232.04 106.247Z" fill="white"/>
<path d="M168.456 81.1035C167.354 81.1035 166.354 80.9238 165.456 80.5645C164.557 80.1973 163.831 79.6699 163.276 78.9824C162.729 78.2871 162.424 77.459 162.362 76.498L162.35 76.3574H164.788L164.811 76.4746C164.889 76.9434 165.065 77.3691 165.338 77.752C165.62 78.127 166.014 78.4277 166.522 78.6543C167.038 78.873 167.698 78.9824 168.503 78.9824C169.323 78.9824 169.983 78.877 170.483 78.666C170.991 78.4551 171.358 78.1699 171.585 77.8105C171.819 77.4434 171.936 77.0332 171.936 76.5801V76.5684C171.936 75.9746 171.741 75.4863 171.35 75.1035C170.96 74.7207 170.21 74.4004 169.1 74.1426L167.284 73.7207C166.292 73.4863 165.456 73.1777 164.776 72.7949C164.096 72.4043 163.581 71.9238 163.229 71.3535C162.885 70.7754 162.713 70.0918 162.713 69.3027V69.2793C162.713 68.3496 162.96 67.541 163.452 66.8535C163.944 66.166 164.624 65.6348 165.491 65.2598C166.358 64.877 167.342 64.6855 168.444 64.6855C169.522 64.6855 170.487 64.873 171.338 65.248C172.19 65.6152 172.87 66.1387 173.378 66.8184C173.893 67.498 174.178 68.3027 174.233 69.2324L174.245 69.3848H171.807L171.796 69.291C171.733 68.7676 171.553 68.3223 171.256 67.9551C170.96 67.5801 170.573 67.2949 170.096 67.0996C169.62 66.9043 169.069 66.8066 168.444 66.8066C167.733 66.8066 167.135 66.916 166.651 67.1348C166.174 67.3535 165.811 67.6387 165.561 67.9902C165.319 68.3418 165.198 68.7168 165.198 69.1152V69.1387C165.198 69.4902 165.284 69.8145 165.456 70.1113C165.628 70.4004 165.905 70.6582 166.288 70.8848C166.678 71.1113 167.198 71.2988 167.846 71.4473L169.663 71.8691C171.217 72.2207 172.401 72.7441 173.213 73.4395C174.026 74.1348 174.432 75.1074 174.432 76.3574V76.3691C174.432 77.3926 174.163 78.2559 173.624 78.959C173.085 79.6621 172.362 80.1973 171.456 80.5645C170.557 80.9238 169.557 81.1035 168.456 81.1035ZM167.776 83.0488V62.7402H169.1V83.0488H167.776ZM188.624 81.6426C187.374 81.6426 186.268 81.4355 185.307 81.0215C184.346 80.6074 183.592 80.0332 183.046 79.2988C182.506 78.5645 182.237 77.7207 182.237 76.7676V76.7441C182.237 76.0332 182.393 75.3848 182.706 74.7988C183.026 74.2051 183.467 73.7051 184.03 73.2988C184.592 72.8848 185.237 72.5996 185.963 72.4434V72.3848C185.026 72.1113 184.272 71.6426 183.702 70.9785C183.131 70.3145 182.846 69.5371 182.846 68.6465V68.623C182.846 67.7637 183.092 66.998 183.585 66.3262C184.085 65.6543 184.768 65.123 185.635 64.7324C186.51 64.3418 187.506 64.1465 188.624 64.1465C189.749 64.1465 190.745 64.3418 191.612 64.7324C192.487 65.123 193.171 65.6543 193.663 66.3262C194.155 66.998 194.401 67.7637 194.401 68.623V68.6465C194.401 69.5371 194.116 70.3145 193.546 70.9785C192.983 71.6426 192.229 72.1113 191.284 72.3848V72.4434C192.026 72.5996 192.674 72.8848 193.229 73.2988C193.792 73.7051 194.229 74.2051 194.542 74.7988C194.862 75.3848 195.022 76.0332 195.022 76.7441V76.7676C195.022 77.7207 194.749 78.5645 194.202 79.2988C193.663 80.0332 192.909 80.6074 191.94 81.0215C190.979 81.4355 189.874 81.6426 188.624 81.6426ZM188.624 79.5332C189.35 79.5332 189.987 79.4082 190.534 79.1582C191.088 78.9004 191.522 78.5527 191.835 78.1152C192.155 77.6699 192.315 77.1621 192.315 76.5918V76.5684C192.315 75.998 192.159 75.4902 191.846 75.0449C191.534 74.5996 191.1 74.252 190.546 74.002C189.991 73.7441 189.35 73.6152 188.624 73.6152C187.905 73.6152 187.268 73.7441 186.713 74.002C186.159 74.252 185.725 74.5996 185.413 75.0449C185.1 75.4902 184.944 75.998 184.944 76.5684V76.5918C184.944 77.1621 185.1 77.6699 185.413 78.1152C185.733 78.5527 186.171 78.9004 186.725 79.1582C187.28 79.4082 187.913 79.5332 188.624 79.5332ZM188.624 71.4941C189.249 71.4941 189.799 71.3848 190.276 71.166C190.753 70.9395 191.124 70.6309 191.389 70.2402C191.663 69.8418 191.799 69.3887 191.799 68.8809V68.8574C191.799 68.3418 191.663 67.8887 191.389 67.498C191.124 67.0996 190.753 66.791 190.276 66.5723C189.799 66.3457 189.249 66.2324 188.624 66.2324C187.999 66.2324 187.448 66.3457 186.971 66.5723C186.495 66.791 186.124 67.0996 185.858 67.498C185.592 67.8887 185.46 68.3418 185.46 68.8574V68.8809C185.46 69.3887 185.592 69.8418 185.858 70.2402C186.124 70.6309 186.495 70.9395 186.971 71.166C187.448 71.3848 187.999 71.4941 188.624 71.4941ZM203.624 81.6426C202.374 81.6426 201.268 81.4355 200.307 81.0215C199.346 80.6074 198.592 80.0332 198.046 79.2988C197.506 78.5645 197.237 77.7207 197.237 76.7676V76.7441C197.237 76.0332 197.393 75.3848 197.706 74.7988C198.026 74.2051 198.467 73.7051 199.03 73.2988C199.592 72.8848 200.237 72.5996 200.963 72.4434V72.3848C200.026 72.1113 199.272 71.6426 198.702 70.9785C198.131 70.3145 197.846 69.5371 197.846 68.6465V68.623C197.846 67.7637 198.092 66.998 198.585 66.3262C199.085 65.6543 199.768 65.123 200.635 64.7324C201.51 64.3418 202.506 64.1465 203.624 64.1465C204.749 64.1465 205.745 64.3418 206.612 64.7324C207.487 65.123 208.171 65.6543 208.663 66.3262C209.155 66.998 209.401 67.7637 209.401 68.623V68.6465C209.401 69.5371 209.116 70.3145 208.546 70.9785C207.983 71.6426 207.229 72.1113 206.284 72.3848V72.4434C207.026 72.5996 207.674 72.8848 208.229 73.2988C208.792 73.7051 209.229 74.2051 209.542 74.7988C209.862 75.3848 210.022 76.0332 210.022 76.7441V76.7676C210.022 77.7207 209.749 78.5645 209.202 79.2988C208.663 80.0332 207.909 80.6074 206.94 81.0215C205.979 81.4355 204.874 81.6426 203.624 81.6426ZM203.624 79.5332C204.35 79.5332 204.987 79.4082 205.534 79.1582C206.088 78.9004 206.522 78.5527 206.835 78.1152C207.155 77.6699 207.315 77.1621 207.315 76.5918V76.5684C207.315 75.998 207.159 75.4902 206.846 75.0449C206.534 74.5996 206.1 74.252 205.546 74.002C204.991 73.7441 204.35 73.6152 203.624 73.6152C202.905 73.6152 202.268 73.7441 201.713 74.002C201.159 74.252 200.725 74.5996 200.413 75.0449C200.1 75.4902 199.944 75.998 199.944 76.5684V76.5918C199.944 77.1621 200.1 77.6699 200.413 78.1152C200.733 78.5527 201.171 78.9004 201.725 79.1582C202.28 79.4082 202.913 79.5332 203.624 79.5332ZM203.624 71.4941C204.249 71.4941 204.799 71.3848 205.276 71.166C205.753 70.9395 206.124 70.6309 206.389 70.2402C206.663 69.8418 206.799 69.3887 206.799 68.8809V68.8574C206.799 68.3418 206.663 67.8887 206.389 67.498C206.124 67.0996 205.753 66.791 205.276 66.5723C204.799 66.3457 204.249 66.2324 203.624 66.2324C202.999 66.2324 202.448 66.3457 201.971 66.5723C201.495 66.791 201.124 67.0996 200.858 67.498C200.592 67.8887 200.46 68.3418 200.46 68.8574V68.8809C200.46 69.3887 200.592 69.8418 200.858 70.2402C201.124 70.6309 201.495 70.9395 201.971 71.166C202.448 71.3848 202.999 71.4941 203.624 71.4941ZM218.624 81.6426C217.374 81.6426 216.268 81.4355 215.307 81.0215C214.346 80.6074 213.592 80.0332 213.046 79.2988C212.506 78.5645 212.237 77.7207 212.237 76.7676V76.7441C212.237 76.0332 212.393 75.3848 212.706 74.7988C213.026 74.2051 213.467 73.7051 214.03 73.2988C214.592 72.8848 215.237 72.5996 215.963 72.4434V72.3848C215.026 72.1113 214.272 71.6426 213.702 70.9785C213.131 70.3145 212.846 69.5371 212.846 68.6465V68.623C212.846 67.7637 213.092 66.998 213.585 66.3262C214.085 65.6543 214.768 65.123 215.635 64.7324C216.51 64.3418 217.506 64.1465 218.624 64.1465C219.749 64.1465 220.745 64.3418 221.612 64.7324C222.487 65.123 223.171 65.6543 223.663 66.3262C224.155 66.998 224.401 67.7637 224.401 68.623V68.6465C224.401 69.5371 224.116 70.3145 223.546 70.9785C222.983 71.6426 222.229 72.1113 221.284 72.3848V72.4434C222.026 72.5996 222.674 72.8848 223.229 73.2988C223.792 73.7051 224.229 74.2051 224.542 74.7988C224.862 75.3848 225.022 76.0332 225.022 76.7441V76.7676C225.022 77.7207 224.749 78.5645 224.202 79.2988C223.663 80.0332 222.909 80.6074 221.94 81.0215C220.979 81.4355 219.874 81.6426 218.624 81.6426ZM218.624 79.5332C219.35 79.5332 219.987 79.4082 220.534 79.1582C221.088 78.9004 221.522 78.5527 221.835 78.1152C222.155 77.6699 222.315 77.1621 222.315 76.5918V76.5684C222.315 75.998 222.159 75.4902 221.846 75.0449C221.534 74.5996 221.1 74.252 220.546 74.002C219.991 73.7441 219.35 73.6152 218.624 73.6152C217.905 73.6152 217.268 73.7441 216.713 74.002C216.159 74.252 215.725 74.5996 215.413 75.0449C215.1 75.4902 214.944 75.998 214.944 76.5684V76.5918C214.944 77.1621 215.1 77.6699 215.413 78.1152C215.733 78.5527 216.171 78.9004 216.725 79.1582C217.28 79.4082 217.913 79.5332 218.624 79.5332ZM218.624 71.4941C219.249 71.4941 219.799 71.3848 220.276 71.166C220.753 70.9395 221.124 70.6309 221.389 70.2402C221.663 69.8418 221.799 69.3887 221.799 68.8809V68.8574C221.799 68.3418 221.663 67.8887 221.389 67.498C221.124 67.0996 220.753 66.791 220.276 66.5723C219.799 66.3457 219.249 66.2324 218.624 66.2324C217.999 66.2324 217.448 66.3457 216.971 66.5723C216.495 66.791 216.124 67.0996 215.858 67.498C215.592 67.8887 215.46 68.3418 215.46 68.8574V68.8809C215.46 69.3887 215.592 69.8418 215.858 70.2402C216.124 70.6309 216.495 70.9395 216.971 71.166C217.448 71.3848 217.999 71.4941 218.624 71.4941ZM228.62 81.5254C228.174 81.5254 227.799 81.373 227.495 81.0684C227.19 80.7637 227.038 80.3926 227.038 79.9551C227.038 79.5176 227.19 79.1465 227.495 78.8418C227.799 78.5371 228.174 78.3848 228.62 78.3848C229.057 78.3848 229.428 78.5371 229.733 78.8418C230.038 79.1465 230.19 79.5176 230.19 79.9551C230.19 80.3926 230.038 80.7637 229.733 81.0684C229.428 81.373 229.057 81.5254 228.62 81.5254ZM238.85 81.6426C237.6 81.6426 236.495 81.4355 235.534 81.0215C234.573 80.6074 233.819 80.0332 233.272 79.2988C232.733 78.5645 232.463 77.7207 232.463 76.7676V76.7441C232.463 76.0332 232.62 75.3848 232.932 74.7988C233.253 74.2051 233.694 73.7051 234.256 73.2988C234.819 72.8848 235.463 72.5996 236.19 72.4434V72.3848C235.253 72.1113 234.499 71.6426 233.928 70.9785C233.358 70.3145 233.073 69.5371 233.073 68.6465V68.623C233.073 67.7637 233.319 66.998 233.811 66.3262C234.311 65.6543 234.995 65.123 235.862 64.7324C236.737 64.3418 237.733 64.1465 238.85 64.1465C239.975 64.1465 240.971 64.3418 241.838 64.7324C242.713 65.123 243.397 65.6543 243.889 66.3262C244.381 66.998 244.628 67.7637 244.628 68.623V68.6465C244.628 69.5371 244.342 70.3145 243.772 70.9785C243.21 71.6426 242.456 72.1113 241.51 72.3848V72.4434C242.253 72.5996 242.901 72.8848 243.456 73.2988C244.018 73.7051 244.456 74.2051 244.768 74.7988C245.088 75.3848 245.249 76.0332 245.249 76.7441V76.7676C245.249 77.7207 244.975 78.5645 244.428 79.2988C243.889 80.0332 243.135 80.6074 242.167 81.0215C241.206 81.4355 240.1 81.6426 238.85 81.6426ZM238.85 79.5332C239.577 79.5332 240.213 79.4082 240.76 79.1582C241.315 78.9004 241.749 78.5527 242.061 78.1152C242.381 77.6699 242.542 77.1621 242.542 76.5918V76.5684C242.542 75.998 242.385 75.4902 242.073 75.0449C241.76 74.5996 241.327 74.252 240.772 74.002C240.217 73.7441 239.577 73.6152 238.85 73.6152C238.131 73.6152 237.495 73.7441 236.94 74.002C236.385 74.252 235.952 74.5996 235.639 75.0449C235.327 75.4902 235.171 75.998 235.171 76.5684V76.5918C235.171 77.1621 235.327 77.6699 235.639 78.1152C235.96 78.5527 236.397 78.9004 236.952 79.1582C237.506 79.4082 238.139 79.5332 238.85 79.5332ZM238.85 71.4941C239.475 71.4941 240.026 71.3848 240.503 71.166C240.979 70.9395 241.35 70.6309 241.616 70.2402C241.889 69.8418 242.026 69.3887 242.026 68.8809V68.8574C242.026 68.3418 241.889 67.8887 241.616 67.498C241.35 67.0996 240.979 66.791 240.503 66.5723C240.026 66.3457 239.475 66.2324 238.85 66.2324C238.225 66.2324 237.674 66.3457 237.198 66.5723C236.721 66.791 236.35 67.0996 236.085 67.498C235.819 67.8887 235.686 68.3418 235.686 68.8574V68.8809C235.686 69.3887 235.819 69.8418 236.085 70.2402C236.35 70.6309 236.721 70.9395 237.198 71.166C237.674 71.3848 238.225 71.4941 238.85 71.4941ZM253.85 81.6426C252.6 81.6426 251.495 81.4355 250.534 81.0215C249.573 80.6074 248.819 80.0332 248.272 79.2988C247.733 78.5645 247.463 77.7207 247.463 76.7676V76.7441C247.463 76.0332 247.62 75.3848 247.932 74.7988C248.253 74.2051 248.694 73.7051 249.256 73.2988C249.819 72.8848 250.463 72.5996 251.19 72.4434V72.3848C250.253 72.1113 249.499 71.6426 248.928 70.9785C248.358 70.3145 248.073 69.5371 248.073 68.6465V68.623C248.073 67.7637 248.319 66.998 248.811 66.3262C249.311 65.6543 249.995 65.123 250.862 64.7324C251.737 64.3418 252.733 64.1465 253.85 64.1465C254.975 64.1465 255.971 64.3418 256.838 64.7324C257.713 65.123 258.397 65.6543 258.889 66.3262C259.381 66.998 259.628 67.7637 259.628 68.623V68.6465C259.628 69.5371 259.342 70.3145 258.772 70.9785C258.21 71.6426 257.456 72.1113 256.51 72.3848V72.4434C257.253 72.5996 257.901 72.8848 258.456 73.2988C259.018 73.7051 259.456 74.2051 259.768 74.7988C260.088 75.3848 260.249 76.0332 260.249 76.7441V76.7676C260.249 77.7207 259.975 78.5645 259.428 79.2988C258.889 80.0332 258.135 80.6074 257.167 81.0215C256.206 81.4355 255.1 81.6426 253.85 81.6426ZM253.85 79.5332C254.577 79.5332 255.213 79.4082 255.76 79.1582C256.315 78.9004 256.749 78.5527 257.061 78.1152C257.381 77.6699 257.542 77.1621 257.542 76.5918V76.5684C257.542 75.998 257.385 75.4902 257.073 75.0449C256.76 74.5996 256.327 74.252 255.772 74.002C255.217 73.7441 254.577 73.6152 253.85 73.6152C253.131 73.6152 252.495 73.7441 251.94 74.002C251.385 74.252 250.952 74.5996 250.639 75.0449C250.327 75.4902 250.171 75.998 250.171 76.5684V76.5918C250.171 77.1621 250.327 77.6699 250.639 78.1152C250.96 78.5527 251.397 78.9004 251.952 79.1582C252.506 79.4082 253.139 79.5332 253.85 79.5332ZM253.85 71.4941C254.475 71.4941 255.026 71.3848 255.503 71.166C255.979 70.9395 256.35 70.6309 256.616 70.2402C256.889 69.8418 257.026 69.3887 257.026 68.8809V68.8574C257.026 68.3418 256.889 67.8887 256.616 67.498C256.35 67.0996 255.979 66.791 255.503 66.5723C255.026 66.3457 254.475 66.2324 253.85 66.2324C253.225 66.2324 252.674 66.3457 252.198 66.5723C251.721 66.791 251.35 67.0996 251.085 67.498C250.819 67.8887 250.686 68.3418 250.686 68.8574V68.8809C250.686 69.3887 250.819 69.8418 251.085 70.2402C251.35 70.6309 251.721 70.9395 252.198 71.166C252.674 71.3848 253.225 71.4941 253.85 71.4941Z" fill="white"/>
<path d="M237.918 52.1719L236.019 45.126H237.161L238.455 50.5996H238.519L239.988 45.126H241.009L242.488 50.5996H242.552L243.841 45.126H244.979L243.079 52.1719H242.044L240.53 46.9082H240.467L238.953 52.1719H237.918ZM246.302 52.1719V45.126H247.396V52.1719H246.302ZM249.163 52.1719V45.126H250.154L254.041 50.6289L253.294 50.2432H253.846V45.126H254.915V52.1719H253.924L250.032 46.6738L250.784 47.0596H250.228V52.1719H249.163Z" fill="white"/>
<path d="M30.1992 32.0859V24.7676H27.5391V23.6309H34.1719V24.7676H31.5117V32.0859H30.1992ZM35.7773 32.0859V23.6309H39.1113C39.6895 23.6309 40.1895 23.7383 40.6113 23.9531C41.0332 24.1641 41.3574 24.4629 41.584 24.8496C41.8145 25.2324 41.9297 25.6855 41.9297 26.209V26.2207C41.9297 26.791 41.7852 27.293 41.4961 27.7266C41.207 28.1562 40.8047 28.459 40.2891 28.6348L42.1816 32.0859H40.6641L38.9414 28.834C38.9297 28.834 38.918 28.834 38.9062 28.834C38.8945 28.834 38.8828 28.834 38.8711 28.834H37.0898V32.0859H35.7773ZM37.0898 27.7676H38.9824C39.4863 27.7676 39.877 27.6367 40.1543 27.375C40.4316 27.1094 40.5703 26.7363 40.5703 26.2559V26.2441C40.5703 25.7754 40.4258 25.4062 40.1367 25.1367C39.8516 24.8672 39.4531 24.7324 38.9414 24.7324H37.0898V27.7676ZM43.1543 32.0859L46.207 23.6309H47.2676V25.1133H46.8691L44.5371 32.0859H43.1543ZM44.625 29.8008L44.9941 28.7461H48.8438L49.2129 29.8008H44.625ZM49.2949 32.0859L46.9688 25.1133V23.6309H47.6309L50.6777 32.0859H49.2949ZM52.1484 32.0859V23.6309H55.2012C56.041 23.6309 56.7578 23.7969 57.3516 24.1289C57.9453 24.4609 58.3984 24.9395 58.7109 25.5645C59.0273 26.1895 59.1855 26.9453 59.1855 27.832V27.8438C59.1855 28.7383 59.0273 29.502 58.7109 30.1348C58.3984 30.7676 57.9453 31.252 57.3516 31.5879C56.7617 31.9199 56.0449 32.0859 55.2012 32.0859H52.1484ZM53.4609 30.9492H55.0547C55.6445 30.9492 56.1465 30.8281 56.5605 30.5859C56.9785 30.3438 57.2949 29.9922 57.5098 29.5312C57.7285 29.0703 57.8379 28.5137 57.8379 27.8613V27.8496C57.8379 27.2012 57.7266 26.6465 57.5039 26.1855C57.2852 25.7246 56.9688 25.373 56.5547 25.1309C56.1406 24.8887 55.6406 24.7676 55.0547 24.7676H53.4609V30.9492ZM60.9609 32.0859V23.6309H62.2734V32.0859H60.9609ZM64.3945 32.0859V23.6309H65.584L70.248 30.2344L69.3516 29.7715H70.0137V23.6309H71.2969V32.0859H70.1074L65.4375 25.4883L66.3398 25.9512H65.6719V32.0859H64.3945ZM76.9863 32.291C76.3809 32.291 75.8379 32.1895 75.3574 31.9863C74.877 31.7793 74.4668 31.4824 74.127 31.0957C73.7871 30.709 73.5254 30.2441 73.3418 29.7012C73.1621 29.1543 73.0723 28.541 73.0723 27.8613V27.8496C73.0723 26.9512 73.2324 26.1719 73.5527 25.5117C73.873 24.8477 74.3262 24.334 74.9121 23.9707C75.498 23.6074 76.1836 23.4258 76.9688 23.4258C77.6094 23.4258 78.1816 23.5391 78.6855 23.7656C79.1895 23.9922 79.6035 24.3105 79.9277 24.7207C80.252 25.127 80.4648 25.6035 80.5664 26.1504L80.5723 26.209H79.2539L79.2363 26.1504C79.0879 25.6504 78.8164 25.2656 78.4219 24.9961C78.0312 24.7266 77.5469 24.5918 76.9688 24.5918C76.4492 24.5918 75.998 24.7246 75.6152 24.9902C75.2324 25.2559 74.9355 25.6328 74.7246 26.1211C74.5176 26.6055 74.4141 27.1797 74.4141 27.8438V27.8555C74.4141 28.3594 74.4727 28.8125 74.5898 29.2148C74.7109 29.6172 74.8848 29.9609 75.1113 30.2461C75.3379 30.5273 75.6094 30.7441 75.9258 30.8965C76.2422 31.0488 76.5996 31.125 76.998 31.125C77.459 31.125 77.8633 31.0352 78.2109 30.8555C78.5625 30.6719 78.8359 30.418 79.0312 30.0938C79.2266 29.7695 79.3262 29.3906 79.3301 28.957L79.3359 28.7695H77.1621V27.709H80.6367V28.7578C80.6367 29.293 80.5508 29.7773 80.3789 30.2109C80.207 30.6445 79.9609 31.0176 79.6406 31.3301C79.3203 31.6387 78.9355 31.877 78.4863 32.0449C78.0371 32.209 77.5371 32.291 76.9863 32.291ZM89.1797 32.291C88.3984 32.291 87.7207 32.1113 87.1465 31.752C86.5762 31.3926 86.1367 30.8828 85.8281 30.2227C85.5195 29.5625 85.3652 28.7773 85.3652 27.8672V27.8555C85.3652 26.9414 85.5195 26.1543 85.8281 25.4941C86.1367 24.834 86.5762 24.3242 87.1465 23.9648C87.7168 23.6055 88.3945 23.4258 89.1797 23.4258C89.8008 23.4258 90.3613 23.5488 90.8613 23.7949C91.3652 24.0371 91.7773 24.373 92.0977 24.8027C92.4219 25.2324 92.6191 25.7266 92.6895 26.2852V26.3203H91.3828L91.377 26.2969C91.2988 25.9492 91.1562 25.6484 90.9492 25.3945C90.7422 25.1406 90.4883 24.9434 90.1875 24.8027C89.8867 24.6621 89.5508 24.5918 89.1797 24.5918C88.6758 24.5918 88.2383 24.7246 87.8672 24.9902C87.5 25.2559 87.2148 25.6328 87.0117 26.1211C86.8125 26.6055 86.7129 27.1836 86.7129 27.8555V27.8672C86.7129 28.5312 86.8125 29.1074 87.0117 29.5957C87.2148 30.084 87.5 30.4609 87.8672 30.7266C88.2383 30.9922 88.6777 31.125 89.1855 31.125C89.5566 31.125 89.8926 31.0625 90.1934 30.9375C90.498 30.8125 90.752 30.6348 90.9551 30.4043C91.1582 30.1699 91.2969 29.8945 91.3711 29.5781L91.3828 29.5547H92.6953L92.6895 29.584C92.6074 30.127 92.4082 30.6016 92.0918 31.0078C91.7754 31.4141 91.3691 31.7305 90.873 31.957C90.377 32.1797 89.8125 32.291 89.1797 32.291ZM98.0215 32.291C97.2012 32.291 96.4961 32.1113 95.9062 31.752C95.3164 31.3887 94.8633 30.875 94.5469 30.2109C94.2305 29.5469 94.0723 28.7637 94.0723 27.8613V27.8496C94.0723 26.9395 94.2324 26.1543 94.5527 25.4941C94.873 24.834 95.3281 24.3242 95.918 23.9648C96.5117 23.6055 97.2129 23.4258 98.0215 23.4258C98.834 23.4258 99.5352 23.6055 100.125 23.9648C100.715 24.3242 101.168 24.8359 101.484 25.5C101.805 26.1602 101.965 26.9434 101.965 27.8496V27.8613C101.965 28.7637 101.807 29.5469 101.49 30.2109C101.174 30.8711 100.719 31.3828 100.125 31.7461C99.5352 32.1094 98.834 32.291 98.0215 32.291ZM98.0215 31.125C98.5527 31.125 99.0137 30.9902 99.4043 30.7207C99.7949 30.4512 100.096 30.0723 100.307 29.584C100.518 29.0918 100.623 28.5176 100.623 27.8613V27.8496C100.623 27.1855 100.518 26.6094 100.307 26.1211C100.096 25.6328 99.7949 25.2559 99.4043 24.9902C99.0137 24.7246 98.5527 24.5918 98.0215 24.5918C97.4902 24.5918 97.0293 24.7246 96.6387 24.9902C96.252 25.2559 95.9512 25.6328 95.7363 26.1211C95.5215 26.6094 95.4141 27.1855 95.4141 27.8496V27.8613C95.4141 28.5176 95.5176 29.0918 95.7246 29.584C95.9355 30.0723 96.2344 30.4512 96.6211 30.7207C97.0117 30.9902 97.4785 31.125 98.0215 31.125ZM103.746 32.0859V23.6309H104.936L109.6 30.2344L108.703 29.7715H109.365V23.6309H110.648V32.0859H109.459L104.789 25.4883L105.691 25.9512H105.023V32.0859H103.746ZM114.914 32.0859V24.7676H112.254V23.6309H118.887V24.7676H116.227V32.0859H114.914ZM120.492 32.0859V23.6309H125.859V24.7676H121.805V27.2344H125.643V28.3242H121.805V30.9492H125.859V32.0859H120.492ZM130.617 32.291C129.98 32.291 129.426 32.1914 128.953 31.9922C128.48 31.7891 128.107 31.5078 127.834 31.1484C127.561 30.7891 127.404 30.373 127.365 29.9004L127.359 29.8242H128.654L128.66 29.8887C128.688 30.1426 128.787 30.3633 128.959 30.5508C129.135 30.7383 129.369 30.8848 129.662 30.9902C129.959 31.0957 130.297 31.1484 130.676 31.1484C131.031 31.1484 131.348 31.0918 131.625 30.9785C131.902 30.8652 132.119 30.709 132.275 30.5098C132.436 30.3105 132.516 30.082 132.516 29.8242V29.8184C132.516 29.4941 132.393 29.2246 132.146 29.0098C131.9 28.7949 131.498 28.627 130.939 28.5059L130.014 28.3125C129.158 28.1289 128.535 27.8379 128.145 27.4395C127.754 27.0371 127.559 26.5234 127.559 25.8984V25.8926C127.562 25.4043 127.693 24.9746 127.951 24.6035C128.213 24.2324 128.574 23.9434 129.035 23.7363C129.496 23.5293 130.025 23.4258 130.623 23.4258C131.221 23.4258 131.742 23.5293 132.188 23.7363C132.637 23.9395 132.99 24.2168 133.248 24.5684C133.51 24.9199 133.656 25.3164 133.688 25.7578L133.693 25.834H132.41L132.398 25.7578C132.363 25.5273 132.268 25.3223 132.111 25.1426C131.959 24.9629 131.754 24.8223 131.496 24.7207C131.242 24.6152 130.945 24.5645 130.605 24.5684C130.277 24.5684 129.984 24.6191 129.727 24.7207C129.469 24.8184 129.264 24.9609 129.111 25.1484C128.963 25.3359 128.889 25.5625 128.889 25.8281V25.834C128.889 26.1465 129.008 26.4082 129.246 26.6191C129.488 26.8262 129.881 26.9883 130.424 27.1055L131.35 27.3105C131.939 27.4355 132.418 27.6016 132.785 27.8086C133.152 28.0156 133.42 28.2715 133.588 28.5762C133.76 28.877 133.846 29.2363 133.846 29.6543V29.6602C133.846 30.1992 133.713 30.666 133.447 31.0605C133.186 31.4512 132.812 31.7539 132.328 31.9688C131.844 32.1836 131.273 32.291 130.617 32.291ZM137.719 32.0859V24.7676H135.059V23.6309H141.691V24.7676H139.031V32.0859H137.719Z" fill="white"/>
<path d="M324.865 81.165V74.9102H322.594V74.1191H328.014V74.9102H325.744V81.165H324.865ZM328.532 81.165V75.9014H329.381V76.6826H329.459C329.56 76.4059 329.731 76.1911 329.972 76.0381C330.213 75.8851 330.511 75.8086 330.866 75.8086C330.947 75.8086 331.027 75.8135 331.105 75.8232C331.186 75.8298 331.248 75.8363 331.291 75.8428V76.668C331.203 76.6517 331.116 76.6403 331.032 76.6338C330.95 76.624 330.862 76.6191 330.768 76.6191C330.498 76.6191 330.259 76.6729 330.05 76.7803C329.842 76.8877 329.678 77.0374 329.557 77.2295C329.44 77.4215 329.381 77.6462 329.381 77.9033V81.165H328.532ZM333.786 81.2578C333.454 81.2578 333.154 81.1943 332.887 81.0674C332.624 80.9404 332.414 80.7598 332.257 80.5254C332.104 80.291 332.028 80.0143 332.028 79.6953V79.6855C332.028 79.373 332.103 79.1061 332.252 78.8848C332.402 78.6602 332.62 78.4844 332.907 78.3574C333.193 78.2305 333.54 78.1556 333.947 78.1328L335.88 78.0156V78.6943L334.049 78.8115C333.649 78.8343 333.356 78.9173 333.17 79.0605C332.988 79.2038 332.897 79.4056 332.897 79.666V79.6758C332.897 79.9427 332.998 80.151 333.2 80.3008C333.402 80.4473 333.655 80.5205 333.961 80.5205C334.251 80.5205 334.508 80.4635 334.733 80.3496C334.958 80.2324 335.133 80.0745 335.26 79.876C335.39 79.6774 335.456 79.4528 335.456 79.2021V77.5615C335.456 77.236 335.356 76.9886 335.158 76.8193C334.962 76.6468 334.668 76.5605 334.274 76.5605C333.958 76.5605 333.699 76.6175 333.498 76.7314C333.296 76.8421 333.161 77 333.092 77.2051L333.087 77.2197H332.238L332.243 77.1904C332.288 76.9137 332.402 76.6729 332.584 76.4678C332.77 76.2594 333.009 76.0983 333.302 75.9844C333.595 75.8672 333.929 75.8086 334.303 75.8086C334.733 75.8086 335.096 75.8786 335.392 76.0186C335.692 76.1585 335.918 76.3604 336.071 76.624C336.227 76.8844 336.305 77.1969 336.305 77.5615V81.165H335.456V80.3887H335.377C335.267 80.5742 335.132 80.7321 334.972 80.8623C334.816 80.9925 334.638 81.0918 334.44 81.1602C334.241 81.2253 334.023 81.2578 333.786 81.2578ZM339.801 81.2578C339.359 81.2578 338.971 81.1455 338.639 80.9209C338.307 80.6963 338.05 80.3805 337.868 79.9736C337.685 79.5635 337.594 79.085 337.594 78.5381V78.5283C337.594 77.9782 337.685 77.4997 337.868 77.0928C338.05 76.6859 338.305 76.3701 338.634 76.1455C338.966 75.9209 339.355 75.8086 339.801 75.8086C340.042 75.8086 340.268 75.8477 340.48 75.9258C340.695 76.0007 340.885 76.1064 341.051 76.2432C341.217 76.3799 341.347 76.5426 341.442 76.7314H341.52V73.8115H342.37V81.165H341.52V80.3252H341.442C341.334 80.5205 341.199 80.6882 341.037 80.8281C340.874 80.9648 340.688 81.0706 340.48 81.1455C340.272 81.2204 340.045 81.2578 339.801 81.2578ZM339.997 80.5059C340.316 80.5059 340.591 80.4261 340.822 80.2666C341.053 80.1071 341.23 79.8809 341.354 79.5879C341.478 79.2917 341.54 78.9417 341.54 78.5381V78.5283C341.54 78.1214 341.478 77.7715 341.354 77.4785C341.23 77.1855 341.053 76.9593 340.822 76.7998C340.591 76.6403 340.316 76.5605 339.997 76.5605C339.678 76.5605 339.402 76.6403 339.171 76.7998C338.944 76.9561 338.768 77.1807 338.644 77.4736C338.524 77.7666 338.463 78.1182 338.463 78.5283V78.5381C338.463 78.945 338.524 79.2965 338.644 79.5928C338.768 79.8857 338.944 80.112 339.171 80.2715C339.402 80.4277 339.678 80.5059 339.997 80.5059ZM344.02 81.165V75.9014H344.87V81.165H344.02ZM344.45 74.8857C344.29 74.8857 344.152 74.8288 344.035 74.7148C343.921 74.5977 343.864 74.4593 343.864 74.2998C343.864 74.137 343.921 73.9987 344.035 73.8848C344.152 73.7708 344.29 73.7139 344.45 73.7139C344.612 73.7139 344.751 73.7708 344.865 73.8848C344.979 73.9987 345.036 74.137 345.036 74.2998C345.036 74.4593 344.979 74.5977 344.865 74.7148C344.751 74.8288 344.612 74.8857 344.45 74.8857ZM346.471 81.165V75.9014H347.321V76.6924H347.399C347.532 76.4124 347.724 76.196 347.975 76.043C348.226 75.8867 348.545 75.8086 348.932 75.8086C349.525 75.8086 349.979 75.9779 350.294 76.3164C350.613 76.6517 350.773 77.1318 350.773 77.7568V81.165H349.923V77.9619C349.923 77.4867 349.822 77.1351 349.621 76.9072C349.422 76.6761 349.113 76.5605 348.693 76.5605C348.413 76.5605 348.17 76.6208 347.965 76.7412C347.76 76.8617 347.601 77.0326 347.487 77.2539C347.376 77.4753 347.321 77.7406 347.321 78.0498V81.165H346.471ZM354.479 83.0205C354.056 83.0205 353.686 82.9603 353.371 82.8398C353.055 82.7227 352.803 82.555 352.614 82.3369C352.428 82.1221 352.313 81.8714 352.267 81.585L352.277 81.5801H353.156L353.161 81.585C353.206 81.7835 353.343 81.9463 353.571 82.0732C353.799 82.2035 354.101 82.2686 354.479 82.2686C354.951 82.2686 355.319 82.1611 355.583 81.9463C355.849 81.7347 355.983 81.4352 355.983 81.0479V79.9834H355.905C355.794 80.1755 355.656 80.3398 355.49 80.4766C355.324 80.6133 355.137 80.7174 354.928 80.7891C354.72 80.8574 354.495 80.8916 354.254 80.8916C353.802 80.8916 353.41 80.7842 353.078 80.5693C352.749 80.3512 352.495 80.0518 352.316 79.6709C352.137 79.29 352.047 78.8538 352.047 78.3623V78.3525C352.047 77.861 352.137 77.4248 352.316 77.0439C352.498 76.6598 352.755 76.3587 353.087 76.1406C353.419 75.9193 353.815 75.8086 354.274 75.8086C354.521 75.8086 354.749 75.8477 354.958 75.9258C355.166 76.0039 355.35 76.1146 355.509 76.2578C355.672 76.401 355.807 76.5719 355.915 76.7705H355.973V75.9014H356.823V81.0918C356.823 81.4824 356.727 81.8226 356.535 82.1123C356.346 82.402 356.076 82.625 355.724 82.7812C355.373 82.9408 354.958 83.0205 354.479 83.0205ZM354.44 80.1396C354.765 80.1396 355.044 80.0648 355.275 79.915C355.509 79.762 355.688 79.5521 355.812 79.2852C355.939 79.0182 356.002 78.7106 356.002 78.3623V78.3525C356.002 78.0042 355.939 77.695 355.812 77.4248C355.688 77.1546 355.509 76.943 355.275 76.79C355.044 76.637 354.765 76.5605 354.44 76.5605C354.114 76.5605 353.838 76.637 353.61 76.79C353.385 76.943 353.213 77.1546 353.092 77.4248C352.975 77.695 352.916 78.0042 352.916 78.3525V78.3623C352.916 78.7106 352.975 79.0182 353.092 79.2852C353.213 79.5521 353.385 79.762 353.61 79.915C353.838 80.0648 354.114 80.1396 354.44 80.1396ZM320.119 93.3311C319.481 93.3311 318.929 93.1813 318.463 92.8818C317.998 92.5824 317.638 92.1576 317.384 91.6074C317.134 91.0573 317.008 90.4046 317.008 89.6494V89.6396C317.008 88.8812 317.134 88.2269 317.384 87.6768C317.638 87.1266 317.996 86.7018 318.458 86.4023C318.924 86.1029 319.476 85.9531 320.114 85.9531C320.609 85.9531 321.058 86.0508 321.461 86.2461C321.868 86.4382 322.204 86.7067 322.467 87.0518C322.731 87.3936 322.897 87.7891 322.965 88.2383L322.96 88.248H322.077L322.072 88.2383C321.994 87.9355 321.862 87.6751 321.676 87.457C321.491 87.2357 321.264 87.0648 320.998 86.9443C320.734 86.8239 320.439 86.7637 320.114 86.7637C319.665 86.7637 319.274 86.8809 318.942 87.1152C318.613 87.3496 318.359 87.6816 318.18 88.1113C318.001 88.541 317.912 89.0505 317.912 89.6396V89.6494C317.912 90.2354 318.001 90.7432 318.18 91.1729C318.359 91.6025 318.613 91.9346 318.942 92.1689C319.274 92.4033 319.666 92.5205 320.119 92.5205C320.447 92.5205 320.745 92.4684 321.012 92.3643C321.279 92.2568 321.504 92.1055 321.686 91.9102C321.868 91.7116 321.995 91.4772 322.067 91.207L322.077 91.1973H322.965V91.207C322.887 91.6367 322.718 92.0111 322.458 92.3301C322.197 92.6458 321.867 92.8916 321.466 93.0674C321.069 93.2432 320.62 93.3311 320.119 93.3311ZM324.381 93.165V85.8115H325.231V88.6924H325.309C325.443 88.4124 325.635 88.196 325.885 88.043C326.136 87.8867 326.455 87.8086 326.842 87.8086C327.236 87.8086 327.57 87.8851 327.843 88.0381C328.117 88.1878 328.325 88.4076 328.468 88.6973C328.611 88.987 328.683 89.3402 328.683 89.7568V93.165H327.833V89.9619C327.833 89.4867 327.733 89.1351 327.531 88.9072C327.332 88.6761 327.023 88.5605 326.603 88.5605C326.323 88.5605 326.081 88.6208 325.875 88.7412C325.67 88.8617 325.511 89.0326 325.397 89.2539C325.286 89.4753 325.231 89.7406 325.231 90.0498V93.165H324.381ZM331.666 93.2578C331.334 93.2578 331.035 93.1943 330.768 93.0674C330.504 92.9404 330.294 92.7598 330.138 92.5254C329.985 92.291 329.909 92.0143 329.909 91.6953V91.6855C329.909 91.373 329.984 91.1061 330.133 90.8848C330.283 90.6602 330.501 90.4844 330.788 90.3574C331.074 90.2305 331.421 90.1556 331.828 90.1328L333.761 90.0156V90.6943L331.93 90.8115C331.53 90.8343 331.237 90.9173 331.051 91.0605C330.869 91.2038 330.778 91.4056 330.778 91.666V91.6758C330.778 91.9427 330.879 92.151 331.081 92.3008C331.282 92.4473 331.536 92.5205 331.842 92.5205C332.132 92.5205 332.389 92.4635 332.614 92.3496C332.838 92.2324 333.014 92.0745 333.141 91.876C333.271 91.6774 333.336 91.4528 333.336 91.2021V89.5615C333.336 89.236 333.237 88.9886 333.039 88.8193C332.843 88.6468 332.549 88.5605 332.155 88.5605C331.839 88.5605 331.58 88.6175 331.378 88.7314C331.177 88.8421 331.041 89 330.973 89.2051L330.968 89.2197H330.119L330.124 89.1904C330.169 88.9137 330.283 88.6729 330.465 88.4678C330.651 88.2594 330.89 88.0983 331.183 87.9844C331.476 87.8672 331.81 87.8086 332.184 87.8086C332.614 87.8086 332.977 87.8786 333.273 88.0186C333.572 88.1585 333.799 88.3604 333.952 88.624C334.108 88.8844 334.186 89.1969 334.186 89.5615V93.165H333.336V92.3887H333.258C333.148 92.5742 333.013 92.7321 332.853 92.8623C332.697 92.9925 332.519 93.0918 332.321 93.1602C332.122 93.2253 331.904 93.2578 331.666 93.2578ZM335.788 93.165V85.8115H336.637V93.165H335.788ZM338.317 93.165V85.8115H339.166V93.165H338.317ZM342.946 93.2578C342.444 93.2578 342.013 93.1471 341.652 92.9258C341.294 92.7044 341.017 92.3919 340.822 91.9883C340.63 91.5814 340.534 91.1029 340.534 90.5527V90.5479C340.534 90.0042 340.63 89.5273 340.822 89.1172C341.017 88.707 341.292 88.3864 341.647 88.1553C342.002 87.9242 342.417 87.8086 342.892 87.8086C343.371 87.8086 343.781 87.9193 344.123 88.1406C344.468 88.362 344.731 88.6712 344.914 89.0684C345.099 89.4622 345.192 89.9212 345.192 90.4453V90.7773H340.973V90.0986H344.757L344.337 90.7188V90.3818C344.337 89.9684 344.276 89.6283 344.152 89.3613C344.028 89.0944 343.857 88.8958 343.639 88.7656C343.421 88.6322 343.17 88.5654 342.887 88.5654C342.604 88.5654 342.35 88.6354 342.125 88.7754C341.904 88.9121 341.728 89.1156 341.598 89.3857C341.468 89.6559 341.403 89.988 341.403 90.3818V90.7188C341.403 91.0931 341.466 91.4137 341.593 91.6807C341.72 91.9443 341.901 92.1478 342.135 92.291C342.37 92.431 342.646 92.501 342.965 92.501C343.203 92.501 343.41 92.4684 343.585 92.4033C343.761 92.3382 343.906 92.2552 344.02 92.1543C344.134 92.0534 344.214 91.9508 344.259 91.8467L344.279 91.8027H345.128L345.119 91.8418C345.073 92.0208 344.992 92.195 344.874 92.3643C344.761 92.5303 344.612 92.6816 344.43 92.8184C344.248 92.9518 344.031 93.0592 343.781 93.1406C343.533 93.2188 343.255 93.2578 342.946 93.2578ZM346.51 93.165V87.9014H347.36V88.6924H347.438C347.571 88.4124 347.763 88.196 348.014 88.043C348.265 87.8867 348.584 87.8086 348.971 87.8086C349.564 87.8086 350.018 87.9779 350.333 88.3164C350.652 88.6517 350.812 89.1318 350.812 89.7568V93.165H349.962V89.9619C349.962 89.4867 349.861 89.1351 349.66 88.9072C349.461 88.6761 349.152 88.5605 348.732 88.5605C348.452 88.5605 348.209 88.6208 348.004 88.7412C347.799 88.8617 347.64 89.0326 347.526 89.2539C347.415 89.4753 347.36 89.7406 347.36 90.0498V93.165H346.51ZM354.518 95.0205C354.095 95.0205 353.725 94.9603 353.41 94.8398C353.094 94.7227 352.842 94.555 352.653 94.3369C352.467 94.1221 352.352 93.8714 352.306 93.585L352.316 93.5801H353.195L353.2 93.585C353.245 93.7835 353.382 93.9463 353.61 94.0732C353.838 94.2035 354.14 94.2686 354.518 94.2686C354.99 94.2686 355.358 94.1611 355.622 93.9463C355.888 93.7347 356.022 93.4352 356.022 93.0479V91.9834H355.944C355.833 92.1755 355.695 92.3398 355.529 92.4766C355.363 92.6133 355.176 92.7174 354.967 92.7891C354.759 92.8574 354.534 92.8916 354.293 92.8916C353.841 92.8916 353.449 92.7842 353.117 92.5693C352.788 92.3512 352.534 92.0518 352.355 91.6709C352.176 91.29 352.086 90.8538 352.086 90.3623V90.3525C352.086 89.861 352.176 89.4248 352.355 89.0439C352.537 88.6598 352.794 88.3587 353.126 88.1406C353.458 87.9193 353.854 87.8086 354.313 87.8086C354.56 87.8086 354.788 87.8477 354.997 87.9258C355.205 88.0039 355.389 88.1146 355.548 88.2578C355.711 88.401 355.846 88.5719 355.954 88.7705H356.012V87.9014H356.862V93.0918C356.862 93.4824 356.766 93.8226 356.574 94.1123C356.385 94.402 356.115 94.625 355.763 94.7812C355.412 94.9408 354.997 95.0205 354.518 95.0205ZM354.479 92.1396C354.805 92.1396 355.083 92.0648 355.314 91.915C355.548 91.762 355.727 91.5521 355.851 91.2852C355.978 91.0182 356.041 90.7106 356.041 90.3623V90.3525C356.041 90.0042 355.978 89.695 355.851 89.4248C355.727 89.1546 355.548 88.943 355.314 88.79C355.083 88.637 354.805 88.5605 354.479 88.5605C354.153 88.5605 353.877 88.637 353.649 88.79C353.424 88.943 353.252 89.1546 353.131 89.4248C353.014 89.695 352.956 90.0042 352.956 90.3525V90.3623C352.956 90.7106 353.014 91.0182 353.131 91.2852C353.252 91.5521 353.424 91.762 353.649 91.915C353.877 92.0648 354.153 92.1396 354.479 92.1396ZM360.592 93.2578C360.091 93.2578 359.66 93.1471 359.298 92.9258C358.94 92.7044 358.664 92.3919 358.468 91.9883C358.276 91.5814 358.18 91.1029 358.18 90.5527V90.5479C358.18 90.0042 358.276 89.5273 358.468 89.1172C358.664 88.707 358.939 88.3864 359.293 88.1553C359.648 87.9242 360.063 87.8086 360.539 87.8086C361.017 87.8086 361.427 87.9193 361.769 88.1406C362.114 88.362 362.378 88.6712 362.56 89.0684C362.746 89.4622 362.838 89.9212 362.838 90.4453V90.7773H358.62V90.0986H362.404L361.984 90.7188V90.3818C361.984 89.9684 361.922 89.6283 361.798 89.3613C361.675 89.0944 361.504 88.8958 361.286 88.7656C361.068 88.6322 360.817 88.5654 360.534 88.5654C360.25 88.5654 359.997 88.6354 359.772 88.7754C359.551 88.9121 359.375 89.1156 359.245 89.3857C359.114 89.6559 359.049 89.988 359.049 90.3818V90.7188C359.049 91.0931 359.113 91.4137 359.24 91.6807C359.367 91.9443 359.547 92.1478 359.782 92.291C360.016 92.431 360.293 92.501 360.612 92.501C360.849 92.501 361.056 92.4684 361.232 92.4033C361.408 92.3382 361.553 92.2552 361.666 92.1543C361.78 92.0534 361.86 91.9508 361.906 91.8467L361.925 91.8027H362.775L362.765 91.8418C362.72 92.0208 362.638 92.195 362.521 92.3643C362.407 92.5303 362.259 92.6816 362.077 92.8184C361.894 92.9518 361.678 93.0592 361.427 93.1406C361.18 93.2188 360.902 93.2578 360.592 93.2578Z" fill="white"/>
<path d="M339.875 56.824V33.8945L350.841 38.8792L339.875 43.8639" stroke="white" stroke-width="2" stroke-linecap="round" stroke-linejoin="round"/>
<path d="M339.875 52.8359C334.455 52.8359 328.953 55.5277 327.935 60.6083C327.812 61.2208 328.197 61.8083 328.909 61.8083H350.842C351.555 61.8083 351.94 61.2208 351.817 60.6083C350.798 55.5277 345.296 52.8359 339.875 52.8359Z" stroke="white" stroke-width="2" stroke-miterlimit="10"/>
<defs>
<linearGradient id="paint0_linear_359_55541" x1="0" y1="127.796" x2="400" y2="127.796" gradientUnits="userSpaceOnUse">
<stop stop-color="#5CA346"/>
<stop offset="1" stop-color="#0E3B00"/>
</linearGradient>
</defs>
</svg>
