<svg width="201" height="200" viewBox="0 0 201 200" fill="none" xmlns="http://www.w3.org/2000/svg">
<rect x="0.666016" width="200" height="200" rx="30" fill="#5CA346" fill-opacity="0.2"/>
<path d="M138.166 100C138.166 79.2969 121.369 62.5 100.666 62.5C79.9629 62.5 63.166 79.2969 63.166 100C63.166 120.703 79.9629 137.5 100.666 137.5C121.369 137.5 138.166 120.703 138.166 100Z" stroke="black" stroke-width="8" stroke-miterlimit="10"/>
<path d="M108.479 118.75H113.947C115.398 118.75 116.789 118.174 117.814 117.148C118.84 116.123 119.416 114.732 119.416 113.281V107.812M119.416 92.1875V86.7188C119.416 85.2683 118.84 83.8773 117.814 82.8518C116.789 81.8262 115.398 81.25 113.947 81.25H108.479M92.8535 118.75H87.3848C85.9344 118.75 84.5434 118.174 83.5178 117.148C82.4922 116.123 81.916 114.732 81.916 113.281V107.812M81.916 92.1875V86.7188C81.916 85.2683 82.4922 83.8773 83.5178 82.8518C84.5434 81.8262 85.9344 81.25 87.3848 81.25H92.8535" stroke="#5CA346" stroke-width="5" stroke-linecap="round" stroke-linejoin="round"/>
</svg>
