<svg width="201" height="200" viewBox="0 0 201 200" fill="none" xmlns="http://www.w3.org/2000/svg">
<rect x="0.333984" width="200" height="200" rx="30" fill="#5CA346" fill-opacity="0.2"/>
<path d="M70.6465 112.5H64.3965C63.5335 112.5 62.834 113.2 62.834 114.062V142.188C62.834 143.05 63.5335 143.75 64.3965 143.75H70.6465C71.5094 143.75 72.209 143.05 72.209 142.188V114.062C72.209 113.2 71.5094 112.5 70.6465 112.5Z" stroke="black" stroke-width="5" stroke-linecap="round" stroke-linejoin="round"/>
<path d="M114.396 93.75H108.146C107.284 93.75 106.584 94.4496 106.584 95.3125V142.188C106.584 143.05 107.284 143.75 108.146 143.75H114.396C115.259 143.75 115.959 143.05 115.959 142.188V95.3125C115.959 94.4496 115.259 93.75 114.396 93.75Z" stroke="black" stroke-width="5" stroke-linecap="round" stroke-linejoin="round"/>
<path d="M136.146 72H129.896C129.034 72 128.334 72.6996 128.334 73.5625V142.312C128.334 143.175 129.034 143.875 129.896 143.875H136.146C137.009 143.875 137.709 143.175 137.709 142.312V73.5625C137.709 72.6996 137.009 72 136.146 72Z" stroke="#5CA346" stroke-width="5" stroke-linecap="round" stroke-linejoin="round"/>
<path d="M92.5215 56.25H86.2715C85.4085 56.25 84.709 56.9496 84.709 57.8125V142.188C84.709 143.05 85.4085 143.75 86.2715 143.75H92.5215C93.3844 143.75 94.084 143.05 94.084 142.188V57.8125C94.084 56.9496 93.3844 56.25 92.5215 56.25Z" stroke="#5CA346" stroke-width="5" stroke-linecap="round" stroke-linejoin="round"/>
</svg>
