<svg width="200" height="200" viewBox="0 0 200 200" fill="none" xmlns="http://www.w3.org/2000/svg">
<rect width="200" height="200" rx="30" fill="#5CA346" fill-opacity="0.2"/>
<path d="M113.691 95.2925L104.414 110.039C104.034 110.565 103.572 111.026 103.046 111.406C101.777 112.292 100.208 112.641 98.6826 112.378C97.1568 112.115 95.7962 111.261 94.8962 110.001C93.9962 108.741 93.6295 107.177 93.8755 105.648C94.1216 104.119 94.9606 102.749 96.2105 101.835L110.957 92.5581C111.292 92.3245 111.691 92.1992 112.099 92.1992C112.508 92.1992 112.907 92.3245 113.242 92.5581C113.663 92.8621 113.946 93.3203 114.03 93.8327C114.115 94.345 113.993 94.8699 113.691 95.2925Z" fill="#5CA346" stroke="#5CA346" stroke-width="0.0625"/>
<path d="M100 62.5C75.8399 62.5 56.25 82.0703 56.25 106.23C56.2352 116.92 60.1486 127.242 67.2461 135.234C67.461 135.469 67.6563 135.703 67.8711 135.918C68.3333 136.418 68.8944 136.817 69.5188 137.09C70.1432 137.362 70.8173 137.501 71.4985 137.5C72.1796 137.498 72.853 137.354 73.4759 137.079C74.0988 136.803 74.6577 136.401 75.1172 135.898C78.2842 132.457 82.1308 129.709 86.4137 127.83C90.6967 125.951 95.3229 124.981 100 124.981C104.677 124.981 109.303 125.951 113.586 127.83C117.869 129.709 121.716 132.457 124.883 135.898C125.342 136.401 125.901 136.803 126.524 137.079C127.147 137.354 127.82 137.498 128.502 137.5C129.183 137.501 129.857 137.362 130.481 137.09C131.106 136.817 131.667 136.418 132.129 135.918L132.754 135.234C139.852 127.242 143.765 116.92 143.75 106.23C143.75 82.0703 124.16 62.5 100 62.5Z" stroke="black" stroke-width="8" stroke-linecap="round" stroke-linejoin="round"/>
<path d="M100 75V81.25M131.25 106.25H125M75 106.25H68.75M82.3223 88.5723L77.9023 84.1523M117.678 88.5723L122.098 84.1523" stroke="#5CA346" stroke-width="5" stroke-miterlimit="10" stroke-linecap="round"/>
</svg>
