<svg xmlns="http://www.w3.org/2000/svg" width="250" height="250" viewBox="0 0 250 250" fill="none">
  <rect width="250" height="250" rx="50" fill="#5CA346" fill-opacity="0.2"/>
  <g filter="url(#filter0_ii_341_5282)">
    <path d="M40.5928 109.535H209.407V159.097C209.407 184.035 189.191 204.252 164.253 204.252H85.7474C60.8092 204.252 40.5928 184.035 40.5928 159.097V109.535Z" fill="#09BDF5"/>
  </g>
  <path d="M134.259 64.0857C128.454 61.0723 121.546 61.0723 115.741 64.0857L46.391 100.084C42.8286 101.933 40.5928 105.613 40.5928 109.627C40.5928 113.881 43.1015 117.735 46.9917 119.458L117.459 150.657C122.261 152.783 127.739 152.783 132.541 150.657L203.008 119.458C206.898 117.735 209.407 113.881 209.407 109.627C209.407 105.613 207.171 101.933 203.609 100.084L134.259 64.0857Z" fill="url(#paint0_linear_341_5282)"/>
  <path opacity="0.8" d="M76.6752 45.1035C70.9816 45.1035 66.366 49.7191 66.366 55.4128V128.035L117.459 150.656C122.261 152.783 127.739 152.783 132.541 150.656L183.634 128.035V55.4128C183.634 49.7191 179.018 45.1035 173.325 45.1035H76.6752Z" fill="#68EFF8"/>
  <rect x="81.8298" y="62.5" width="41.2371" height="11.5979" rx="4.51546" fill="#FEFEFE"/>
  <path opacity="0.9" d="M81.8298 88.9237C81.8298 86.4298 83.8515 84.4082 86.3453 84.4082H163.655C166.148 84.4082 168.17 86.4298 168.17 88.9237V91.4907C168.17 93.9845 166.148 96.0061 163.655 96.0061H86.3453C83.8515 96.0061 81.8298 93.9845 81.8298 91.4907V88.9237Z" fill="#FEFEFE"/>
  <path opacity="0.8" d="M81.8298 110.83C81.8298 108.336 83.8515 106.314 86.3453 106.314H146.258C148.751 106.314 150.773 108.336 150.773 110.83V113.397C150.773 115.891 148.751 117.912 146.258 117.912H86.3453C83.8515 117.912 81.8298 115.891 81.8298 113.397V110.83Z" fill="#FEFEFE"/>
  <path opacity="0.6" d="M92.9834 139.819H129.51C130.934 139.819 132.088 138.665 132.088 137.241V130.798C132.088 129.375 130.934 128.221 129.51 128.221H84.4072C82.9837 128.221 81.8298 129.375 81.8298 130.798V134.88L92.9834 139.819Z" fill="#FEFEFE"/>
  <defs>
    <filter id="filter0_ii_341_5282" x="40.5928" y="86.9578" width="168.814" height="121.81" filterUnits="userSpaceOnUse" color-interpolation-filters="sRGB">
      <feFlood flood-opacity="0" result="BackgroundImageFix"/>
      <feBlend mode="normal" in="SourceGraphic" in2="BackgroundImageFix" result="shape"/>
      <feColorMatrix in="SourceAlpha" type="matrix" values="0 0 0 0 0 0 0 0 0 0 0 0 0 0 0 0 0 0 127 0" result="hardAlpha"/>
      <feOffset dy="-22.5773"/>
      <feGaussianBlur stdDeviation="16.933"/>
      <feComposite in2="hardAlpha" operator="arithmetic" k2="-1" k3="1"/>
      <feColorMatrix type="matrix" values="0 0 0 0 0 0 0 0 0 0.473098 0 0 0 0 0.909804 0 0 0 0.57 0"/>
      <feBlend mode="normal" in2="shape" result="effect1_innerShadow_341_5282"/>
      <feColorMatrix in="SourceAlpha" type="matrix" values="0 0 0 0 0 0 0 0 0 0 0 0 0 0 0 0 0 0 127 0" result="hardAlpha"/>
      <feOffset dy="4.51546"/>
      <feGaussianBlur stdDeviation="10.7242"/>
      <feComposite in2="hardAlpha" operator="arithmetic" k2="-1" k3="1"/>
      <feColorMatrix type="matrix" values="0 0 0 0 1 0 0 0 0 1 0 0 0 0 1 0 0 0 0.38 0"/>
      <feBlend mode="normal" in2="effect1_innerShadow_341_5282" result="effect2_innerShadow_341_5282"/>
    </filter>
    <linearGradient id="paint0_linear_341_5282" x1="125" y1="59.2793" x2="125" y2="153.996" gradientUnits="userSpaceOnUse">
      <stop stop-color="#00B2FF"/>
      <stop offset="1" stop-color="#005ECC"/>
    </linearGradient>
  </defs>
</svg>