<svg width="250" height="250" viewBox="0 0 250 250" fill="none" xmlns="http://www.w3.org/2000/svg">
<rect width="250" height="250" rx="50" fill="url(#paint0_linear_176_5366)"/>
<path fill-rule="evenodd" clip-rule="evenodd" d="M56.5821 123.681C93.0221 107.804 117.321 97.3375 129.479 92.2805C164.193 77.8419 171.406 75.3337 176.108 75.2509C177.142 75.2327 179.454 75.4889 180.952 76.7042C182.216 77.7303 182.564 79.1165 182.731 80.0893C182.897 81.0622 183.104 83.2785 182.94 85.0102C181.059 104.776 172.919 152.741 168.778 174.879C167.026 184.246 163.575 187.387 160.235 187.694C152.976 188.362 147.464 182.897 140.433 178.288C129.432 171.077 123.217 166.587 112.538 159.55C100.196 151.417 108.197 146.947 115.23 139.642C117.071 137.73 149.054 108.639 149.673 106C149.75 105.67 149.822 104.44 149.091 103.79C148.36 103.14 147.282 103.363 146.503 103.539C145.4 103.79 127.824 115.406 93.7774 138.389C88.7887 141.815 84.2701 143.484 80.2216 143.396C75.7585 143.3 67.1732 140.873 60.7909 138.798C52.9628 136.253 46.7411 134.908 47.2829 130.587C47.5651 128.336 50.6648 126.034 56.5821 123.681Z" fill="white"/>
<defs>
<linearGradient id="paint0_linear_176_5366" x1="231" y1="18.75" x2="17.75" y2="230.25" gradientUnits="userSpaceOnUse">
<stop stop-color="#2AEA7B"/>
<stop offset="0.505208" stop-color="#00C4EE"/>
<stop offset="1" stop-color="#0B94FE"/>
</linearGradient>
</defs>
</svg>
