<svg width="150" height="150" viewBox="0 0 150 150" fill="none" xmlns="http://www.w3.org/2000/svg">
<rect x="5" y="5" width="140" height="140" rx="26.25" fill="#FFDAA3"/>
<rect x="5" y="5" width="140" height="140" rx="26.25" fill="url(#paint0_linear_11_4310)" fill-opacity="0.4"/>
<rect x="5" y="5" width="140" height="140" rx="26.25" stroke="#D17E00" stroke-width="10"/>
<path d="M24.582 40V25.9082H33.918V28.3398H27.5312V31.7383H33.5566V34.0137H27.5312V37.5684H33.918V40H24.582ZM42.8438 40.332C41.4766 40.332 40.2949 40.0358 39.2988 39.4434C38.3092 38.8444 37.5443 37.9948 37.0039 36.8945C36.4701 35.7943 36.2031 34.4824 36.2031 32.959V32.9395C36.2031 31.416 36.4701 30.1042 37.0039 29.0039C37.5443 27.9036 38.3092 27.0573 39.2988 26.4648C40.2949 25.8724 41.4733 25.5762 42.834 25.5762C43.9603 25.5762 44.9661 25.7975 45.8516 26.2402C46.7435 26.6764 47.4629 27.2786 48.0098 28.0469C48.5566 28.8151 48.8724 29.694 48.957 30.6836L48.9668 30.8008H46.0957L46.0762 30.7129C45.9785 30.1855 45.7799 29.7266 45.4805 29.3359C45.1875 28.9388 44.8164 28.6296 44.3672 28.4082C43.918 28.1868 43.4069 28.0762 42.834 28.0762C42.0983 28.0762 41.457 28.2747 40.9102 28.6719C40.3698 29.0625 39.9531 29.6224 39.6602 30.3516C39.3672 31.0742 39.2207 31.9368 39.2207 32.9395V32.959C39.2207 33.9551 39.3672 34.821 39.6602 35.5566C39.9531 36.2858 40.3698 36.849 40.9102 37.2461C41.457 37.6367 42.1016 37.832 42.8438 37.832C43.4102 37.832 43.918 37.7311 44.3672 37.5293C44.8164 37.321 45.1875 37.028 45.4805 36.6504C45.7734 36.2728 45.9753 35.8268 46.0859 35.3125L46.1055 35.2246H48.9766L48.9668 35.332C48.8691 36.3216 48.5469 37.1908 48 37.9395C47.4596 38.6882 46.7467 39.2741 45.8613 39.6973C44.9824 40.1204 43.9766 40.332 42.8438 40.332ZM51.4766 40V25.9082H53.9668L61.3203 36.1621L59.1523 34.9316H60.5684V25.9082H63.4199V40H60.9492L53.5762 29.6973L55.7441 30.9375H54.3281V40H51.4766Z" fill="#D17E00"/>
<defs>
<linearGradient id="paint0_linear_11_4310" x1="0" y1="0" x2="150" y2="150" gradientUnits="userSpaceOnUse">
<stop stop-color="#FF9900" stop-opacity="0"/>
<stop offset="1" stop-color="#FF9900"/>
</linearGradient>
</defs>
</svg>
