<svg width="150" height="150" viewBox="0 0 150 150" fill="none" xmlns="http://www.w3.org/2000/svg">
<rect x="5" y="5" width="140" height="140" rx="26.25" fill="#A8B6FF"/>
<rect x="5" y="5" width="140" height="140" rx="26.25" fill="url(#paint0_linear_11_4315)" fill-opacity="0.4"/>
<rect x="5" y="5" width="140" height="140" rx="26.25" stroke="#0028FC" stroke-width="10"/>
<path d="M31.0449 40.2246C29.9577 40.2246 29.0234 40 28.2422 39.5508C27.4609 39.1016 26.8587 38.4635 26.4355 37.6367C26.0189 36.8034 25.8105 35.8171 25.8105 34.6777V34.668C25.8105 33.5352 26.0189 32.5521 26.4355 31.7188C26.8587 30.8789 27.4512 30.2311 28.2129 29.7754C28.9811 29.3197 29.8861 29.0918 30.9277 29.0918C31.9694 29.0918 32.8678 29.3132 33.623 29.7559C34.3783 30.1986 34.9609 30.8236 35.3711 31.6309C35.7812 32.4316 35.9863 33.3724 35.9863 34.4531V35.332H27.2266V33.5449H34.6289L33.2812 35.2344V34.1016C33.2812 33.4701 33.1836 32.9395 32.9883 32.5098C32.793 32.0801 32.5228 31.7578 32.1777 31.543C31.8327 31.3281 31.4323 31.2207 30.9766 31.2207C30.5208 31.2207 30.1172 31.3314 29.7656 31.5527C29.4141 31.7741 29.1374 32.0996 28.9355 32.5293C28.7337 32.959 28.6328 33.4831 28.6328 34.1016V35.2441C28.6328 35.8431 28.7305 36.3542 28.9258 36.7773C29.1276 37.2005 29.4141 37.526 29.7852 37.7539C30.1562 37.9818 30.5957 38.0957 31.1035 38.0957C31.5137 38.0957 31.862 38.0339 32.1484 37.9102C32.4414 37.7865 32.679 37.64 32.8613 37.4707C33.0436 37.2949 33.1673 37.1322 33.2324 36.9824L33.252 36.9238H35.8984L35.8789 37.0312C35.7943 37.3763 35.6413 37.7376 35.4199 38.1152C35.1986 38.4863 34.8926 38.8314 34.502 39.1504C34.1178 39.4694 33.6393 39.7298 33.0664 39.9316C32.4935 40.127 31.8197 40.2246 31.0449 40.2246ZM38.3789 40V25.9082H41.3281V40H38.3789ZM44.4922 40V25.9082H46.9824L54.3359 36.1621L52.168 34.9316H53.584V25.9082H56.4355V40H53.9648L46.5918 29.6973L48.7598 30.9375H47.3438V40H44.4922ZM63.3301 40L58.623 25.9082H61.9238L65.0684 36.7871H65.2148L68.3496 25.9082H71.6504L66.9531 40H63.3301ZM73.8281 40V25.9082H83.1641V28.3398H76.7773V31.7383H82.8027V34.0137H76.7773V37.5684H83.1641V40H73.8281ZM91.1035 40.332C89.9772 40.332 89.0007 40.166 88.1738 39.834C87.347 39.4954 86.696 39.0202 86.2207 38.4082C85.752 37.7897 85.4883 37.0605 85.4297 36.2207L85.4199 36.0645H88.252L88.2617 36.1621C88.3073 36.5137 88.457 36.8229 88.7109 37.0898C88.9648 37.3568 89.3034 37.5651 89.7266 37.7148C90.1497 37.8646 90.6315 37.9395 91.1719 37.9395C91.7057 37.9395 92.1712 37.8613 92.5684 37.7051C92.9655 37.5488 93.2747 37.334 93.4961 37.0605C93.7174 36.7806 93.8281 36.4616 93.8281 36.1035V36.0938C93.8281 35.6315 93.6393 35.2637 93.2617 34.9902C92.8906 34.7103 92.2689 34.4792 91.3965 34.2969L89.9023 33.9941C88.457 33.7012 87.3958 33.2161 86.7188 32.5391C86.0482 31.8555 85.7129 30.9798 85.7129 29.9121V29.9023C85.7194 29.0365 85.9505 28.278 86.4062 27.627C86.8685 26.9759 87.5033 26.4714 88.3105 26.1133C89.1178 25.7552 90.0423 25.5762 91.084 25.5762C92.1777 25.5762 93.1185 25.752 93.9062 26.1035C94.694 26.4551 95.306 26.9401 95.7422 27.5586C96.1849 28.1706 96.4355 28.877 96.4941 29.6777L96.5039 29.8047H93.7305L93.7109 29.6875C93.6589 29.3424 93.5189 29.043 93.291 28.7891C93.0632 28.5352 92.7604 28.3366 92.3828 28.1934C92.0117 28.0436 91.5788 27.9688 91.084 27.9688C90.5957 27.9688 90.1693 28.0404 89.8047 28.1836C89.4466 28.3268 89.1667 28.5286 88.9648 28.7891C88.763 29.043 88.6621 29.3457 88.6621 29.6973V29.707C88.6621 30.1562 88.8477 30.5241 89.2188 30.8105C89.5898 31.097 90.1888 31.3249 91.0156 31.4941L92.5 31.7969C93.4961 31.9987 94.3066 32.2721 94.9316 32.6172C95.5632 32.9622 96.0286 33.3952 96.3281 33.916C96.6276 34.4368 96.7773 35.0651 96.7773 35.8008V35.8105C96.7773 36.735 96.5495 37.5358 96.0938 38.2129C95.638 38.89 94.9837 39.4141 94.1309 39.7852C93.2845 40.1497 92.2754 40.332 91.1035 40.332ZM102.646 40V28.3398H98.4473V25.9082H109.785V28.3398H105.596V40H102.646Z" fill="#0028FC"/>
<defs>
<linearGradient id="paint0_linear_11_4315" x1="0" y1="0" x2="150" y2="150" gradientUnits="userSpaceOnUse">
<stop stop-color="#0028FC" stop-opacity="0"/>
<stop offset="1" stop-color="#0028FC"/>
</linearGradient>
</defs>
</svg>
