<svg width="150" height="150" viewBox="0 0 150 150" fill="none" xmlns="http://www.w3.org/2000/svg">
<rect x="5" y="5" width="140" height="140" rx="26.25" fill="#6AFFB7"/>
<rect x="5" y="5" width="140" height="140" rx="26.25" fill="url(#paint0_linear_11_4312)" fill-opacity="0.4"/>
<rect x="5" y="5" width="140" height="140" rx="26.25" stroke="#008042" stroke-width="10"/>
<path d="M31.0449 40.2246C29.9577 40.2246 29.0234 40 28.2422 39.5508C27.4609 39.1016 26.8587 38.4635 26.4355 37.6367C26.0189 36.8034 25.8105 35.8171 25.8105 34.6777V34.668C25.8105 33.5352 26.0189 32.5521 26.4355 31.7188C26.8587 30.8789 27.4512 30.2311 28.2129 29.7754C28.9811 29.3197 29.8861 29.0918 30.9277 29.0918C31.9694 29.0918 32.8678 29.3132 33.623 29.7559C34.3783 30.1986 34.9609 30.8236 35.3711 31.6309C35.7812 32.4316 35.9863 33.3724 35.9863 34.4531V35.332H27.2266V33.5449H34.6289L33.2812 35.2344V34.1016C33.2812 33.4701 33.1836 32.9395 32.9883 32.5098C32.793 32.0801 32.5228 31.7578 32.1777 31.543C31.8327 31.3281 31.4323 31.2207 30.9766 31.2207C30.5208 31.2207 30.1172 31.3314 29.7656 31.5527C29.4141 31.7741 29.1374 32.0996 28.9355 32.5293C28.7337 32.959 28.6328 33.4831 28.6328 34.1016V35.2441C28.6328 35.8431 28.7305 36.3542 28.9258 36.7773C29.1276 37.2005 29.4141 37.526 29.7852 37.7539C30.1562 37.9818 30.5957 38.0957 31.1035 38.0957C31.5137 38.0957 31.862 38.0339 32.1484 37.9102C32.4414 37.7865 32.679 37.64 32.8613 37.4707C33.0436 37.2949 33.1673 37.1322 33.2324 36.9824L33.252 36.9238H35.8984L35.8789 37.0312C35.7943 37.3763 35.6413 37.7376 35.4199 38.1152C35.1986 38.4863 34.8926 38.8314 34.502 39.1504C34.1178 39.4694 33.6393 39.7298 33.0664 39.9316C32.4935 40.127 31.8197 40.2246 31.0449 40.2246ZM43.4473 40.332C42.321 40.332 41.3444 40.166 40.5176 39.834C39.6908 39.4954 39.0397 39.0202 38.5645 38.4082C38.0957 37.7897 37.832 37.0605 37.7734 36.2207L37.7637 36.0645H40.5957L40.6055 36.1621C40.651 36.5137 40.8008 36.8229 41.0547 37.0898C41.3086 37.3568 41.6471 37.5651 42.0703 37.7148C42.4935 37.8646 42.9753 37.9395 43.5156 37.9395C44.0495 37.9395 44.515 37.8613 44.9121 37.7051C45.3092 37.5488 45.6185 37.334 45.8398 37.0605C46.0612 36.7806 46.1719 36.4616 46.1719 36.1035V36.0938C46.1719 35.6315 45.9831 35.2637 45.6055 34.9902C45.2344 34.7103 44.6126 34.4792 43.7402 34.2969L42.2461 33.9941C40.8008 33.7012 39.7396 33.2161 39.0625 32.5391C38.3919 31.8555 38.0566 30.9798 38.0566 29.9121V29.9023C38.0632 29.0365 38.2943 28.278 38.75 27.627C39.2122 26.9759 39.847 26.4714 40.6543 26.1133C41.4616 25.7552 42.3861 25.5762 43.4277 25.5762C44.5215 25.5762 45.4622 25.752 46.25 26.1035C47.0378 26.4551 47.6497 26.9401 48.0859 27.5586C48.5286 28.1706 48.7793 28.877 48.8379 29.6777L48.8477 29.8047H46.0742L46.0547 29.6875C46.0026 29.3424 45.8626 29.043 45.6348 28.7891C45.4069 28.5352 45.1042 28.3366 44.7266 28.1934C44.3555 28.0436 43.9225 27.9688 43.4277 27.9688C42.9395 27.9688 42.513 28.0404 42.1484 28.1836C41.7904 28.3268 41.5104 28.5286 41.3086 28.7891C41.1068 29.043 41.0059 29.3457 41.0059 29.6973V29.707C41.0059 30.1562 41.1914 30.5241 41.5625 30.8105C41.9336 31.097 42.5326 31.3249 43.3594 31.4941L44.8438 31.7969C45.8398 31.9987 46.6504 32.2721 47.2754 32.6172C47.9069 32.9622 48.3724 33.3952 48.6719 33.916C48.9714 34.4368 49.1211 35.0651 49.1211 35.8008V35.8105C49.1211 36.735 48.8932 37.5358 48.4375 38.2129C47.9818 38.89 47.3275 39.4141 46.4746 39.7852C45.6283 40.1497 44.6191 40.332 43.4473 40.332ZM50.6152 40L55.5176 25.9082H58.0469V28.7012H57.1777L53.7207 40H50.6152ZM53.2422 36.582L53.9648 34.375H60.498L61.2207 36.582H53.2422ZM60.791 40L57.3242 28.7012V25.9082H58.9844L63.8867 40H60.791ZM68.4082 40L63.7012 25.9082H67.002L70.1465 36.7871H70.293L73.4277 25.9082H76.7285L72.0312 40H68.4082ZM78.9062 40V25.9082H81.8555V40H78.9062ZM85.0195 40V25.9082H87.5098L94.8633 36.1621L92.6953 34.9316H94.1113V25.9082H96.9629V40H94.4922L87.1191 29.6973L89.2871 30.9375H87.8711V40H85.0195ZM106.318 40.332C105.27 40.332 104.329 40.1628 103.496 39.8242C102.663 39.4857 101.953 38.9974 101.367 38.3594C100.781 37.7148 100.332 36.9368 100.02 36.0254C99.707 35.1139 99.5508 34.0853 99.5508 32.9395V32.9297C99.5508 31.4193 99.8242 30.1139 100.371 29.0137C100.918 27.9134 101.693 27.0671 102.695 26.4746C103.698 25.8757 104.883 25.5762 106.25 25.5762C107.363 25.5762 108.356 25.778 109.229 26.1816C110.107 26.5788 110.824 27.1289 111.377 27.832C111.937 28.5352 112.288 29.349 112.432 30.2734L112.441 30.3809H109.512L109.482 30.293C109.281 29.5898 108.896 29.0462 108.33 28.6621C107.764 28.2715 107.07 28.0762 106.25 28.0762C105.488 28.0762 104.831 28.2715 104.277 28.6621C103.73 29.0462 103.307 29.5996 103.008 30.3223C102.708 31.0384 102.559 31.8978 102.559 32.9004V32.9199C102.559 33.6816 102.646 34.3652 102.822 34.9707C102.998 35.5762 103.252 36.0938 103.584 36.5234C103.923 36.9466 104.323 37.2721 104.785 37.5C105.254 37.7214 105.781 37.832 106.367 37.832C107.012 37.832 107.578 37.7116 108.066 37.4707C108.561 37.2233 108.949 36.8815 109.229 36.4453C109.515 36.0026 109.668 35.485 109.688 34.8926L109.697 34.6484H106.611V32.4805H112.568V34.2285C112.568 35.1725 112.425 36.0221 112.139 36.7773C111.852 37.526 111.436 38.1673 110.889 38.7012C110.348 39.2285 109.691 39.6322 108.916 39.9121C108.148 40.1921 107.282 40.332 106.318 40.332Z" fill="#008042"/>
<defs>
<linearGradient id="paint0_linear_11_4312" x1="0" y1="0" x2="150" y2="150" gradientUnits="userSpaceOnUse">
<stop stop-color="#008042" stop-opacity="0"/>
<stop offset="1" stop-color="#008042"/>
</linearGradient>
</defs>
</svg>
