<svg width="150" height="150" viewBox="0 0 150 150" fill="none" xmlns="http://www.w3.org/2000/svg">
<rect x="5" y="5" width="140" height="140" rx="26.25" fill="#EA6CFF"/>
<rect x="5" y="5" width="140" height="140" rx="26.25" fill="url(#paint0_linear_11_4309)" fill-opacity="0.4"/>
<rect x="5" y="5" width="140" height="140" rx="26.25" stroke="#6D0080" stroke-width="10"/>
<path d="M28.6504 40.332C27.5241 40.332 26.5475 40.166 25.7207 39.834C24.8939 39.4954 24.2428 39.0202 23.7676 38.4082C23.2988 37.7897 23.0352 37.0605 22.9766 36.2207L22.9668 36.0645H25.7988L25.8086 36.1621C25.8542 36.5137 26.0039 36.8229 26.2578 37.0898C26.5117 37.3568 26.8503 37.5651 27.2734 37.7148C27.6966 37.8646 28.1784 37.9395 28.7188 37.9395C29.2526 37.9395 29.7181 37.8613 30.1152 37.7051C30.5124 37.5488 30.8216 37.334 31.043 37.0605C31.2643 36.7806 31.375 36.4616 31.375 36.1035V36.0938C31.375 35.6315 31.1862 35.2637 30.8086 34.9902C30.4375 34.7103 29.8158 34.4792 28.9434 34.2969L27.4492 33.9941C26.0039 33.7012 24.9427 33.2161 24.2656 32.5391C23.5951 31.8555 23.2598 30.9798 23.2598 29.9121V29.9023C23.2663 29.0365 23.4974 28.278 23.9531 27.627C24.4154 26.9759 25.0501 26.4714 25.8574 26.1133C26.6647 25.7552 27.5892 25.5762 28.6309 25.5762C29.7246 25.5762 30.6654 25.752 31.4531 26.1035C32.2409 26.4551 32.8529 26.9401 33.2891 27.5586C33.7318 28.1706 33.9824 28.877 34.041 29.6777L34.0508 29.8047H31.2773L31.2578 29.6875C31.2057 29.3424 31.0658 29.043 30.8379 28.7891C30.61 28.5352 30.3073 28.3366 29.9297 28.1934C29.5586 28.0436 29.1257 27.9688 28.6309 27.9688C28.1426 27.9688 27.7161 28.0404 27.3516 28.1836C26.9935 28.3268 26.7135 28.5286 26.5117 28.7891C26.3099 29.043 26.209 29.3457 26.209 29.6973V29.707C26.209 30.1562 26.3945 30.5241 26.7656 30.8105C27.1367 31.097 27.7357 31.3249 28.5625 31.4941L30.0469 31.7969C31.043 31.9987 31.8535 32.2721 32.4785 32.6172C33.11 32.9622 33.5755 33.3952 33.875 33.916C34.1745 34.4368 34.3242 35.0651 34.3242 35.8008V35.8105C34.3242 36.735 34.0964 37.5358 33.6406 38.2129C33.1849 38.89 32.5306 39.4141 31.6777 39.7852C30.8314 40.1497 29.8223 40.332 28.6504 40.332ZM40.1934 40V28.3398H35.9941V25.9082H47.332V28.3398H43.1426V40H40.1934ZM49.7148 40V25.9082H55.2227C56.6224 25.9082 57.8171 26.1816 58.8066 26.7285C59.7962 27.2689 60.5514 28.0566 61.0723 29.0918C61.5931 30.127 61.8535 31.3835 61.8535 32.8613V32.8809C61.8535 34.3913 61.5931 35.6771 61.0723 36.7383C60.5579 37.7995 59.806 38.61 58.8164 39.1699C57.8268 39.7233 56.6289 40 55.2227 40H49.7148ZM52.6641 37.5684H54.7832C55.6556 37.5684 56.3945 37.3926 57 37.041C57.6055 36.6829 58.0645 36.1589 58.377 35.4688C58.6895 34.7721 58.8457 33.9225 58.8457 32.9199V32.9004C58.8457 31.9303 58.6862 31.1068 58.3672 30.4297C58.0482 29.7461 57.5827 29.2285 56.9707 28.877C56.3652 28.5189 55.6361 28.3398 54.7832 28.3398H52.6641V37.5684Z" fill="#6D0080"/>
<defs>
<linearGradient id="paint0_linear_11_4309" x1="0" y1="0" x2="150" y2="150" gradientUnits="userSpaceOnUse">
<stop stop-opacity="0"/>
<stop offset="1"/>
</linearGradient>
</defs>
</svg>
